<svg xmlns="http://www.w3.org/2000/svg" xmlns:xlink="http://www.w3.org/1999/xlink" viewBox="0 0 402.22 45.08"><defs><style>.cls-1{fill:#66e2ff;}.cls-2,.cls-4{fill:#fff;}.cls-2{stroke:#21dbf9;}.cls-2,.cls-3{stroke-miterlimit:10;}.cls-3{stroke:#fff;opacity:0.16;}</style><symbol id="graphic-bar-year1-horikawa" data-name="graphic-bar-year1-horikawa" viewBox="0 0 402.22 45.08"><rect class="cls-1" x="41.22" y="25.08" width="360" height="20"/><line class="cls-2" x1="40.72" y1="16.08" x2="40.72" y2="45.08"/><line class="cls-3" x1="73.72" y1="22.08" x2="73.72" y2="45.08"/><line class="cls-3" x1="106.72" y1="22.08" x2="106.72" y2="45.08"/><line class="cls-3" x1="138.72" y1="22.08" x2="138.72" y2="45.08"/><line class="cls-3" x1="171.72" y1="22.08" x2="171.72" y2="45.08"/><line class="cls-3" x1="204.72" y1="22.08" x2="204.72" y2="45.08"/><line class="cls-3" x1="237.72" y1="22.08" x2="237.72" y2="45.08"/><line class="cls-3" x1="270.72" y1="22.08" x2="270.72" y2="45.08"/><line class="cls-3" x1="303.72" y1="22.08" x2="303.72" y2="45.08"/><line class="cls-3" x1="335.72" y1="22.08" x2="335.72" y2="45.08"/><line class="cls-3" x1="368.72" y1="22.08" x2="368.72" y2="45.08"/><line class="cls-2" x1="401.72" y1="16.08" x2="401.72" y2="45.08"/><path class="cls-4" d="M44.68,1.13V6.84h1.08V7.91H44.68v2H43.36v-2H40.05v-1l2.82-5.78ZM43.36,6.84V4.92c0-.6,0-1.49.07-2.66h-.16q-.39,1-1,2.28l-1.08,2.3Z"/><path class="cls-4" d="M52.31,8.48c.35,0,.73,0,1.14,0a.31.31,0,0,0,.35-.35V6.43H50.22a5.66,5.66,0,0,1-.52,1.82,6.83,6.83,0,0,1-.91,1.28c-.11.11-.18.17-.21.17s-.13,0-.24-.16a2.1,2.1,0,0,0-.71-.47,5.35,5.35,0,0,0,1-1.2,4.26,4.26,0,0,0,.5-1.51A16.27,16.27,0,0,0,49.28,4V2.48l0-1.36c0-.06,0-.09,0-.11h.08L50.7,1h2.78l1.31,0a.16.16,0,0,1,.1,0,.22.22,0,0,1,0,.1l0,1.36V6.41l0,2a1.26,1.26,0,0,1-.32.93,1.15,1.15,0,0,1-.58.24,8.75,8.75,0,0,1-1.08.05.54.54,0,0,1-.3-.05.54.54,0,0,1-.07-.26A2.44,2.44,0,0,0,52.31,8.48Zm-2-3H53.8V4.19H50.37C50.35,4.76,50.34,5.18,50.33,5.46ZM53.8,2H50.37V3.22H53.8Z"/><path class="cls-4" d="M387.21,1.92a2.36,2.36,0,0,1,1-1.46,2.94,2.94,0,0,1,1.6-.42,2.75,2.75,0,0,1,2,.7,2,2,0,0,1,.62,1.49A1.93,1.93,0,0,1,392,3.59a2.12,2.12,0,0,1-1.17.6v.07a2.37,2.37,0,0,1,1.42.84,2.24,2.24,0,0,1,.41,1.36,2.45,2.45,0,0,1-.86,2,2.9,2.9,0,0,1-1.92.63,2.58,2.58,0,0,1-2.77-1.93l1.4-.41a1.72,1.72,0,0,0,.52,1,1.35,1.35,0,0,0,.84.25,1.25,1.25,0,0,0,1-.44,1.59,1.59,0,0,0,.32-1c0-1-.57-1.58-1.69-1.58h-.66V3.73h.6c1.06,0,1.6-.46,1.6-1.37a1.22,1.22,0,0,0-.37-.95,1.24,1.24,0,0,0-.83-.27,1.07,1.07,0,0,0-.83.34,1.46,1.46,0,0,0-.38.86Z"/><path class="cls-4" d="M399.08,7.48c.35,0,.73,0,1.14,0a.31.31,0,0,0,.35-.35V5.43H397a5.66,5.66,0,0,1-.53,1.82,6.83,6.83,0,0,1-.91,1.28c-.1.11-.17.17-.21.17s-.13,0-.23-.16a2.25,2.25,0,0,0-.72-.47,5.35,5.35,0,0,0,1-1.2,4.26,4.26,0,0,0,.5-1.51A16.27,16.27,0,0,0,396.05,3V1.48l0-1.36a.23.23,0,0,1,0-.11h.09l1.33,0h2.78l1.32,0a.14.14,0,0,1,.09,0,.22.22,0,0,1,0,.1l0,1.36V5.41l0,2a1.26,1.26,0,0,1-.32.93,1.15,1.15,0,0,1-.58.24,8.75,8.75,0,0,1-1.08.05.54.54,0,0,1-.3-.05.54.54,0,0,1-.07-.26A2.44,2.44,0,0,0,399.08,7.48Zm-2-3h3.47V3.19h-3.43C397.12,3.76,397.11,4.18,397.1,4.46ZM400.57,1h-3.43V2.22h3.43Z"/><path class="cls-4" d="M3.2,32v7.65H4.81v1.11H.13V39.63H1.84v-6.2a6.49,6.49,0,0,1-1.61.77L0,33a6.57,6.57,0,0,0,2-1Z"/><path class="cls-4" d="M8.29,38.34,7,38.36a.09.09,0,0,1-.11-.11v-.79c0-.07,0-.1.11-.1l1.25,0h.24V36l0-.9a.14.14,0,0,1,0-.09.19.19,0,0,1,.1,0L10,35h1.28V33.66h-2a9.37,9.37,0,0,1-1.17,1.43c-.1.11-.17.16-.21.16s-.1-.06-.2-.19a2,2,0,0,0-.56-.54A7.31,7.31,0,0,0,8.94,32.1a2.81,2.81,0,0,0,.26-.73c.42.08.74.16,1,.22s.18.1.18.17,0,.11-.12.19a1.19,1.19,0,0,0-.25.36l-.2.43H13.9l1.37,0a.09.09,0,0,1,.11.11v.74a.14.14,0,0,1,0,.09.17.17,0,0,1-.09,0l-1.37,0H12.36V35h1.07l1.37,0c.07,0,.1,0,.1.11v.75c0,.07,0,.11-.1.11l-1.37,0H12.36v1.46h2.12l1.25,0c.07,0,.11,0,.11.1v.79a.09.09,0,0,1-.11.11l-1.25,0H12.36v.49l0,1.63a.22.22,0,0,1,0,.1h-1a.16.16,0,0,1-.1,0,.14.14,0,0,1,0-.09l0-1.63v-.49Zm1.3-1h1.69V35.92H9.59Z"/><path class="cls-4" d="M20.1,36.07a3.29,3.29,0,0,0,.29.72,1.05,1.05,0,0,1,.1.28s-.06.13-.16.24c-.66.56-1.32,1.07-2,1.55a2,2,0,0,0-.3.24.2.2,0,0,1-.15.09c-.06,0-.11,0-.17-.14a10.21,10.21,0,0,1-.56-.89,4.68,4.68,0,0,0,.74-.39A17.15,17.15,0,0,0,20.1,36.07Zm-1.59-4a10.3,10.3,0,0,1,1.38,1.45.18.18,0,0,1,0,.08s0,.06-.07.11l-.58.54c-.07.06-.11.09-.13.09s0,0-.07-.07a8.83,8.83,0,0,0-1.38-1.55s-.05,0-.05-.07,0-.06.09-.11l.57-.46c.05,0,.08-.06.11-.06Zm8,7.44a2.42,2.42,0,0,0-.53.73c-.09.16-.16.23-.2.23a.9.9,0,0,1-.24-.08,5.68,5.68,0,0,1-2.8-3,5.45,5.45,0,0,1-3,3.11.66.66,0,0,1-.23.08c-.05,0-.12-.07-.2-.22a2.55,2.55,0,0,0-.53-.64,5.15,5.15,0,0,0,2.55-1.79,4.1,4.1,0,0,0,.73-2.39,6,6,0,0,0-.08-1l1.06.06c.1,0,.16.06.16.12a.56.56,0,0,1-.06.22,1.73,1.73,0,0,0-.06.58,4.75,4.75,0,0,0,1.28,2.71A6.16,6.16,0,0,0,26.56,39.52Zm-7-4.41a7,7,0,0,0,1.67-2.8,5.06,5.06,0,0,0,.18-.9q.41.06,1,.21c.12,0,.18.08.18.14a.33.33,0,0,1-.1.18,1.38,1.38,0,0,0-.2.45l-.23.6h3.07a.49.49,0,0,0,.24,0,.28.28,0,0,1,.15,0c.08,0,.22.1.44.29s.31.33.31.41a.24.24,0,0,1-.07.16,1,1,0,0,0-.18.3,12.08,12.08,0,0,1-1,1.84c-.09.14-.16.21-.2.21a.69.69,0,0,1-.24-.13,2.63,2.63,0,0,0-.67-.31A7.12,7.12,0,0,0,25,33.93H21.67a10.14,10.14,0,0,1-1,1.57c-.1.12-.17.18-.2.18s-.11,0-.23-.15A2.45,2.45,0,0,0,19.58,35.11Z"/><path class="cls-4" d="M188.36,33.56l-1.14,0a.14.14,0,0,1-.09,0,.22.22,0,0,1,0-.09v-.74s0-.07,0-.08l.08,0,1.14,0h2.06c0-.25,0-.65.05-1.22v-.21a7,7,0,0,0-.05-.83c.48,0,.82,0,1,.07s.16.07.16.13a.54.54,0,0,1-.05.19,1.63,1.63,0,0,0-.09.63c0,.56,0,1,0,1.24h2.32l1.15,0,.08,0s0,0,0,.08v.74c0,.05,0,.08,0,.09l-.08,0-1.15,0H191.6a6.36,6.36,0,0,0,1.45,2.5,5.69,5.69,0,0,0,2.15,1.42,2.86,2.86,0,0,0-.52.68c-.08.15-.14.23-.19.23a.83.83,0,0,1-.21-.1,6.72,6.72,0,0,1-3.2-3.63,5.69,5.69,0,0,1-.34.86,6,6,0,0,1-2.88,2.81.78.78,0,0,1-.22.07s-.12-.07-.2-.2a2.74,2.74,0,0,0-.52-.57,5.23,5.23,0,0,0,2.92-2.48,5.4,5.4,0,0,0,.48-1.59Z"/><path class="cls-4" d="M197.56,32.68a9.34,9.34,0,0,1,1.29.91.1.1,0,0,1,0,.08.22.22,0,0,1,0,.1l-.41.54c0,.06-.07.09-.1.09l-.08,0a6.77,6.77,0,0,0-1.27-1,.1.1,0,0,1-.06-.07.29.29,0,0,1,0-.1l.4-.47s.07-.08.1-.08Zm-.6,5.23a4.74,4.74,0,0,0,.4-.68,12.72,12.72,0,0,0,.81-2.19,3.43,3.43,0,0,0,.5.43c.14.09.21.16.21.23l0,.21a14.65,14.65,0,0,1-.76,2,2.09,2.09,0,0,0-.13.35c0,.08,0,.12-.09.12a.35.35,0,0,1-.17,0A5,5,0,0,1,197,37.91Zm1-7.47a7.27,7.27,0,0,1,1.23.92.1.1,0,0,1,.05.07.22.22,0,0,1-.06.12l-.39.53a.16.16,0,0,1-.1.07.18.18,0,0,1-.08,0,5.86,5.86,0,0,0-1.24-1s-.06,0-.06-.06,0-.05.06-.1l.41-.46c0-.05.07-.07.1-.07Zm3.39-.19c.35,0,.67,0,.95.06.09,0,.13,0,.13.09a.5.5,0,0,1,0,.16,2.39,2.39,0,0,0-.06.53h2.08c.05,0,.08,0,.08,0a.15.15,0,0,1,0,.08l0,.94v.35l.62,0a.14.14,0,0,1,.09,0s0,0,0,.08v.59s0,.07,0,.08,0,0-.08,0h-.62v.33l0,.94a.14.14,0,0,1,0,.09s0,0-.08,0l-1.38,0h-.7v.59h1l1.22,0c.05,0,.08,0,.09,0a.35.35,0,0,1,0,.07v.57a.13.13,0,0,1,0,.08h-2.34v.59h1.45l1.25,0c.06,0,.09,0,.09.1v.59a.08.08,0,0,1-.09.09h-2.7l0,1.19a.14.14,0,0,1,0,.09h-.91a.2.2,0,0,1,0-.09v-.16c0-.34,0-.68,0-1h-2.54s0,0,0-.08v-.59s0-.08,0-.09H199l1.24,0h1.21v-.59h-2.07a.17.17,0,0,1,0-.08v-.57s0-.07,0-.08h.08l1.21,0h.78v-.59h-.68l-1.08,0-.1,0a.78.78,0,0,1,0-.09v-.55s0-.08,0-.08a.14.14,0,0,1,.09,0l1.08,0h.68v-.64h-1l-1.24,0a.14.14,0,0,1-.09,0,.13.13,0,0,1,0-.08v-.59s0-.07,0-.08a.13.13,0,0,1,.08,0l1.24,0h1v-.62h-.56l-1.18,0-.1,0s0,0,0-.08v-.59a.13.13,0,0,1,0-.08h1.83A5.71,5.71,0,0,0,201.33,30.25Zm2.28,1.59h-1.3v.62h1.3Zm0,2v-.64h-1.3v.64Z"/><path class="cls-4" d="M207.06,36.49a4.25,4.25,0,0,0,.95-1.34,2.19,2.19,0,0,0,.21-.63,7.8,7.8,0,0,1,.78.27.16.16,0,0,1,.11.13.24.24,0,0,1-.09.16.68.68,0,0,0-.15.27,5.22,5.22,0,0,1-.86,1.4c-.09.12-.15.18-.19.18a.62.62,0,0,1-.22-.14A1.85,1.85,0,0,0,207.06,36.49Zm.58,1.35a3.25,3.25,0,0,0,1.71-1.42,5.68,5.68,0,0,0,.4-2.3h-1.4l-1.13,0a.09.09,0,0,1-.11-.11v-.67a.14.14,0,0,1,0-.09h3.4v-1h-1.24l-1.24,0a.14.14,0,0,1-.09,0s0,0,0-.08v-.67c0-.05,0-.08,0-.09h.09l1.24,0h1.24v-.09a6.24,6.24,0,0,0-.07-1.09q.58,0,1,.06c.09,0,.13,0,.13.09a.45.45,0,0,1,0,.18,2.8,2.8,0,0,0,0,.71v.14h1.36l1.25,0s.07,0,.07,0,0,0,0,.08v.67c0,.05,0,.08,0,.09h-.07l-1.25,0h-1.36v1H215a.2.2,0,0,1,0,.09V34s0,.09,0,.1h-.08l-1.14,0h-1.35v2.3l0,1a.87.87,0,0,1-.32.78,2.62,2.62,0,0,1-1.25.2h-.1c-.09,0-.15,0-.17-.05a.91.91,0,0,1-.08-.23,2.29,2.29,0,0,0-.26-.67,8,8,0,0,0,.91.05c.22,0,.33-.1.33-.31V34.12h-.84a6.19,6.19,0,0,1-.56,2.86,4.07,4.07,0,0,1-1.55,1.46.55.55,0,0,1-.22.09s-.11-.06-.2-.2A1.93,1.93,0,0,0,207.64,37.84Zm7.44-1.23a2.61,2.61,0,0,0-.59.42c-.1.09-.17.14-.2.14s-.08-.06-.17-.18a8,8,0,0,1-1.1-2.06.15.15,0,0,1,0-.06s0-.06.12-.09l.54-.21.09,0s.05,0,.06.07A6.22,6.22,0,0,0,215.08,36.61Z"/><path class="cls-4" d="M220.41,30.32c.38,0,.74,0,1.07.08.09,0,.14,0,.14.1a.59.59,0,0,1-.05.19,3.77,3.77,0,0,0-.07.95v1.82H225a.17.17,0,0,1,0,.08v.79s0,.07,0,.08a.14.14,0,0,1-.09,0l-1.12,0H221.5v2.42l0,1.57c0,.06,0,.09-.1.09h-.85a.14.14,0,0,1-.09,0,.1.1,0,0,1,0-.07l0-1.56V34.41h-2.2l-1.13,0c-.05,0-.08,0-.08,0a.13.13,0,0,1,0-.08v-.79a.13.13,0,0,1,0-.08h3.41V31.68A10,10,0,0,0,220.41,30.32Z"/><path class="cls-4" d="M228.18,35.92l-1.13,0a.14.14,0,0,1-.09,0s0,0,0-.08v-.68c0-.06,0-.09,0-.1h3.49a5.61,5.61,0,0,0-.06-.74l.61.06a11.09,11.09,0,0,0,.93-.79h-2.19l-1.18,0c-.05,0-.08,0-.09,0s0,0,0-.07v-.68c0-.05,0-.08,0-.08a.17.17,0,0,1,.09,0l1.18,0h2.65a.94.94,0,0,0,.28,0l.12,0c.06,0,.19.09.36.28s.28.33.28.41-.05.13-.15.18a2.41,2.41,0,0,0-.37.27A14.75,14.75,0,0,1,231.39,35v.08h3.4c.06,0,.09,0,.1,0a.55.55,0,0,1,0,.09v.68a.13.13,0,0,1,0,.08.14.14,0,0,1-.09,0l-1.12,0h-2.28v.46l0,1.25a.74.74,0,0,1-.27.64,2.93,2.93,0,0,1-1.38.19c-.14,0-.23,0-.26,0a.79.79,0,0,1-.09-.24,2.16,2.16,0,0,0-.29-.67c.35,0,.67.05,1,.05a.39.39,0,0,0,.28-.07.28.28,0,0,0,.07-.22V35.92Zm5.22-4.71h1.18c.06,0,.09,0,.09,0s0,0,0,.07l0,.51v.41l0,1s0,.07,0,.08a.14.14,0,0,1-.09,0h-.74a.14.14,0,0,1-.09,0s0,0,0-.08V32H228v1.2s0,.08,0,.09h-.82s-.08,0-.09,0,0,0,0-.08l0-1v-.33l0-.59s0-.06,0-.07h3.23v-.08a4.22,4.22,0,0,0-.06-.85c.29,0,.61,0,1,0,.09,0,.13,0,.13.09a.49.49,0,0,1-.06.17,2.85,2.85,0,0,0,0,.54v.09Z"/><path class="cls-4" d="M239.08,31.9v1.5a12.11,12.11,0,0,1-.26,2.81,6,6,0,0,1-.94,2.07c-.07.11-.12.17-.16.17s-.1-.05-.18-.16a2.42,2.42,0,0,0-.52-.5,4,4,0,0,0,1-1.95,6.56,6.56,0,0,0,.12-.75l-.63.34a1.06,1.06,0,0,0-.28.2.21.21,0,0,1-.14.07c-.06,0-.1,0-.12-.11-.08-.25-.15-.52-.22-.83a3.46,3.46,0,0,0,.7-.2l.75-.35c0-.17,0-.44,0-.81l0-2.24a.14.14,0,0,1,0-.09h.08l1.24,0H241v-.14a3,3,0,0,0-.07-.72l1,.06c.1,0,.15,0,.15.08a.38.38,0,0,1-.06.18,1,1,0,0,0,0,.39v.15h1.78l1.23,0c.05,0,.07,0,.08,0a.13.13,0,0,1,0,.08v.66a.14.14,0,0,1,0,.09h-.08l-1.23,0Zm-1.69-.11.11,0s0,0,.07.07a8.37,8.37,0,0,1,.52,1.34.25.25,0,0,1,0,.07s0,.07-.11.11l-.46.27a.27.27,0,0,1-.12,0s0,0,0-.08a12.06,12.06,0,0,0-.51-1.42.41.41,0,0,1,0-.07s0-.06.08-.08ZM242.08,36a3.29,3.29,0,0,1-.88,1.05.53.53,0,0,1-.19.13s-.09-.06-.19-.18a3.45,3.45,0,0,0-.33-.32v.72l0,1c0,.06,0,.1-.09.1h-.71c-.06,0-.09,0-.1,0s0,0,0-.07l0-1V35.22l0-1a.22.22,0,0,1,0-.1h.09l1.2,0h.74c0-.35,0-.61,0-.78h-.88l-1.23,0a.08.08,0,0,1-.09-.09v-.65a.08.08,0,0,1,.09-.09h5.29a.15.15,0,0,1,0,.08v.65a.13.13,0,0,1,0,.08h-.08l-1.23,0h-1l0,.78h.83l1.21,0a.14.14,0,0,1,.09,0s0,0,0,.09v2.17l0,1.16a.87.87,0,0,1-.22.67.79.79,0,0,1-.39.16,7.86,7.86,0,0,1-.81,0h-.11a.18.18,0,0,1-.16-.06.68.68,0,0,1-.06-.22,1.41,1.41,0,0,0-.21-.52c.22,0,.41,0,.58,0h.18a.27.27,0,0,0,.31-.31V34.88h-1.3a3.52,3.52,0,0,1-.09.42,10.64,10.64,0,0,1,1.32,1.09.14.14,0,0,1,.05.09s0,.05-.06.1l-.38.42c-.05,0-.08.08-.1.08a.15.15,0,0,1-.07-.06A10.62,10.62,0,0,0,242.08,36Zm-.48-1.13h-1.11v1.67a2.69,2.69,0,0,0,.87-.92A2.45,2.45,0,0,0,241.6,34.88Z"/><path class="cls-4" d="M248.16,35.93h.1c.47,0,.71-.21.71-.64a3.11,3.11,0,0,0-.8-1.81,11.81,11.81,0,0,0,.76-2.1H248v5.09l0,1.94a.08.08,0,0,1-.09.09h-.72c-.06,0-.1,0-.1-.09l0-1.93v-3.9l0-1.94a.14.14,0,0,1,0-.09h2a.62.62,0,0,0,.18,0,.24.24,0,0,1,.12,0c.06,0,.18.09.34.26a.69.69,0,0,1,.21.36.23.23,0,0,1-.07.16.64.64,0,0,0-.18.35,13.9,13.9,0,0,1-.69,1.78,3.52,3.52,0,0,1,.67,1.18,3,3,0,0,1,.11.88,1.13,1.13,0,0,1-1.18,1.25h-.13c-.07,0-.12,0-.13-.06a.48.48,0,0,1,0-.21A1.11,1.11,0,0,0,248.16,35.93Zm.74,1.9a2.69,2.69,0,0,0,1.63-1A3.48,3.48,0,0,0,251,35h-1a.13.13,0,0,1,0-.08v-.64a.22.22,0,0,1,0-.1H250l1.2,0h2.39l1.2,0a.14.14,0,0,1,.09,0,.55.55,0,0,1,0,.09V35a.13.13,0,0,1,0,.08h-1.53v2.18c0,.16,0,.26.07.29a.66.66,0,0,0,.35.05c.2,0,.32,0,.37-.11a2.28,2.28,0,0,0,.12-1,2,2,0,0,0,.6.23.59.59,0,0,1,.2.06.24.24,0,0,1,0,.14V37a2.81,2.81,0,0,1-.15.84.75.75,0,0,1-.27.34,2.11,2.11,0,0,1-1.08.2,1.84,1.84,0,0,1-.89-.13.87.87,0,0,1-.26-.74V35h-.56a4.37,4.37,0,0,1-.56,2.24,3.16,3.16,0,0,1-1.48,1.17.67.67,0,0,1-.21.07c-.05,0-.11-.06-.2-.18A2.29,2.29,0,0,0,248.9,37.83ZM253,33.5h-1.2l-1,0a.08.08,0,0,1-.1-.1V33H250s0,0,0-.08l0-.85v-.25l0-.45a.13.13,0,0,1,0-.08h.09l1.2,0h.55v-.1a5.06,5.06,0,0,0-.06-.87c.29,0,.6,0,.94.07q.15,0,.15.09a.33.33,0,0,1,0,.16,1.94,1.94,0,0,0-.05.54v.11h.76l1.21,0c.05,0,.08,0,.09,0s0,0,0,.07l0,.38V32l0,.85a.13.13,0,0,1,0,.08h-.76v.44s0,.07,0,.08a.14.14,0,0,1-.09,0ZM250.85,32v.66l1,0H253c.51,0,.82,0,.93,0V32Z"/></symbol></defs><title>1</title><g id="レイヤー_2" data-name="レイヤー 2"><g id="desktop"><g id="_1" data-name="1"><g id="maininterview"><use width="402.22" height="45.08" xlink:href="#graphic-bar-year1-horikawa"/></g></g></g></g></svg>