<svg xmlns="http://www.w3.org/2000/svg" xmlns:xlink="http://www.w3.org/1999/xlink" viewBox="0 0 402.52 75.08"><defs><style>.cls-1{fill:#0f298f;}.cls-2{fill:#66e2ff;}.cls-3,.cls-5{fill:#fff;}.cls-3{stroke:#21dbf9;}.cls-3,.cls-4{stroke-miterlimit:10;}.cls-4{stroke:#fff;opacity:0.16;}</style><symbol id="graphic-bar-year2-kubota" data-name="graphic-bar-year2-kubota" viewBox="0 0 402.52 75.08"><rect class="cls-1" x="41.52" y="25.08" width="360" height="20"/><rect class="cls-1" x="41.52" y="55.08" width="98" height="20"/><rect class="cls-2" x="138.52" y="55.08" width="263" height="20"/><line class="cls-3" x1="41.02" y1="16.08" x2="41.02" y2="45.08"/><line class="cls-4" x1="74.02" y1="22.08" x2="74.02" y2="45.08"/><line class="cls-4" x1="107.02" y1="22.08" x2="107.02" y2="45.08"/><line class="cls-4" x1="139.02" y1="22.08" x2="139.02" y2="45.08"/><line class="cls-4" x1="172.02" y1="22.08" x2="172.02" y2="45.08"/><line class="cls-4" x1="205.02" y1="22.08" x2="205.02" y2="45.08"/><line class="cls-4" x1="238.02" y1="22.08" x2="238.02" y2="45.08"/><line class="cls-4" x1="271.02" y1="22.08" x2="271.02" y2="45.08"/><line class="cls-4" x1="304.02" y1="22.08" x2="304.02" y2="45.08"/><line class="cls-4" x1="336.02" y1="22.08" x2="336.02" y2="45.08"/><line class="cls-4" x1="369.02" y1="22.08" x2="369.02" y2="45.08"/><line class="cls-3" x1="402.02" y1="16.08" x2="402.02" y2="45.08"/><line class="cls-3" x1="41.02" y1="50.08" x2="41.02" y2="75.08"/><line class="cls-4" x1="74.02" y1="52.08" x2="74.02" y2="75.08"/><line class="cls-4" x1="107.02" y1="52.08" x2="107.02" y2="75.08"/><line class="cls-4" x1="139.02" y1="52.08" x2="139.02" y2="75.08"/><line class="cls-4" x1="172.02" y1="52.08" x2="172.02" y2="75.08"/><line class="cls-4" x1="205.02" y1="52.08" x2="205.02" y2="75.08"/><line class="cls-4" x1="238.02" y1="52.08" x2="238.02" y2="75.08"/><line class="cls-4" x1="271.02" y1="52.08" x2="271.02" y2="75.08"/><line class="cls-4" x1="304.02" y1="52.08" x2="304.02" y2="75.08"/><line class="cls-4" x1="336.02" y1="52.08" x2="336.02" y2="75.08"/><line class="cls-4" x1="369.02" y1="52.08" x2="369.02" y2="75.08"/><line class="cls-3" x1="402.02" y1="50.08" x2="402.02" y2="75.08"/><path class="cls-5" d="M45,1.13V6.84h1.09V7.91H45v2H43.67v-2H40.35v-1l2.83-5.78ZM43.67,6.84V4.92c0-.6,0-1.49.07-2.66h-.16c-.26.68-.58,1.44-1,2.28l-1.07,2.3Z"/><path class="cls-5" d="M52.61,8.48c.35,0,.73,0,1.14,0a.31.31,0,0,0,.35-.35V6.43H50.53A5.66,5.66,0,0,1,50,8.25a6.83,6.83,0,0,1-.91,1.28c-.1.11-.17.17-.21.17s-.13,0-.23-.16a2,2,0,0,0-.72-.47,5.72,5.72,0,0,0,1-1.2,4.26,4.26,0,0,0,.49-1.51A15,15,0,0,0,49.58,4V2.48l0-1.36a.23.23,0,0,1,0-.11h.09L51,1h2.78L55.1,1l.1,0a.25.25,0,0,1,0,.1l0,1.36V6.41l0,2a1.26,1.26,0,0,1-.32.93,1.11,1.11,0,0,1-.58.24,8.52,8.52,0,0,1-1.08.05.54.54,0,0,1-.3-.05.7.7,0,0,1-.07-.26A2.24,2.24,0,0,0,52.61,8.48Zm-2-3H54.1V4.19H50.67C50.66,4.76,50.64,5.18,50.63,5.46ZM54.1,2H50.67V3.22H54.1Z"/><path class="cls-5" d="M387.51,1.92a2.37,2.37,0,0,1,1-1.46A2.9,2.9,0,0,1,390.14,0a2.73,2.73,0,0,1,2,.7,2,2,0,0,1,.63,1.49,1.93,1.93,0,0,1-.5,1.36,2.06,2.06,0,0,1-1.17.6v.07a2.34,2.34,0,0,1,1.42.84,2.18,2.18,0,0,1,.42,1.36,2.43,2.43,0,0,1-.87,2,2.88,2.88,0,0,1-1.92.63,2.56,2.56,0,0,1-2.76-1.93l1.4-.41a1.66,1.66,0,0,0,.51,1,1.35,1.35,0,0,0,.84.25,1.23,1.23,0,0,0,1-.44,1.59,1.59,0,0,0,.32-1c0-1-.56-1.58-1.69-1.58h-.66V3.73h.6c1.07,0,1.6-.46,1.6-1.37a1.19,1.19,0,0,0-.37-.95,1.22,1.22,0,0,0-.83-.27,1.1,1.1,0,0,0-.83.34,1.46,1.46,0,0,0-.37.86Z"/><path class="cls-5" d="M399.38,7.48c.36,0,.74,0,1.14,0a.31.31,0,0,0,.35-.35V5.43H397.3a5.42,5.42,0,0,1-.53,1.82,6.4,6.4,0,0,1-.91,1.28c-.1.11-.17.17-.21.17s-.12,0-.23-.16a2,2,0,0,0-.72-.47,5.72,5.72,0,0,0,1-1.2,4.47,4.47,0,0,0,.5-1.51A16.53,16.53,0,0,0,396.35,3V1.48l0-1.36a.23.23,0,0,1,0-.11h.09l1.33,0h2.78l1.32,0,.1,0a.25.25,0,0,1,0,.1l0,1.36V5.41l0,2a1.22,1.22,0,0,1-.32.93,1.11,1.11,0,0,1-.58.24,8.52,8.52,0,0,1-1.08.05c-.17,0-.26,0-.29-.05a.51.51,0,0,1-.08-.26A2.24,2.24,0,0,0,399.38,7.48Zm-2-3h3.47V3.19h-3.43C397.43,3.76,397.42,4.18,397.4,4.46ZM400.87,1h-3.43V2.22h3.43Z"/><path class="cls-5" d="M4.08,28.45v8.72H5.92v1.27H.58V37.17H2.53V30.1A7.31,7.31,0,0,1,.69,31L.43,29.62a7.41,7.41,0,0,0,2.31-1.17Z"/><path class="cls-5" d="M9.53,35.73l-1.25,0s-.08,0-.09,0a.14.14,0,0,1,0-.09v-.79c0-.07,0-.1.11-.1l1.25,0h.24v-1.4l0-.9a.14.14,0,0,1,0-.09l.1,0,1.37,0h1.28V31.05h-2A8.32,8.32,0,0,1,9.3,32.48c-.09.11-.17.16-.21.16s-.1-.06-.2-.19a2,2,0,0,0-.56-.54,7.21,7.21,0,0,0,1.85-2.42,2.81,2.81,0,0,0,.26-.73c.43.08.75.16,1,.22s.18.1.18.17,0,.11-.12.19a1.19,1.19,0,0,0-.25.36l-.2.43h4.13l1.37,0a.09.09,0,0,1,.11.11V31a.09.09,0,0,1-.11.11l-1.37,0H13.6v1.33h1.07l1.37,0c.07,0,.1,0,.1.11v.75c0,.07,0,.11-.1.11l-1.37,0H13.6v1.46h2.12l1.25,0c.07,0,.11,0,.11.1v.79a.22.22,0,0,1,0,.1H17l-1.25,0H13.6v.49l0,1.63a.19.19,0,0,1,0,.1h-1c-.06,0-.09,0-.1,0a.14.14,0,0,1,0-.09l0-1.63v-.49Zm1.3-1h1.69V33.31H10.83Z"/><path class="cls-5" d="M21.34,33.46a3.87,3.87,0,0,0,.29.72.77.77,0,0,1,.1.28s-.06.13-.16.24c-.65.56-1.32,1.07-2,1.55a2,2,0,0,0-.3.24.2.2,0,0,1-.15.09c-.05,0-.11,0-.17-.14a8.89,8.89,0,0,1-.56-.89,4,4,0,0,0,.74-.39A17.15,17.15,0,0,0,21.34,33.46Zm-1.59-4a10.28,10.28,0,0,1,1.38,1.45.11.11,0,0,1,0,.19l-.58.55c-.07.05-.11.08-.13.08s0,0-.07-.07a9.2,9.2,0,0,0-1.38-1.55s-.05-.05-.05-.07,0-.06.09-.11l.57-.46c.05,0,.08-.06.11-.06Zm8.05,7.44a2.47,2.47,0,0,0-.53.74c-.09.15-.15.23-.2.23a.72.72,0,0,1-.24-.09,5.7,5.7,0,0,1-2.8-3,5.48,5.48,0,0,1-3,3.11.73.73,0,0,1-.23.07c-.05,0-.12-.07-.2-.22a2.55,2.55,0,0,0-.53-.64,5.09,5.09,0,0,0,2.55-1.79,4,4,0,0,0,.73-2.38,5.86,5.86,0,0,0-.08-1c.34,0,.69,0,1.06.05.1,0,.16.06.16.13a.66.66,0,0,1-.06.22,1.66,1.66,0,0,0-.06.57,4.82,4.82,0,0,0,1.28,2.72A6.15,6.15,0,0,0,27.8,36.91Zm-7-4.41a6.93,6.93,0,0,0,1.67-2.8,5.06,5.06,0,0,0,.18-.9q.41.06,1,.21c.12,0,.18.08.18.14a.33.33,0,0,1-.1.18,1.38,1.38,0,0,0-.2.45l-.23.6h3.07a.49.49,0,0,0,.24,0,.42.42,0,0,1,.15,0c.08,0,.22.1.44.3s.31.32.31.41a.23.23,0,0,1-.07.16.8.8,0,0,0-.18.29,12.2,12.2,0,0,1-1.05,1.85c-.09.14-.16.21-.2.21a.83.83,0,0,1-.24-.14,3,3,0,0,0-.67-.31,6.84,6.84,0,0,0,1.11-1.75H22.91a9.69,9.69,0,0,1-1,1.57c-.1.12-.17.18-.2.18a.64.64,0,0,1-.23-.15A2.55,2.55,0,0,0,20.82,32.5Z"/><path class="cls-5" d="M.09,61.09A3,3,0,0,1,1.2,59a3.05,3.05,0,0,1,2-.62,3,3,0,0,1,2.25.79A2.55,2.55,0,0,1,6.11,61a3,3,0,0,1-.49,1.67,9.41,9.41,0,0,1-1.51,1.69,10.59,10.59,0,0,0-2.42,2.76H6.15v1.3H0V67.28A13.28,13.28,0,0,1,2.84,63.6a7.34,7.34,0,0,0,1.32-1.54A2,2,0,0,0,4.42,61,1.37,1.37,0,0,0,4,60a1.25,1.25,0,0,0-.9-.32q-1.29,0-1.41,1.8Z"/><path class="cls-5" d="M9.53,65.73l-1.25,0s-.08,0-.09,0a.14.14,0,0,1,0-.09v-.79c0-.07,0-.1.11-.1l1.25,0h.24v-1.4l0-.9a.14.14,0,0,1,0-.09l.1,0,1.37,0h1.28V61.05h-2A8.32,8.32,0,0,1,9.3,62.48c-.09.11-.17.16-.21.16s-.1-.06-.2-.19a2,2,0,0,0-.56-.54,7.21,7.21,0,0,0,1.85-2.42,2.81,2.81,0,0,0,.26-.73c.43.08.75.16,1,.22s.18.1.18.17,0,.11-.12.19a1.19,1.19,0,0,0-.25.36l-.2.43h4.13l1.37,0a.09.09,0,0,1,.11.11V61a.09.09,0,0,1-.11.11l-1.37,0H13.6v1.33h1.07l1.37,0c.07,0,.1,0,.1.11v.75c0,.07,0,.11-.1.11l-1.37,0H13.6v1.46h2.12l1.25,0c.07,0,.11,0,.11.1v.79a.22.22,0,0,1,0,.1H17l-1.25,0H13.6v.49l0,1.63a.19.19,0,0,1,0,.1h-1c-.06,0-.09,0-.1,0a.14.14,0,0,1,0-.09l0-1.63v-.49Zm1.3-1h1.69V63.31H10.83Z"/><path class="cls-5" d="M21.34,63.46a3.87,3.87,0,0,0,.29.72.77.77,0,0,1,.1.28c0,.05-.06.13-.16.24-.65.56-1.32,1.07-2,1.55a2,2,0,0,0-.3.24.2.2,0,0,1-.15.09c-.05,0-.11,0-.17-.14a8.89,8.89,0,0,1-.56-.89,4,4,0,0,0,.74-.39A17.15,17.15,0,0,0,21.34,63.46Zm-1.59-4a10.28,10.28,0,0,1,1.38,1.45.11.11,0,0,1,0,.19l-.58.55c-.07.05-.11.08-.13.08s0,0-.07-.07a9.2,9.2,0,0,0-1.38-1.55s-.05,0-.05-.07,0-.06.09-.11l.57-.46c.05,0,.08-.06.11-.06Zm8.05,7.44a2.47,2.47,0,0,0-.53.74c-.09.15-.15.23-.2.23a.72.72,0,0,1-.24-.09,5.7,5.7,0,0,1-2.8-3,5.48,5.48,0,0,1-3,3.11.73.73,0,0,1-.23.07c-.05,0-.12-.07-.2-.22a2.55,2.55,0,0,0-.53-.64,5.09,5.09,0,0,0,2.55-1.79,4,4,0,0,0,.73-2.38,5.86,5.86,0,0,0-.08-1c.34,0,.69,0,1.06.05.1,0,.16.06.16.13a.66.66,0,0,1-.06.22,1.66,1.66,0,0,0-.06.57,4.82,4.82,0,0,0,1.28,2.72A6.15,6.15,0,0,0,27.8,66.91Zm-7-4.41a6.93,6.93,0,0,0,1.67-2.8,5.06,5.06,0,0,0,.18-.9q.41.06,1,.21c.12,0,.18.08.18.14a.33.33,0,0,1-.1.18,1.38,1.38,0,0,0-.2.45l-.23.6h3.07a.49.49,0,0,0,.24,0,.42.42,0,0,1,.15,0c.08,0,.22.1.44.3s.31.32.31.41a.23.23,0,0,1-.07.16.8.8,0,0,0-.18.29,12.2,12.2,0,0,1-1.05,1.85c-.09.14-.16.21-.2.21a.83.83,0,0,1-.24-.14,3,3,0,0,0-.67-.31,6.84,6.84,0,0,0,1.11-1.75H22.91a9.69,9.69,0,0,1-1,1.57c-.1.12-.17.18-.2.18a.64.64,0,0,1-.23-.15A2.55,2.55,0,0,0,20.82,62.5Z"/><path class="cls-5" d="M193.16,32.73a7.12,7.12,0,0,1,1.17.83.15.15,0,0,1,0,.08.28.28,0,0,1,0,.12l-.37.53c0,.06-.07.08-.1.08s0,0-.07,0a6.36,6.36,0,0,0-1.17-.92s-.06,0-.06-.07a.17.17,0,0,1,.06-.11l.36-.48a.12.12,0,0,1,.09-.06A.16.16,0,0,1,193.16,32.73Zm-.59,5.14a3.49,3.49,0,0,0,.43-.7,13.13,13.13,0,0,0,.77-2.07,2.79,2.79,0,0,0,.49.42c.13.11.19.19.19.25a1.29,1.29,0,0,1,0,.19,14.26,14.26,0,0,1-.76,1.95,1.27,1.27,0,0,0-.12.34c0,.08,0,.13-.11.13a.32.32,0,0,1-.17-.06A4.54,4.54,0,0,1,192.57,37.87Zm.9-7.42a6.62,6.62,0,0,1,1.18.89.21.21,0,0,1,.06.08.22.22,0,0,1-.05.11l-.38.53s-.07.07-.09.07,0,0-.07,0a5.53,5.53,0,0,0-1.18-1,.11.11,0,0,1-.06-.06.31.31,0,0,1,.05-.11l.37-.48s.08-.08.1-.08S193.44,30.43,193.47,30.45Zm6.72,5.62a7.49,7.49,0,0,1,.6,2,.13.13,0,0,1,0,.06s0,.07-.11.1l-.52.16-.11,0s-.05,0-.06-.07l-.1-.5-2,.28-.13,0s0,.07,0,.09-.05.09-.13.11l-.52.08-.07,0s-.06,0-.07-.1l-.09-.48q-1,.18-1.95.3a.82.82,0,0,0-.32.09l-.13.05c-.06,0-.11-.05-.13-.15a6,6,0,0,1-.17-.79h.54c.17-.22.44-.6.8-1.11a7.16,7.16,0,0,0-1.2-1.5s0,0,0-.08a.2.2,0,0,1,.07-.11l.37-.43s.07-.07.09-.07a.15.15,0,0,1,.08.05l.2.21a8.06,8.06,0,0,0,.56-1.1c.1-.26.15-.43.17-.5l-1.1,0a.16.16,0,0,1-.1,0s0,0,0-.08V32s0-.08,0-.09h.1l1.23,0h.32a4.52,4.52,0,0,0-.66-1.11s-.05-.06-.05-.08,0-.05.1-.08l.57-.26a.21.21,0,0,1,.11,0s0,0,.08.05a5.22,5.22,0,0,1,.69,1,.2.2,0,0,1,0,.07s0,.06-.08.09l-.65.32H198a8.44,8.44,0,0,0,.49-1,3.25,3.25,0,0,0,.14-.53,5.33,5.33,0,0,1,.9.23c.09,0,.13.08.13.12a.23.23,0,0,1-.08.14.78.78,0,0,0-.17.26l-.45.82h.46l1.24,0a.13.13,0,0,1,.08,0,.54.54,0,0,1,0,.08v.65c0,.07,0,.1-.09.1l-1.24,0h-.78a5.25,5.25,0,0,1,.77.33c.08,0,.12.09.12.14s0,.07-.08.11a.73.73,0,0,0-.16.22,14.36,14.36,0,0,1-.8,1.44c.18.25.31.44.38.56.21-.33.38-.62.5-.86a5.34,5.34,0,0,0,.25-.57,3.72,3.72,0,0,1,.73.41c.07.05.1.1.1.14s0,.08-.09.12a1.35,1.35,0,0,0-.28.34,24.08,24.08,0,0,1-1.47,2.18l1.15-.14a5.61,5.61,0,0,0-.3-.8.39.39,0,0,1,0-.06s0-.06.12-.08L200,36l.11,0S200.17,36,200.19,36.07Zm-3.7-1.39c.11-.22.21-.45.3-.68.14.09.3.19.48.32l.27-.28s.07-.07.09-.07,0,0,.07.05l.22.24a7.56,7.56,0,0,0,.48-1,2.52,2.52,0,0,0,.19-.57H196a6,6,0,0,1,.59.28c.07,0,.11.08.11.12a.17.17,0,0,1-.08.13.59.59,0,0,0-.15.22c-.35.68-.64,1.19-.85,1.51a5.47,5.47,0,0,1,.38.52C196.13,35.31,196.29,35,196.49,34.68Zm.75,1.63a7,7,0,0,1,.34,1c.27-.35.53-.7.77-1.05a12.87,12.87,0,0,0-1-1.39,1.65,1.65,0,0,0-.11.19,24.18,24.18,0,0,1-1.48,2.2l1-.11a5.43,5.43,0,0,0-.22-.64l0-.06s0-.07.12-.09l.48-.11a.18.18,0,0,1,.09,0S197.22,36.25,197.24,36.31Z"/><path class="cls-5" d="M202.86,30.92h1.37a1.83,1.83,0,0,0,0-.37,2.73,2.73,0,0,0,0-.32l.82.07c.11,0,.16.05.16.1a.24.24,0,0,1,0,.13.68.68,0,0,0-.08.29s0,.06,0,.1h1.61a.1.1,0,0,1,.11.11c0,.11,0,.28,0,.5a5.25,5.25,0,0,1-.22,1.34c-.14.32-.47.47-1,.47h-.38c-.11,0-.17,0-.19-.06a.62.62,0,0,1-.07-.24,1.62,1.62,0,0,0-.15-.47,3.32,3.32,0,0,0,.58,0c.21,0,.35,0,.41-.17a2.87,2.87,0,0,0,.12-.81H205a3,3,0,0,1-.6,1.23,3.62,3.62,0,0,1-.9.75.76.76,0,0,1-.22.11c-.05,0-.12-.07-.22-.21a2.09,2.09,0,0,0-.42-.42,3.27,3.27,0,0,0,1-.66,2,2,0,0,0,.47-.8h-.17l-1.06,0c-.05,0-.08,0-.09,0a.1.1,0,0,1,0-.07V31a.14.14,0,0,1,0-.09Zm2.25,6.21a8.18,8.18,0,0,1,.79.35c.09,0,.13.07.13.12s-.05.09-.14.11a2.29,2.29,0,0,0-.37.16,6.34,6.34,0,0,1-2,.63l-.19,0c-.08,0-.15-.07-.22-.2a2.13,2.13,0,0,0-.41-.54,7.37,7.37,0,0,0,2-.42A2.25,2.25,0,0,0,205.11,37.13Zm3.09-3.52,1.24,0a.14.14,0,0,1,.09,0s0,0,0,.08l0,.88v1.58l0,.88a.14.14,0,0,1,0,.09h-5.6a.2.2,0,0,1,0-.09V33.69s0-.08,0-.09H204l1.24,0Zm-3.41.63v.37h3.86v-.37Zm0,1.3h3.86v-.38h-3.86Zm3.86,1v-.41h-3.86v.41Zm.71-5.82.92,0a.14.14,0,0,1,.09,0s0,0,0,.08v2.35s0,.08,0,.09h-3.1a.2.2,0,0,1,0-.09l0-.71v-.91l0-.73a.13.13,0,0,1,0-.08.14.14,0,0,1,.09,0l.92,0Zm-1.06,6.49a7.16,7.16,0,0,0,2.44.59,3.27,3.27,0,0,0-.43.57c-.06.12-.14.18-.22.18l-.2,0a8,8,0,0,1-1.37-.36,5.83,5.83,0,0,1-1.09-.53.12.12,0,0,1-.05-.06s0,0,.1-.07l.6-.29a.31.31,0,0,1,.12,0Zm1.21-4.68V31.38h-1.39v1.11Z"/><path class="cls-5" d="M213.85,31.51v5.75h5.31l1.24,0,.08,0s0,0,0,.08v.72s0,.07,0,.08h-.08l-1.24,0h-5.31v.29s0,.08,0,.09h-.93a.14.14,0,0,1,0-.09l0-1.91V32.62l0-1.9a.14.14,0,0,1,0-.09H213l1.2,0h4.95l1.17,0a.14.14,0,0,1,.09,0,.13.13,0,0,1,0,.08v.71a.14.14,0,0,1,0,.09h-.09l-1.17,0Zm1.76,3.32-1.23,0a.14.14,0,0,1-.09,0,.13.13,0,0,1,0-.08v-.61s0-.08.11-.08h2.21a7.71,7.71,0,0,0,.08-.91h-1a5.72,5.72,0,0,1-.47.58c-.08.1-.15.15-.2.15s-.11-.06-.22-.16a2.35,2.35,0,0,0-.48-.32,5,5,0,0,0,1-1.26,3.13,3.13,0,0,0,.22-.58,6.92,6.92,0,0,1,.79.21c.08,0,.12.07.12.11a.17.17,0,0,1-.08.13.71.71,0,0,0-.16.25l-.06.12h2.21l1.14,0,.08,0a.13.13,0,0,1,0,.08v.6a.14.14,0,0,1,0,.09h-2a6.42,6.42,0,0,1-.08.91h2.61a.12.12,0,0,1,0,.07v.61s0,.08,0,.08a.14.14,0,0,1-.09,0l-1.24,0h-1a4.06,4.06,0,0,0,2.48,1.39,3.4,3.4,0,0,0-.38.63c0,.13-.1.19-.16.19l-.21,0a4.24,4.24,0,0,1-2.39-1.71A3.67,3.67,0,0,1,214.91,37l-.22.06c-.05,0-.11-.06-.17-.2a1.93,1.93,0,0,0-.43-.54,5.27,5.27,0,0,0,1.56-.66,2.12,2.12,0,0,0,.72-.83Z"/><path class="cls-5" d="M225.34,30.36a4.94,4.94,0,0,1,.56.56.24.24,0,0,1,.09.16c0,.07-.06.11-.17.11a.82.82,0,0,0-.3.08c-.21.08-.44.17-.69.24v1.24h.08l1,0a.14.14,0,0,1,.09,0,.13.13,0,0,1,0,.08v.64a.14.14,0,0,1,0,.09h-1.06a5.38,5.38,0,0,0,1.15,1.38,2.74,2.74,0,0,0-.32.69c0,.1-.07.14-.11.14s-.09,0-.15-.13a6,6,0,0,1-.69-1.12l0,3.91c0,.06,0,.09-.1.09H224a.08.08,0,0,1-.09-.09s0-.23,0-.6q0-1.68.06-3.12a7.46,7.46,0,0,1-1.06,2c-.06.09-.12.14-.16.14s-.07-.05-.11-.15a1.66,1.66,0,0,0-.37-.68,6.7,6.7,0,0,0,1.5-2.49h-1.3a.2.2,0,0,1,0-.09v-.64s0-.07,0-.08l.08,0,1,0h.37v-1l-.73.14-.19,0a.15.15,0,0,1-.13-.06.94.94,0,0,1-.09-.18,1.93,1.93,0,0,0-.31-.49,8.93,8.93,0,0,0,2.48-.59ZM227,35.63l1.6-.31V31.7a10.88,10.88,0,0,0-.07-1.36c.36,0,.67,0,1,.06.1,0,.14,0,.14.09a.46.46,0,0,1,0,.19,4.33,4.33,0,0,0-.06,1v3.45l.63-.15.16,0h.11s0,0,.06.1l.11.7a.11.11,0,0,1,0,.05s0,0-.1.06l-.31.05-.67.13v.84l0,1.56a.14.14,0,0,1,0,.09h-.85c-.05,0-.08,0-.08-.1V36.2l-1.45.28-1.15.23h0s-.05,0-.07-.1l-.12-.68a.15.15,0,0,1,0-.06s0-.05.09-.06l.35,0ZM226.79,33a8.16,8.16,0,0,1,1.27,1.17s0,.06,0,.08a.16.16,0,0,1-.07.11l-.44.46s-.07.07-.1.07a.1.1,0,0,1-.07,0,7.73,7.73,0,0,0-1.24-1.25s-.06-.05-.06-.07,0-.05.07-.1l.43-.41s.07-.06.09-.06A.15.15,0,0,1,226.79,33Zm.26-2.07a8.45,8.45,0,0,1,1.25,1.13.18.18,0,0,1,0,.08.12.12,0,0,1-.06.09l-.44.45-.1.08-.07,0a6.34,6.34,0,0,0-1.24-1.18s-.05-.05-.05-.07,0-.05.07-.1l.43-.4a.18.18,0,0,1,.1-.06Z"/><path class="cls-5" d="M233.36,33.56l-1.14,0a.14.14,0,0,1-.09,0,.22.22,0,0,1,0-.09v-.74s0-.07,0-.08a.17.17,0,0,1,.09,0l1.14,0h2.06c0-.25,0-.65,0-1.22v-.21a7.1,7.1,0,0,0,0-.83c.48,0,.82,0,1,.07s.17.07.17.13a.41.41,0,0,1-.06.19,2,2,0,0,0-.08.63c0,.56,0,1,0,1.24h2.32l1.14,0a.14.14,0,0,1,.09,0s0,0,0,.08v.74c0,.05,0,.08,0,.09s0,0-.08,0l-1.14,0H236.6a6.47,6.47,0,0,0,1.44,2.5,5.81,5.81,0,0,0,2.16,1.42,3.19,3.19,0,0,0-.53.68c-.07.15-.14.23-.18.23a.83.83,0,0,1-.21-.1,6.68,6.68,0,0,1-3.2-3.63,4.85,4.85,0,0,1-.35.86,6,6,0,0,1-2.88,2.81.67.67,0,0,1-.21.07s-.12-.07-.21-.2a2.68,2.68,0,0,0-.51-.57,5.23,5.23,0,0,0,2.92-2.48,5.72,5.72,0,0,0,.48-1.59Z"/><path class="cls-5" d="M243.12,36.14h-1.21s0,0,0-.08v-.7a.14.14,0,0,1,0-.09H242l1.12,0h2.37c0-.34,0-.59-.05-.77l.52.06a6.66,6.66,0,0,0,.82-.65h-1.94l-1.17,0a.08.08,0,0,1-.09-.09v-.63s0-.08,0-.09h.08l1.17,0h2.44a.78.78,0,0,0,.21,0l.12,0s.18.1.39.29.25.31.25.39a.14.14,0,0,1-.11.14,2.85,2.85,0,0,0-.43.3,11.92,11.92,0,0,1-1.26.93v.15h2.25l1.12,0a.14.14,0,0,1,.09,0s0,0,0,.08v.7s0,.07,0,.08h-3.46V37.5a.84.84,0,0,1-.28.74,1.34,1.34,0,0,1-.5.16,8.65,8.65,0,0,1-.88,0c-.15,0-.24,0-.26,0a.46.46,0,0,1-.09-.22,2.84,2.84,0,0,0-.27-.66c.36,0,.68,0,1,0a.39.39,0,0,0,.28-.07.31.31,0,0,0,.07-.24V36.14Zm0-5.56.55-.2.09,0a.15.15,0,0,1,.1.07,6.29,6.29,0,0,1,.61.94l0,.07s0,.05-.11.07l-.59.22h1.87a6,6,0,0,0-.51-1.13l0-.06s0-.05.11-.07l.59-.18.09,0s.06,0,.09.07a5.65,5.65,0,0,1,.5,1.05.18.18,0,0,1,0,.06s0,0-.11.07l-.59.21h1.39a8.8,8.8,0,0,0,.44-.91,3.52,3.52,0,0,0,.14-.48,5.79,5.79,0,0,1,.89.27c.08,0,.12.09.12.14a.21.21,0,0,1-.08.14.45.45,0,0,0-.18.2,7.32,7.32,0,0,1-.36.64h.23l1.18,0a.16.16,0,0,1,.1,0s0,0,0,.08v1.91s0,.08,0,.09a.14.14,0,0,1-.09,0h-.7q-.08,0-.09,0s0,0,0-.08V32.52H243v1.19a.13.13,0,0,1,0,.08l-.08,0h-.71a.16.16,0,0,1-.1,0s0,0,0-.08V31.8c0-.05,0-.08,0-.09h.09l1.18,0h.24a4.64,4.64,0,0,0-.57-1,.13.13,0,0,1,0-.07S243.08,30.6,243.14,30.58Z"/><path class="cls-5" d="M235.62,66.19l-1.14,0c-.06,0-.09,0-.09-.1v-.67a.08.08,0,0,1,.09-.09h1.41V62.75l0-1a.14.14,0,0,1,0-.09H236l1.24,0h3l1.23,0c.05,0,.08,0,.09,0a.1.1,0,0,1,0,.07v.66s0,.07,0,.08h-.08l-1.23,0h-3.37V63h3L241,63a.13.13,0,0,1,.08,0,.17.17,0,0,1,0,.09v.52q0,.08,0,.09H241l-1.17,0h-3v.5h3l1.16,0c.05,0,.08,0,.09,0a.14.14,0,0,1,0,.09v.52s0,.08,0,.08a.13.13,0,0,1-.08,0l-1.16,0h-3v.51h5.54a.17.17,0,0,1,0,.08v.67s0,.07,0,.08l-.09,0-1.13,0h-2.54a3.81,3.81,0,0,0,.94,1.13,6.16,6.16,0,0,0,.92-.73,1.39,1.39,0,0,0,.29-.37,7.21,7.21,0,0,1,.72.48c.06,0,.09.08.09.13s0,.08-.1.09a1,1,0,0,0-.32.19,9.44,9.44,0,0,1-.92.65,7.2,7.2,0,0,0,2.36.78,2,2,0,0,0-.39.62c-.08.17-.15.25-.21.25l-.19,0a5.77,5.77,0,0,1-4.09-3.19h-.88v1.93c.64-.15,1.2-.3,1.68-.44a4.45,4.45,0,0,0,0,.57.45.45,0,0,1-.05.27.55.55,0,0,1-.23.1c-1,.29-1.94.54-2.87.74a.76.76,0,0,0-.32.12.24.24,0,0,1-.13,0s-.08,0-.11-.12-.16-.5-.25-.87c.36,0,.69-.08,1-.13l.4-.09V66.19Z"/><path class="cls-5" d="M244.35,68.94a4,4,0,0,0,.44-.72,18.7,18.7,0,0,0,.79-2.14,3.94,3.94,0,0,0,.5.44c.13.1.2.17.2.23a.92.92,0,0,1,0,.2c-.24.71-.5,1.39-.77,2a1.6,1.6,0,0,0-.13.35c0,.08-.05.13-.11.13a.41.41,0,0,1-.17,0A6.26,6.26,0,0,1,244.35,68.94Zm.67-5.23a6.89,6.89,0,0,1,1.36.92s.06.06.06.08a.4.4,0,0,1-.06.11l-.4.57s0,.06-.07.06a.15.15,0,0,1-.08,0,8.35,8.35,0,0,0-1.36-1s-.07,0-.07-.07,0,0,.07-.1l.37-.49s.07-.07.09-.07Zm.39-2.26a8.83,8.83,0,0,1,1.34.93s.06,0,.06.08a.4.4,0,0,1-.06.11l-.41.56s-.06.07-.08.07l-.07,0a7.25,7.25,0,0,0-1.37-1l-.07-.06a.3.3,0,0,1,.07-.11l.41-.49a.18.18,0,0,1,.1-.06ZM248,67.34c.32.19.56.34.72.46s.09.09.09.13,0,.09-.12.13a1.41,1.41,0,0,0-.25.2,6.1,6.1,0,0,1-1.71,1.12l-.22.06c-.05,0-.12-.07-.2-.2a2,2,0,0,0-.45-.57,5,5,0,0,0,1.84-1A1.36,1.36,0,0,0,248,67.34Zm-.19-.23-1.26,0s-.07,0-.08,0a.13.13,0,0,1,0-.08v-.67s0-.08,0-.09,0,0,.07,0l.76,0V63.5c0-.67,0-1.2-.05-1.58a9.25,9.25,0,0,1,.89.26,10.65,10.65,0,0,0,2.41-.55,4,4,0,0,0,.58-.26,5,5,0,0,1,.71.58.21.21,0,0,1,.08.16c0,.06,0,.1-.14.11a1.84,1.84,0,0,0-.38.08,17.88,17.88,0,0,1-3.13.7v.83h2.76l1.11,0a.14.14,0,0,1,.09,0,.13.13,0,0,1,0,.08v.67a.14.14,0,0,1,0,.09H251v1.59h.2l1.25,0a.13.13,0,0,1,.08,0,.78.78,0,0,1,0,.09V67a.55.55,0,0,1,0,.09l-.08,0-1.25,0Zm.47-.85H250V64.67H248.3Zm4.36,2.41a2.19,2.19,0,0,0-.42.59c-.07.14-.14.21-.2.21a.76.76,0,0,1-.21-.07A6.3,6.3,0,0,1,249.78,68a.12.12,0,0,1-.05-.06s0-.06.09-.11l.46-.39a.2.2,0,0,1,.11-.07.21.21,0,0,1,.09.05A6.24,6.24,0,0,0,252.66,68.67Z"/><path class="cls-5" d="M254.34,67.49a4.09,4.09,0,0,0,.95-1.34,2.65,2.65,0,0,0,.22-.63,7.56,7.56,0,0,1,.77.27.16.16,0,0,1,.11.13.24.24,0,0,1-.09.16,1.08,1.08,0,0,0-.15.27,5.22,5.22,0,0,1-.86,1.4c-.09.12-.15.18-.19.18a.62.62,0,0,1-.21-.14A2.06,2.06,0,0,0,254.34,67.49Zm.59,1.35a3.26,3.26,0,0,0,1.7-1.42,5.52,5.52,0,0,0,.4-2.3h-1.4l-1.13,0a.09.09,0,0,1-.11-.11v-.67a.14.14,0,0,1,0-.09h3.4v-1h-1.24l-1.24,0a.14.14,0,0,1-.09,0s0,0,0-.08v-.67a.14.14,0,0,1,0-.09h.08l1.24,0h1.24v-.09a6.24,6.24,0,0,0-.07-1.09c.39,0,.72,0,1,.06q.12,0,.12.09a.45.45,0,0,1,0,.18,3.39,3.39,0,0,0-.05.71v.14h1.36l1.25,0a.13.13,0,0,1,.08,0,.38.38,0,0,1,0,.08v.67a.14.14,0,0,1,0,.09h-.07l-1.25,0h-1.36v1h3.52a.2.2,0,0,1,0,.09V65a.22.22,0,0,1,0,.1h-.09l-1.14,0h-1.35v2.3l0,1a.87.87,0,0,1-.32.78,2.57,2.57,0,0,1-1.24.2h-.11c-.09,0-.14,0-.17,0a.91.91,0,0,1-.08-.23,2.29,2.29,0,0,0-.26-.67,8.1,8.1,0,0,0,.91,0c.22,0,.33-.1.33-.31V65.12H258A6.2,6.2,0,0,1,257.4,68a4.11,4.11,0,0,1-1.56,1.46.5.5,0,0,1-.22.09s-.1-.06-.2-.2A1.9,1.9,0,0,0,254.93,68.84Zm7.43-1.23a2.61,2.61,0,0,0-.59.42.64.64,0,0,1-.19.14s-.08-.06-.18-.18a8,8,0,0,1-1.09-2.06.08.08,0,0,1,0-.06s0-.06.12-.09l.54-.21.09,0s0,0,.07.07A6,6,0,0,0,262.36,67.61Z"/><path class="cls-5" d="M267.69,61.32c.38,0,.74,0,1.07.08.1,0,.14,0,.14.1a.41.41,0,0,1,0,.19,4,4,0,0,0-.06,1v1.82h3.49a.15.15,0,0,1,0,.08v.79a.08.08,0,0,1-.1.1l-1.13,0h-2.28v4a.08.08,0,0,1-.09.09h-.86a.14.14,0,0,1-.09,0,.1.1,0,0,1,0-.07l0-1.56V65.41h-2.2l-1.13,0c-.05,0-.07,0-.08,0a.13.13,0,0,1,0-.08v-.79a.13.13,0,0,1,0-.08h3.41V62.68A10,10,0,0,0,267.69,61.32Z"/><path class="cls-5" d="M275.46,66.92l-1.13,0a.14.14,0,0,1-.09,0s0,0,0-.08v-.68c0-.06,0-.09,0-.1h3.48a5.61,5.61,0,0,0-.06-.74l.61.06a11.09,11.09,0,0,0,.93-.79H277l-1.19,0s-.08,0-.09,0,0,0,0-.07v-.68c0-.05,0-.08,0-.08l.08,0,1.19,0h2.64a.94.94,0,0,0,.28,0l.12,0c.06,0,.19.09.37.28s.27.33.27.41,0,.13-.15.18a2.48,2.48,0,0,0-.36.27A14.67,14.67,0,0,1,278.67,66v.08h3.41c.05,0,.08,0,.09,0s0,0,0,.09v.68s0,.07,0,.08a.14.14,0,0,1-.09,0l-1.13,0h-2.28v.46l0,1.25a.74.74,0,0,1-.27.64,2.88,2.88,0,0,1-1.38.19c-.14,0-.23,0-.26,0a1.22,1.22,0,0,1-.09-.24,2.39,2.39,0,0,0-.28-.67c.34,0,.66,0,1,0,.14,0,.24,0,.28-.07a.28.28,0,0,0,.07-.22V66.92Zm5.22-4.71H282s0,0,0,.07v2c0,.05,0,.07,0,.08a.13.13,0,0,1-.08,0h-.75a.14.14,0,0,1-.09,0,.54.54,0,0,1,0-.08V63h-5.69v1.2q0,.08,0,.09h-.81c-.05,0-.08,0-.1,0a.54.54,0,0,1,0-.08l0-1v-.33l0-.59a.1.1,0,0,1,0-.07h3.23v-.08a4.22,4.22,0,0,0-.06-.85c.29,0,.62,0,1,0,.09,0,.13,0,.13.09a.41.41,0,0,1-.05.17,2,2,0,0,0-.05.54v.09Z"/><path class="cls-5" d="M286.36,62.9v1.5a11.58,11.58,0,0,1-.26,2.81,6,6,0,0,1-.94,2.07c-.07.11-.12.17-.16.17s-.1,0-.18-.16a2.42,2.42,0,0,0-.52-.5,4,4,0,0,0,1-2,6.56,6.56,0,0,0,.12-.75l-.63.34a1.06,1.06,0,0,0-.28.2.21.21,0,0,1-.14.07s-.09,0-.12-.11c-.08-.25-.15-.52-.22-.83a3.29,3.29,0,0,0,.7-.2l.75-.35c0-.17,0-.44,0-.81V62.16s0-.08,0-.09h.08l1.25,0h1.48v-.14a3.73,3.73,0,0,0-.06-.72l1,.06c.1,0,.15,0,.15.08a.38.38,0,0,1-.06.18,1.09,1.09,0,0,0,0,.39v.15H291l1.22,0a.14.14,0,0,1,.09,0,.54.54,0,0,1,0,.08v.66a.14.14,0,0,1,0,.09h-.08l-1.22,0Zm-1.68-.11.1,0s0,0,.07.07a8.37,8.37,0,0,1,.52,1.34.25.25,0,0,1,0,.07s0,.07-.11.11l-.46.27a.24.24,0,0,1-.11,0s0,0-.06-.08a9.29,9.29,0,0,0-.51-1.42.41.41,0,0,1,0-.07s0-.06.08-.08ZM289.37,67a3.46,3.46,0,0,1-.89,1c-.1.09-.16.13-.19.13s-.09-.06-.19-.18a2,2,0,0,0-.33-.32v.72l0,1c0,.06,0,.1-.09.1H287c-.05,0-.09,0-.09,0s0,0,0-.07l0-1V66.22l0-1a.22.22,0,0,1,0-.1H287l1.21,0h.73c0-.35,0-.61,0-.78h-.88l-1.23,0a.08.08,0,0,1-.09-.09v-.65a.08.08,0,0,1,.09-.09h5.29a.15.15,0,0,1,0,.08v.65a.13.13,0,0,1,0,.08h-.08l-1.23,0h-1.05l0,.78h.84l1.21,0,.08,0a.14.14,0,0,1,0,.09l0,1.08v1.09l0,1.16a.91.91,0,0,1-.22.67.88.88,0,0,1-.4.16,7.73,7.73,0,0,1-.81,0h-.1a.19.19,0,0,1-.17-.06,1.13,1.13,0,0,1-.06-.22,1.41,1.41,0,0,0-.21-.52c.22,0,.41,0,.58,0h.19c.2,0,.3-.1.3-.31V65.88h-1.3a3.52,3.52,0,0,1-.09.42,10.64,10.64,0,0,1,1.32,1.09s.06.07.06.09,0,0-.07.1l-.38.42-.09.08s0,0-.08-.06A10.63,10.63,0,0,0,289.37,67Zm-.49-1.13h-1.11v1.67a2.69,2.69,0,0,0,.87-.92A2.21,2.21,0,0,0,288.88,65.88Z"/><path class="cls-5" d="M295.44,66.93h.1c.48,0,.71-.21.71-.64a3,3,0,0,0-.8-1.81,12.78,12.78,0,0,0,.77-2.1h-.9v7a.08.08,0,0,1-.09.09h-.71c-.07,0-.11,0-.11-.09l0-1.93v-3.9l0-1.94a.14.14,0,0,1,0-.09h2l.18,0a.27.27,0,0,1,.12,0c.07,0,.18.09.34.26s.22.28.22.36a.24.24,0,0,1-.08.16.58.58,0,0,0-.17.35,12.71,12.71,0,0,1-.7,1.78A3.52,3.52,0,0,1,297,65.6a3,3,0,0,1,.11.88,1.12,1.12,0,0,1-1.17,1.25h-.14c-.07,0-.11,0-.13-.06a.48.48,0,0,1,0-.21A1.11,1.11,0,0,0,295.44,66.93Zm.74,1.9a2.66,2.66,0,0,0,1.63-1,3.38,3.38,0,0,0,.43-1.78h-1a.13.13,0,0,1,0-.08v-.64a.13.13,0,0,1,0-.1s0,0,.08,0l1.19,0h2.4l1.2,0a.13.13,0,0,1,.08,0s0,0,0,.09V66s0,.07,0,.08h-1.54v2.18c0,.16,0,.26.08.29s.16,0,.35,0,.31,0,.37-.11a2.58,2.58,0,0,0,.11-1,1.93,1.93,0,0,0,.61.23.51.51,0,0,1,.19.06.23.23,0,0,1,0,.14s0,0,0,.1a2.88,2.88,0,0,1-.14.84.84.84,0,0,1-.28.34,2.1,2.1,0,0,1-1.07.2,1.86,1.86,0,0,1-.9-.13.87.87,0,0,1-.26-.74V66h-.56a4.37,4.37,0,0,1-.56,2.24,3.11,3.11,0,0,1-1.48,1.17.67.67,0,0,1-.21.07s-.11-.06-.2-.18A2.29,2.29,0,0,0,296.18,68.83Zm4.1-4.33h-1.2l-1,0a.14.14,0,0,1-.09,0,.13.13,0,0,1,0-.08V64h-.76a.54.54,0,0,1,0-.08l0-.85v-.25l0-.45a.13.13,0,0,1,0-.08h.09l1.2,0h.55v-.1a5.06,5.06,0,0,0-.06-.87c.29,0,.6,0,.94.07q.15,0,.15.09a.33.33,0,0,1-.05.16,1.94,1.94,0,0,0-.05.54v.11h.77l1.2,0c.05,0,.08,0,.1,0s0,0,0,.07l0,.38V63l0,.85a.13.13,0,0,1,0,.08h-.75v.44s0,.07,0,.08l-.08,0ZM298.13,63v.66l.95,0h1.2c.51,0,.82,0,.93,0V63Z"/></symbol></defs><title>2</title><g id="レイヤー_2" data-name="レイヤー 2"><g id="desktop"><g id="_2" data-name="2"><g id="maininterviewのコピー"><use width="402.52" height="75.08" xlink:href="#graphic-bar-year2-kubota"/></g></g></g></g></svg>