<svg xmlns="http://www.w3.org/2000/svg" xmlns:xlink="http://www.w3.org/1999/xlink" viewBox="0 0 402.64 105.08"><defs><style>.cls-1{fill:#0f298f;}.cls-2{fill:#66e2ff;}.cls-3,.cls-6{fill:#fff;}.cls-3{stroke:#21dbf9;}.cls-3,.cls-4{stroke-miterlimit:10;}.cls-4{stroke:#fff;opacity:0.16;}.cls-5{fill:#33cfff;}</style><symbol id="graphic-bar-year3-baba" data-name="graphic-bar-year3-baba" viewBox="0 0 402.64 105.08"><rect class="cls-1" x="41.64" y="25.08" width="131" height="20"/><rect class="cls-2" x="172.64" y="25.08" width="229" height="20"/><rect class="cls-2" x="41.64" y="55.08" width="360" height="20"/><line class="cls-3" x1="41.14" y1="16.08" x2="41.14" y2="45.08"/><line class="cls-4" x1="74.14" y1="22.08" x2="74.14" y2="45.08"/><line class="cls-4" x1="107.14" y1="22.08" x2="107.14" y2="45.08"/><line class="cls-4" x1="139.14" y1="22.08" x2="139.14" y2="45.08"/><line class="cls-4" x1="172.14" y1="22.08" x2="172.14" y2="45.08"/><line class="cls-4" x1="205.14" y1="22.08" x2="205.14" y2="45.08"/><line class="cls-4" x1="238.14" y1="22.08" x2="238.14" y2="45.08"/><line class="cls-4" x1="271.14" y1="22.08" x2="271.14" y2="45.08"/><line class="cls-4" x1="304.14" y1="22.08" x2="304.14" y2="45.08"/><line class="cls-4" x1="336.14" y1="22.08" x2="336.14" y2="45.08"/><line class="cls-4" x1="369.14" y1="22.08" x2="369.14" y2="45.08"/><line class="cls-3" x1="402.14" y1="16.08" x2="402.14" y2="45.08"/><line class="cls-3" x1="41.14" y1="50.08" x2="41.14" y2="75.08"/><line class="cls-4" x1="74.14" y1="52.08" x2="74.14" y2="75.08"/><line class="cls-4" x1="107.14" y1="52.08" x2="107.14" y2="75.08"/><line class="cls-4" x1="139.14" y1="52.08" x2="139.14" y2="75.08"/><line class="cls-4" x1="172.14" y1="52.08" x2="172.14" y2="75.08"/><line class="cls-4" x1="205.14" y1="52.08" x2="205.14" y2="75.08"/><line class="cls-4" x1="238.14" y1="52.08" x2="238.14" y2="75.08"/><line class="cls-4" x1="271.14" y1="52.08" x2="271.14" y2="75.08"/><line class="cls-4" x1="304.14" y1="52.08" x2="304.14" y2="75.08"/><line class="cls-4" x1="336.14" y1="52.08" x2="336.14" y2="75.08"/><line class="cls-4" x1="369.14" y1="52.08" x2="369.14" y2="75.08"/><line class="cls-3" x1="402.14" y1="50.08" x2="402.14" y2="75.08"/><rect class="cls-2" x="41.64" y="85.08" width="131" height="20"/><rect class="cls-5" x="172.64" y="85.08" width="229" height="20"/><line class="cls-3" x1="41.14" y1="80.08" x2="41.14" y2="105.08"/><line class="cls-4" x1="74.14" y1="82.08" x2="74.14" y2="105.08"/><line class="cls-4" x1="107.14" y1="82.08" x2="107.14" y2="105.08"/><line class="cls-4" x1="139.14" y1="82.08" x2="139.14" y2="105.08"/><line class="cls-4" x1="172.14" y1="82.08" x2="172.14" y2="105.08"/><line class="cls-4" x1="205.14" y1="82.08" x2="205.14" y2="105.08"/><line class="cls-4" x1="238.14" y1="82.08" x2="238.14" y2="105.08"/><line class="cls-4" x1="271.14" y1="82.08" x2="271.14" y2="105.08"/><line class="cls-4" x1="304.14" y1="82.08" x2="304.14" y2="105.08"/><line class="cls-4" x1="336.14" y1="82.08" x2="336.14" y2="105.08"/><line class="cls-4" x1="369.14" y1="82.08" x2="369.14" y2="105.08"/><line class="cls-3" x1="402.14" y1="80.08" x2="402.14" y2="105.08"/><path class="cls-6" d="M45.1,1.13V6.84h1.09V7.91H45.1v2H43.79v-2H40.47v-1L43.3,1.13ZM43.79,6.84V4.92c0-.6,0-1.49.07-2.66H43.7c-.26.68-.58,1.44-1,2.28l-1.07,2.3Z"/><path class="cls-6" d="M52.73,8.48c.35,0,.73,0,1.14,0a.31.31,0,0,0,.35-.35V6.43H50.65a5.66,5.66,0,0,1-.53,1.82,6.4,6.4,0,0,1-.91,1.28c-.1.11-.17.17-.21.17s-.12,0-.23-.16a2,2,0,0,0-.72-.47,5.72,5.72,0,0,0,1-1.2,4.26,4.26,0,0,0,.49-1.51A15,15,0,0,0,49.7,4V2.48l0-1.36a.23.23,0,0,1,0-.11h.09l1.33,0H53.9l1.32,0a.19.19,0,0,1,.1,0,.25.25,0,0,1,0,.1l0,1.36V6.41l0,2a1.22,1.22,0,0,1-.32.93,1.11,1.11,0,0,1-.58.24,8.52,8.52,0,0,1-1.08.05c-.17,0-.27,0-.29-.05A.51.51,0,0,1,53,9.32,2.24,2.24,0,0,0,52.73,8.48Zm-2-3h3.47V4.19H50.79C50.78,4.76,50.76,5.18,50.75,5.46ZM54.22,2H50.79V3.22h3.43Z"/><path class="cls-6" d="M387.63,1.92a2.37,2.37,0,0,1,1-1.46,2.91,2.91,0,0,1,1.6-.42,2.72,2.72,0,0,1,2,.7,2,2,0,0,1,.63,1.49,1.93,1.93,0,0,1-.5,1.36,2.06,2.06,0,0,1-1.17.6v.07a2.34,2.34,0,0,1,1.42.84,2.18,2.18,0,0,1,.42,1.36,2.43,2.43,0,0,1-.87,2,2.87,2.87,0,0,1-1.91.63,2.57,2.57,0,0,1-2.77-1.93l1.4-.41a1.66,1.66,0,0,0,.51,1,1.35,1.35,0,0,0,.84.25,1.23,1.23,0,0,0,1-.44,1.53,1.53,0,0,0,.32-1c0-1-.56-1.58-1.69-1.58h-.66V3.73h.6c1.07,0,1.6-.46,1.6-1.37a1.19,1.19,0,0,0-.37-.95,1.2,1.2,0,0,0-.83-.27,1.1,1.1,0,0,0-.83.34,1.46,1.46,0,0,0-.37.86Z"/><path class="cls-6" d="M399.51,7.48c.35,0,.73,0,1.13,0a.32.32,0,0,0,.36-.35V5.43h-3.58a5.42,5.42,0,0,1-.53,1.82,6.31,6.31,0,0,1-.9,1.28c-.11.11-.18.17-.21.17s-.13,0-.24-.16a2,2,0,0,0-.72-.47,5.43,5.43,0,0,0,1-1.2,4.26,4.26,0,0,0,.5-1.51A16.53,16.53,0,0,0,396.47,3V1.48l0-1.36a.23.23,0,0,1,0-.11h.09l1.33,0h2.78L402,0a.16.16,0,0,1,.1,0,.25.25,0,0,1,0,.1l0,1.36V5.41l0,2a1.26,1.26,0,0,1-.31.93,1.18,1.18,0,0,1-.59.24,8.44,8.44,0,0,1-1.07.05.54.54,0,0,1-.3-.05.51.51,0,0,1-.08-.26A2.44,2.44,0,0,0,399.51,7.48Zm-2-3H401V3.19h-3.44C397.55,3.76,397.54,4.18,397.52,4.46ZM401,1h-3.44V2.22H401Z"/><path class="cls-6" d="M4.2,28.45v8.72H6v1.27H.7V37.17h2V30.1A7.31,7.31,0,0,1,.81,31L.55,29.62a7.41,7.41,0,0,0,2.31-1.17Z"/><path class="cls-6" d="M9.66,35.73l-1.25,0c-.06,0-.09,0-.1,0a.14.14,0,0,1,0-.09v-.79c0-.07,0-.1.12-.1l1.25,0h.23v-2.3s0-.08,0-.09a.22.22,0,0,1,.1,0l1.37,0h1.28V31.05H10.59a8.32,8.32,0,0,1-1.17,1.43c-.09.11-.16.16-.21.16s-.1-.06-.2-.19a2,2,0,0,0-.56-.54,7.21,7.21,0,0,0,1.85-2.42,2.81,2.81,0,0,0,.26-.73c.43.08.75.16,1,.22s.18.1.18.17,0,.11-.13.19a1.19,1.19,0,0,0-.25.36l-.2.43h4.13l1.37,0,.1,0s0,0,0,.09V31a.09.09,0,0,1-.11.11l-1.37,0H13.72v1.33h1.07l1.37,0c.07,0,.1,0,.1.11v.75c0,.07,0,.11-.1.11l-1.37,0H13.72v1.46h2.12l1.25,0c.07,0,.11,0,.11.1v.79a.22.22,0,0,1,0,.1h-.09l-1.25,0H13.72v.49l0,1.63a.19.19,0,0,1,0,.1h-1c-.06,0-.09,0-.1,0a.14.14,0,0,1,0-.09l0-1.63v-.49Zm1.29-1h1.69V33.31H11Z"/><path class="cls-6" d="M21.46,33.46a3.87,3.87,0,0,0,.29.72.77.77,0,0,1,.1.28s-.05.13-.16.24c-.65.56-1.32,1.07-2,1.55a2,2,0,0,0-.3.24.2.2,0,0,1-.15.09s-.11,0-.17-.14a8.89,8.89,0,0,1-.56-.89,4,4,0,0,0,.74-.39A16.49,16.49,0,0,0,21.46,33.46Zm-1.59-4a10.28,10.28,0,0,1,1.38,1.45.11.11,0,0,1,0,.19l-.58.55c-.07.05-.11.08-.13.08s0,0-.07-.07a8.79,8.79,0,0,0-1.38-1.55s0-.05,0-.07,0-.06.09-.11l.57-.46a.24.24,0,0,1,.11-.06Zm8.05,7.44a2.47,2.47,0,0,0-.53.74c-.09.15-.15.23-.2.23a.72.72,0,0,1-.24-.09,5.7,5.7,0,0,1-2.8-3,5.48,5.48,0,0,1-3,3.11.73.73,0,0,1-.23.07c-.05,0-.12-.07-.2-.22a2.35,2.35,0,0,0-.53-.64,5.09,5.09,0,0,0,2.55-1.79,4,4,0,0,0,.73-2.38,5.86,5.86,0,0,0-.08-1c.34,0,.69,0,1.06.05.1,0,.16.06.16.13a.66.66,0,0,1-.06.22,1.66,1.66,0,0,0-.06.57,4.82,4.82,0,0,0,1.28,2.72A6.15,6.15,0,0,0,27.92,36.91Zm-7-4.41a6.93,6.93,0,0,0,1.67-2.8,5.06,5.06,0,0,0,.18-.9q.41.06,1,.21c.12,0,.18.08.18.14a.28.28,0,0,1-.1.18,1.38,1.38,0,0,0-.2.45l-.23.6h3.07a.49.49,0,0,0,.24,0,.42.42,0,0,1,.15,0c.08,0,.23.1.44.3s.31.32.31.41a.23.23,0,0,1-.07.16.8.8,0,0,0-.18.29,12.2,12.2,0,0,1-1.05,1.85c-.09.14-.16.21-.2.21a.83.83,0,0,1-.24-.14,3,3,0,0,0-.67-.31,6.58,6.58,0,0,0,1.11-1.75H23a9.69,9.69,0,0,1-1,1.57c-.1.12-.17.18-.2.18a.64.64,0,0,1-.23-.15A2.41,2.41,0,0,0,20.94,32.5Z"/><path class="cls-6" d="M.21,61.09A3,3,0,0,1,1.32,59a3.09,3.09,0,0,1,2-.62,3,3,0,0,1,2.25.79A2.55,2.55,0,0,1,6.23,61a3,3,0,0,1-.49,1.67,9.41,9.41,0,0,1-1.51,1.69,10.79,10.79,0,0,0-2.42,2.76H6.27v1.3H.12V67.28A13.28,13.28,0,0,1,3,63.6a7.46,7.46,0,0,0,1.33-1.54A2.12,2.12,0,0,0,4.54,61,1.4,1.4,0,0,0,4.15,60a1.29,1.29,0,0,0-.91-.32c-.86,0-1.32.6-1.41,1.8Z"/><path class="cls-6" d="M9.66,65.73l-1.25,0c-.06,0-.09,0-.1,0a.14.14,0,0,1,0-.09v-.79c0-.07,0-.1.12-.1l1.25,0h.23v-2.3s0-.08,0-.09a.22.22,0,0,1,.1,0l1.37,0h1.28V61.05H10.59a8.32,8.32,0,0,1-1.17,1.43c-.09.11-.16.16-.21.16s-.1-.06-.2-.19a2,2,0,0,0-.56-.54,7.21,7.21,0,0,0,1.85-2.42,2.81,2.81,0,0,0,.26-.73c.43.08.75.16,1,.22s.18.1.18.17,0,.11-.13.19a1.19,1.19,0,0,0-.25.36l-.2.43h4.13l1.37,0a.19.19,0,0,1,.1,0s0,0,0,.09V61a.09.09,0,0,1-.11.11l-1.37,0H13.72v1.33h1.07l1.37,0c.07,0,.1,0,.1.11v.75c0,.07,0,.11-.1.11l-1.37,0H13.72v1.46h2.12l1.25,0c.07,0,.11,0,.11.1v.79a.22.22,0,0,1,0,.1h-.09l-1.25,0H13.72v.49l0,1.63a.19.19,0,0,1,0,.1h-1c-.06,0-.09,0-.1,0a.14.14,0,0,1,0-.09l0-1.63v-.49Zm1.29-1h1.69V63.31H11Z"/><path class="cls-6" d="M21.46,63.46a3.87,3.87,0,0,0,.29.72.77.77,0,0,1,.1.28c0,.05-.05.13-.16.24-.65.56-1.32,1.07-2,1.55a2,2,0,0,0-.3.24.2.2,0,0,1-.15.09s-.11,0-.17-.14a8.89,8.89,0,0,1-.56-.89,4,4,0,0,0,.74-.39A16.49,16.49,0,0,0,21.46,63.46Zm-1.59-4a10.28,10.28,0,0,1,1.38,1.45.11.11,0,0,1,0,.19l-.58.55c-.07.05-.11.08-.13.08s0,0-.07-.07a8.79,8.79,0,0,0-1.38-1.55s0,0,0-.07,0-.06.09-.11l.57-.46a.24.24,0,0,1,.11-.06Zm8.05,7.44a2.47,2.47,0,0,0-.53.74c-.09.15-.15.23-.2.23a.72.72,0,0,1-.24-.09,5.7,5.7,0,0,1-2.8-3,5.48,5.48,0,0,1-3,3.11.73.73,0,0,1-.23.07c-.05,0-.12-.07-.2-.22a2.35,2.35,0,0,0-.53-.64,5.09,5.09,0,0,0,2.55-1.79,4,4,0,0,0,.73-2.38,5.86,5.86,0,0,0-.08-1c.34,0,.69,0,1.06.05.1,0,.16.06.16.13a.66.66,0,0,1-.06.22,1.66,1.66,0,0,0-.06.57,4.82,4.82,0,0,0,1.28,2.72A6.15,6.15,0,0,0,27.92,66.91Zm-7-4.41a6.93,6.93,0,0,0,1.67-2.8,5.06,5.06,0,0,0,.18-.9q.41.06,1,.21c.12,0,.18.08.18.14a.28.28,0,0,1-.1.18,1.38,1.38,0,0,0-.2.45l-.23.6h3.07a.49.49,0,0,0,.24,0,.42.42,0,0,1,.15,0c.08,0,.23.1.44.3s.31.32.31.41a.23.23,0,0,1-.07.16.8.8,0,0,0-.18.29,12.2,12.2,0,0,1-1.05,1.85c-.09.14-.16.21-.2.21a.83.83,0,0,1-.24-.14,3,3,0,0,0-.67-.31,6.58,6.58,0,0,0,1.11-1.75H23a9.69,9.69,0,0,1-1,1.57c-.1.12-.17.18-.2.18a.64.64,0,0,1-.23-.15A2.41,2.41,0,0,0,20.94,62.5Z"/><path class="cls-6" d="M.15,90.49a2.73,2.73,0,0,1,1.18-1.66,3.35,3.35,0,0,1,1.83-.48,3.13,3.13,0,0,1,2.26.8,2.41,2.41,0,0,1,.15,3.25,2.33,2.33,0,0,1-1.34.68v.09a2.6,2.6,0,0,1,1.62,1,2.49,2.49,0,0,1,.48,1.55,2.75,2.75,0,0,1-1,2.23,3.27,3.27,0,0,1-2.18.72A2.92,2.92,0,0,1,0,96.43L1.59,96a1.92,1.92,0,0,0,.59,1.11,1.5,1.5,0,0,0,1,.29,1.41,1.41,0,0,0,1.16-.5,1.83,1.83,0,0,0,.37-1.18c0-1.19-.65-1.79-1.93-1.79H2V92.56h.68c1.22,0,1.82-.52,1.82-1.56a1.37,1.37,0,0,0-.41-1.08,1.39,1.39,0,0,0-1-.31,1.24,1.24,0,0,0-.95.38,1.78,1.78,0,0,0-.43,1Z"/><path class="cls-6" d="M9.39,95.73l-1.25,0c-.05,0-.08,0-.09,0a.14.14,0,0,1,0-.09v-.79c0-.07,0-.1.11-.1l1.25,0h.24v-1.4l0-.9a.14.14,0,0,1,0-.09.22.22,0,0,1,.1,0l1.37,0h1.28V91.05H10.33a8.32,8.32,0,0,1-1.17,1.43c-.09.11-.16.16-.21.16s-.1-.06-.2-.19a2,2,0,0,0-.56-.54A7.21,7.21,0,0,0,10,89.49a2.81,2.81,0,0,0,.26-.73c.43.08.75.16,1,.22s.19.1.19.17,0,.11-.13.19a1.19,1.19,0,0,0-.25.36l-.2.43H15l1.37,0c.05,0,.09,0,.09,0a.14.14,0,0,1,0,.09V91a.09.09,0,0,1-.11.11l-1.37,0H13.46v1.33h1.07l1.37,0c.07,0,.1,0,.1.11v.75c0,.07,0,.11-.1.11l-1.37,0H13.46v1.46h2.12l1.25,0c.07,0,.11,0,.11.1v.79a.22.22,0,0,1,0,.1h-.09l-1.25,0H13.46v.49l0,1.63a.19.19,0,0,1,0,.1h-1c-.06,0-.09,0-.1,0a.14.14,0,0,1,0-.09l0-1.63v-.49Zm1.3-1h1.69V93.31H10.69Z"/><path class="cls-6" d="M21.2,93.46a3.87,3.87,0,0,0,.29.72.77.77,0,0,1,.1.28c0,.05-.05.13-.16.24-.65.56-1.32,1.07-2,1.55a2,2,0,0,0-.3.24.2.2,0,0,1-.15.09c-.05,0-.11,0-.17-.14a8.89,8.89,0,0,1-.56-.89,4,4,0,0,0,.74-.39A16.49,16.49,0,0,0,21.2,93.46Zm-1.59-4A10.28,10.28,0,0,1,21,90.92a.11.11,0,0,1,0,.19l-.58.55c-.07,0-.11.08-.13.08s0,0-.07-.07a8.41,8.41,0,0,0-1.38-1.55s-.05-.05-.05-.07,0-.06.09-.11l.57-.46a.24.24,0,0,1,.11-.06A.21.21,0,0,1,19.61,89.47Zm8.05,7.44a2.47,2.47,0,0,0-.53.74c-.09.15-.15.23-.2.23a.72.72,0,0,1-.24-.09,5.7,5.7,0,0,1-2.8-3,5.48,5.48,0,0,1-3,3.11.73.73,0,0,1-.23.07s-.12-.07-.2-.22a2.55,2.55,0,0,0-.53-.64,5.09,5.09,0,0,0,2.55-1.79,4,4,0,0,0,.73-2.38,5.86,5.86,0,0,0-.08-1c.34,0,.69,0,1.06,0,.1,0,.16.06.16.13a.66.66,0,0,1-.06.22,1.66,1.66,0,0,0-.06.57,4.82,4.82,0,0,0,1.28,2.72A6.15,6.15,0,0,0,27.66,96.91Zm-7-4.41a6.93,6.93,0,0,0,1.67-2.8,5.06,5.06,0,0,0,.18-.9q.41.06,1,.21c.12,0,.18.08.18.14a.28.28,0,0,1-.1.18,1.38,1.38,0,0,0-.2.45l-.23.6h3.07a.49.49,0,0,0,.24,0,.42.42,0,0,1,.15,0c.08,0,.23.1.44.3s.31.32.31.41a.23.23,0,0,1-.07.16.8.8,0,0,0-.18.29,12.2,12.2,0,0,1-1.05,1.85c-.09.14-.16.21-.2.21a.83.83,0,0,1-.24-.14,3,3,0,0,0-.67-.31,6.58,6.58,0,0,0,1.11-1.75H22.77a9.69,9.69,0,0,1-1,1.57c-.1.12-.17.18-.2.18a.64.64,0,0,1-.23-.15A2.41,2.41,0,0,0,20.68,92.5Z"/><path class="cls-6" d="M78.28,32.73a6.71,6.71,0,0,1,1.17.83.15.15,0,0,1,0,.08.19.19,0,0,1,0,.12l-.37.53c0,.06-.07.08-.09.08a.12.12,0,0,1-.08,0,6.61,6.61,0,0,0-1.16-.92s-.06,0-.06-.07a.15.15,0,0,1,0-.11l.36-.48a.12.12,0,0,1,.09-.06A.16.16,0,0,1,78.28,32.73Zm-.59,5.14a3.49,3.49,0,0,0,.43-.7,12.21,12.21,0,0,0,.77-2.07,2.79,2.79,0,0,0,.49.42c.13.11.2.19.2.25s0,.09,0,.19a14.26,14.26,0,0,1-.76,1.95,1.2,1.2,0,0,0-.11.34c0,.08,0,.13-.12.13a.32.32,0,0,1-.17-.06A5.1,5.1,0,0,1,77.69,37.87Zm.9-7.42a6.62,6.62,0,0,1,1.18.89.21.21,0,0,1,.06.08.22.22,0,0,1,0,.11l-.38.53s-.07.07-.09.07,0,0-.07,0a5.3,5.3,0,0,0-1.18-1,.11.11,0,0,1-.06-.06.31.31,0,0,1,0-.11l.37-.48s.08-.08.1-.08A.13.13,0,0,1,78.59,30.45Zm6.72,5.62a7.49,7.49,0,0,1,.6,2,.13.13,0,0,1,0,.06s0,.07-.11.1l-.52.16-.11,0s-.05,0-.06-.07l-.1-.5-2,.28-.13,0a.34.34,0,0,1,0,.09s0,.09-.13.11l-.51.08-.08,0s-.06,0-.07-.1L82,37.84q-1,.18-2,.3a.82.82,0,0,0-.32.09l-.13.05c-.06,0-.11-.05-.13-.15a4.87,4.87,0,0,1-.16-.79h.53c.18-.22.45-.6.81-1.11a7.86,7.86,0,0,0-1.2-1.5s0,0,0-.08a.2.2,0,0,1,.07-.11l.38-.43s.06-.07.08-.07a.15.15,0,0,1,.08.05l.21.21a9.39,9.39,0,0,0,.55-1.1,3.53,3.53,0,0,0,.17-.5l-1.1,0a.16.16,0,0,1-.1,0s0,0,0-.08V32s0-.08,0-.09h.1l1.24,0h.31a4.23,4.23,0,0,0-.66-1.11s0-.06,0-.08,0-.05.09-.08l.57-.26a.24.24,0,0,1,.11,0,.15.15,0,0,1,.08.05,5.22,5.22,0,0,1,.69,1,.25.25,0,0,1,0,.07s0,.06-.09.09l-.64.32h1.56a8.46,8.46,0,0,0,.48-1,3.25,3.25,0,0,0,.14-.53,5.73,5.73,0,0,1,.91.23q.12.06.12.12a.23.23,0,0,1-.08.14,1,1,0,0,0-.17.26l-.45.82h.46l1.24,0a.13.13,0,0,1,.08,0s0,0,0,.08v.65c0,.07,0,.1-.09.1l-1.24,0h-.78a5.25,5.25,0,0,1,.77.33c.08,0,.12.09.12.14s0,.07-.08.11a.73.73,0,0,0-.16.22,14.36,14.36,0,0,1-.8,1.44l.39.56c.2-.33.37-.62.49-.86a3.87,3.87,0,0,0,.25-.57,3.72,3.72,0,0,1,.73.41c.07.05.1.1.1.14a.17.17,0,0,1-.08.12,1,1,0,0,0-.28.34,24,24,0,0,1-1.48,2.18l1.15-.14a4.62,4.62,0,0,0-.3-.8.39.39,0,0,1,0-.06s0-.06.12-.08l.49-.15.11,0S85.29,36,85.31,36.07Zm-3.7-1.39c.11-.22.21-.45.3-.68.14.09.31.19.48.32l.27-.28s.07-.07.09-.07,0,0,.07.05l.22.24a9.12,9.12,0,0,0,.49-1,3,3,0,0,0,.18-.57H81.14a6,6,0,0,1,.59.28c.08,0,.11.08.11.12a.15.15,0,0,1-.08.13.59.59,0,0,0-.15.22A15.4,15.4,0,0,1,80.76,35a5.47,5.47,0,0,1,.38.52C81.25,35.31,81.41,35,81.61,34.68Zm.76,1.63a8.31,8.31,0,0,1,.33,1c.27-.35.53-.7.77-1.05a10.65,10.65,0,0,0-1-1.39,1.65,1.65,0,0,0-.11.19,24.18,24.18,0,0,1-1.48,2.2l1-.11a5.43,5.43,0,0,0-.22-.64l0-.06s0-.07.12-.09l.48-.11a.18.18,0,0,1,.09,0S82.34,36.25,82.37,36.31Z"/><path class="cls-6" d="M88,30.92h1.37a1.83,1.83,0,0,0,0-.37,2.73,2.73,0,0,0,0-.32l.82.07c.11,0,.16.05.16.1a.24.24,0,0,1,0,.13.87.87,0,0,0-.08.29s0,.06,0,.1h1.61c.08,0,.11,0,.11.11s0,.28,0,.5a4.83,4.83,0,0,1-.22,1.34c-.14.32-.47.47-1,.47h-.37c-.11,0-.18,0-.2-.06A.88.88,0,0,1,90,33a1.62,1.62,0,0,0-.15-.47,3.32,3.32,0,0,0,.58,0c.22,0,.35,0,.41-.17a2.87,2.87,0,0,0,.12-.81h-.91a3,3,0,0,1-.6,1.23,3.45,3.45,0,0,1-.9.75.76.76,0,0,1-.22.11c-.05,0-.12-.07-.22-.21a2.09,2.09,0,0,0-.42-.42,3.33,3.33,0,0,0,1-.66,2.1,2.1,0,0,0,.46-.8H89l-1.06,0s-.08,0-.09,0,0,0,0-.07V31c0-.05,0-.08,0-.09Zm2.25,6.21a8.18,8.18,0,0,1,.79.35c.09,0,.13.07.13.12s-.05.09-.14.11a2.29,2.29,0,0,0-.37.16,6.34,6.34,0,0,1-2,.63l-.19,0c-.08,0-.15-.07-.22-.2a1.92,1.92,0,0,0-.41-.54,7.37,7.37,0,0,0,2-.42A2.25,2.25,0,0,0,90.23,37.13Zm3.09-3.52,1.24,0a.14.14,0,0,1,.09,0s0,0,0,.08l0,.88v1.58l0,.88s0,.08,0,.09H89A.2.2,0,0,1,89,37V33.69s0-.08,0-.09h.09l1.25,0Zm-3.41.63v.37h3.86v-.37Zm0,1.3h3.86v-.38H89.91Zm3.86,1v-.41H89.91v.41Zm.71-5.82.92,0a.14.14,0,0,1,.09,0s0,0,0,.08v2.35s0,.08,0,.09h-3.1a.2.2,0,0,1,0-.09l0-.71v-.91l0-.73a.13.13,0,0,1,0-.08.14.14,0,0,1,.09,0l.92,0Zm-1.06,6.49a7.16,7.16,0,0,0,2.45.59,2.87,2.87,0,0,0-.44.57c-.06.12-.14.18-.22.18l-.2,0a8,8,0,0,1-1.37-.36,5.43,5.43,0,0,1-1.08-.53.11.11,0,0,1-.06-.06s0,0,.1-.07l.6-.29.12,0Zm1.21-4.68V31.38H93.25v1.11Z"/><path class="cls-6" d="M99,31.51v5.75h5.31l1.24,0,.08,0s0,0,0,.08v.72s0,.07,0,.08h-.08l-1.24,0H99v.29s0,.08,0,.09H98a.14.14,0,0,1,0-.09l0-1.91V32.62l0-1.9a.14.14,0,0,1,0-.09h.08l1.2,0h5l1.18,0s.07,0,.08,0a.13.13,0,0,1,0,.08v.71a.14.14,0,0,1,0,.09h-.08l-1.18,0Zm1.76,3.32-1.23,0a.14.14,0,0,1-.09,0s0,0,0-.08v-.61s0-.08.1-.08h2.21a6,6,0,0,0,.08-.91h-1a5.72,5.72,0,0,1-.47.58c-.08.1-.15.15-.2.15a.65.65,0,0,1-.22-.16,2.1,2.1,0,0,0-.48-.32,5,5,0,0,0,1-1.26,3.13,3.13,0,0,0,.22-.58,6.92,6.92,0,0,1,.79.21c.08,0,.12.07.12.11a.17.17,0,0,1-.08.13.71.71,0,0,0-.16.25.67.67,0,0,1-.06.12h2.21l1.14,0,.09,0a.54.54,0,0,1,0,.08v.6a.14.14,0,0,1,0,.09h-2a6.42,6.42,0,0,1-.08.91h2.61s0,0,0,.07v.61s0,.08,0,.08a.14.14,0,0,1-.09,0l-1.23,0h-1a4.06,4.06,0,0,0,2.48,1.39,4.06,4.06,0,0,0-.38.63c-.05.13-.1.19-.16.19l-.21,0a4.24,4.24,0,0,1-2.39-1.71A3.67,3.67,0,0,1,100,37l-.22.06s-.1-.06-.17-.2a2.08,2.08,0,0,0-.42-.54,5.2,5.2,0,0,0,1.55-.66,2.12,2.12,0,0,0,.72-.83Z"/><path class="cls-6" d="M110.46,30.36a4.23,4.23,0,0,1,.56.56.24.24,0,0,1,.09.16c0,.07-.06.11-.16.11a.82.82,0,0,0-.31.08c-.21.08-.44.17-.69.24v1.24H110l1,0s.07,0,.08,0a.13.13,0,0,1,0,.08v.64a.14.14,0,0,1,0,.09H110a5.23,5.23,0,0,0,1.16,1.38,2.45,2.45,0,0,0-.33.69c0,.1-.06.14-.1.14s-.09,0-.16-.13a6,6,0,0,1-.69-1.12l0,3.91c0,.06,0,.09-.1.09h-.74a.08.08,0,0,1-.09-.09s0-.23,0-.6q0-1.68.06-3.12a7.19,7.19,0,0,1-1.06,2c-.06.09-.12.14-.15.14s-.08-.05-.11-.15a1.93,1.93,0,0,0-.37-.68,6.81,6.81,0,0,0,1.49-2.49h-1.3a.2.2,0,0,1,0-.09v-.64s0-.07,0-.08l.08,0,1,0h.37v-1l-.73.14a.84.84,0,0,1-.19,0,.16.16,0,0,1-.13-.06.94.94,0,0,1-.09-.18,1.69,1.69,0,0,0-.31-.49,8.93,8.93,0,0,0,2.48-.59Zm1.67,5.27,1.61-.31V31.7a10.71,10.71,0,0,0-.08-1.36c.36,0,.67,0,1,.06q.15,0,.15.09a.49.49,0,0,1-.05.19,4.33,4.33,0,0,0-.06,1v3.45l.63-.15.16,0h.11s0,0,.06.1l.11.7a.11.11,0,0,1,0,.05s0,0-.1.06l-.31.05-.67.13v.84l0,1.56c0,.05,0,.08,0,.09h-.84c-.06,0-.09,0-.09-.1l0-1.55V36.2l-1.45.28-1.16.23h0s0,0-.07-.1l-.12-.68s0,0,0-.06,0-.05.09-.06l.35,0ZM111.91,33a8.16,8.16,0,0,1,1.27,1.17s0,.06,0,.08a.2.2,0,0,1-.07.11l-.44.46s-.08.07-.1.07-.05,0-.08,0a7.73,7.73,0,0,0-1.24-1.25s-.06-.05-.06-.07,0-.05.07-.1l.44-.41s.06-.06.08-.06A.15.15,0,0,1,111.91,33Zm.26-2.07a8.45,8.45,0,0,1,1.25,1.13.18.18,0,0,1,0,.08.12.12,0,0,1-.06.09l-.44.45s-.08.08-.1.08l-.06,0a7,7,0,0,0-1.24-1.18s-.06-.05-.06-.07,0-.05.07-.1L112,31s.08-.06.1-.06Z"/><path class="cls-6" d="M118.48,33.56l-1.14,0a.14.14,0,0,1-.09,0,.22.22,0,0,1,0-.09v-.74s0-.07,0-.08,0,0,.08,0l1.14,0h2.06c0-.25,0-.65,0-1.22v-.21a7,7,0,0,0,0-.83c.48,0,.82,0,1,.07s.16.07.16.13a.54.54,0,0,1,0,.19,1.63,1.63,0,0,0-.09.63c0,.56,0,1,0,1.24h2.32l1.15,0,.08,0s0,0,0,.08v.74c0,.05,0,.08,0,.09l-.08,0-1.15,0h-2.15a6.36,6.36,0,0,0,1.45,2.5,5.69,5.69,0,0,0,2.15,1.42,2.86,2.86,0,0,0-.52.68c-.08.15-.15.23-.19.23a.83.83,0,0,1-.21-.1,6.68,6.68,0,0,1-3.2-3.63,4.85,4.85,0,0,1-.35.86A6,6,0,0,1,118,38.33a.78.78,0,0,1-.22.07c-.05,0-.12-.07-.21-.2a2.44,2.44,0,0,0-.51-.57A5.23,5.23,0,0,0,120,35.15a5.72,5.72,0,0,0,.48-1.59Z"/><path class="cls-6" d="M128.24,36.14H127a.15.15,0,0,1,0-.08v-.7a.14.14,0,0,1,0-.09h.08l1.12,0h2.37c0-.34,0-.59-.05-.77l.52.06a6,6,0,0,0,.82-.65H130l-1.17,0a.08.08,0,0,1-.09-.09v-.63s0-.08,0-.09h.08l1.17,0h2.44a.73.73,0,0,0,.21,0l.12,0c.06,0,.19.1.39.29s.25.31.25.39a.14.14,0,0,1-.11.14,2.85,2.85,0,0,0-.43.3,11.92,11.92,0,0,1-1.26.93v.15h2.25l1.12,0a.14.14,0,0,1,.09,0s0,0,0,.08v.7s0,.07,0,.08h-3.46V37.5a.84.84,0,0,1-.28.74,1.34,1.34,0,0,1-.5.16,8.65,8.65,0,0,1-.88,0c-.15,0-.23,0-.26,0a.46.46,0,0,1-.09-.22,2.84,2.84,0,0,0-.27-.66c.36,0,.68,0,1,0a.39.39,0,0,0,.28-.07.31.31,0,0,0,.07-.24V36.14Zm0-5.56.54-.2.09,0s.07,0,.1.07a5.59,5.59,0,0,1,.61.94l0,.07s0,.05-.11.07l-.59.22h1.87a6,6,0,0,0-.51-1.13l0-.06s0-.05.11-.07l.59-.18.09,0a.1.1,0,0,1,.09.07,5.65,5.65,0,0,1,.5,1.05.18.18,0,0,1,0,.06s0,0-.11.07l-.58.21h1.38a7.13,7.13,0,0,0,.44-.91,2.51,2.51,0,0,0,.14-.48,5.79,5.79,0,0,1,.89.27c.08,0,.13.09.13.14s0,.09-.09.14a.44.44,0,0,0-.17.2c-.13.24-.25.45-.37.64h.23l1.19,0a.14.14,0,0,1,.09,0,.13.13,0,0,1,0,.08l0,.49v.41l0,1s0,.08,0,.09a.13.13,0,0,1-.08,0H134q-.08,0-.09,0s0,0,0-.08V32.52h-5.76v1.19a.08.08,0,0,1-.1.1h-.71a.16.16,0,0,1-.1,0s0,0,0-.08l0-1v-.33l0-.56a.14.14,0,0,1,0-.09h.09l1.18,0h.25a5.15,5.15,0,0,0-.58-1,.13.13,0,0,1,0-.07S128.2,30.6,128.27,30.58Z"/><path class="cls-6" d="M228.31,37.23a1.7,1.7,0,0,0-.24.72c0,.14,0,.23-.09.26a.66.66,0,0,1-.25,0c-1,0-2,.08-3.14.08a5.64,5.64,0,0,1-2.1-.24,2.29,2.29,0,0,1-.94-.82c-.27.26-.57.53-.91.8a.75.75,0,0,0-.18.18.17.17,0,0,1-.13.08c-.05,0-.09,0-.13-.11a7.46,7.46,0,0,1-.37-.84,4.86,4.86,0,0,0,.53-.28,5.06,5.06,0,0,0,.8-.58v-2h-.44l-.66,0c-.06,0-.09,0-.1,0a.55.55,0,0,1,0-.09v-.68s0-.08,0-.08a.14.14,0,0,1,.09,0l.66,0h.56l.68,0,.08,0a.13.13,0,0,1,0,.08l0,.86v1.91a1.52,1.52,0,0,0,.75.75,5.29,5.29,0,0,0,1.65.17A38.17,38.17,0,0,0,228.31,37.23ZM221,30.59A7.57,7.57,0,0,1,222.17,32s0,0,0,.07,0,.06-.09.1l-.53.41-.11,0a.1.1,0,0,1-.07-.06,5.63,5.63,0,0,0-.6-.84,6.46,6.46,0,0,0-.59-.64.07.07,0,0,1,0-.06s0-.06.08-.1l.49-.35a.19.19,0,0,1,.11-.05A.16.16,0,0,1,221,30.59Zm1.41,5.8a3.24,3.24,0,0,0,.74-1.48,9.67,9.67,0,0,0,.12-1.82v-.67c0-.38,0-.86-.08-1.44a5.91,5.91,0,0,1,.77.21,11.3,11.3,0,0,0,2.42-.61,3.18,3.18,0,0,0,.55-.28,4.13,4.13,0,0,1,.64.67.25.25,0,0,1,.06.16c0,.05-.05.08-.14.09a2,2,0,0,0-.38.06,14,14,0,0,1-2.95.72v.94h2.69l1.12,0a.14.14,0,0,1,.09,0s0,0,0,.08v.7c0,.05,0,.07,0,.08a.14.14,0,0,1-.09,0l-1.12,0h-.27V36l0,1a.14.14,0,0,1,0,.09h-.85c-.05,0-.07,0-.08,0s0,0,0-.08l0-1V33.8h-1.5a7.72,7.72,0,0,1-.18,1.61,4,4,0,0,1-.69,1.41c-.07.11-.13.17-.17.17s-.08-.05-.18-.15A2.83,2.83,0,0,0,222.36,36.39Z"/><path class="cls-6" d="M230.6,32.79a6.43,6.43,0,0,1,1.42.88s0,.06,0,.08a.29.29,0,0,1-.06.1l-.4.58s-.05.06-.07.06a.15.15,0,0,1-.08-.05,6.58,6.58,0,0,0-1.41-.95.1.1,0,0,1-.06-.07s0-.05.06-.1l.37-.49s.07-.07.1-.07Zm-.6,5.05a5.91,5.91,0,0,0,.47-.64,18.73,18.73,0,0,0,1-2.12,4.45,4.45,0,0,0,.49.46c.13.1.19.18.19.23a1,1,0,0,1,0,.21,21.12,21.12,0,0,1-1,2,1.46,1.46,0,0,0-.17.34c0,.08,0,.12-.11.12a.32.32,0,0,1-.17-.06A5.22,5.22,0,0,1,230,37.84Zm.95-7.4a11.65,11.65,0,0,1,1.41,1s0,.05,0,.07a.31.31,0,0,1,0,.11l-.42.57s-.06.07-.08.07l-.07,0a7.51,7.51,0,0,0-1.44-1,.11.11,0,0,1-.06-.06.24.24,0,0,1,.06-.11l.42-.49a.13.13,0,0,1,.09-.07Zm3,1.63h-1.29a.15.15,0,0,1,0-.08v-.76q0-.07,0-.09h.08l1.2,0h2.65l1.21,0a.14.14,0,0,1,.09,0s0,0,0,.08V32a.13.13,0,0,1,0,.08h-2.26v4.8h2.46a.08.08,0,0,1,.09.09v.75s0,.08,0,.09a.13.13,0,0,1-.08,0l-1.24,0h-3.29l-1.24,0a.09.09,0,0,1-.11-.11V37a.13.13,0,0,1,0-.08h2.41v-4.8Z"/><path class="cls-6" d="M240,37.51a6.29,6.29,0,0,0,1.44-1.82,7.42,7.42,0,0,0,.67-2.26,5.35,5.35,0,0,0,.08-1,7.33,7.33,0,0,1,1,.16q.15,0,.15.12a.3.3,0,0,1,0,.16,1.45,1.45,0,0,0-.13.46,10.12,10.12,0,0,1-.82,2.76A6.47,6.47,0,0,1,241,38c-.1.11-.17.16-.21.16s-.11,0-.2-.14A2.48,2.48,0,0,0,240,37.51Zm5-5.67H243.5l-.95,0a.14.14,0,0,1-.09,0s0,0,0-.09V31a.13.13,0,0,1,0-.08h.08l.95,0h1.33l.95,0c.07,0,.11,0,.11.1,0,.27,0,.48,0,.62a9.9,9.9,0,0,0,.88,3.57,8.26,8.26,0,0,0,1.61,2.24,2.46,2.46,0,0,0-.74.56c-.08.09-.14.14-.17.14s-.1-.06-.19-.16A10.26,10.26,0,0,1,245,31.84Z"/><path class="cls-6" d="M258.25,34.42a1.83,1.83,0,0,0-.24.67c0,.11-.05.16-.1.16a.55.55,0,0,1-.22-.09l-.21-.11v0l0,.91v.81l0,1.53s0,.07,0,.08h-.7c-.07,0-.1,0-.1-.09v-.23h-2.5v.29a.1.1,0,0,1,0,.07.14.14,0,0,1-.09,0h-.59a.08.08,0,0,1-.09-.09l0-1.55v-.72l0-1-.21.1s-.1-.08-.18-.22l-.13-.18s0,.16,0,.45,0,.27,0,.36a1.23,1.23,0,0,1-.13.71.64.64,0,0,1-.51.21h-.13a.1.1,0,0,1-.1,0,.89.89,0,0,1,0-.18,1.21,1.21,0,0,0-.14-.52V37l0,1.46a.13.13,0,0,1,0,.08H251a.17.17,0,0,1,0-.08V32.69h-.31v2.87l0,1a.1.1,0,0,1,0,.07h-.61c-.07,0-.1,0-.1-.08l0-1.07V33.05L250,32a.16.16,0,0,1,0-.1h1v-.31a12.05,12.05,0,0,0-.05-1.29c.24,0,.52,0,.83.07.08,0,.13,0,.13.08a.35.35,0,0,1,0,.12.89.89,0,0,0,0,.11,5.29,5.29,0,0,0,0,.9v.32h.94s.07,0,.08,0,0,0,0,.09l0,1.13v1.36a4.42,4.42,0,0,0,1.63-1.19h-.19l-1.13,0a.14.14,0,0,1-.09,0s0,0,0-.08V32.7a.13.13,0,0,1,0-.08H255V31.41c-.55.05-1,.08-1.48.1h-.1c-.07,0-.12,0-.14,0a.58.58,0,0,1-.07-.18,1.23,1.23,0,0,0-.23-.5,19.29,19.29,0,0,0,3.51-.3,2.44,2.44,0,0,0,.58-.19,4,4,0,0,1,.52.5.25.25,0,0,1,.07.16c0,.07-.05.11-.16.11a2.83,2.83,0,0,0-.43.05c-.42.09-.84.15-1.25.2v1.3H258a.17.17,0,0,1,0,.08v.51a.14.14,0,0,1,0,.09h-.08l-1.21,0h-.4a3.82,3.82,0,0,0,.92.69A7.7,7.7,0,0,0,258.25,34.42ZM252,35.81c.1,0,.14-.08.14-.24V32.69h-.31v3.1Zm2.2-4.17a2.78,2.78,0,0,1,.34.62.56.56,0,0,0,0,.07s0,.06-.1.09l-.47.16-.1,0s-.06,0-.08-.08a2.65,2.65,0,0,0-.3-.63.17.17,0,0,1,0-.07s0-.05.1-.07l.44-.16.1,0S254.18,31.59,254.21,31.64ZM253.58,35h2.7l1.09,0a5.71,5.71,0,0,1-1.59-1.37c0,.22,0,.47,0,.75s0,.32,0,.35a.14.14,0,0,1,0,.09h-.68c-.05,0-.08,0-.09,0s0,0,0-.08,0-.16,0-.42,0-.45,0-.66A5.48,5.48,0,0,1,253.58,35Zm.58,1.22H255v-.55h-.87Zm0,1.23H255v-.59h-.87Zm2.5-1.78h-.87v.55h.87Zm-.87,1.78h.87v-.59h-.87Zm.41-5.08a5.59,5.59,0,0,0,.39-.69,2.64,2.64,0,0,0,.13-.37,3.91,3.91,0,0,1,.68.28c.07,0,.11.08.11.12a.14.14,0,0,1-.08.11.73.73,0,0,0-.16.18,6.14,6.14,0,0,1-.34.54.17.17,0,0,1-.12.08l-.17-.07A1.83,1.83,0,0,0,256.2,32.37Z"/><path class="cls-6" d="M261.13,32.36h-1.21a.2.2,0,0,1,0-.09v-.71c0-.06,0-.09,0-.1h3.42v-.31a4.8,4.8,0,0,0-.06-.85c.44,0,.77,0,1,.06s.15,0,.15.08a.84.84,0,0,1-.06.18,2,2,0,0,0,0,.52v.32h3.48s.08,0,.09,0,0,0,0,.09v.71a.14.14,0,0,1,0,.09h-6.74Zm3.95,4.29.75,0a.34.34,0,0,0,.24-.07.36.36,0,0,0,.05-.23v-2H264.3v4a.08.08,0,0,1-.09.09h-.89s0,0,0-.08v-4h-1.66v2.06l0,1a.13.13,0,0,1,0,.08l-.08,0h-.8c-.06,0-.09,0-.09-.1l0-1V34.58l0-1c0-.07,0-.1.09-.1h2.54v-.13a6.16,6.16,0,0,0,0-.84c.43,0,.75,0,1,.06s.15,0,.15.1a.56.56,0,0,1-.06.17,1.83,1.83,0,0,0,0,.49v.15h2.8a.2.2,0,0,1,0,.09v3.12a.78.78,0,0,1-.22.6,2.38,2.38,0,0,1-1.25.22.58.58,0,0,1-.26,0s-.05-.08-.07-.19A2.26,2.26,0,0,0,265.08,36.65Z"/><path class="cls-6" d="M270.86,38.07l-1.12,0c-.06,0-.09,0-.09-.1v-.76c0-.06,0-.1.09-.1l1.12,0H274A30.07,30.07,0,0,0,275,34a6.12,6.12,0,0,0,.14-.86,10.41,10.41,0,0,1,1,.3.14.14,0,0,1,.11.13.26.26,0,0,1-.09.18,1,1,0,0,0-.17.36c-.3,1-.64,2-1,3h1.52l1.12,0,.08,0s0,0,0,.08V38s0,.07,0,.08a.13.13,0,0,1-.08,0l-1.12,0Zm.5-5.31-1.19,0a.14.14,0,0,1-.09,0,.22.22,0,0,1,0-.09v-.73c0-.05,0-.08,0-.09a.14.14,0,0,1,.09,0l1.19,0h1.79v-.69a4,4,0,0,0-.07-.83c.3,0,.63,0,1,0,.1,0,.14.05.14.11a.6.6,0,0,1,0,.18,1.73,1.73,0,0,0,0,.5v.69H276l1.21,0c.05,0,.08,0,.08,0a.17.17,0,0,1,0,.09v.73a.14.14,0,0,1,0,.09.13.13,0,0,1-.08,0l-1.21,0Zm.7.52a13,13,0,0,1,.9,3,.35.35,0,0,0,0,.06s0,.07-.12.09l-.71.23-.1,0s-.06,0-.07-.09a11.8,11.8,0,0,0-.84-3l0-.07s0,0,.12-.08l.65-.23.1,0S272,33.23,272.06,33.28Z"/><path class="cls-6" d="M282.48,33.2l.08,0s0,0,.06.07a8.37,8.37,0,0,1,.58,1.58v.05s0,.09-.11.11l-.44.17-.11,0s0,0-.06-.09l-.07-.37-.52.06v2.47l0,1.18a.17.17,0,0,1,0,.09h-.77a.13.13,0,0,1-.08,0s0,0,0-.08V34.86l-.73,0A1.18,1.18,0,0,0,280,35a.24.24,0,0,1-.13,0s-.09-.05-.11-.15a6.91,6.91,0,0,1-.11-.76c.22,0,.43,0,.65,0,.18-.22.35-.46.52-.7a10.51,10.51,0,0,0-1.15-1.29.15.15,0,0,1-.05-.08.26.26,0,0,1,.07-.12l.33-.44c0-.05.07-.08.09-.08s0,0,.07.05l.21.21a10.06,10.06,0,0,0,.53-1,2.7,2.7,0,0,0,.16-.48q.34.13.75.33c.08,0,.12.08.12.14a.14.14,0,0,1-.09.12.56.56,0,0,0-.16.21c-.27.48-.53.9-.77,1.24l.38.45c.14-.23.34-.56.58-1a4.51,4.51,0,0,0,.26-.57,7.52,7.52,0,0,1,.74.33c.08,0,.11.09.11.13s0,.1-.1.15a1.37,1.37,0,0,0-.28.35q-.76,1.21-1.38,2l1-.06c-.09-.22-.16-.4-.23-.55a.18.18,0,0,1,0-.06s0-.07.1-.1Zm-2.87,4.38a5.25,5.25,0,0,0,.37-1.64c0-.16,0-.3,0-.42v-.16a6.67,6.67,0,0,1,.69.15c.1,0,.15.06.15.1a.21.21,0,0,1,0,.14.9.9,0,0,0-.07.33,9.07,9.07,0,0,1-.3,1.62c-.05.14-.08.22-.12.22a.84.84,0,0,1-.2-.11A1.83,1.83,0,0,0,279.61,37.58Zm3.61-1.72c0-.07,0-.1.08-.1h.08l.5.14q.09,0,.09.09a.23.23,0,0,1,0,.07,5.57,5.57,0,0,1-.61,1.84s0,.06-.06.06l-.12,0-.46-.28c-.07,0-.1-.08-.1-.1a.25.25,0,0,1,0-.07,3.58,3.58,0,0,0,.35-.68l-.49.16-.1,0s-.05,0-.05-.09a6.79,6.79,0,0,0-.26-1.32.39.39,0,0,1,0-.06s0-.06.11-.09l.39-.11a.18.18,0,0,1,.09,0s0,0,.07.08a6.38,6.38,0,0,1,.31,1.27A7.47,7.47,0,0,0,283.22,35.86Zm.86-5.49a5.54,5.54,0,0,1,.75.34c.07,0,.1.08.1.12a.16.16,0,0,1-.08.13,1.17,1.17,0,0,0-.21.3,7.4,7.4,0,0,1-1.13,1.52c-.09.09-.15.13-.18.13s-.11-.06-.21-.18a2,2,0,0,0-.44-.44A4.36,4.36,0,0,0,283.82,31,3.09,3.09,0,0,0,284.08,30.37Zm2.26,2.22a9.09,9.09,0,0,1,1.19,1.67l0,.07s0,.06-.09.1l-.49.29-.1.05s-.05,0-.08-.09l-.24-.46c-1.33.17-2.18.28-2.54.31a1.3,1.3,0,0,0-.38.08.39.39,0,0,1-.17.07c-.05,0-.09-.06-.12-.16l-.18-.77h.67a10.06,10.06,0,0,0,.67-1.43,2.35,2.35,0,0,0,.18-.6,7,7,0,0,1,.82.21q.15.06.15.15a.24.24,0,0,1-.08.13,1.14,1.14,0,0,0-.23.33,10.47,10.47,0,0,1-.59,1.16c.48,0,.93-.09,1.38-.15-.09-.13-.23-.31-.43-.56a.09.09,0,0,1,0-.06s0,0,.09-.09l.39-.26a.27.27,0,0,1,.1,0A.1.1,0,0,1,286.34,32.59Zm-2.23,2.89a4.32,4.32,0,0,1,.84.07c.09,0,.13.05.13.09a.49.49,0,0,1,0,.12.93.93,0,0,0-.06.39v1.09c0,.17,0,.27.09.31a.64.64,0,0,0,.33.06c.21,0,.35,0,.41-.11a1.82,1.82,0,0,0,.17-.85,2.15,2.15,0,0,0,.56.25l.18.07a.14.14,0,0,1,0,.11s0,.07,0,.14a1.44,1.44,0,0,1-.39,1,1.77,1.77,0,0,1-1,.21,1.89,1.89,0,0,1-.94-.15.82.82,0,0,1-.24-.68V36.07A3.81,3.81,0,0,0,284.11,35.48Zm1-1a6.23,6.23,0,0,1,1.13.77.16.16,0,0,1,.07.11.24.24,0,0,1-.06.11l-.36.39q-.07.09-.12.09l-.07,0a5.83,5.83,0,0,0-1.1-.87c-.06,0-.09-.06-.09-.07s0-.06.07-.11l.35-.33a.16.16,0,0,1,.1-.07Zm2.8-2.4a2.28,2.28,0,0,0-.4.52c-.07.13-.13.19-.18.19a.46.46,0,0,1-.21-.12,6.93,6.93,0,0,1-1.5-1.81.16.16,0,0,1,0-.08s0-.05.1-.09l.46-.28.09,0s.06,0,.08.07a6.77,6.77,0,0,0,.73.95A4.49,4.49,0,0,0,287.93,32.1Zm-.76,3.68a7.14,7.14,0,0,1,.8,1.55.25.25,0,0,1,0,.07s0,.07-.12.1l-.49.27-.1,0s-.06,0-.08-.08a6.89,6.89,0,0,0-.74-1.59.11.11,0,0,1,0-.07s0-.06.1-.1l.46-.22a.18.18,0,0,1,.09,0A.14.14,0,0,1,287.17,35.78Z"/><path class="cls-6" d="M297.94,33.42a2.31,2.31,0,0,0-.38.69c-.05.15-.1.23-.16.23a.46.46,0,0,1-.21-.08,10.23,10.23,0,0,1-1.76-1v.63a.13.13,0,0,1,0,.08h-.08l-1,0h-1.4l-1,0s-.07,0-.08,0a.1.1,0,0,1,0-.07v-.65a11.48,11.48,0,0,1-1.66,1.06l-.21.09c-.05,0-.1-.08-.17-.23a2.15,2.15,0,0,0-.42-.6,8.12,8.12,0,0,0,3.46-2.75,2.75,2.75,0,0,0,.35-.64c.44.07.75.12,1,.17s.16.08.16.14a.16.16,0,0,1-.09.14.22.22,0,0,0-.07.06A8.24,8.24,0,0,0,297.94,33.42Zm-6.23,5.06H291c-.05,0-.08,0-.09,0s0,0,0-.07l0-1.6V36l0-1.09c0-.05,0-.08,0-.09H291l1.23,0h2.88l1.23,0a.16.16,0,0,1,.1,0s0,0,0,.08v3.42s0,.08,0,.08l-.08,0h-.77s-.08,0-.08,0a.13.13,0,0,1,0-.08V38h-3.61v.35a.13.13,0,0,1,0,.08Zm.11-2.82v1.57h3.61V35.66Zm.13-2.55c.14,0,.47,0,1,0h2.32a7.88,7.88,0,0,1-1.65-1.71A9.34,9.34,0,0,1,292,33.11Z"/><path class="cls-6" d="M300.88,31.51v5.75h5.3l1.24,0c.05,0,.07,0,.08,0a.13.13,0,0,1,0,.08v.72a.13.13,0,0,1,0,.08h-.08l-1.24,0h-5.3v.29a.14.14,0,0,1,0,.09h-.94a.14.14,0,0,1,0-.09l0-1.91V32.62l0-1.9a.14.14,0,0,1,0-.09H300l1.2,0h4.95l1.18,0c.05,0,.08,0,.08,0a.13.13,0,0,1,0,.08v.71a.14.14,0,0,1,0,.09h-.08l-1.18,0Zm1.75,3.32-1.23,0a.14.14,0,0,1-.09,0s0,0,0-.08v-.61s0-.08.1-.08h2.21a6,6,0,0,0,.08-.91h-1a4.6,4.6,0,0,1-.47.58c-.08.1-.15.15-.19.15s-.12-.06-.23-.16a2.1,2.1,0,0,0-.48-.32,5,5,0,0,0,1-1.26,2.54,2.54,0,0,0,.22-.58,6.4,6.4,0,0,1,.79.21c.08,0,.12.07.12.11a.17.17,0,0,1-.08.13.6.6,0,0,0-.15.25l-.07.12h2.21l1.14,0,.09,0a.54.54,0,0,1,0,.08v.6a.14.14,0,0,1,0,.09h-2a6.42,6.42,0,0,1-.08.91h2.61s0,0,0,.07v.61s0,.08,0,.08a.14.14,0,0,1-.09,0l-1.23,0h-1a4.06,4.06,0,0,0,2.48,1.39,4.06,4.06,0,0,0-.38.63c-.05.13-.1.19-.16.19l-.21,0a4.24,4.24,0,0,1-2.39-1.71A3.67,3.67,0,0,1,301.93,37l-.22.06s-.1-.06-.17-.2a2.08,2.08,0,0,0-.42-.54,5.08,5.08,0,0,0,1.55-.66,2,2,0,0,0,.72-.83Z"/><path class="cls-6" d="M316.62,33.1l.52.35c.06,0,.09.09.09.13s0,.09-.1.11a1,1,0,0,0-.26.19l-.24.19a5.36,5.36,0,0,0,1.15.48,1.76,1.76,0,0,0-.29.49c-.07.15-.12.22-.17.22a.63.63,0,0,1-.22-.07,5.25,5.25,0,0,1-.68-.36v1.6a.2.2,0,0,1,0,.09h-.09l-1.18,0h-.29v1.25a.62.62,0,0,1-.31.61,1.89,1.89,0,0,1-.85.13h-.24c-.09,0-.14,0-.16,0a.92.92,0,0,1-.07-.22,1.8,1.8,0,0,0-.19-.53,6,6,0,0,0,.62,0c.14,0,.23,0,.27-.07a.25.25,0,0,0,.06-.19v-1h-.37l-1.18,0c-.05,0-.08,0-.08,0s0,0,0-.08l0-.82V35l-.47.3a.41.41,0,0,1-.15.07s-.08,0-.13-.12a3.15,3.15,0,0,0-.22-.29,9.73,9.73,0,0,1-.15,1.25,5.86,5.86,0,0,1-.91,2.09c-.07.1-.13.15-.17.15s-.09,0-.17-.15a2.1,2.1,0,0,0-.51-.49,4.22,4.22,0,0,0,.94-2,5.3,5.3,0,0,0,.11-.64l-.51.28a1.68,1.68,0,0,0-.28.18.17.17,0,0,1-.14.07.11.11,0,0,1-.11-.09c-.07-.22-.15-.49-.23-.82a5.51,5.51,0,0,0,.72-.22,6.39,6.39,0,0,0,.61-.29c0-.45,0-.85,0-1.19l0-2a.22.22,0,0,1,0-.1h.08l1.24,0h1.62V30.9a3.23,3.23,0,0,0-.07-.69c.28,0,.6,0,1,0,.1,0,.15,0,.15.1a.54.54,0,0,1-.06.16,1,1,0,0,0,0,.35V31h1.73l1.22,0c.05,0,.07,0,.08,0s0,0,0,.09v.59s0,.07,0,.08h-.08l-1.22,0h-2.29c.26,0,.5.08.72.13s.14.05.14.11a.21.21,0,0,1-.08.16,1.08,1.08,0,0,0-.2.3h1.56l1.25,0,.08,0s0,0,0,.08V33a.08.08,0,0,1-.09.09l-1.25,0h-.57a2.86,2.86,0,0,0,.56.6l.34-.32A2,2,0,0,0,316.62,33.1Zm-6.57-1.26a9.71,9.71,0,0,1,.52,1.32.18.18,0,0,1,0,.06s0,.07-.1.12l-.4.23-.12,0s0,0-.06-.07a9.69,9.69,0,0,0-.51-1.37l0-.07s0,0,.1-.09l.4-.2a.24.24,0,0,1,.11,0S310,31.8,310.05,31.84Zm2.66,4.74.61.32c.07,0,.11.09.11.14s0,.09-.12.14a1.64,1.64,0,0,0-.2.17,5.14,5.14,0,0,1-1.09.84.52.52,0,0,1-.21.09s-.12-.07-.22-.19a2.27,2.27,0,0,0-.43-.4,4.63,4.63,0,0,0,1.2-.7A1.6,1.6,0,0,0,312.71,36.58Zm.36-3.49-1.24,0c-.07,0-.1,0-.1-.09v-.53c0-.05,0-.08,0-.09h.08l1.24,0h.58a2.43,2.43,0,0,0,.21-.7h-2.4v1.55c0,.55,0,1,0,1.37a7.22,7.22,0,0,0,.8-.49,5.7,5.7,0,0,0-.51-.53s0,0,0-.07,0-.06.08-.09l.3-.27a.16.16,0,0,1,.09,0,.09.09,0,0,1,.08,0,5.23,5.23,0,0,1,.53.52,3.36,3.36,0,0,0,.53-.61Zm2.53,1.41h-2.44v.41h2.44Zm0,1.39v-.37h-2.44v.37Zm-.37-2a3.59,3.59,0,0,1-.56-.77h-.49a5,5,0,0,1-.55.77Zm.74,2.83a4.49,4.49,0,0,0,1.48.87,2.7,2.7,0,0,0-.39.49c-.08.14-.15.21-.19.21a.78.78,0,0,1-.22-.09,6.08,6.08,0,0,1-1.31-1s0,0,0-.07,0-.06.08-.1l.4-.28.12-.06S315.94,36.67,316,36.69Z"/><path class="cls-6" d="M322,33.38v-.86a8.43,8.43,0,0,0-.12-1.59,6.16,6.16,0,0,1,1.17.18c.11,0,.17.08.17.16a.3.3,0,0,1-.05.15,1.87,1.87,0,0,0-.12.8v.93l2.35-.55a1.76,1.76,0,0,0,.64-.26.16.16,0,0,1,.12-.05.2.2,0,0,1,.13.05,3.15,3.15,0,0,1,.67.58.25.25,0,0,1,.07.16.26.26,0,0,1-.11.19,1.16,1.16,0,0,0-.28.35,9.94,9.94,0,0,1-1.43,1.94.38.38,0,0,1-.24.14.27.27,0,0,1-.17-.07,3.51,3.51,0,0,0-.74-.34,7.87,7.87,0,0,0,1.46-1.8l-2.47.63v2a.53.53,0,0,0,.24.52,2.43,2.43,0,0,0,.89.11,12.68,12.68,0,0,0,2.18-.19h0c.06,0,.1.06.12.19a4.57,4.57,0,0,1,.08.75c0,.09-.07.13-.19.14a19.54,19.54,0,0,1-2.15.1,3,3,0,0,1-1.84-.38,1.48,1.48,0,0,1-.42-1.2V34.37l-.57.16a8.86,8.86,0,0,0-1.27.38l-.11,0c-.05,0-.1-.05-.14-.15a5.26,5.26,0,0,1-.36-.91,14.86,14.86,0,0,0,1.69-.32Z"/><path class="cls-6" d="M329.38,32.2c.15-.18.36-.41.63-.7a.16.16,0,0,1,.13-.07l.12,0A8.09,8.09,0,0,1,332,32.75a.19.19,0,0,1,.08.13A.15.15,0,0,1,332,33c-.2.26-.38.49-.56.68s-.08.07-.11.07-.06,0-.11-.07A9.36,9.36,0,0,0,329.38,32.2Zm.2,4.49a7.06,7.06,0,0,0,1.22-.44c.58-.31,1.06-.58,1.44-.83s.72-.51,1.15-.85c.6-.49,1.08-.91,1.43-1.26a14.5,14.5,0,0,0,1-1.19,3.85,3.85,0,0,0,.25,1.05.79.79,0,0,1,0,.17.51.51,0,0,1-.15.28,13.1,13.1,0,0,1-2.07,1.9,19.31,19.31,0,0,1-2.71,1.77,3.67,3.67,0,0,0-.6.41.26.26,0,0,1-.17.09.25.25,0,0,1-.15-.09A5.82,5.82,0,0,1,329.58,36.69Z"/><path class="cls-6" d="M343.34,35.1a8,8,0,0,1,1,.91.18.18,0,0,1,.06.13.14.14,0,0,1-.06.11,3.37,3.37,0,0,1-.56.57.16.16,0,0,1-.1,0,.12.12,0,0,1-.1,0,9.08,9.08,0,0,0-.88-.87,11.24,11.24,0,0,1-2.87,2.25.54.54,0,0,1-.22.08.29.29,0,0,1-.17-.08,2.53,2.53,0,0,0-.86-.46,13,13,0,0,0,1.91-1.16,12.38,12.38,0,0,0,1.41-1.28,8.84,8.84,0,0,0-1.3-.85l.59-.64a.17.17,0,0,1,.12-.06l.09,0a9,9,0,0,1,1.16.72,8.79,8.79,0,0,0,1.05-1.78l-2.23,0a12,12,0,0,1-1.92,2,.42.42,0,0,1-.18.08.21.21,0,0,1-.15-.07,3.77,3.77,0,0,0-.75-.41,11.63,11.63,0,0,0,1.59-1.51,9.83,9.83,0,0,0,.95-1.31,4.14,4.14,0,0,0,.49-1.11,5.55,5.55,0,0,1,1.05.44.15.15,0,0,1,.1.14.22.22,0,0,1-.11.18.85.85,0,0,0-.19.19c-.07.12-.16.27-.28.45l1.59,0a.94.94,0,0,0,.49-.13.29.29,0,0,1,.16-.06.3.3,0,0,1,.16.07,2.45,2.45,0,0,1,.61.55.21.21,0,0,1,.07.16.24.24,0,0,1-.1.17,1.19,1.19,0,0,0-.26.34A14.66,14.66,0,0,1,343.34,35.1Z"/><path class="cls-6" d="M347.29,33.86a13.7,13.7,0,0,0,1.94.11h4l1,0h0c.08,0,.12,0,.12.13s0,.28,0,.42,0,.29,0,.42,0,.14-.12.14h0l-2,0H349l-1.32.11c-.11,0-.18-.06-.21-.19A9.57,9.57,0,0,1,347.29,33.86Z"/><path class="cls-6" d="M163.31,68.23a1.7,1.7,0,0,0-.24.72c0,.14,0,.23-.09.26a.66.66,0,0,1-.25,0c-1,0-2,.08-3.14.08a5.64,5.64,0,0,1-2.1-.24,2.29,2.29,0,0,1-.94-.82c-.27.26-.57.53-.91.8a.75.75,0,0,0-.18.18.17.17,0,0,1-.13.08c-.05,0-.09,0-.13-.11a7.46,7.46,0,0,1-.37-.84,4.86,4.86,0,0,0,.53-.28,5.06,5.06,0,0,0,.8-.58v-2h-.44l-.66,0c-.06,0-.09,0-.1,0a.55.55,0,0,1,0-.09v-.68s0-.08,0-.08a.14.14,0,0,1,.09,0l.66,0h.56l.68,0,.08,0a.13.13,0,0,1,0,.08l0,.86v1.91a1.52,1.52,0,0,0,.75.75,5.29,5.29,0,0,0,1.65.17A38.17,38.17,0,0,0,163.31,68.23ZM156,61.59A7.57,7.57,0,0,1,157.17,63s0,0,0,.07,0,.06-.09.1l-.53.41-.11,0a.1.1,0,0,1-.07-.06,5.63,5.63,0,0,0-.6-.84,6.46,6.46,0,0,0-.59-.64.07.07,0,0,1,0-.06s0-.06.08-.1l.49-.35a.19.19,0,0,1,.11-.05A.16.16,0,0,1,156,61.59Zm1.41,5.8a3.24,3.24,0,0,0,.74-1.48,9.67,9.67,0,0,0,.12-1.82v-.67c0-.38,0-.86-.08-1.44a5.91,5.91,0,0,1,.77.21,11.3,11.3,0,0,0,2.42-.61,3.18,3.18,0,0,0,.55-.28,4.13,4.13,0,0,1,.64.67.25.25,0,0,1,.06.16s-.05.08-.14.09a2,2,0,0,0-.38.06,14,14,0,0,1-2.95.72v.94h2.69l1.12,0a.14.14,0,0,1,.09,0s0,0,0,.08v.7s0,.07,0,.08a.14.14,0,0,1-.09,0l-1.12,0h-.27V67l0,1a.14.14,0,0,1,0,.09h-.85c-.05,0-.07,0-.08,0s0,0,0-.08l0-1V64.8h-1.5a7.72,7.72,0,0,1-.18,1.61,4,4,0,0,1-.69,1.41c-.07.11-.13.17-.17.17s-.08,0-.18-.15A2.83,2.83,0,0,0,157.36,67.39Z"/><path class="cls-6" d="M165.6,63.79a6.43,6.43,0,0,1,1.42.88s0,.06,0,.08a.29.29,0,0,1-.06.1l-.4.58s-.05.06-.07.06a.15.15,0,0,1-.08,0,6.58,6.58,0,0,0-1.41-1,.1.1,0,0,1-.06-.07s0,0,.06-.1l.37-.49s.07-.07.1-.07Zm-.6,5.05a5.91,5.91,0,0,0,.47-.64,18.73,18.73,0,0,0,1-2.12,4.45,4.45,0,0,0,.49.46c.13.1.19.18.19.23a1,1,0,0,1,0,.21,21.12,21.12,0,0,1-1,2,1.46,1.46,0,0,0-.17.34c0,.08,0,.12-.11.12a.32.32,0,0,1-.17-.06A5.22,5.22,0,0,1,165,68.84Zm.95-7.4a11.65,11.65,0,0,1,1.41,1s0,.05,0,.07a.31.31,0,0,1,0,.11l-.42.57s-.06.07-.08.07l-.07,0a7.51,7.51,0,0,0-1.44-1,.11.11,0,0,1-.06-.06.24.24,0,0,1,.06-.11l.42-.49a.13.13,0,0,1,.09-.07Zm3,1.63h-1.29a.15.15,0,0,1,0-.08v-.76s0-.08,0-.09h.08l1.2,0h2.65l1.21,0a.14.14,0,0,1,.09,0s0,0,0,.08V63a.13.13,0,0,1,0,.08h-2.26v4.8h2.46a.08.08,0,0,1,.09.09v.75s0,.08,0,.09a.13.13,0,0,1-.08,0l-1.24,0h-3.29l-1.24,0a.09.09,0,0,1-.11-.11V68a.13.13,0,0,1,0-.08h2.41v-4.8Z"/><path class="cls-6" d="M175,68.51a6.29,6.29,0,0,0,1.44-1.82,7.42,7.42,0,0,0,.67-2.26,5.35,5.35,0,0,0,.08-1,7.33,7.33,0,0,1,1,.16q.15,0,.15.12a.3.3,0,0,1,0,.16,1.45,1.45,0,0,0-.13.46,10.12,10.12,0,0,1-.82,2.76A6.47,6.47,0,0,1,176,69c-.1.11-.17.16-.21.16s-.11,0-.2-.14A2.48,2.48,0,0,0,175,68.51Zm5-5.67H178.5l-.95,0a.14.14,0,0,1-.09,0s0,0,0-.09V62a.13.13,0,0,1,0-.08h.08l.95,0h1.33l.95,0c.07,0,.11,0,.11.1,0,.27,0,.48,0,.62a9.9,9.9,0,0,0,.88,3.57,8.26,8.26,0,0,0,1.61,2.24,2.46,2.46,0,0,0-.74.56c-.08.09-.14.14-.17.14s-.1-.06-.19-.16A10.26,10.26,0,0,1,180,62.84Z"/><path class="cls-6" d="M193.25,65.42a1.83,1.83,0,0,0-.24.67c0,.11,0,.16-.1.16a.55.55,0,0,1-.22-.09l-.21-.11v0l0,.91v.81l0,1.53s0,.07,0,.08h-.7c-.07,0-.1,0-.1-.09v-.23h-2.5v.29a.1.1,0,0,1,0,.07.14.14,0,0,1-.09,0h-.59a.08.08,0,0,1-.09-.09l0-1.55v-.72l0-1-.21.1s-.1-.08-.18-.22l-.13-.18s0,.16,0,.45,0,.27,0,.36a1.23,1.23,0,0,1-.13.71.64.64,0,0,1-.51.21h-.13a.1.1,0,0,1-.1,0,.89.89,0,0,1,0-.18,1.21,1.21,0,0,0-.14-.52V68l0,1.46a.13.13,0,0,1,0,.08H186a.17.17,0,0,1,0-.08V63.69h-.31v2.87l0,1a.1.1,0,0,1,0,.07h-.61c-.07,0-.1,0-.1-.08l0-1.07V64.05L185,63a.16.16,0,0,1,0-.1h1v-.31a12.05,12.05,0,0,0-.05-1.29c.24,0,.52,0,.83.07.08,0,.13,0,.13.08a.35.35,0,0,1,0,.12.89.89,0,0,0,0,.11,5.29,5.29,0,0,0,0,.9v.32h.94s.07,0,.08,0,0,0,0,.09l0,1.13v1.36a4.42,4.42,0,0,0,1.63-1.19h-.19l-1.13,0a.14.14,0,0,1-.09,0s0,0,0-.08V63.7a.13.13,0,0,1,0-.08H190V62.41c-.55.05-1,.08-1.48.1h-.1c-.07,0-.12,0-.14,0a.58.58,0,0,1-.07-.18,1.23,1.23,0,0,0-.23-.5,19.29,19.29,0,0,0,3.51-.3,2.44,2.44,0,0,0,.58-.19,4,4,0,0,1,.52.5.25.25,0,0,1,.07.16c0,.07,0,.11-.16.11a2.83,2.83,0,0,0-.43,0c-.42.09-.84.15-1.25.2v1.3H193a.17.17,0,0,1,0,.08v.51a.14.14,0,0,1,0,.09h-.08l-1.21,0h-.4a3.82,3.82,0,0,0,.92.69A7.7,7.7,0,0,0,193.25,65.42ZM187,66.81c.1,0,.14-.08.14-.24V63.69h-.31v3.1Zm2.2-4.17a2.78,2.78,0,0,1,.34.62.56.56,0,0,0,0,.07s0,.06-.1.09l-.47.16-.1,0s-.06,0-.08-.08a2.65,2.65,0,0,0-.3-.63.17.17,0,0,1,0-.07s0,0,.1-.07l.44-.16.1,0S189.18,62.59,189.21,62.64ZM188.58,66h2.7l1.09,0a5.71,5.71,0,0,1-1.59-1.37c0,.22,0,.47,0,.75s0,.32,0,.35a.14.14,0,0,1,0,.09h-.68c-.05,0-.08,0-.09,0s0,0,0-.08,0-.16,0-.42,0-.45,0-.66A5.48,5.48,0,0,1,188.58,66Zm.58,1.22H190v-.55h-.87Zm0,1.23H190v-.59h-.87Zm2.5-1.78h-.87v.55h.87Zm-.87,1.78h.87v-.59h-.87Zm.41-5.08a5.59,5.59,0,0,0,.39-.69,2.64,2.64,0,0,0,.13-.37,3.91,3.91,0,0,1,.68.28c.07,0,.11.08.11.12a.14.14,0,0,1-.08.11.73.73,0,0,0-.16.18,6.14,6.14,0,0,1-.34.54.17.17,0,0,1-.12.08l-.17-.07A1.83,1.83,0,0,0,191.2,63.37Z"/><path class="cls-6" d="M196.13,63.36h-1.21a.2.2,0,0,1,0-.09v-.71c0-.06,0-.09,0-.1h3.42v-.31a4.8,4.8,0,0,0-.06-.85c.44,0,.77,0,1,.06s.15,0,.15.08a.84.84,0,0,1-.06.18,2,2,0,0,0,0,.52v.32h3.48c.05,0,.08,0,.09,0s0,0,0,.09v.71a.14.14,0,0,1,0,.09h-6.74Zm4,4.29.75,0a.34.34,0,0,0,.24-.07.36.36,0,0,0,.05-.23v-2H199.3v4a.08.08,0,0,1-.09.09h-.89s0,0,0-.08v-4h-1.66v2.06l0,1a.08.08,0,0,1-.1.1h-.8c-.06,0-.09,0-.09-.1l0-1V65.58l0-1c0-.07,0-.1.09-.1h2.54v-.13a6.16,6.16,0,0,0,0-.84c.43,0,.75,0,1,.06s.15,0,.15.1a.56.56,0,0,1-.06.17,1.83,1.83,0,0,0,0,.49v.15h2.8a.2.2,0,0,1,0,.09v3.12a.78.78,0,0,1-.22.6,2.38,2.38,0,0,1-1.25.22.58.58,0,0,1-.26,0s0-.08-.07-.19A2.26,2.26,0,0,0,200.08,67.65Z"/><path class="cls-6" d="M205.86,69.07l-1.12,0c-.06,0-.09,0-.09-.1v-.76c0-.06,0-.1.09-.1l1.12,0H209A30.07,30.07,0,0,0,210,65a6.12,6.12,0,0,0,.14-.86,10.41,10.41,0,0,1,1,.3.14.14,0,0,1,.11.13.26.26,0,0,1-.09.18,1,1,0,0,0-.17.36c-.3,1-.64,2-1,3h1.52l1.12,0a.13.13,0,0,1,.08,0s0,0,0,.08V69s0,.07,0,.08a.13.13,0,0,1-.08,0l-1.12,0Zm.5-5.31-1.19,0a.14.14,0,0,1-.09,0,.22.22,0,0,1,0-.09v-.73s0-.08,0-.09a.14.14,0,0,1,.09,0l1.19,0h1.79v-.69a4,4,0,0,0-.07-.83c.3,0,.63,0,1,0,.1,0,.14.05.14.11a.6.6,0,0,1-.05.18,1.73,1.73,0,0,0,0,.5v.69H211l1.21,0c.05,0,.08,0,.08,0a.17.17,0,0,1,0,.09v.73a.14.14,0,0,1,0,.09l-.08,0-1.21,0Zm.7.52a13,13,0,0,1,.9,3,.35.35,0,0,0,0,.06s0,.07-.12.09l-.71.23-.1,0s-.06,0-.07-.09a11.8,11.8,0,0,0-.84-3l0-.07s0-.05.12-.08l.65-.23.1,0S207,64.23,207.06,64.28Z"/><path class="cls-6" d="M217.48,64.2l.08,0s0,0,.06.07a8.37,8.37,0,0,1,.58,1.58v0c0,.05,0,.09-.11.11l-.44.17-.11,0s0,0-.06-.09l-.07-.37-.52.06v2.47l0,1.18a.17.17,0,0,1,0,.09h-.77l-.08,0s0,0,0-.08V65.86l-.73,0A1.18,1.18,0,0,0,215,66a.24.24,0,0,1-.13,0c-.05,0-.09,0-.11-.15a6.91,6.91,0,0,1-.11-.76c.22,0,.43,0,.65,0,.18-.22.35-.46.52-.7a10.51,10.51,0,0,0-1.15-1.29.15.15,0,0,1,0-.08.26.26,0,0,1,.07-.12l.33-.44s.07-.08.09-.08,0,0,.07,0,.2.21.21.21a10.06,10.06,0,0,0,.53-1,2.7,2.7,0,0,0,.16-.48q.34.14.75.33c.08,0,.12.08.12.14a.14.14,0,0,1-.09.12.56.56,0,0,0-.16.21c-.27.48-.53.9-.77,1.24l.38.45c.14-.23.34-.56.58-1a4.51,4.51,0,0,0,.26-.57,7.52,7.52,0,0,1,.74.33c.08,0,.11.09.11.13s0,.1-.1.15a1.37,1.37,0,0,0-.28.35q-.76,1.21-1.38,2l1-.06c-.09-.22-.16-.4-.23-.55a.18.18,0,0,1,0-.06s0-.07.1-.1Zm-2.87,4.38a5.25,5.25,0,0,0,.37-1.64c0-.16,0-.3,0-.42v-.16a6.67,6.67,0,0,1,.69.15c.1,0,.15.06.15.1a.21.21,0,0,1,0,.14.9.9,0,0,0-.07.33,9.07,9.07,0,0,1-.3,1.62c-.05.14-.08.22-.12.22a.84.84,0,0,1-.2-.11A1.83,1.83,0,0,0,214.61,68.58Zm3.61-1.72c0-.07,0-.1.08-.1h.08l.5.14q.09,0,.09.09a.23.23,0,0,1,0,.07,5.57,5.57,0,0,1-.61,1.84s0,.06-.06.06l-.12,0-.46-.28c-.07,0-.1-.08-.1-.1a.25.25,0,0,1,0-.07,3.58,3.58,0,0,0,.35-.68l-.49.16-.1,0s0,0,0-.09a6.79,6.79,0,0,0-.26-1.32l0-.06s0-.06.11-.09l.39-.11a.18.18,0,0,1,.09,0s0,0,.07.08a6.38,6.38,0,0,1,.31,1.27A7.47,7.47,0,0,0,218.22,66.86Zm.86-5.49a5.54,5.54,0,0,1,.75.34c.07,0,.1.08.1.12a.16.16,0,0,1-.08.13,1.17,1.17,0,0,0-.21.3,7.4,7.4,0,0,1-1.13,1.52c-.09.09-.15.13-.18.13s-.11-.06-.21-.18a2,2,0,0,0-.44-.44A4.36,4.36,0,0,0,218.82,62,3.09,3.09,0,0,0,219.08,61.37Zm2.26,2.22a9.09,9.09,0,0,1,1.19,1.67.26.26,0,0,1,0,.07s0,.06-.09.1l-.49.29a.29.29,0,0,1-.1,0s0,0-.08-.09l-.24-.46c-1.33.17-2.18.28-2.54.31a1.3,1.3,0,0,0-.38.08.39.39,0,0,1-.17.07c-.05,0-.09-.06-.12-.16l-.18-.77h.67a10.06,10.06,0,0,0,.67-1.43,2.35,2.35,0,0,0,.18-.6,7,7,0,0,1,.82.21q.15.06.15.15a.24.24,0,0,1-.08.13,1.14,1.14,0,0,0-.23.33,10.47,10.47,0,0,1-.59,1.16c.48,0,.93-.09,1.38-.15-.09-.13-.23-.31-.43-.56a.09.09,0,0,1,0-.06s0,0,.09-.09l.39-.26.1,0A.1.1,0,0,1,221.34,63.59Zm-2.23,2.89a4.32,4.32,0,0,1,.84.07c.09,0,.13,0,.13.09a.49.49,0,0,1,0,.12.93.93,0,0,0-.06.39v1.09c0,.17,0,.27.09.31a.64.64,0,0,0,.33.06c.21,0,.35,0,.41-.11a1.82,1.82,0,0,0,.17-.85,2.15,2.15,0,0,0,.56.25l.18.07a.14.14,0,0,1,0,.11s0,.07,0,.14a1.44,1.44,0,0,1-.39,1,1.77,1.77,0,0,1-1,.21,1.89,1.89,0,0,1-.94-.15.82.82,0,0,1-.24-.68V67.07A3.81,3.81,0,0,0,219.11,66.48Zm1-1a6.23,6.23,0,0,1,1.13.77.16.16,0,0,1,.07.11.24.24,0,0,1-.06.11l-.36.39q-.07.09-.12.09l-.07,0a5.83,5.83,0,0,0-1.1-.87l-.09-.07s0-.06.07-.11l.35-.33a.16.16,0,0,1,.1-.07Zm2.8-2.4a2.28,2.28,0,0,0-.4.52c-.07.13-.13.19-.18.19a.46.46,0,0,1-.21-.12,6.93,6.93,0,0,1-1.5-1.81.16.16,0,0,1,0-.08s0,0,.1-.09l.46-.28.09,0s.06,0,.08.07a6.77,6.77,0,0,0,.73.95A4.49,4.49,0,0,0,222.93,63.1Zm-.76,3.68a7.14,7.14,0,0,1,.8,1.55.25.25,0,0,1,0,.07s0,.07-.12.1l-.49.27a.22.22,0,0,1-.1,0s-.06,0-.08-.08a6.89,6.89,0,0,0-.74-1.59.11.11,0,0,1,0-.07s0-.06.1-.1l.46-.22a.18.18,0,0,1,.09,0A.14.14,0,0,1,222.17,66.78Z"/><path class="cls-6" d="M232.94,64.42a2.31,2.31,0,0,0-.38.69c-.05.15-.1.23-.16.23a.46.46,0,0,1-.21-.08,10.23,10.23,0,0,1-1.76-1v.63a.13.13,0,0,1,0,.08h-.08l-1,0h-1.4l-1,0s-.07,0-.08,0a.1.1,0,0,1,0-.07v-.65a11.48,11.48,0,0,1-1.66,1.06l-.21.09c-.05,0-.1-.08-.17-.23a2.15,2.15,0,0,0-.42-.6,8.12,8.12,0,0,0,3.46-2.75,2.75,2.75,0,0,0,.35-.64c.44.07.75.12.95.17s.16.08.16.14a.16.16,0,0,1-.09.14.22.22,0,0,0-.07.06A8.24,8.24,0,0,0,232.94,64.42Zm-6.23,5.06H226s-.08,0-.09,0,0,0,0-.07l0-1.6V67l0-1.09s0-.08,0-.09H226l1.23,0h2.88l1.23,0a.16.16,0,0,1,.1,0s0,0,0,.08v3.42s0,.08,0,.08l-.08,0h-.77c-.05,0-.08,0-.08,0a.13.13,0,0,1,0-.08V69h-3.61v.35a.13.13,0,0,1,0,.08Zm.11-2.82v1.57h3.61V66.66Zm.13-2.55c.14,0,.47,0,1,0h2.32a7.88,7.88,0,0,1-1.65-1.71A9.34,9.34,0,0,1,227,64.11Z"/><path class="cls-6" d="M235.88,62.51v5.75h5.3l1.24,0c.05,0,.07,0,.08,0a.13.13,0,0,1,0,.08v.72a.13.13,0,0,1,0,.08h-.08l-1.24,0h-5.3v.29a.14.14,0,0,1,0,.09h-.94a.14.14,0,0,1,0-.09l0-1.91V63.62l0-1.9a.14.14,0,0,1,0-.09H235l1.2,0h5l1.18,0s.08,0,.08,0a.13.13,0,0,1,0,.08v.71a.14.14,0,0,1,0,.09h-.08l-1.18,0Zm1.75,3.32-1.23,0a.14.14,0,0,1-.09,0s0,0,0-.08v-.61s0-.08.1-.08h2.21a6,6,0,0,0,.08-.91h-1a4.6,4.6,0,0,1-.47.58c-.08.1-.15.15-.19.15s-.12-.06-.23-.16a2.1,2.1,0,0,0-.48-.32,5,5,0,0,0,1-1.26,2.54,2.54,0,0,0,.22-.58,6.4,6.4,0,0,1,.79.21c.08,0,.12.07.12.11a.17.17,0,0,1-.08.13.6.6,0,0,0-.15.25l-.07.12h2.21l1.14,0,.09,0a.54.54,0,0,1,0,.08v.6a.14.14,0,0,1,0,.09h-2a6.42,6.42,0,0,1-.08.91h2.61s0,0,0,.07v.61s0,.08,0,.08a.14.14,0,0,1-.09,0l-1.23,0h-1a4.06,4.06,0,0,0,2.48,1.39,4.06,4.06,0,0,0-.38.63c0,.13-.1.19-.16.19l-.21,0a4.24,4.24,0,0,1-2.39-1.71A3.67,3.67,0,0,1,236.93,68l-.22.06s-.1-.06-.17-.2a2.08,2.08,0,0,0-.42-.54,5.08,5.08,0,0,0,1.55-.66,2,2,0,0,0,.72-.83Z"/><path class="cls-6" d="M251.62,64.1l.52.35c.06,0,.09.09.09.13s0,.09-.1.11a1,1,0,0,0-.26.19l-.24.19a5.36,5.36,0,0,0,1.15.48,1.76,1.76,0,0,0-.29.49c-.07.15-.12.22-.17.22a.63.63,0,0,1-.22-.07,5.25,5.25,0,0,1-.68-.36v1.6a.2.2,0,0,1,0,.09h-.09l-1.18,0h-.29v1.25a.62.62,0,0,1-.31.61,1.89,1.89,0,0,1-.85.13h-.24c-.09,0-.14,0-.16,0a.92.92,0,0,1-.07-.22,1.8,1.8,0,0,0-.19-.53,6,6,0,0,0,.62,0c.14,0,.23,0,.27-.07a.25.25,0,0,0,.06-.19v-1h-.37l-1.18,0s-.08,0-.08,0,0,0,0-.08l0-.82V66l-.47.3a.41.41,0,0,1-.15.07s-.08,0-.13-.12a3.15,3.15,0,0,0-.22-.29,9.73,9.73,0,0,1-.15,1.25,5.86,5.86,0,0,1-.91,2.09c-.07.1-.13.15-.17.15s-.09,0-.17-.15a2.1,2.1,0,0,0-.51-.49,4.22,4.22,0,0,0,.94-2,5.3,5.3,0,0,0,.11-.64l-.51.28a1.68,1.68,0,0,0-.28.18.17.17,0,0,1-.14.07.11.11,0,0,1-.11-.09c-.07-.22-.15-.49-.23-.82a5.51,5.51,0,0,0,.72-.22,6.39,6.39,0,0,0,.61-.29c0-.45,0-.85,0-1.19l0-2a.22.22,0,0,1,0-.1h.08l1.24,0h1.62V61.9a3.23,3.23,0,0,0-.07-.69c.28,0,.6,0,1,0,.1,0,.15,0,.15.1a.54.54,0,0,1-.06.16,1,1,0,0,0,0,.35V62h1.73l1.22,0c.05,0,.07,0,.08,0s0,0,0,.09v.59s0,.07,0,.08h-.08l-1.22,0h-2.29c.26,0,.5.08.72.13s.14,0,.14.11a.21.21,0,0,1-.08.16,1.08,1.08,0,0,0-.2.3h1.56l1.25,0,.08,0s0,0,0,.08V64a.08.08,0,0,1-.09.09l-1.25,0h-.57a2.86,2.86,0,0,0,.56.6l.34-.32A2,2,0,0,0,251.62,64.1Zm-6.57-1.26a9.71,9.71,0,0,1,.52,1.32.18.18,0,0,1,0,.06s0,.07-.1.12l-.4.23-.12.05s0,0-.06-.07a9.69,9.69,0,0,0-.51-1.37l0-.07s0,0,.1-.09l.4-.2a.24.24,0,0,1,.11,0S245,62.8,245.05,62.84Zm2.66,4.74.61.32c.07,0,.11.09.11.14s0,.09-.12.14a1.64,1.64,0,0,0-.2.17,5.14,5.14,0,0,1-1.09.84.52.52,0,0,1-.21.09s-.12-.07-.22-.19a2.27,2.27,0,0,0-.43-.4,4.63,4.63,0,0,0,1.2-.7A1.6,1.6,0,0,0,247.71,67.58Zm.36-3.49-1.24,0c-.07,0-.1,0-.1-.09v-.53c0-.05,0-.08,0-.09h.08l1.24,0h.58a2.43,2.43,0,0,0,.21-.7h-2.4v1.55c0,.55,0,1,0,1.37a7.22,7.22,0,0,0,.8-.49,5.7,5.7,0,0,0-.51-.53s0,0,0-.07,0-.06.08-.09l.3-.27a.16.16,0,0,1,.09,0,.09.09,0,0,1,.08,0,5.23,5.23,0,0,1,.53.52,3.36,3.36,0,0,0,.53-.61Zm2.53,1.41h-2.44v.41h2.44Zm0,1.39v-.37h-2.44v.37Zm-.37-2a3.59,3.59,0,0,1-.56-.77h-.49a5,5,0,0,1-.55.77Zm.74,2.83a4.49,4.49,0,0,0,1.48.87,2.7,2.7,0,0,0-.39.49c-.08.14-.15.21-.19.21a.78.78,0,0,1-.22-.09,6.08,6.08,0,0,1-1.31-1s0,0,0-.07,0-.06.08-.1l.4-.28a.31.31,0,0,1,.12-.06S250.94,67.67,251,67.69Z"/><path class="cls-6" d="M257,64.38v-.86a8.43,8.43,0,0,0-.12-1.59,6.16,6.16,0,0,1,1.17.18c.11,0,.17.08.17.16a.3.3,0,0,1-.05.15,1.87,1.87,0,0,0-.12.8v.93l2.35-.55a1.76,1.76,0,0,0,.64-.26.16.16,0,0,1,.12-.05.2.2,0,0,1,.13.05,3.15,3.15,0,0,1,.67.58.25.25,0,0,1,.07.16.26.26,0,0,1-.11.19,1.16,1.16,0,0,0-.28.35,9.94,9.94,0,0,1-1.43,1.94.38.38,0,0,1-.24.14.27.27,0,0,1-.17-.07,3.51,3.51,0,0,0-.74-.34,7.87,7.87,0,0,0,1.46-1.8l-2.47.63v2a.53.53,0,0,0,.24.52,2.43,2.43,0,0,0,.89.11,12.68,12.68,0,0,0,2.18-.19h0c.06,0,.1.06.12.19a4.57,4.57,0,0,1,.08.75c0,.09-.07.13-.19.14a19.54,19.54,0,0,1-2.15.1,3,3,0,0,1-1.84-.38,1.48,1.48,0,0,1-.42-1.2V65.37l-.57.16a8.86,8.86,0,0,0-1.27.38l-.11,0c-.05,0-.1,0-.14-.15a5.26,5.26,0,0,1-.36-.91,14.86,14.86,0,0,0,1.69-.32Z"/><path class="cls-6" d="M264.38,63.2c.15-.18.36-.41.63-.7a.16.16,0,0,1,.13-.07.31.31,0,0,1,.12,0A8.09,8.09,0,0,1,267,63.75a.19.19,0,0,1,.08.13A.15.15,0,0,1,267,64c-.2.26-.38.49-.56.68s-.08.07-.11.07-.06,0-.11-.07A9.36,9.36,0,0,0,264.38,63.2Zm.2,4.49a7.06,7.06,0,0,0,1.22-.44c.58-.31,1.06-.58,1.44-.83s.72-.51,1.15-.85c.6-.49,1.08-.91,1.43-1.26a14.5,14.5,0,0,0,1-1.19,3.85,3.85,0,0,0,.25,1.05.79.79,0,0,1,0,.17.51.51,0,0,1-.15.28,13.1,13.1,0,0,1-2.07,1.9,19.31,19.31,0,0,1-2.71,1.77,3.67,3.67,0,0,0-.6.41.26.26,0,0,1-.17.09.25.25,0,0,1-.15-.09A5.82,5.82,0,0,1,264.58,67.69Z"/><path class="cls-6" d="M278.34,66.1a8,8,0,0,1,1,.91.18.18,0,0,1,.06.13.14.14,0,0,1-.06.11,3.37,3.37,0,0,1-.56.57.16.16,0,0,1-.1,0,.12.12,0,0,1-.1,0,9.08,9.08,0,0,0-.88-.87,11.24,11.24,0,0,1-2.87,2.25.54.54,0,0,1-.22.08.29.29,0,0,1-.17-.08,2.53,2.53,0,0,0-.86-.46,13,13,0,0,0,1.91-1.16,12.38,12.38,0,0,0,1.41-1.28,8.84,8.84,0,0,0-1.3-.85l.59-.64a.17.17,0,0,1,.12-.06l.09,0a9,9,0,0,1,1.16.72,8.79,8.79,0,0,0,1.05-1.78l-2.23,0a12,12,0,0,1-1.92,2,.42.42,0,0,1-.18.08.21.21,0,0,1-.15-.07,3.77,3.77,0,0,0-.75-.41,11.63,11.63,0,0,0,1.59-1.51,9.83,9.83,0,0,0,.95-1.31,4.14,4.14,0,0,0,.49-1.11,5.55,5.55,0,0,1,1.05.44.15.15,0,0,1,.1.14.22.22,0,0,1-.11.18.85.85,0,0,0-.19.19c-.07.12-.16.27-.28.45l1.59,0a.94.94,0,0,0,.49-.13.29.29,0,0,1,.16-.06.3.3,0,0,1,.16.07,2.45,2.45,0,0,1,.61.55.21.21,0,0,1,.07.16.24.24,0,0,1-.1.17,1.19,1.19,0,0,0-.26.34A14.66,14.66,0,0,1,278.34,66.1Z"/><path class="cls-6" d="M282.29,64.86a13.7,13.7,0,0,0,1.94.11h4l1,0h0c.08,0,.12,0,.12.13s0,.28,0,.42,0,.29,0,.42,0,.14-.12.14h0l-2,0H284l-1.32.11c-.11,0-.18-.06-.21-.19A9.57,9.57,0,0,1,282.29,64.86Z"/><path class="cls-6" d="M54.31,97.23a1.7,1.7,0,0,0-.24.72.71.71,0,0,1-.08.26.79.79,0,0,1-.26,0c-1,0-2,.08-3.14.08a5.64,5.64,0,0,1-2.1-.24,2.29,2.29,0,0,1-.94-.82c-.27.26-.57.53-.91.8a.75.75,0,0,0-.18.18.17.17,0,0,1-.13.08s-.09,0-.13-.11a7.46,7.46,0,0,1-.37-.84c.22-.1.4-.2.54-.28a4.91,4.91,0,0,0,.79-.58v-2h-.44l-.66,0c-.06,0-.09,0-.1,0a.55.55,0,0,1,0-.09v-.68s0-.08,0-.08a.14.14,0,0,1,.09,0l.66,0h.56l.68,0s.08,0,.08,0a.13.13,0,0,1,0,.08l0,.86v1.91a1.52,1.52,0,0,0,.75.75,5.29,5.29,0,0,0,1.65.17A38.17,38.17,0,0,0,54.31,97.23ZM47,90.59A7.57,7.57,0,0,1,48.17,92s0,0,0,.07,0,.06-.09.1l-.52.41-.12.05a.1.1,0,0,1-.07-.06,5.63,5.63,0,0,0-.6-.84,6.46,6.46,0,0,0-.59-.64.07.07,0,0,1,0-.06s0-.06.08-.1l.49-.35a.19.19,0,0,1,.11,0A.16.16,0,0,1,47,90.59Zm1.41,5.8a3.24,3.24,0,0,0,.74-1.48,9.67,9.67,0,0,0,.12-1.82v-.67c0-.38,0-.86-.08-1.44a5.91,5.91,0,0,1,.77.21,11.3,11.3,0,0,0,2.42-.61,3.18,3.18,0,0,0,.55-.28,4.13,4.13,0,0,1,.64.67.25.25,0,0,1,.06.16c0,.05,0,.08-.14.09a2,2,0,0,0-.38.06,14,14,0,0,1-3,.72v.94H52.8l1.12,0a.14.14,0,0,1,.09,0s0,0,0,.08v.7s0,.07,0,.08a.14.14,0,0,1-.09,0l-1.12,0h-.27V96l0,1a.14.14,0,0,1,0,.09h-.85s-.07,0-.08,0,0,0,0-.08V93.8H50.1a7.72,7.72,0,0,1-.18,1.61,4,4,0,0,1-.69,1.41c-.07.11-.13.17-.17.17s-.08,0-.18-.15A2.83,2.83,0,0,0,48.36,96.39Z"/><path class="cls-6" d="M56.6,92.79a6.43,6.43,0,0,1,1.42.88s0,.06,0,.08a.29.29,0,0,1-.06.1l-.4.58s0,.06-.07.06,0,0-.08,0a6.58,6.58,0,0,0-1.41-1,.1.1,0,0,1-.06-.07s0,0,.06-.1l.37-.49s.07-.07.1-.07Zm-.6,5a5.91,5.91,0,0,0,.47-.64,21.3,21.3,0,0,0,1-2.12,3.57,3.57,0,0,0,.48.46c.13.1.19.18.19.23a1,1,0,0,1,0,.21,18.89,18.89,0,0,1-1,2,1.46,1.46,0,0,0-.17.34c0,.08,0,.12-.11.12a.32.32,0,0,1-.17-.06A5.22,5.22,0,0,1,56,97.84Zm1-7.4a11.65,11.65,0,0,1,1.41,1s0,0,0,.07a.31.31,0,0,1,0,.11l-.42.57s-.06.07-.08.07l-.07,0a7.51,7.51,0,0,0-1.44-1,.11.11,0,0,1-.06-.06.24.24,0,0,1,.06-.11l.42-.49a.13.13,0,0,1,.09-.07Zm3,1.63H58.64a.17.17,0,0,1,0-.08v-.76s0-.08,0-.09h.08l1.2,0h2.65l1.21,0a.14.14,0,0,1,.09,0s0,0,0,.08V92a.13.13,0,0,1,0,.08H61.61v4.8h2.46a.08.08,0,0,1,.09.09v.75s0,.08,0,.09l-.08,0-1.24,0H59.54l-1.24,0a.14.14,0,0,1-.09,0s0,0,0-.09V97s0-.07,0-.08h2.41v-4.8Z"/><path class="cls-6" d="M66,97.51a6.12,6.12,0,0,0,1.44-1.82,7.42,7.42,0,0,0,.67-2.26,6.39,6.39,0,0,0,.09-1,7.43,7.43,0,0,1,1,.16q.15,0,.15.12a.3.3,0,0,1-.05.16,1.45,1.45,0,0,0-.13.46,10.5,10.5,0,0,1-.81,2.76A6.72,6.72,0,0,1,67,98c-.1.11-.17.16-.21.16s-.11,0-.19-.14A2.68,2.68,0,0,0,66,97.51ZM71,91.84H69.5l-1,0a.14.14,0,0,1-.09,0s0,0,0-.09V91a.13.13,0,0,1,0-.08h.08l1,0h1.33l1,0c.07,0,.11,0,.11.1,0,.27,0,.48,0,.62a9.9,9.9,0,0,0,.88,3.57,8.26,8.26,0,0,0,1.61,2.24,2.46,2.46,0,0,0-.74.56c-.08.09-.14.14-.17.14s-.1-.06-.19-.16A10.26,10.26,0,0,1,71,91.84Z"/><path class="cls-6" d="M84.25,94.42a1.83,1.83,0,0,0-.24.67c0,.11-.05.16-.1.16a.55.55,0,0,1-.22-.09l-.21-.11v0l0,.91v.81l0,1.53s0,.07,0,.08h-.7c-.07,0-.1,0-.1-.09v-.23h-2.5v.29a.1.1,0,0,1,0,.07.14.14,0,0,1-.09,0h-.59a.08.08,0,0,1-.09-.09l0-1.55v-.72l0-1a1,1,0,0,1-.21.1s-.1-.08-.18-.22l-.13-.18s0,.16,0,.45,0,.27,0,.36a1.23,1.23,0,0,1-.13.71.64.64,0,0,1-.51.21h-.13a.11.11,0,0,1-.1,0,.89.89,0,0,1,0-.18,1.09,1.09,0,0,0-.14-.52V97l0,1.46s0,.07,0,.08H77a.17.17,0,0,1,0-.08L77,97V92.69h-.32v2.87l0,1a.1.1,0,0,1,0,.07h-.61c-.07,0-.1,0-.1-.08l0-1.07V93.05L76,92a.16.16,0,0,1,0-.1h1v-.31A11.77,11.77,0,0,0,77,90.29c.24,0,.52,0,.83.07.08,0,.13,0,.13.08a.35.35,0,0,1,0,.12.89.89,0,0,0,0,.11,5.29,5.29,0,0,0,0,.9v.32h.94s.07,0,.08,0,0,0,0,.09l0,1.13v1.36a4.42,4.42,0,0,0,1.63-1.19h-.19l-1.13,0-.09,0a.54.54,0,0,1,0-.08V92.7a.13.13,0,0,1,0-.08H81V91.41c-.55,0-1,.08-1.48.1h-.1c-.07,0-.12,0-.14,0a.58.58,0,0,1-.07-.18,1.23,1.23,0,0,0-.23-.5,19.21,19.21,0,0,0,3.51-.3,2.44,2.44,0,0,0,.58-.19,4,4,0,0,1,.52.5.25.25,0,0,1,.07.16c0,.07,0,.11-.16.11a2.83,2.83,0,0,0-.43.05c-.42.09-.83.15-1.24.2v1.3H84a.17.17,0,0,1,0,.08v.51a.14.14,0,0,1,0,.09h-.08l-1.21,0h-.4a3.82,3.82,0,0,0,.92.69A7.7,7.7,0,0,0,84.25,94.42ZM78,95.81c.1,0,.14-.08.14-.24V92.69h-.31v3.1Zm2.2-4.17a2.78,2.78,0,0,1,.34.62.56.56,0,0,0,0,.07s0,.06-.1.09l-.47.16-.1,0s-.06,0-.08-.08a2.65,2.65,0,0,0-.3-.63.17.17,0,0,1,0-.07s0,0,.1-.07l.44-.16.1,0S80.18,91.59,80.21,91.64ZM79.58,95h2.7l1.09,0a5.85,5.85,0,0,1-1.59-1.37c0,.22,0,.47,0,.75s0,.32,0,.35a.14.14,0,0,1,0,.09h-.68c-.05,0-.08,0-.09,0s0,0,0-.08,0-.16,0-.42,0-.45,0-.66A5.48,5.48,0,0,1,79.58,95Zm.58,1.22H81v-.55h-.87Zm0,1.23H81v-.59h-.87Zm2.5-1.78h-.87v.55h.87Zm-.87,1.78h.87v-.59h-.87Zm.41-5.08a4.52,4.52,0,0,0,.39-.69,2.64,2.64,0,0,0,.13-.37,3.91,3.91,0,0,1,.68.28c.07,0,.11.08.11.12a.14.14,0,0,1-.08.11.71.71,0,0,0-.15.18c-.15.24-.26.42-.35.54a.17.17,0,0,1-.12.08l-.17-.07A1.68,1.68,0,0,0,82.2,92.37Z"/><path class="cls-6" d="M87.13,92.36H85.92a.2.2,0,0,1,0-.09v-.71c0-.06,0-.09,0-.1h3.42v-.31a4.8,4.8,0,0,0-.06-.85c.44,0,.77,0,1,.06s.15,0,.15.08a.84.84,0,0,1-.06.18,2,2,0,0,0,0,.52v.32h3.48s.08,0,.09,0,0,0,0,.09v.71a.14.14,0,0,1,0,.09H87.13Zm4,4.29.75,0a.34.34,0,0,0,.24-.07.35.35,0,0,0,.06-.23v-2H90.3v2.68l0,1.33c0,.06,0,.09-.1.09h-.89s0,0,0-.08v-4H87.67v2.06l0,1a.13.13,0,0,1,0,.08l-.08,0h-.8c-.06,0-.09,0-.09-.1l0-1V94.58l0-1c0-.07,0-.1.09-.1h2.54v-.13a6.16,6.16,0,0,0,0-.84c.43,0,.75,0,1,.06s.15,0,.15.1a.56.56,0,0,1-.06.17,1.83,1.83,0,0,0,0,.49v.15h2.8a.2.2,0,0,1,0,.09v3.12a.78.78,0,0,1-.22.6,2.38,2.38,0,0,1-1.25.22.61.61,0,0,1-.26,0s0-.08-.07-.19A2,2,0,0,0,91.08,96.65Z"/><path class="cls-6" d="M96.86,98.07l-1.12,0c-.06,0-.09,0-.09-.1v-.76c0-.06,0-.1.09-.1l1.12,0H100A30.07,30.07,0,0,0,101,94a6.12,6.12,0,0,0,.14-.86,10.41,10.41,0,0,1,1,.3.13.13,0,0,1,.11.13.26.26,0,0,1-.09.18,1.21,1.21,0,0,0-.17.36c-.3,1-.64,2-1,3h1.52l1.12,0a.13.13,0,0,1,.08,0s0,0,0,.08V98s0,.07,0,.08a.13.13,0,0,1-.08,0l-1.12,0Zm.5-5.31-1.19,0a.14.14,0,0,1-.09,0,.22.22,0,0,1,0-.09v-.73s0-.08,0-.09a.17.17,0,0,1,.09,0l1.19,0h1.79v-.69a4,4,0,0,0-.07-.83c.3,0,.63,0,1,0,.1,0,.14,0,.14.11a.6.6,0,0,1,0,.18,1.73,1.73,0,0,0,0,.5v.69H102l1.21,0s.08,0,.08,0a.17.17,0,0,1,0,.09v.73a.14.14,0,0,1,0,.09.13.13,0,0,1-.08,0l-1.21,0Zm.7.52a13,13,0,0,1,.9,3,.35.35,0,0,0,0,.06s0,.07-.12.09l-.71.23-.1,0s-.05,0-.07-.09a11.41,11.41,0,0,0-.84-3l0-.07s0-.05.12-.08l.66-.23.09,0S98,93.23,98.06,93.28Z"/><path class="cls-6" d="M108.48,93.2l.08,0s0,0,.06.07a7.73,7.73,0,0,1,.58,1.58v0c0,.05,0,.09-.11.11l-.44.17-.11,0s0,0-.06-.09l-.07-.37-.52.06v2.47l0,1.18a.17.17,0,0,1,0,.09h-.77a.13.13,0,0,1-.08,0s0,0,0-.08V94.86l-.73,0A1.18,1.18,0,0,0,106,95a.24.24,0,0,1-.13,0s-.09,0-.11-.15a6.91,6.91,0,0,1-.11-.76c.22,0,.43,0,.65,0,.18-.22.36-.46.52-.7a10.51,10.51,0,0,0-1.15-1.29.15.15,0,0,1,0-.08.41.41,0,0,1,.07-.12l.33-.44c0-.05.07-.08.09-.08s0,0,.07,0,.2.21.21.21a10.06,10.06,0,0,0,.53-1,2.7,2.7,0,0,0,.16-.48q.35.14.75.33c.08,0,.12.08.12.14a.14.14,0,0,1-.09.12.56.56,0,0,0-.16.21c-.27.48-.53.9-.77,1.24l.38.45c.14-.23.34-.56.59-1,.1-.21.19-.4.25-.57a7.52,7.52,0,0,1,.74.33c.08,0,.11.09.11.13s0,.1-.1.15a1.37,1.37,0,0,0-.28.35q-.77,1.22-1.38,2l1-.06c-.09-.22-.16-.4-.23-.55a.18.18,0,0,1,0-.06s0-.07.1-.1Zm-2.87,4.38a5.25,5.25,0,0,0,.37-1.64c0-.16,0-.3,0-.42v-.16a6.67,6.67,0,0,1,.69.15c.1,0,.16.06.16.1a.22.22,0,0,1,0,.14.9.9,0,0,0-.07.33,9.07,9.07,0,0,1-.3,1.62c0,.14-.08.22-.12.22a.84.84,0,0,1-.2-.11A1.83,1.83,0,0,0,105.61,97.58Zm3.61-1.72c0-.07,0-.1.08-.1h.08l.5.14q.09,0,.09.09v.07a5.56,5.56,0,0,1-.62,1.84s0,.06-.06.06l-.12,0-.46-.28c-.07,0-.1-.08-.1-.1a.25.25,0,0,1,0-.07,3.58,3.58,0,0,0,.35-.68l-.49.16-.1,0s0,0,0-.09a6.11,6.11,0,0,0-.26-1.32l0-.06s0-.06.11-.09l.39-.11a.18.18,0,0,1,.09,0s0,0,.07.08a6.38,6.38,0,0,1,.31,1.27A7.47,7.47,0,0,0,109.22,95.86Zm.86-5.49a5.54,5.54,0,0,1,.75.34c.07,0,.1.08.1.12a.16.16,0,0,1-.08.13,1.17,1.17,0,0,0-.21.3,7.4,7.4,0,0,1-1.13,1.52c-.09.09-.15.13-.18.13s-.11-.06-.21-.18a2,2,0,0,0-.44-.44A4.53,4.53,0,0,0,109.83,91,3,3,0,0,0,110.08,90.37Zm2.26,2.22a9.09,9.09,0,0,1,1.19,1.67.26.26,0,0,1,0,.07s0,.06-.09.1l-.49.29a.29.29,0,0,1-.1,0s0,0-.08-.09l-.24-.46c-1.33.17-2.18.28-2.54.31a1.3,1.3,0,0,0-.38.08.35.35,0,0,1-.17.07s-.09-.06-.12-.16l-.18-.77h.67a10.06,10.06,0,0,0,.67-1.43,2.35,2.35,0,0,0,.18-.6,7,7,0,0,1,.82.21q.15.06.15.15a.24.24,0,0,1-.08.13,1.14,1.14,0,0,0-.23.33,10.47,10.47,0,0,1-.59,1.16c.48,0,.93-.09,1.38-.15-.09-.13-.23-.31-.43-.56a.09.09,0,0,1,0-.06s0-.05.09-.09l.39-.26a.27.27,0,0,1,.1,0A.1.1,0,0,1,112.34,92.59Zm-2.22,2.89a4.28,4.28,0,0,1,.83.07c.09,0,.13,0,.13.09a.49.49,0,0,1,0,.12.93.93,0,0,0-.06.39v1.09c0,.17,0,.27.09.31a.64.64,0,0,0,.33.06c.21,0,.35,0,.41-.11a1.69,1.69,0,0,0,.17-.85,2.15,2.15,0,0,0,.56.25l.18.07a.14.14,0,0,1,0,.11s0,.07,0,.14a1.44,1.44,0,0,1-.39,1,1.76,1.76,0,0,1-1,.21,1.91,1.91,0,0,1-.95-.15.82.82,0,0,1-.24-.68V96.07A5.65,5.65,0,0,0,110.12,95.48Zm1-1a6.23,6.23,0,0,1,1.13.77.16.16,0,0,1,.07.11.24.24,0,0,1-.06.11l-.36.39q-.07.09-.12.09l-.07,0a5.83,5.83,0,0,0-1.1-.87l-.09-.07s0-.06.07-.11l.35-.33a.16.16,0,0,1,.1-.07Zm2.8-2.4a2.28,2.28,0,0,0-.4.52c-.07.13-.13.19-.18.19a.46.46,0,0,1-.21-.12,6.93,6.93,0,0,1-1.5-1.81.16.16,0,0,1,0-.08s0,0,.1-.09l.46-.28.09,0s.06,0,.08.07a6.77,6.77,0,0,0,.73,1A4.49,4.49,0,0,0,113.93,92.1Zm-.76,3.68a7.14,7.14,0,0,1,.8,1.55.11.11,0,0,1,0,.07s0,.07-.12.1l-.49.27a.22.22,0,0,1-.1,0s-.06,0-.08-.08a6.89,6.89,0,0,0-.74-1.59.11.11,0,0,1,0-.07s0-.06.1-.1l.46-.22a.22.22,0,0,1,.1,0A.15.15,0,0,1,113.17,95.78Z"/><path class="cls-6" d="M123.94,93.42a2.55,2.55,0,0,0-.38.69c0,.15-.1.23-.16.23a.46.46,0,0,1-.21-.08,10.23,10.23,0,0,1-1.76-1v.63a.13.13,0,0,1,0,.08h-.08l-1,0h-1.4l-1,0s-.07,0-.08,0a.1.1,0,0,1,0-.07v-.65a11.48,11.48,0,0,1-1.66,1.06l-.21.09c-.05,0-.1-.08-.17-.23a2.15,2.15,0,0,0-.42-.6,8.06,8.06,0,0,0,3.46-2.75,2.75,2.75,0,0,0,.35-.64c.44.07.75.12.95.17s.16.08.16.14a.16.16,0,0,1-.09.14.22.22,0,0,0-.07.06A8.24,8.24,0,0,0,123.94,93.42Zm-6.23,5.06H117s-.08,0-.09,0,0,0,0-.07l0-1.6V96l0-1.09a.14.14,0,0,1,0-.09H117l1.23,0h2.88l1.23,0a.16.16,0,0,1,.1,0s0,0,0,.08v3.42s0,.08,0,.08a.13.13,0,0,1-.08,0h-.77s-.07,0-.08,0a.13.13,0,0,1,0-.08V98h-3.61v.35a.13.13,0,0,1,0,.08Zm.11-2.82v1.57h3.61V95.66Zm.13-2.55c.14,0,.47,0,1,0h2.32a7.88,7.88,0,0,1-1.65-1.71A9.34,9.34,0,0,1,118,93.11Z"/><path class="cls-6" d="M126.88,91.51v5.75h5.3l1.24,0c.05,0,.07,0,.08,0a.13.13,0,0,1,0,.08v.72a.13.13,0,0,1,0,.08h-.08l-1.24,0h-5.3v.29a.14.14,0,0,1,0,.09h-.94a.14.14,0,0,1,0-.09l0-1.91V92.62l0-1.9a.14.14,0,0,1,0-.09H126l1.19,0h5l1.18,0a.14.14,0,0,1,.09,0,.54.54,0,0,1,0,.08v.71a.14.14,0,0,1,0,.09h-.08l-1.18,0Zm1.75,3.32-1.23,0a.14.14,0,0,1-.09,0s0,0,0-.08v-.61s0-.08.1-.08h2.21a6,6,0,0,0,.08-.91h-1a4.6,4.6,0,0,1-.47.58c-.08.1-.15.15-.19.15s-.12-.06-.23-.16a2.1,2.1,0,0,0-.48-.32,5,5,0,0,0,1-1.26,2.14,2.14,0,0,0,.22-.58,6.4,6.4,0,0,1,.79.21c.08,0,.12.07.12.11a.17.17,0,0,1-.08.13.73.73,0,0,0-.15.25l-.07.12h2.21l1.14,0a.17.17,0,0,1,.09,0s0,0,0,.08v.6a.14.14,0,0,1,0,.09h-2a6.42,6.42,0,0,1-.08.91h2.61s0,0,0,.07v.61s0,.08,0,.08a.14.14,0,0,1-.09,0l-1.23,0h-1a4.06,4.06,0,0,0,2.48,1.39,4.06,4.06,0,0,0-.38.63c0,.13-.1.19-.15.19l-.22,0a4.24,4.24,0,0,1-2.39-1.71A3.67,3.67,0,0,1,127.93,97l-.22.06s-.1-.06-.17-.2a2.08,2.08,0,0,0-.42-.54,5.08,5.08,0,0,0,1.55-.66,2,2,0,0,0,.72-.83Z"/><path class="cls-6" d="M142.62,93.1l.52.35c.06,0,.09.09.09.13s0,.09-.1.11a1,1,0,0,0-.26.19l-.24.19a5.36,5.36,0,0,0,1.15.48,1.76,1.76,0,0,0-.29.49c-.07.15-.12.22-.17.22a.63.63,0,0,1-.22-.07,5.25,5.25,0,0,1-.68-.36v.87l0,.73a.17.17,0,0,1,0,.09h-.09l-1.18,0h-.29v1.25a.62.62,0,0,1-.31.61,1.89,1.89,0,0,1-.85.13h-.24a.2.2,0,0,1-.16,0,.92.92,0,0,1-.07-.22,1.8,1.8,0,0,0-.19-.53,6,6,0,0,0,.62,0c.14,0,.23,0,.27-.07a.25.25,0,0,0,.06-.19v-1h-.37l-1.18,0s-.07,0-.08,0,0,0,0-.08l0-.82V95l-.47.3a.41.41,0,0,1-.15.07s-.08,0-.13-.12a3.15,3.15,0,0,0-.22-.29,9.73,9.73,0,0,1-.15,1.25,5.69,5.69,0,0,1-.91,2.09c-.07.1-.13.15-.17.15s-.09,0-.17-.15a2.1,2.1,0,0,0-.51-.49,4.22,4.22,0,0,0,.94-2,5.3,5.3,0,0,0,.11-.64l-.51.28a1.68,1.68,0,0,0-.28.18.16.16,0,0,1-.13.07.12.12,0,0,1-.12-.09c-.07-.22-.15-.49-.23-.82a5.51,5.51,0,0,0,.72-.22,6.39,6.39,0,0,0,.61-.29c0-.45,0-.85,0-1.19l0-2a.22.22,0,0,1,0-.1h.08l1.24,0h1.62V90.9a3.23,3.23,0,0,0-.07-.69c.28,0,.6,0,1,0,.1,0,.15,0,.15.1a.54.54,0,0,1-.06.16,1,1,0,0,0,0,.35V91h1.73l1.22,0c.05,0,.08,0,.08,0s0,0,0,.09v.59s0,.07,0,.08h-.08l-1.22,0h-2.29c.26,0,.5.08.72.13s.14,0,.14.11a.21.21,0,0,1-.08.16,1.08,1.08,0,0,0-.2.3h1.56l1.25,0a.13.13,0,0,1,.08,0s0,0,0,.08V93a.08.08,0,0,1-.09.09l-1.25,0h-.57a2.86,2.86,0,0,0,.56.6l.34-.32A1.42,1.42,0,0,0,142.62,93.1Zm-6.57-1.26a9.71,9.71,0,0,1,.52,1.32.18.18,0,0,1,0,.06s0,.07-.1.12l-.4.23-.12.05s0,0-.06-.07a10.88,10.88,0,0,0-.5-1.37.26.26,0,0,1,0-.07s0,0,.1-.09l.4-.2a.24.24,0,0,1,.11,0S136,91.8,136.05,91.84Zm2.66,4.74.61.32c.07,0,.11.09.11.14s0,.09-.12.14a1.64,1.64,0,0,0-.2.17,4.9,4.9,0,0,1-1.09.84.52.52,0,0,1-.21.09s-.11-.07-.22-.19a2.27,2.27,0,0,0-.43-.4,4.63,4.63,0,0,0,1.2-.7A1.42,1.42,0,0,0,138.71,96.58Zm.36-3.49-1.24,0c-.07,0-.1,0-.1-.09v-.53s0-.08,0-.09h.08l1.24,0h.58a2.43,2.43,0,0,0,.21-.7h-2.4v1.55c0,.55,0,1,0,1.37a7.22,7.22,0,0,0,.8-.49,5.7,5.7,0,0,0-.51-.53s0,0,0-.07,0-.06.08-.09l.3-.27a.16.16,0,0,1,.09,0,.12.12,0,0,1,.09,0,6.38,6.38,0,0,1,.52.52,3.36,3.36,0,0,0,.53-.61Zm2.53,1.41h-2.44v.41h2.44Zm0,1.39v-.37h-2.44v.37Zm-.37-2a3.59,3.59,0,0,1-.56-.77h-.49a5,5,0,0,1-.55.77Zm.74,2.83a4.49,4.49,0,0,0,1.48.87,2.7,2.7,0,0,0-.39.49c-.08.14-.15.21-.19.21a.78.78,0,0,1-.22-.09,6.08,6.08,0,0,1-1.31-1s0,0,0-.07,0-.06.08-.1l.41-.28a.24.24,0,0,1,.11-.06S141.94,96.67,142,96.69Z"/><path class="cls-6" d="M148,93.38v-.86a8.43,8.43,0,0,0-.12-1.59,6.16,6.16,0,0,1,1.17.18c.11,0,.17.08.17.16a.3.3,0,0,1,0,.15,1.87,1.87,0,0,0-.12.8v.93l2.35-.55a1.76,1.76,0,0,0,.64-.26.16.16,0,0,1,.12,0,.2.2,0,0,1,.13,0,3.15,3.15,0,0,1,.67.58.25.25,0,0,1,.07.16.23.23,0,0,1-.11.19,1.16,1.16,0,0,0-.28.35,9.94,9.94,0,0,1-1.43,1.94.38.38,0,0,1-.24.14.27.27,0,0,1-.17-.07,3.51,3.51,0,0,0-.74-.34,7.87,7.87,0,0,0,1.46-1.8l-2.47.63v2a.53.53,0,0,0,.24.52,2.43,2.43,0,0,0,.89.11,12.68,12.68,0,0,0,2.18-.19h0c.06,0,.1.06.12.19a4.57,4.57,0,0,1,.08.75c0,.09-.07.13-.19.14a19.54,19.54,0,0,1-2.15.1,3,3,0,0,1-1.84-.38,1.48,1.48,0,0,1-.42-1.2V94.37l-.57.16a8.86,8.86,0,0,0-1.27.38l-.11,0c-.05,0-.1,0-.14-.15a5.26,5.26,0,0,1-.36-.91,14.86,14.86,0,0,0,1.69-.32Z"/><path class="cls-6" d="M155.38,92.2c.15-.18.36-.41.63-.7a.16.16,0,0,1,.13-.07.27.27,0,0,1,.12,0A8.39,8.39,0,0,1,158,92.75a.21.21,0,0,1,.07.13A.15.15,0,0,1,158,93a7,7,0,0,1-.56.68c-.05,0-.08.07-.11.07s-.06,0-.11-.07A9.36,9.36,0,0,0,155.38,92.2Zm.2,4.49a7.06,7.06,0,0,0,1.22-.44c.58-.31,1.06-.58,1.44-.83s.72-.51,1.15-.85c.6-.49,1.08-.91,1.43-1.26a14.5,14.5,0,0,0,1-1.19,3.85,3.85,0,0,0,.25,1,.45.45,0,0,1,0,.17.51.51,0,0,1-.15.28,13.44,13.44,0,0,1-2.06,1.9,20.07,20.07,0,0,1-2.72,1.77,3.67,3.67,0,0,0-.6.41.26.26,0,0,1-.16.09.24.24,0,0,1-.16-.09A5.82,5.82,0,0,1,155.58,96.69Z"/><path class="cls-6" d="M169.34,95.1a7.28,7.28,0,0,1,1,.91.18.18,0,0,1,.06.13.14.14,0,0,1-.06.11,3.76,3.76,0,0,1-.55.57.21.21,0,0,1-.11,0,.12.12,0,0,1-.1,0,9.08,9.08,0,0,0-.88-.87,11.24,11.24,0,0,1-2.87,2.25.54.54,0,0,1-.22.08.29.29,0,0,1-.17-.08,2.53,2.53,0,0,0-.86-.46,13,13,0,0,0,1.91-1.16,12.38,12.38,0,0,0,1.41-1.28,8.34,8.34,0,0,0-1.3-.85l.59-.64a.17.17,0,0,1,.12-.06l.09,0a9,9,0,0,1,1.16.72,8.79,8.79,0,0,0,1.05-1.78l-2.23,0a12,12,0,0,1-1.92,2,.42.42,0,0,1-.18.08.21.21,0,0,1-.15-.07,3.77,3.77,0,0,0-.75-.41,11.63,11.63,0,0,0,1.59-1.51,9.83,9.83,0,0,0,.95-1.31,4.14,4.14,0,0,0,.49-1.11,5.55,5.55,0,0,1,1.05.44.15.15,0,0,1,.1.14.22.22,0,0,1-.11.18.66.66,0,0,0-.18.19c-.07.12-.17.27-.29.45l1.59,0a.94.94,0,0,0,.49-.13.32.32,0,0,1,.16-.06.3.3,0,0,1,.16.07,2.45,2.45,0,0,1,.61.55.21.21,0,0,1,.07.16.24.24,0,0,1-.1.17,1.19,1.19,0,0,0-.26.34A14.66,14.66,0,0,1,169.34,95.1Z"/><path class="cls-6" d="M173.29,93.86a13.7,13.7,0,0,0,1.94.11h4l1,0h0c.08,0,.12,0,.12.13s0,.28,0,.42,0,.29,0,.42,0,.14-.12.14h0l-2,0H175l-1.32.11c-.11,0-.18-.06-.21-.19A9.57,9.57,0,0,1,173.29,93.86Z"/><path class="cls-6" d="M247.54,97.38a5.6,5.6,0,0,0,1.55-1.3,1.6,1.6,0,0,0,.26-.5,6.13,6.13,0,0,1,.77.38.21.21,0,0,1,.11.16.18.18,0,0,1-.11.15.75.75,0,0,0-.24.24,6.12,6.12,0,0,1-1.46,1.41.81.81,0,0,1-.22.12s-.12-.06-.19-.19A1.62,1.62,0,0,0,247.54,97.38ZM249,92.12h-1.14s-.08,0-.1,0a.24.24,0,0,1,0-.07v-.7a.14.14,0,0,1,0-.09h.09l1.14,0h2.15V91.1a3.88,3.88,0,0,0-.06-.82c.28,0,.6,0,1,0,.09,0,.14,0,.14.09a.55.55,0,0,1-.07.19,3.13,3.13,0,0,0,0,.51v.15h2.27l1.14,0,.09,0a.54.54,0,0,1,0,.08V92c0,.06,0,.09-.1.09H249Zm1.22.63h2.87l1.24,0c.05,0,.08,0,.08,0a.13.13,0,0,1,0,.08l0,.73v1l0,.73a.17.17,0,0,1,0,.09h-.08l-1.24,0h-.91v.91l0,1.14a1.33,1.33,0,0,1-.07.5.72.72,0,0,1-.22.29.85.85,0,0,1-.44.17,5.86,5.86,0,0,1-.85,0h-.12a.18.18,0,0,1-.16-.06.92.92,0,0,1-.07-.22,1.53,1.53,0,0,0-.28-.65c.33,0,.61,0,.83,0a.47.47,0,0,0,.33-.09.29.29,0,0,0,.07-.23V95.35h-1l-1.23,0c-.06,0-.09,0-.1,0s0,0,0-.08V92.83s0-.07,0-.08a.14.14,0,0,1,.09,0Zm3.25,1.79v-1h-3.65v1Zm2.33,2.74a1.94,1.94,0,0,0-.47.57c-.09.14-.15.21-.19.21a.52.52,0,0,1-.21-.11,6.78,6.78,0,0,1-1.84-1.82.13.13,0,0,1,0-.07s0,0,.09-.1l.52-.3a.22.22,0,0,1,.1,0s.05,0,.08.07A5.3,5.3,0,0,0,255.76,97.28Z"/><path class="cls-6" d="M261.3,90.7a3.06,3.06,0,0,1,.72.44c.08.06.12.11.12.16s0,.09-.1.13a1,1,0,0,0-.29.42,9,9,0,0,1-.75,1.21h.9s0,0,0,.08v.61s0,.07,0,.08h-.09l-1.15,0h-.28a8.15,8.15,0,0,1-.72.72h1.69s.08,0,.09,0a.14.14,0,0,1,0,.09l0,1.23v.91l0,1.56s0,.07,0,.08h-.74c-.07,0-.1,0-.1-.09V98H259.1v.38a.14.14,0,0,1,0,.09h-.76s-.07,0-.08,0,0,0,0-.08V95.64l-.42.28a.4.4,0,0,1-.17.08c-.06,0-.12-.07-.17-.2a1.38,1.38,0,0,0-.31-.47,9.34,9.34,0,0,0,2.12-1.51h-.69l-1.15,0c-.05,0-.08,0-.09,0a.1.1,0,0,1,0-.07v-.61s0-.07,0-.08h1.58v-.89h-1.11c-.07,0-.1,0-.1-.08v-.6s0-.08,0-.08l.08,0,.9,0h.21v0a7.75,7.75,0,0,0-.06-1.12l.89.06c.1,0,.15.05.15.1a.49.49,0,0,1-.06.19,3.28,3.28,0,0,0,0,.76v0l.76,0a.14.14,0,0,1,.09,0,.54.54,0,0,1,0,.08v.58c.13-.23.24-.43.33-.62A3.32,3.32,0,0,0,261.3,90.7Zm-.71,4.57H259.1v.63h1.49Zm-1.49,2h1.49V96.6H259.1Zm.72-5.11v.89H260a7.2,7.2,0,0,0,.61-.88h-.79Zm3.5,4.32h.09c.78,0,1.16-.25,1.16-.74a1.59,1.59,0,0,0-.26-.89,5.25,5.25,0,0,0-.9-1,18.43,18.43,0,0,0,.92-2.36h-1.22v5l0,1.88s0,.08,0,.08a.13.13,0,0,1-.08,0h-.72a.14.14,0,0,1-.09,0,.13.13,0,0,1,0-.08l0-1.87V92.66l0-1.9a.13.13,0,0,1,0-.08.14.14,0,0,1,.09,0l.8,0h1.4a.92.92,0,0,0,.23,0l.14,0c.07,0,.2.09.38.27a.67.67,0,0,1,.21.37.21.21,0,0,1-.09.16.9.9,0,0,0-.18.33c-.27.72-.55,1.37-.82,1.95a3.73,3.73,0,0,1,.93,1.16,2.44,2.44,0,0,1,.17.95c0,.92-.53,1.43-1.58,1.53h-.16c-.07,0-.11,0-.13-.06a.78.78,0,0,1-.05-.22A1,1,0,0,0,263.32,96.49Z"/><path class="cls-6" d="M272.93,97.49a7.87,7.87,0,0,0,.84,0,.3.3,0,0,0,.24-.08.44.44,0,0,0,.05-.23V91.53h-5.5v5.26l0,1.63s0,.08,0,.09h-.95s0,0,0-.09l0-1.88V92.66l0-1.9c0-.06,0-.09,0-.1h7.32c.05,0,.08,0,.09,0s0,0,0,.09l0,1.92v3.24l0,1.42v.14a1,1,0,0,1-.27.75,2.22,2.22,0,0,1-1.24.23c-.14,0-.23,0-.26,0a.49.49,0,0,1-.08-.24A2.05,2.05,0,0,0,272.93,97.49Zm-2.84-3.37-1.14,0-.08,0s0,0,0-.08v-.62s0-.08,0-.09H269l1.14,0h1.36a9,9,0,0,0,.57-1.12,2.3,2.3,0,0,0,.15-.5,4.77,4.77,0,0,1,.82.3c.08,0,.13.08.13.13a.21.21,0,0,1-.09.14.54.54,0,0,0-.16.21c-.21.39-.36.67-.47.84h.13l1.13,0a.14.14,0,0,1,.09,0s0,0,0,.08V94s0,.07,0,.08l-.08,0-1.13,0h-.8v2.13h.77v-.72a4.48,4.48,0,0,0-.05-.85l.86.06q.12,0,.12.09a.3.3,0,0,1-.05.15,1.82,1.82,0,0,0,0,.57v1l0,.7a.14.14,0,0,1,0,.09h-.73c-.05,0-.08,0-.09,0s0,0,0-.08V97h-2.38v.44a.09.09,0,0,1-.11.11h-.65c-.05,0-.08,0-.08,0a.14.14,0,0,1,0-.09l0-.76V95.54a6.14,6.14,0,0,0,0-.85c.35,0,.64,0,.85.06s.13,0,.13.08a.49.49,0,0,1-.06.17,2.67,2.67,0,0,0,0,.55v.7h.76V94.12Zm.27-2.3a5.08,5.08,0,0,1,.57,1,.1.1,0,0,1,0,.06s0,.06-.12.1l-.51.27a.54.54,0,0,1-.12,0s-.05,0-.07-.08a5.15,5.15,0,0,0-.53-1s0,0,0-.06,0,0,.11-.09l.5-.25.1,0S270.33,91.77,270.36,91.82Z"/><path class="cls-6" d="M278.59,93l-1.15,0a.14.14,0,0,1-.09,0s0,0,0-.08v-.73s0-.07,0-.08h.08l1.15,0h2.09v-.61a8.77,8.77,0,0,0-.06-1.17,8.49,8.49,0,0,1,1,.07c.09,0,.14,0,.14.08s0,.09-.06.24a4.22,4.22,0,0,0,0,.76v.63h2.24l1.16,0c.05,0,.08,0,.08,0a.1.1,0,0,1,0,.07v.73c0,.05,0,.07,0,.08a.13.13,0,0,1-.08,0l-1.16,0H282a8,8,0,0,0,3.43,3.21,2.25,2.25,0,0,0-.44.65c-.08.14-.13.22-.18.22a.48.48,0,0,1-.18-.11,8.57,8.57,0,0,1-3.05-3.29s0,.83,0,2.43h1.67a.17.17,0,0,1,0,.08v.69s0,.07,0,.08h-1.65c0,.3,0,.64,0,1v.47c0,.06,0,.09-.1.09h-.83c-.07,0-.1,0-.1-.09,0-.23,0-.73,0-1.5H279.1a.13.13,0,0,1,0-.08v-.69a.13.13,0,0,1,0-.08h1.58c0-.76,0-1.54,0-2.33a8.6,8.6,0,0,1-2.83,3.19.41.41,0,0,1-.21.11c-.05,0-.11-.06-.17-.19a1.93,1.93,0,0,0-.47-.6A8.54,8.54,0,0,0,279,94.77,8,8,0,0,0,280.32,93Z"/><path class="cls-6" d="M288.24,91.84h1.56l1,0a.09.09,0,0,1,.1.1v.64a.22.22,0,0,1,0,.1h-.08l-1,0h-1.56l-1,0s-.07,0-.07,0a.14.14,0,0,1,0-.09v-.64c0-.06,0-.1.09-.1Zm2.31,6.43s0,.08,0,.08a.13.13,0,0,1-.08,0h-.71a.14.14,0,0,1-.09,0s0,0,0-.08V98h-1.11v.46s0,.08,0,.09h-.78a.22.22,0,0,1-.1,0,.54.54,0,0,1,0-.08l0-1.36v-.59l0-.85s0-.08,0-.08a.17.17,0,0,1,.09,0l.82,0h1.07l.83,0a.14.14,0,0,1,.09,0,.54.54,0,0,1,0,.08l0,.69V97Zm-2-7.64h1.06l.81,0a.22.22,0,0,1,.1,0s0,0,0,.08v.6a.14.14,0,0,1,0,.09h-.09l-.81,0h-1.06l-.82,0c-.05,0-.08,0-.09,0s0,0,0-.08v-.6a.14.14,0,0,1,0-.09h.08Zm.05,2.5h1l.75,0a.14.14,0,0,1,.09,0,.13.13,0,0,1,0,.08v.58s0,.07,0,.08a.14.14,0,0,1-.09,0l-.75,0h-1l-.77,0a.14.14,0,0,1-.09,0s0,0,0-.08v-.58a.14.14,0,0,1,0-.09h.08Zm0,1.2h1.82a.15.15,0,0,1,0,.08V95a.13.13,0,0,1,0,.08h-.09l-.75,0h-1l-.77,0c-.07,0-.1,0-.1-.09v-.59a.13.13,0,0,1,0-.08h.85Zm1,2h-1.11v.9h1.11Zm4.2-4.72h-1.59l-1,0a.08.08,0,0,1-.1-.1v-.7a.14.14,0,0,1,0-.09h3.64a.17.17,0,0,1,0,.09l0,1v2l0,1a.09.09,0,0,1-.11.11h-.76c-.05,0-.07,0-.08,0a.14.14,0,0,1,0-.09v-.34h-1.69v2.51c0,.22,0,.36.11.4a1.65,1.65,0,0,0,.83.12c.58,0,.94-.07,1.07-.22a2.5,2.5,0,0,0,.2-1.15,1.9,1.9,0,0,0,.64.25.58.58,0,0,1,.24.09.22.22,0,0,1,0,.16v.11a2,2,0,0,1-.42,1.3,1.12,1.12,0,0,1-.64.28,7.64,7.64,0,0,1-1.23.07,3,3,0,0,1-1.51-.23,1.12,1.12,0,0,1-.26-.88V93.64s0-.08,0-.08a.17.17,0,0,1,.09,0l.94,0h1.59Z"/><path class="cls-6" d="M301.65,93h-1l-.9,0c-.05,0-.08,0-.08,0a.13.13,0,0,1,0-.08v-.47a9.76,9.76,0,0,1-1.9,1,.75.75,0,0,1-.2.07c-.05,0-.11-.08-.17-.24a2.05,2.05,0,0,0-.37-.58,8.3,8.3,0,0,0,3.42-2.08,2,2,0,0,0,.36-.47c.47.06.79.11,1,.15s.13.07.13.12,0,.08-.09.11l-.07,0a8.3,8.3,0,0,0,3.73,2,2.21,2.21,0,0,0-.36.67c-.05.16-.11.24-.16.24l-.2-.06a9.6,9.6,0,0,1-2.05-1v.55s0,.08,0,.08a.1.1,0,0,1-.07,0ZM298,95.79c0-.05,0-.07.06-.07l.1,0,.65.22c.07,0,.1,0,.1.09a.26.26,0,0,1,0,.07A6.71,6.71,0,0,1,298,98c0,.06-.08.09-.11.09a.37.37,0,0,1-.11,0l-.61-.35c-.06,0-.09-.07-.09-.1a.2.2,0,0,1,0-.08A4.58,4.58,0,0,0,298,95.79Zm4.92-2.27a.69.69,0,0,0,.22,0,.41.41,0,0,1,.16,0c.07,0,.19.08.37.26s.25.27.25.34a.23.23,0,0,1-.13.18,1.38,1.38,0,0,0-.33.32c-.32.42-.62.79-.92,1.14-.06,0-.1.08-.13.08a1,1,0,0,1-.34-.18c-.23-.17-.35-.28-.35-.33a.12.12,0,0,1,0-.08,10.11,10.11,0,0,0,.75-.87h-2.75l-1.23,0s-.07,0-.08,0,0,0,0-.08V93.6s0-.07,0-.08h4.47Zm-.36,3.12a3.48,3.48,0,0,0,.69.2l.18,0a.13.13,0,0,1,0,.09s0,.07,0,.14a1.37,1.37,0,0,1-.55,1,4.23,4.23,0,0,1-1.74.23,3.69,3.69,0,0,1-1.48-.19.84.84,0,0,1-.33-.79V96.34a5.43,5.43,0,0,0-.05-.75c.31,0,.62,0,.92,0,.11,0,.16,0,.16.1a.33.33,0,0,1,0,.14,1,1,0,0,0-.06.41v.82q0,.28.15.36a2.21,2.21,0,0,0,.8.09,6,6,0,0,0,.75,0,.86.86,0,0,0,.34-.12C302.45,97.31,302.53,97.06,302.54,96.64Zm-2.63-4.4h2.53a8.75,8.75,0,0,1-1.29-1.11A8.83,8.83,0,0,1,299.91,92.24Zm1.22,2.93a8,8,0,0,1,1.07,1s.05.07.05.09a.17.17,0,0,1-.07.09l-.46.4-.1.07s-.05,0-.09-.07a7.44,7.44,0,0,0-1-1,.08.08,0,0,1,0-.08s0-.05.06-.09l.41-.35a.21.21,0,0,1,.09-.05A.16.16,0,0,1,301.13,95.17Zm3,.56a8.71,8.71,0,0,1,1,1.66.13.13,0,0,1,0,.07s0,.06-.11.11l-.61.35-.11,0s0,0-.06-.09a7.65,7.65,0,0,0-1-1.73.13.13,0,0,1,0-.07s0-.06.1-.09l.56-.28.1,0A.12.12,0,0,1,304.11,95.73Z"/><path class="cls-6" d="M309.37,91.9v1.5a11.5,11.5,0,0,1-.27,2.81,5.93,5.93,0,0,1-.93,2.07c-.07.11-.13.17-.17.17s-.1,0-.18-.16a2.42,2.42,0,0,0-.52-.5,4.09,4.09,0,0,0,1-2,6.71,6.71,0,0,0,.11-.75l-.63.34a1.06,1.06,0,0,0-.28.2.19.19,0,0,1-.14.07s-.09,0-.12-.11a7.15,7.15,0,0,1-.21-.83,3.39,3.39,0,0,0,.69-.2l.76-.35v-3s0-.08,0-.09h.08l1.25,0h1.48v-.14a3.73,3.73,0,0,0-.06-.72l1,.06c.1,0,.15,0,.15.08a.38.38,0,0,1-.06.18,1.09,1.09,0,0,0,0,.39v.15H314l1.22,0a.14.14,0,0,1,.09,0s0,0,0,.08v.66a.14.14,0,0,1,0,.09h-.08l-1.22,0Zm-1.69-.11.1,0s.05,0,.07.07a7.52,7.52,0,0,1,.52,1.34.25.25,0,0,1,0,.07s0,.07-.11.11l-.46.27a.24.24,0,0,1-.11,0s0,0-.06-.08a10.55,10.55,0,0,0-.5-1.42.17.17,0,0,1,0-.07s0-.06.08-.08ZM312.37,96a3.46,3.46,0,0,1-.89,1c-.1.09-.16.13-.19.13s-.09-.06-.18-.18a3.45,3.45,0,0,0-.33-.32v1.7c0,.06,0,.1-.09.1H310q-.08,0-.09,0s0,0,0-.07l0-1V95.22l0-1a.22.22,0,0,1,0-.1H310l1.21,0h.74c0-.35,0-.61,0-.78h-.88l-1.23,0s-.08,0-.08-.09v-.65c0-.06,0-.09.08-.09h5.3s0,0,0,.08v.65a.13.13,0,0,1,0,.08h-.08l-1.22,0h-1.06l0,.78h.84l1.21,0,.08,0a.14.14,0,0,1,0,.09l0,1.08v1.09l0,1.16a.91.91,0,0,1-.22.67.83.83,0,0,1-.4.16,7.73,7.73,0,0,1-.81,0h-.1a.19.19,0,0,1-.17-.06l-.06-.22a1.41,1.41,0,0,0-.21-.52c.22,0,.42,0,.58,0h.19c.2,0,.3-.1.3-.31V94.88h-1.3c0,.13,0,.28-.08.42a11.3,11.3,0,0,1,1.31,1.09s.06.07.06.09,0,0-.07.1l-.38.42a.25.25,0,0,1-.09.08s0,0-.08-.06A9.58,9.58,0,0,0,312.37,96Zm-.49-1.13h-1.1v1.67a2.89,2.89,0,0,0,.87-.92A2.45,2.45,0,0,0,311.88,94.88Z"/><path class="cls-6" d="M318.45,95.93h.1c.47,0,.7-.21.7-.64a3,3,0,0,0-.8-1.81,11.92,11.92,0,0,0,.77-2.1h-.9v5.09l0,1.94c0,.06,0,.09-.1.09h-.71c-.07,0-.1,0-.1-.09V90.65c0-.05,0-.08,0-.09h2l.18,0a.2.2,0,0,1,.11,0c.07,0,.18.09.34.26a.66.66,0,0,1,.22.36.24.24,0,0,1-.08.16.64.64,0,0,0-.17.35,12.71,12.71,0,0,1-.7,1.78A3.57,3.57,0,0,1,320,94.6a3.09,3.09,0,0,1,.1.88,1.12,1.12,0,0,1-1.17,1.25h-.14c-.07,0-.11,0-.13-.06a.72.72,0,0,1,0-.21A1.11,1.11,0,0,0,318.45,95.93Zm.73,1.9a2.63,2.63,0,0,0,1.63-1,3.38,3.38,0,0,0,.43-1.78h-1s0,0,0-.08v-.64s0-.08,0-.1h.08l1.19,0h2.4l1.2,0a.13.13,0,0,1,.08,0s0,0,0,.09V95s0,.07,0,.08h-1.53v2.18c0,.16,0,.26.07.29s.16,0,.35,0,.31,0,.37-.11a2.72,2.72,0,0,0,.12-1,1.8,1.8,0,0,0,.6.23.51.51,0,0,1,.19.06.18.18,0,0,1,0,.14.46.46,0,0,1,0,.1,2.88,2.88,0,0,1-.14.84.77.77,0,0,1-.28.34,2.07,2.07,0,0,1-1.07.2,1.81,1.81,0,0,1-.89-.13c-.18-.12-.26-.37-.26-.74V95h-.57a4.27,4.27,0,0,1-.56,2.24,3.13,3.13,0,0,1-1.47,1.17.78.78,0,0,1-.22.07s-.11-.06-.2-.18A2.1,2.1,0,0,0,319.18,97.83Zm4.1-4.33h-1.2l-1,0a.14.14,0,0,1-.09,0s0,0,0-.08V93h-.76a.13.13,0,0,1,0-.08l0-.85v-.25l0-.45a.13.13,0,0,1,0-.08h.09l1.21,0h.55v-.1a4.11,4.11,0,0,0-.07-.87c.29,0,.61,0,.95.07.09,0,.14,0,.14.09a.32.32,0,0,1,0,.16,1.53,1.53,0,0,0-.06.54v.11h.77l1.2,0c.05,0,.09,0,.1,0s0,0,0,.07l0,.38V92l0,.85a.13.13,0,0,1,0,.08h-.75v.44s0,.07,0,.08l-.08,0ZM321.13,92v.66l.95,0h1.2c.51,0,.82,0,.93,0V92Z"/></symbol></defs><title>3</title><g id="_2" data-name=" 2"><g id="desktop"><g id="_3" data-name="3"><g id="maininterview_2" data-name="maininterview 2"><use width="402.64" height="105.08" xlink:href="#graphic-bar-year3-baba"/></g></g></g></g></svg>