<svg xmlns="http://www.w3.org/2000/svg" xmlns:xlink="http://www.w3.org/1999/xlink" viewBox="0 0 402.67 135.08"><defs><style>.cls-1{fill:#66e2ff;}.cls-2,.cls-5{fill:#fff;}.cls-2{stroke:#21dbf9;}.cls-2,.cls-3{stroke-miterlimit:10;}.cls-3{stroke:#fff;opacity:0.16;}.cls-4{fill:#0f298f;}.cls-6{fill:#33cfff;}</style><symbol id="graphic-bar-year4-kagei" data-name="graphic-bar-year4-kagei" viewBox="0 0 402.67 135.08"><rect class="cls-1" x="41.67" y="25.08" width="360" height="20"/><rect class="cls-1" x="41.67" y="55.08" width="360" height="20"/><line class="cls-2" x1="41.17" y1="16.08" x2="41.17" y2="45.08"/><line class="cls-3" x1="74.17" y1="22.08" x2="74.17" y2="45.08"/><line class="cls-3" x1="107.17" y1="22.08" x2="107.17" y2="45.08"/><line class="cls-3" x1="139.17" y1="22.08" x2="139.17" y2="45.08"/><line class="cls-3" x1="172.17" y1="22.08" x2="172.17" y2="45.08"/><line class="cls-3" x1="205.17" y1="22.08" x2="205.17" y2="45.08"/><line class="cls-3" x1="238.17" y1="22.08" x2="238.17" y2="45.08"/><line class="cls-3" x1="271.17" y1="22.08" x2="271.17" y2="45.08"/><line class="cls-3" x1="304.17" y1="22.08" x2="304.17" y2="45.08"/><line class="cls-3" x1="336.17" y1="22.08" x2="336.17" y2="45.08"/><line class="cls-3" x1="369.17" y1="22.08" x2="369.17" y2="45.08"/><line class="cls-2" x1="402.17" y1="16.08" x2="402.17" y2="45.08"/><line class="cls-2" x1="41.17" y1="50.08" x2="41.17" y2="75.08"/><line class="cls-3" x1="74.17" y1="52.08" x2="74.17" y2="75.08"/><line class="cls-3" x1="107.17" y1="52.08" x2="107.17" y2="75.08"/><line class="cls-3" x1="139.17" y1="52.08" x2="139.17" y2="75.08"/><line class="cls-3" x1="172.17" y1="52.08" x2="172.17" y2="75.08"/><line class="cls-3" x1="205.17" y1="52.08" x2="205.17" y2="75.08"/><line class="cls-3" x1="238.17" y1="52.08" x2="238.17" y2="75.08"/><line class="cls-3" x1="271.17" y1="52.08" x2="271.17" y2="75.08"/><line class="cls-3" x1="304.17" y1="52.08" x2="304.17" y2="75.08"/><line class="cls-3" x1="336.17" y1="52.08" x2="336.17" y2="75.08"/><line class="cls-3" x1="369.17" y1="52.08" x2="369.17" y2="75.08"/><line class="cls-2" x1="402.17" y1="50.08" x2="402.17" y2="75.08"/><rect class="cls-1" x="41.67" y="85.08" width="131" height="20"/><rect class="cls-4" x="172.67" y="85.08" width="229" height="20"/><line class="cls-2" x1="41.17" y1="80.08" x2="41.17" y2="105.08"/><line class="cls-3" x1="74.17" y1="82.08" x2="74.17" y2="105.08"/><line class="cls-3" x1="107.17" y1="82.08" x2="107.17" y2="105.08"/><line class="cls-3" x1="139.17" y1="82.08" x2="139.17" y2="105.08"/><line class="cls-3" x1="172.17" y1="82.08" x2="172.17" y2="105.08"/><line class="cls-3" x1="205.17" y1="82.08" x2="205.17" y2="105.08"/><line class="cls-3" x1="238.17" y1="82.08" x2="238.17" y2="105.08"/><line class="cls-3" x1="271.17" y1="82.08" x2="271.17" y2="105.08"/><line class="cls-3" x1="304.17" y1="82.08" x2="304.17" y2="105.08"/><line class="cls-3" x1="336.17" y1="82.08" x2="336.17" y2="105.08"/><line class="cls-3" x1="369.17" y1="82.08" x2="369.17" y2="105.08"/><line class="cls-2" x1="402.17" y1="80.08" x2="402.17" y2="105.08"/><path class="cls-5" d="M45.13,1.13V6.84h1.09V7.91H45.13v2H43.82v-2H40.5v-1l2.83-5.78ZM43.82,6.84V4.92c0-.6,0-1.49.07-2.66h-.16c-.26.68-.58,1.44-1,2.28l-1.07,2.3Z"/><path class="cls-5" d="M52.76,8.48c.36,0,.74,0,1.14,0a.31.31,0,0,0,.35-.35V6.43H50.68a5.42,5.42,0,0,1-.53,1.82,6.4,6.4,0,0,1-.91,1.28c-.1.11-.17.17-.21.17s-.12,0-.23-.16a2,2,0,0,0-.72-.47,5.72,5.72,0,0,0,1-1.2,4.47,4.47,0,0,0,.5-1.51A16.53,16.53,0,0,0,49.73,4V2.48l0-1.36a.23.23,0,0,1,0-.11h.09l1.33,0h2.78l1.32,0a.16.16,0,0,1,.1,0,.25.25,0,0,1,0,.1l0,1.36V6.41l0,2a1.22,1.22,0,0,1-.32.93,1.11,1.11,0,0,1-.58.24,8.52,8.52,0,0,1-1.08.05.52.52,0,0,1-.29-.05A.51.51,0,0,1,53,9.32,2.24,2.24,0,0,0,52.76,8.48Zm-2-3h3.47V4.19H50.82C50.81,4.76,50.8,5.18,50.78,5.46ZM54.25,2H50.82V3.22h3.43Z"/><path class="cls-5" d="M387.66,1.92a2.37,2.37,0,0,1,1-1.46A2.91,2.91,0,0,1,390.3,0a2.71,2.71,0,0,1,2,.7,2,2,0,0,1,.63,1.49,1.93,1.93,0,0,1-.5,1.36,2.06,2.06,0,0,1-1.17.6v.07a2.34,2.34,0,0,1,1.42.84,2.18,2.18,0,0,1,.42,1.36,2.43,2.43,0,0,1-.87,2,2.87,2.87,0,0,1-1.91.63,2.57,2.57,0,0,1-2.77-1.93l1.4-.41a1.61,1.61,0,0,0,.52,1,1.31,1.31,0,0,0,.84.25,1.22,1.22,0,0,0,1-.44,1.53,1.53,0,0,0,.32-1c0-1-.56-1.58-1.68-1.58h-.67V3.73h.6c1.07,0,1.6-.46,1.6-1.37a1.19,1.19,0,0,0-.37-.95,1.19,1.19,0,0,0-.82-.27,1.07,1.07,0,0,0-.83.34,1.46,1.46,0,0,0-.38.86Z"/><path class="cls-5" d="M399.54,7.48c.35,0,.73,0,1.13,0a.32.32,0,0,0,.36-.35V5.43h-3.58a5.42,5.42,0,0,1-.53,1.82,6.31,6.31,0,0,1-.9,1.28c-.11.11-.18.17-.21.17s-.13,0-.24-.16a2,2,0,0,0-.72-.47,5.17,5.17,0,0,0,1-1.2,4.26,4.26,0,0,0,.5-1.51A16.53,16.53,0,0,0,396.5,3V.12a.28.28,0,0,1,0-.11h.09l1.34,0h2.77L402,0a.16.16,0,0,1,.1,0,.25.25,0,0,1,0,.1V5.41l0,2a1.26,1.26,0,0,1-.31.93,1.15,1.15,0,0,1-.58.24,8.75,8.75,0,0,1-1.08.05.54.54,0,0,1-.3-.05.54.54,0,0,1-.07-.26A2.68,2.68,0,0,0,399.54,7.48Zm-2-3H401V3.19h-3.44C397.58,3.76,397.57,4.18,397.55,4.46ZM401,1h-3.44V2.22H401Z"/><path class="cls-5" d="M4.23,28.45v8.72H6.07v1.27H.73V37.17h2V30.1A7.15,7.15,0,0,1,.84,31L.58,29.62a7.2,7.2,0,0,0,2.31-1.17Z"/><path class="cls-5" d="M9.69,35.73l-1.25,0c-.06,0-.09,0-.1,0a.14.14,0,0,1,0-.09v-.79c0-.07,0-.1.12-.1l1.25,0h.24v-1.4l0-.9s0-.08,0-.09a.14.14,0,0,1,.09,0l1.38,0h1.27V31.05H10.62a8.32,8.32,0,0,1-1.17,1.43c-.09.11-.16.16-.21.16s-.1-.06-.2-.19a2,2,0,0,0-.55-.54,7.35,7.35,0,0,0,1.85-2.42,3.16,3.16,0,0,0,.25-.73c.43.08.75.16,1,.22s.18.1.18.17,0,.11-.12.19a1,1,0,0,0-.26.36l-.2.43h4.13l1.37,0a.16.16,0,0,1,.1,0s0,0,0,.09V31a.09.09,0,0,1-.11.11l-1.37,0H13.75v1.33h1.07l1.37,0c.07,0,.1,0,.1.11v.75c0,.07,0,.11-.1.11l-1.37,0H13.75v1.46h2.12l1.25,0c.07,0,.11,0,.11.1v.79a.22.22,0,0,1,0,.1h-.09l-1.25,0H13.75v.49l0,1.63a.19.19,0,0,1,0,.1h-1c-.06,0-.09,0-.1,0s0,0,0-.09V35.73Zm1.3-1h1.68V33.31H11Z"/><path class="cls-5" d="M21.49,33.46a4.7,4.7,0,0,0,.29.72.77.77,0,0,1,.1.28s-.05.13-.16.24c-.65.56-1.32,1.07-2,1.55a2,2,0,0,0-.3.24.2.2,0,0,1-.15.09c-.05,0-.11,0-.17-.14a8.89,8.89,0,0,1-.56-.89,4,4,0,0,0,.74-.39A16.49,16.49,0,0,0,21.49,33.46Zm-1.59-4a10.28,10.28,0,0,1,1.38,1.45.11.11,0,0,1,0,.19l-.58.55c-.07.05-.11.08-.13.08s0,0-.07-.07a8.41,8.41,0,0,0-1.38-1.55s-.05-.05-.05-.07,0-.06.09-.11l.57-.46a.24.24,0,0,1,.11-.06A.21.21,0,0,1,19.9,29.47ZM28,36.91a2.47,2.47,0,0,0-.53.74c-.09.15-.15.23-.2.23a.72.72,0,0,1-.24-.09,5.74,5.74,0,0,1-2.8-3,5.45,5.45,0,0,1-3,3.11.66.66,0,0,1-.23.07c-.05,0-.12-.07-.2-.22a2.35,2.35,0,0,0-.53-.64,5.09,5.09,0,0,0,2.55-1.79,4,4,0,0,0,.73-2.38,5.86,5.86,0,0,0-.08-1c.34,0,.69,0,1.06.05.11,0,.16.06.16.13a.66.66,0,0,1-.06.22,1.66,1.66,0,0,0-.06.57,4.82,4.82,0,0,0,1.28,2.72A6.24,6.24,0,0,0,28,36.91ZM21,32.5a6.93,6.93,0,0,0,1.67-2.8,5.06,5.06,0,0,0,.18-.9q.41.06,1,.21c.12,0,.18.08.18.14a.28.28,0,0,1-.1.18,1.38,1.38,0,0,0-.2.45l-.23.6h3.07a.49.49,0,0,0,.24,0,.42.42,0,0,1,.15,0c.08,0,.23.1.44.3s.31.32.31.41a.23.23,0,0,1-.07.16.8.8,0,0,0-.18.29,10.7,10.7,0,0,1-1.05,1.85c-.09.14-.16.21-.2.21a.83.83,0,0,1-.24-.14,3,3,0,0,0-.67-.31,6.58,6.58,0,0,0,1.11-1.75H23.06a9,9,0,0,1-1,1.57c-.1.12-.17.18-.2.18a.64.64,0,0,1-.23-.15A2.41,2.41,0,0,0,21,32.5Z"/><path class="cls-5" d="M.24,61.09A3,3,0,0,1,1.35,59a3.09,3.09,0,0,1,1.95-.62,3,3,0,0,1,2.25.79A2.51,2.51,0,0,1,6.26,61a3,3,0,0,1-.49,1.67,9.41,9.41,0,0,1-1.51,1.69,10.79,10.79,0,0,0-2.42,2.76H6.3v1.3H.15V67.28A13.28,13.28,0,0,1,3,63.6a7.46,7.46,0,0,0,1.33-1.54A2.12,2.12,0,0,0,4.58,61,1.4,1.4,0,0,0,4.18,60a1.29,1.29,0,0,0-.9-.32q-1.29,0-1.41,1.8Z"/><path class="cls-5" d="M9.69,65.73l-1.25,0c-.06,0-.09,0-.1,0a.14.14,0,0,1,0-.09v-.79c0-.07,0-.1.12-.1l1.25,0h.24v-1.4l0-.9s0-.08,0-.09a.14.14,0,0,1,.09,0l1.38,0h1.27V61.05H10.62a8.32,8.32,0,0,1-1.17,1.43c-.09.11-.16.16-.21.16s-.1-.06-.2-.19a2,2,0,0,0-.55-.54,7.35,7.35,0,0,0,1.85-2.42,3.16,3.16,0,0,0,.25-.73c.43.08.75.16,1,.22s.18.1.18.17,0,.11-.12.19a1,1,0,0,0-.26.36l-.2.43h4.13l1.37,0a.16.16,0,0,1,.1,0s0,0,0,.09V61a.09.09,0,0,1-.11.11l-1.37,0H13.75v1.33h1.07l1.37,0c.07,0,.1,0,.1.11v.75c0,.07,0,.11-.1.11l-1.37,0H13.75v1.46h2.12l1.25,0c.07,0,.11,0,.11.1v.79a.22.22,0,0,1,0,.1h-.09l-1.25,0H13.75v.49l0,1.63a.19.19,0,0,1,0,.1h-1c-.06,0-.09,0-.1,0s0,0,0-.09V65.73Zm1.3-1h1.68V63.31H11Z"/><path class="cls-5" d="M21.49,63.46a4.7,4.7,0,0,0,.29.72.77.77,0,0,1,.1.28c0,.05-.05.13-.16.24-.65.56-1.32,1.07-2,1.55a2,2,0,0,0-.3.24.2.2,0,0,1-.15.09c-.05,0-.11,0-.17-.14a8.89,8.89,0,0,1-.56-.89,4,4,0,0,0,.74-.39A16.49,16.49,0,0,0,21.49,63.46Zm-1.59-4a10.28,10.28,0,0,1,1.38,1.45.11.11,0,0,1,0,.19l-.58.55c-.07.05-.11.08-.13.08s0,0-.07-.07a8.41,8.41,0,0,0-1.38-1.55s-.05,0-.05-.07,0-.06.09-.11l.57-.46a.24.24,0,0,1,.11-.06A.21.21,0,0,1,19.9,59.47ZM28,66.91a2.47,2.47,0,0,0-.53.74c-.09.15-.15.23-.2.23a.72.72,0,0,1-.24-.09,5.74,5.74,0,0,1-2.8-3,5.45,5.45,0,0,1-3,3.11.66.66,0,0,1-.23.07c-.05,0-.12-.07-.2-.22a2.35,2.35,0,0,0-.53-.64,5.09,5.09,0,0,0,2.55-1.79,4,4,0,0,0,.73-2.38,5.86,5.86,0,0,0-.08-1c.34,0,.69,0,1.06.05.11,0,.16.06.16.13a.66.66,0,0,1-.06.22,1.66,1.66,0,0,0-.06.57,4.82,4.82,0,0,0,1.28,2.72A6.24,6.24,0,0,0,28,66.91ZM21,62.5a6.93,6.93,0,0,0,1.67-2.8,5.06,5.06,0,0,0,.18-.9q.41.06,1,.21c.12,0,.18.08.18.14a.28.28,0,0,1-.1.18,1.38,1.38,0,0,0-.2.45l-.23.6h3.07a.49.49,0,0,0,.24,0,.42.42,0,0,1,.15,0c.08,0,.23.1.44.3s.31.32.31.41a.23.23,0,0,1-.07.16.8.8,0,0,0-.18.29,10.7,10.7,0,0,1-1.05,1.85c-.09.14-.16.21-.2.21a.83.83,0,0,1-.24-.14,3,3,0,0,0-.67-.31,6.58,6.58,0,0,0,1.11-1.75H23.06a9,9,0,0,1-1,1.57c-.1.12-.17.18-.2.18a.64.64,0,0,1-.23-.15A2.41,2.41,0,0,0,21,62.5Z"/><path class="cls-5" d="M.18,90.49a2.73,2.73,0,0,1,1.18-1.66,3.37,3.37,0,0,1,1.83-.48,3.13,3.13,0,0,1,2.26.8A2.41,2.41,0,0,1,5.6,92.4a2.33,2.33,0,0,1-1.33.68v.09a2.6,2.6,0,0,1,1.61,1,2.49,2.49,0,0,1,.48,1.55,2.75,2.75,0,0,1-1,2.23,3.27,3.27,0,0,1-2.18.72A2.93,2.93,0,0,1,0,96.43L1.62,96a1.92,1.92,0,0,0,.59,1.11,1.5,1.5,0,0,0,1,.29,1.41,1.41,0,0,0,1.16-.5,1.77,1.77,0,0,0,.37-1.18c0-1.19-.64-1.79-1.93-1.79H2V92.56H2.7q1.83,0,1.83-1.56a1.34,1.34,0,0,0-.42-1.08,1.39,1.39,0,0,0-1-.31,1.26,1.26,0,0,0-1,.38,1.78,1.78,0,0,0-.43,1Z"/><path class="cls-5" d="M9.43,95.73l-1.25,0c-.06,0-.09,0-.1,0a.14.14,0,0,1,0-.09v-.79c0-.07,0-.1.12-.1l1.25,0h.24v-1.4l0-.9s0-.08,0-.09a.14.14,0,0,1,.09,0l1.37,0h1.28V91.05H10.36a8.32,8.32,0,0,1-1.17,1.43c-.09.11-.16.16-.21.16s-.1-.06-.2-.19a1.91,1.91,0,0,0-.56-.54,7.24,7.24,0,0,0,1.86-2.42,3.16,3.16,0,0,0,.25-.73c.43.08.75.16,1,.22s.18.1.18.17,0,.11-.13.19a1.19,1.19,0,0,0-.25.36l-.2.43H15l1.37,0a.16.16,0,0,1,.1,0s0,0,0,.09V91a.09.09,0,0,1-.11.11l-1.37,0H13.49v1.33h1.07l1.37,0c.07,0,.1,0,.1.11v.75c0,.07,0,.11-.1.11l-1.37,0H13.49v1.46h2.12l1.25,0c.07,0,.11,0,.11.1v.79a.22.22,0,0,1,0,.1h-.09l-1.25,0H13.49v.49l0,1.63a.19.19,0,0,1,0,.1h-1c-.06,0-.09,0-.1,0a.14.14,0,0,1,0-.09l0-1.63v-.49Zm1.29-1h1.69V93.31H10.72Z"/><path class="cls-5" d="M21.23,93.46a4.7,4.7,0,0,0,.29.72.77.77,0,0,1,.1.28c0,.05-.05.13-.16.24-.65.56-1.32,1.07-2,1.55a2,2,0,0,0-.3.24.2.2,0,0,1-.15.09c-.05,0-.11,0-.17-.14a8.89,8.89,0,0,1-.56-.89,4,4,0,0,0,.74-.39A16.49,16.49,0,0,0,21.23,93.46Zm-1.59-4A10.28,10.28,0,0,1,21,90.92a.11.11,0,0,1,0,.19l-.58.55c-.07,0-.11.08-.13.08s0,0-.07-.07a8.41,8.41,0,0,0-1.38-1.55s0-.05,0-.07,0-.06.09-.11l.57-.46a.24.24,0,0,1,.11-.06A.21.21,0,0,1,19.64,89.47Zm8.05,7.44a2.66,2.66,0,0,0-.53.74c-.09.15-.15.23-.2.23a.72.72,0,0,1-.24-.09,5.74,5.74,0,0,1-2.8-3,5.45,5.45,0,0,1-3,3.11.73.73,0,0,1-.23.07c-.05,0-.12-.07-.2-.22a2.35,2.35,0,0,0-.53-.64,5.09,5.09,0,0,0,2.55-1.79,4,4,0,0,0,.73-2.38,5.86,5.86,0,0,0-.08-1c.34,0,.69,0,1.06,0,.11,0,.16.06.16.13a.66.66,0,0,1-.06.22,1.66,1.66,0,0,0-.06.57,4.82,4.82,0,0,0,1.28,2.72A6.34,6.34,0,0,0,27.69,96.91Zm-7-4.41a6.93,6.93,0,0,0,1.67-2.8,5.06,5.06,0,0,0,.18-.9q.4.06,1,.21c.12,0,.18.08.18.14a.28.28,0,0,1-.1.18,1.38,1.38,0,0,0-.2.45l-.23.6H26.3a.49.49,0,0,0,.24,0,.42.42,0,0,1,.15,0c.08,0,.23.1.44.3s.31.32.31.41a.23.23,0,0,1-.07.16.8.8,0,0,0-.18.29,10.7,10.7,0,0,1-1.05,1.85c-.09.14-.16.21-.2.21a.83.83,0,0,1-.24-.14,3,3,0,0,0-.67-.31,6.58,6.58,0,0,0,1.11-1.75H22.8a9,9,0,0,1-1,1.57c-.1.12-.17.18-.2.18a.64.64,0,0,1-.23-.15A2.41,2.41,0,0,0,20.71,92.5Z"/><rect class="cls-6" x="41.67" y="115.08" width="360" height="20"/><line class="cls-2" x1="41.17" y1="110.08" x2="41.17" y2="135.08"/><line class="cls-3" x1="74.17" y1="112.08" x2="74.17" y2="135.08"/><line class="cls-3" x1="107.17" y1="112.08" x2="107.17" y2="135.08"/><line class="cls-3" x1="139.17" y1="112.08" x2="139.17" y2="135.08"/><line class="cls-3" x1="172.17" y1="112.08" x2="172.17" y2="135.08"/><line class="cls-3" x1="205.17" y1="112.08" x2="205.17" y2="135.08"/><line class="cls-3" x1="238.17" y1="112.08" x2="238.17" y2="135.08"/><line class="cls-3" x1="271.17" y1="112.08" x2="271.17" y2="135.08"/><line class="cls-3" x1="304.17" y1="112.08" x2="304.17" y2="135.08"/><line class="cls-3" x1="336.17" y1="112.08" x2="336.17" y2="135.08"/><line class="cls-3" x1="369.17" y1="112.08" x2="369.17" y2="135.08"/><line class="cls-2" x1="402.17" y1="110.08" x2="402.17" y2="135.08"/><path class="cls-5" d="M5.28,118.45V125H6.52v1.23H5.28v2.25H3.78v-2.25H0V125l3.22-6.59ZM3.78,125v-2.18c0-.69,0-1.71.08-3H3.68c-.3.78-.66,1.64-1.1,2.6L1.35,125Z"/><path class="cls-5" d="M9.72,125.73l-1.25,0c-.05,0-.08,0-.09,0a.14.14,0,0,1,0-.09v-.79c0-.07,0-.1.11-.1l1.25,0H10v-1.4l0-.9a.14.14,0,0,1,0-.09.22.22,0,0,1,.1,0l1.37,0h1.28v-1.33H10.66a8.81,8.81,0,0,1-1.17,1.43c-.1.11-.17.16-.21.16s-.1-.06-.2-.19a2,2,0,0,0-.56-.54,7.21,7.21,0,0,0,1.85-2.42,2.81,2.81,0,0,0,.26-.73c.42.08.75.16,1,.22s.18.1.18.17,0,.11-.12.19a1.19,1.19,0,0,0-.25.36l-.2.43h4.13l1.37,0a.09.09,0,0,1,.11.11V121a.09.09,0,0,1-.11.11l-1.37,0H13.79v1.33h1.07l1.37,0c.07,0,.1,0,.1.11v.75c0,.07,0,.11-.1.11l-1.37,0H13.79v1.46h2.12l1.25,0c.07,0,.11,0,.11.1v.79a.22.22,0,0,1,0,.1h-.09l-1.25,0H13.79v.49l0,1.63a.19.19,0,0,1,0,.1h-1c-.06,0-.09,0-.1,0a.14.14,0,0,1,0-.09l0-1.63v-.49Zm1.3-1h1.69v-1.46H11Z"/><path class="cls-5" d="M21.53,123.46a3.87,3.87,0,0,0,.29.72,1.05,1.05,0,0,1,.1.28c0,.05-.06.13-.16.24-.65.56-1.32,1.07-2,1.55a2,2,0,0,0-.3.24.2.2,0,0,1-.15.09c-.06,0-.11,0-.17-.14a8.89,8.89,0,0,1-.56-.89,4,4,0,0,0,.74-.39A17.15,17.15,0,0,0,21.53,123.46Zm-1.59-4a10.88,10.88,0,0,1,1.38,1.45.11.11,0,0,1,0,.19l-.58.55c-.07,0-.11.08-.13.08s0,0-.07-.07a9.2,9.2,0,0,0-1.38-1.55s-.05-.05-.05-.07,0-.06.09-.11l.57-.46c.05,0,.08-.06.11-.06Zm8,7.44a2.47,2.47,0,0,0-.53.74c-.09.15-.16.23-.2.23a.72.72,0,0,1-.24-.09,5.7,5.7,0,0,1-2.8-3,5.48,5.48,0,0,1-3,3.11.73.73,0,0,1-.23.07c-.05,0-.12-.07-.2-.22a2.55,2.55,0,0,0-.53-.64,5.09,5.09,0,0,0,2.55-1.79,4,4,0,0,0,.73-2.38,5.86,5.86,0,0,0-.08-1c.34,0,.69,0,1.06,0,.1,0,.16.06.16.13a.66.66,0,0,1-.06.22,1.66,1.66,0,0,0-.06.57,4.82,4.82,0,0,0,1.28,2.72A6.15,6.15,0,0,0,28,126.91Zm-7-4.41a6.93,6.93,0,0,0,1.67-2.8,5.06,5.06,0,0,0,.18-.9q.41.06,1,.21c.12,0,.18.08.18.14a.33.33,0,0,1-.1.18,1.38,1.38,0,0,0-.2.45l-.23.6H26.6a.49.49,0,0,0,.24,0,.42.42,0,0,1,.15,0c.08,0,.22.1.44.3s.31.32.31.41a.28.28,0,0,1-.07.16.8.8,0,0,0-.18.29,12.2,12.2,0,0,1-1,1.85c-.09.14-.16.21-.2.21a.83.83,0,0,1-.24-.14,3,3,0,0,0-.67-.31,6.84,6.84,0,0,0,1.11-1.75H23.1a9.69,9.69,0,0,1-1,1.57c-.1.12-.17.18-.2.18s-.11,0-.23-.15A2.71,2.71,0,0,0,21,122.5Z"/><path class="cls-5" d="M190,35.61l-1.15,0q-.08,0-.09,0s0,0,0-.08v-.7c0-.06,0-.09.1-.09l1.15,0h2.17V33.67h-.81l-1.2,0s-.07,0-.08,0a.13.13,0,0,1,0-.08v-.68a.13.13,0,0,1,0-.08l.08,0,1.2,0h2.52l1.19,0a.16.16,0,0,1,.1,0s0,0,0,.08v.68s0,.08,0,.08a.14.14,0,0,1-.09,0l-1.19,0h-.76v1.08h2.14l1.15,0c.07,0,.1,0,.1.09v.7s0,.08,0,.09a.14.14,0,0,1-.09,0l-1.15,0H193.1v.61l0,1.22a1.59,1.59,0,0,1-.07.51.83.83,0,0,1-.22.29,2.84,2.84,0,0,1-1.4.22h-.11c-.09,0-.15,0-.17-.06a.56.56,0,0,1-.08-.22,2.48,2.48,0,0,0-.28-.71c.33,0,.65,0,.94,0s.41-.1.41-.32V35.61Zm5.13-4.44,1.19,0c.07,0,.1,0,.1.09l0,.49v.4l0,1a.17.17,0,0,1,0,.09h-.83c-.05,0-.08,0-.08,0a.13.13,0,0,1,0-.08V32h-5.7v1.15a.22.22,0,0,1,0,.09h-.83a.14.14,0,0,1-.09,0s0,0,0-.08l0-1V31.8l0-.56c0-.06,0-.09.1-.09l1.19,0h2V31.1a4.42,4.42,0,0,0-.07-.85c.3,0,.63,0,1,0,.09,0,.14.05.14.1a.51.51,0,0,1,0,.09.2.2,0,0,0,0,.08,2,2,0,0,0-.05.54v.07Z"/><path class="cls-5" d="M199.09,32.71a7.28,7.28,0,0,1,1.27.91.1.1,0,0,1,0,.07.41.41,0,0,1,0,.11l-.4.53c-.05.07-.09.1-.11.1s0,0-.07,0a6.76,6.76,0,0,0-1.26-1s-.06-.06-.06-.08a.3.3,0,0,1,.06-.09l.39-.5s.07-.07.1-.07Zm-.57,5.18a4.08,4.08,0,0,0,.43-.66,14,14,0,0,0,.88-2.16,3.5,3.5,0,0,0,.53.46c.12.09.18.17.18.22a1.13,1.13,0,0,1,0,.21,14.47,14.47,0,0,1-.83,2,1.38,1.38,0,0,0-.13.34q0,.12-.12.12a.41.41,0,0,1-.16,0A5,5,0,0,1,198.52,37.89Zm.94-7.45a8.35,8.35,0,0,1,1.27.95.11.11,0,0,1,.05.07.31.31,0,0,1-.05.11l-.39.54c-.05,0-.09.08-.11.08s0,0-.07,0a6.6,6.6,0,0,0-1.25-1s-.06,0-.06-.06,0,0,.07-.1l.36-.49c.05,0,.08-.08.11-.08Zm5.44,1a12.23,12.23,0,0,1,1.76,2.24.16.16,0,0,1,0,.08s0,0-.09.1l-.53.37a.32.32,0,0,1-.11.07s-.05,0-.08-.07-.22-.41-.36-.65c-1.78.2-3.18.34-4.19.41a1.06,1.06,0,0,0-.39.07.29.29,0,0,1-.15.06s-.08,0-.11-.14c-.06-.25-.12-.55-.17-.91l.51,0,.44,0h0a16.61,16.61,0,0,0,.92-2.23,2.44,2.44,0,0,0,.14-.62,6.36,6.36,0,0,1,1,.2c.11,0,.17.08.17.14a.21.21,0,0,1-.1.17,1.45,1.45,0,0,0-.24.42c-.38.86-.68,1.49-.88,1.87.83-.06,1.65-.13,2.46-.22a8.34,8.34,0,0,0-.74-.85.18.18,0,0,1,0-.07s0,0,.09-.09l.46-.35a.29.29,0,0,1,.1-.05Zm-2.76,7h-.77c-.05,0-.07,0-.08,0a.13.13,0,0,1,0-.08l0-1.64v-.82l0-1.13a.13.13,0,0,1,0-.08.14.14,0,0,1,.09,0l1.16,0h2.1l1.16,0a.13.13,0,0,1,.08,0s0,0,0,.08v3.54c0,.05,0,.08,0,.09H205a.14.14,0,0,1-.09,0,.13.13,0,0,1,0-.08V38h-2.68v.39a.13.13,0,0,1,0,.08Zm.1-2.94v1.62h2.68V35.54Z"/><path class="cls-5" d="M210.07,32.37a4.93,4.93,0,0,1,.63.42c.08.06.12.12.12.17a.17.17,0,0,1-.1.13,1.07,1.07,0,0,0-.25.31,7.22,7.22,0,0,1-.42.65V37.3l0,1.11a.14.14,0,0,1,0,.09h-.91a.2.2,0,0,1,0-.09l0-1.11V36c0-.19,0-.5,0-.91a5.94,5.94,0,0,1-.47.42.53.53,0,0,1-.21.13s-.07-.06-.11-.18a1.58,1.58,0,0,0-.3-.65,7.38,7.38,0,0,0,1.73-1.94A3.57,3.57,0,0,0,210.07,32.37ZM210,30.3a6.15,6.15,0,0,1,.69.43c.09.05.13.11.13.16a.14.14,0,0,1-.09.12.93.93,0,0,0-.27.24,9.17,9.17,0,0,1-1.57,1.53.59.59,0,0,1-.21.12c-.05,0-.1-.07-.16-.22a1.5,1.5,0,0,0-.37-.53,6.49,6.49,0,0,0,1.58-1.43A1.85,1.85,0,0,0,210,30.3Zm1,5.6c0-.06,0-.09.08-.09a.18.18,0,0,1,.09,0l.55.21c.08,0,.12.06.12.1a.18.18,0,0,1,0,.06,6.31,6.31,0,0,1-.68,1.73s-.07.08-.11.08l-.08,0-.59-.3c-.07,0-.1-.07-.1-.1a.2.2,0,0,1,0-.08A5,5,0,0,0,211,35.9Zm1-3.91h-1.32a.54.54,0,0,1,0-.08v-.65a.13.13,0,0,1,0-.08h.09l1.22,0h1v-.14a4.32,4.32,0,0,0-.06-.81q.48,0,.9.06c.11,0,.16.05.16.11a.37.37,0,0,1-.06.15,1.11,1.11,0,0,0-.05.41v.22h1.27l1.24,0a.08.08,0,0,1,.09.09v.65a.08.08,0,0,1-.09.09h-2.51v.69h.9l1.22,0,.08,0a.13.13,0,0,1,0,.08l0,.71v.89l0,.7a.22.22,0,0,1,0,.1h-5c-.05,0-.08,0-.08,0a.14.14,0,0,1,0-.09l0-.7v-.89l0-.71s0-.07,0-.08a.13.13,0,0,1,.08,0l1.22,0h.72V32Zm-.23,2.46h.64V33.38h-.64Zm2.69,2.29a2,2,0,0,0,.6.21l.19,0a.18.18,0,0,1,0,.11.82.82,0,0,1,0,.14,1.25,1.25,0,0,1-.46,1,2.9,2.9,0,0,1-1.26.18,3.47,3.47,0,0,1-1.18-.14.54.54,0,0,1-.32-.55V36.33a4.64,4.64,0,0,0,0-.67l.86.05q.15,0,.15.09a.45.45,0,0,1,0,.13.87.87,0,0,0-.06.39v1c0,.15.06.24.17.27a2.27,2.27,0,0,0,.51,0,1.65,1.65,0,0,0,.66-.09C214.33,37.42,214.39,37.17,214.4,36.74Zm-.66-1.48a4.69,4.69,0,0,1,.76.83s0,0,0,.07,0,.06-.09.09l-.47.35-.11,0s-.05,0-.08-.06a5.69,5.69,0,0,0-.71-.88.07.07,0,0,1,0-.06s0,0,.08-.09l.44-.31.09,0A.21.21,0,0,1,213.74,35.26Zm-.62-1.88v1.07h.65V33.38Zm2.08,1.07V33.38h-.65v1.07Zm.5,1.43a5.81,5.81,0,0,1,.84,1.52l0,.06s0,.06-.09.09l-.6.32-.11.05s0,0-.06-.08a6.2,6.2,0,0,0-.77-1.59.27.27,0,0,1,0-.08s0-.05.09-.08l.53-.25.1,0S215.67,35.83,215.7,35.88Z"/><path class="cls-5" d="M218.84,32.71a7.63,7.63,0,0,1,1.09.83.14.14,0,0,1,0,.09.21.21,0,0,1,0,.1l-.38.55q-.06.09-.09.09a.2.2,0,0,1-.08,0,6.89,6.89,0,0,0-1.09-.92s-.06,0-.06-.07a.21.21,0,0,1,.05-.11l.38-.5a.12.12,0,0,1,.09-.06A.12.12,0,0,1,218.84,32.71Zm-.56,5.16a3.62,3.62,0,0,0,.39-.71,16.2,16.2,0,0,0,.68-2.07,2.55,2.55,0,0,0,.46.41c.15.09.22.17.22.23a1.33,1.33,0,0,1-.05.21,13,13,0,0,1-.66,2,1.24,1.24,0,0,0-.12.36c0,.08,0,.12-.1.12a.26.26,0,0,1-.15,0A4.27,4.27,0,0,1,218.28,37.87Zm.88-7.4a6.93,6.93,0,0,1,1.13.91.15.15,0,0,1,.05.08.19.19,0,0,1-.05.11l-.41.54s-.08.07-.09.07,0,0-.07,0a5.88,5.88,0,0,0-1.12-1,.15.15,0,0,1-.06-.07s0-.05.06-.1l.4-.48c0-.05.07-.07.09-.07Zm.8,7.39a3.78,3.78,0,0,0,1-1.76,9.62,9.62,0,0,0,.28-2.65V31.86a13.58,13.58,0,0,0-.06-1.43l.88.05c.1,0,.15,0,.15.08a.45.45,0,0,1,0,.13.58.58,0,0,0,0,.13,10.48,10.48,0,0,0,0,1.05v1.57a11,11,0,0,1-.3,3,5.81,5.81,0,0,1-1,1.9q-.12.15-.18.15s-.1,0-.19-.15A2.82,2.82,0,0,0,220,37.86Zm.55-5,.41.09c.08,0,.13.06.13.12v0A8,8,0,0,1,220.7,35s0,.08-.07.08l-.08,0-.48-.15c-.07,0-.11-.07-.11-.11a.56.56,0,0,0,0-.07,5.46,5.46,0,0,0,.38-1.82s0-.08.06-.08Zm2.34.16a11.29,11.29,0,0,1,.28,1.66v.06c0,.05,0,.08-.1.1l-.4.12-.1,0s-.05,0-.05-.07a10.61,10.61,0,0,0-.25-1.7.35.35,0,0,0,0-.06s0-.06.1-.07l.37-.1.1,0S222.83,33,222.85,33Zm.31-2.34a6.1,6.1,0,0,1,.87.06c.09,0,.14,0,.14.1l-.06.2a8.92,8.92,0,0,0,0,1v4.31l0,1.48a.13.13,0,0,1,0,.08.14.14,0,0,1-.09,0h-.68a.14.14,0,0,1-.09,0s0,0,0-.08V32.07C223.22,31.53,223.2,31.06,223.16,30.67ZM224.79,33a9.92,9.92,0,0,1,.34,1.62.18.18,0,0,1,0,.06c0,.05,0,.08-.11.1l-.4.13h-.09s-.06,0-.07-.08a10,10,0,0,0-.29-1.65.25.25,0,0,1,0-.07s0-.05.1-.07l.37-.1.1,0S224.78,32.93,224.79,33Zm.37-2.57.9.06c.09,0,.14,0,.14.1a.74.74,0,0,1,0,.12l0,.11a8.25,8.25,0,0,0,0,1.07v6.51s0,.07,0,.08l-.08,0h-.71a.14.14,0,0,1-.09,0,.13.13,0,0,1,0-.08l0-1.51v-5A13.77,13.77,0,0,0,225.16,30.41Z"/><path class="cls-5" d="M236.63,33.27a2.79,2.79,0,0,0-.38.68c-.06.15-.11.22-.16.22a.57.57,0,0,1-.2-.07,10.22,10.22,0,0,1-1.72-1v.67a.13.13,0,0,1,0,.08h-.08l-1,0h-1.38l-1,0c-.05,0-.08,0-.08,0a.1.1,0,0,1,0-.07v-.69a10.32,10.32,0,0,1-1.63,1,.55.55,0,0,1-.21.08s-.1-.07-.17-.22a2.24,2.24,0,0,0-.4-.6,7.31,7.31,0,0,0,3.45-2.61,2.65,2.65,0,0,0,.32-.59,7,7,0,0,1,1,.19c.11,0,.16.07.16.13a.16.16,0,0,1-.08.14l-.13.08A8.33,8.33,0,0,0,236.63,33.27ZM230,35.57l-1.19,0-.1,0s0,0,0-.08v-.68a.13.13,0,0,1,0-.08h7.35a.15.15,0,0,1,0,.08v.68a.13.13,0,0,1,0,.08.14.14,0,0,1-.09,0l-1.19,0H232a17,17,0,0,1-.8,1.69c.94,0,1.86-.13,2.77-.22-.27-.34-.49-.6-.65-.77s0-.05,0-.07,0-.06.09-.09l.58-.3.09,0a.12.12,0,0,1,.09.06,16.29,16.29,0,0,1,1.68,2.09.13.13,0,0,1,0,.07s0,.06-.08.1l-.62.41-.1,0s-.05,0-.08-.06c-.12-.21-.27-.44-.45-.71-1.16.15-2.78.3-4.86.46a.83.83,0,0,0-.32.08.25.25,0,0,1-.16.06c-.06,0-.1-.05-.12-.13a8.52,8.52,0,0,1-.19-.93l.44,0,.54,0h.29a15.31,15.31,0,0,0,.79-1.74Zm.7-2.53c.11,0,.43,0,1,0h1.38c.52,0,.84,0,1,0a8.57,8.57,0,0,1-1.7-1.65A8.27,8.27,0,0,1,230.68,33Z"/><path class="cls-5" d="M240.44,31.9v1.5a11.5,11.5,0,0,1-.27,2.81,5.76,5.76,0,0,1-.93,2.07c-.07.11-.13.17-.17.17s-.1-.05-.18-.16a2.65,2.65,0,0,0-.51-.5,4.08,4.08,0,0,0,1-1.95,6.71,6.71,0,0,0,.11-.75l-.63.34a.84.84,0,0,0-.27.2.21.21,0,0,1-.15.07s-.09,0-.12-.11a7.15,7.15,0,0,1-.21-.83,3.39,3.39,0,0,0,.69-.2l.76-.35c0-.17,0-.44,0-.81l0-2.24c0-.05,0-.08,0-.09h.08l1.24,0h1.48v-.14a3.73,3.73,0,0,0-.06-.72l1,.06c.09,0,.14,0,.14.08a.38.38,0,0,1-.06.18,1.09,1.09,0,0,0,0,.39v.15h1.78l1.22,0a.14.14,0,0,1,.09,0s0,0,0,.08v.66c0,.05,0,.08,0,.09h-.08l-1.22,0Zm-1.69-.11.1,0s.05,0,.07.07a7.52,7.52,0,0,1,.52,1.34.11.11,0,0,1,0,.07s0,.07-.11.11l-.46.27a.24.24,0,0,1-.11,0s0,0-.06-.08a10.55,10.55,0,0,0-.5-1.42.12.12,0,0,1,0-.07s0-.06.07-.08ZM243.44,36a3.32,3.32,0,0,1-.89,1.05.54.54,0,0,1-.18.13s-.1-.06-.19-.18a3.45,3.45,0,0,0-.33-.32v.72l0,1a.09.09,0,0,1-.1.1h-.71q-.08,0-.09,0s0,0,0-.07V34.21a.25.25,0,0,1,0-.1h.09l1.21,0H243c0-.35,0-.61,0-.78h-.89l-1.22,0a.08.08,0,0,1-.09-.09v-.65a.08.08,0,0,1,.09-.09h5.29a.17.17,0,0,1,0,.08v.65a.13.13,0,0,1,0,.08h-.08l-1.22,0h-1.06v.78h.83l1.21,0a.17.17,0,0,1,.09,0,.55.55,0,0,1,0,.09l0,1.08v1.09l0,1.16a.87.87,0,0,1-.22.67.83.83,0,0,1-.4.16,7.73,7.73,0,0,1-.81,0h-.1c-.09,0-.14,0-.16-.06a.92.92,0,0,1-.07-.22,1.41,1.41,0,0,0-.21-.52c.22,0,.42,0,.58,0h.19a.28.28,0,0,0,.31-.31V34.88h-1.31a3.43,3.43,0,0,1-.08.42A11.43,11.43,0,0,1,245,36.39a.21.21,0,0,1,0,.09s0,.05-.07.1l-.38.42s-.07.08-.09.08,0,0-.08-.06A9.58,9.58,0,0,0,243.44,36ZM243,34.88h-1.1v1.67a2.69,2.69,0,0,0,.87-.92A2.21,2.21,0,0,0,243,34.88Z"/><path class="cls-5" d="M249.52,35.93h.1c.47,0,.71-.21.71-.64a3.11,3.11,0,0,0-.8-1.81,12.66,12.66,0,0,0,.76-2.1h-.9v5.09l0,1.94c0,.06,0,.09-.1.09h-.71c-.07,0-.1,0-.1-.09V30.65s0-.08,0-.09h2l.18,0a.2.2,0,0,1,.11,0c.07,0,.18.09.34.26a.66.66,0,0,1,.22.36.24.24,0,0,1-.08.16.64.64,0,0,0-.17.35,12.71,12.71,0,0,1-.7,1.78,3.57,3.57,0,0,1,.68,1.18,3.09,3.09,0,0,1,.1.88A1.12,1.12,0,0,1,250,36.73h-.14c-.07,0-.11,0-.13-.06a.56.56,0,0,1,0-.21A1.22,1.22,0,0,0,249.52,35.93Zm.73,1.9a2.63,2.63,0,0,0,1.63-1,3.29,3.29,0,0,0,.43-1.78h-1s0,0,0-.08v-.64s0-.08,0-.1h.08l1.19,0H255l1.2,0c.05,0,.07,0,.08,0a.14.14,0,0,1,0,.09V35a.13.13,0,0,1,0,.08H254.7v2.18c0,.16,0,.26.07.29s.16.05.35.05.31,0,.37-.11a2.72,2.72,0,0,0,.12-1,1.88,1.88,0,0,0,.6.23.44.44,0,0,1,.19.06.18.18,0,0,1,0,.14.46.46,0,0,1,0,.1,2.88,2.88,0,0,1-.14.84.77.77,0,0,1-.28.34,2,2,0,0,1-1.07.2,1.81,1.81,0,0,1-.89-.13.87.87,0,0,1-.26-.74V35h-.57a4.27,4.27,0,0,1-.56,2.24,3.13,3.13,0,0,1-1.47,1.17.78.78,0,0,1-.22.07s-.11-.06-.2-.18A2.1,2.1,0,0,0,250.25,37.83Zm4.11-4.33h-1.21l-1,0a.14.14,0,0,1-.09,0s0,0,0-.08V33h-.76a.13.13,0,0,1,0-.08l0-.85v-.25l0-.45s0-.07,0-.08h.08l1.21,0h.55v-.1a5.06,5.06,0,0,0-.06-.87c.28,0,.6,0,.94.07.09,0,.14,0,.14.09a.32.32,0,0,1,0,.16,1.53,1.53,0,0,0-.06.54v.11h.77l1.2,0c.06,0,.09,0,.1,0s0,0,0,.07v1.55s0,.07,0,.08h-.75v.44s0,.07,0,.08l-.08,0ZM252.21,32v.66l.94,0h1.21c.51,0,.81,0,.92,0V32Z"/><path class="cls-5" d="M190,66.61l-1.15,0q-.08,0-.09,0s0,0,0-.08v-.7c0-.06,0-.09.1-.09l1.15,0h2.17V64.67h-.81l-1.2,0s-.07,0-.08,0a.13.13,0,0,1,0-.08v-.68a.13.13,0,0,1,0-.08l.08,0,1.2,0h2.52l1.19,0a.16.16,0,0,1,.1,0s0,0,0,.08v.68s0,.08,0,.08a.14.14,0,0,1-.09,0l-1.19,0h-.76v1.08h2.14l1.15,0c.07,0,.1,0,.1.09v.7s0,.08,0,.09a.14.14,0,0,1-.09,0l-1.15,0H193.1v.61l0,1.22a1.59,1.59,0,0,1-.07.51.83.83,0,0,1-.22.29,2.84,2.84,0,0,1-1.4.22h-.11c-.09,0-.15,0-.17-.06a.56.56,0,0,1-.08-.22,2.48,2.48,0,0,0-.28-.71c.33,0,.65,0,.94,0s.41-.1.41-.32V66.61Zm5.13-4.44,1.19,0c.07,0,.1,0,.1.09l0,.49v.4l0,1a.17.17,0,0,1,0,.09h-.83c-.05,0-.08,0-.08,0a.13.13,0,0,1,0-.08V63h-5.7v1.15a.22.22,0,0,1,0,.09h-.83a.14.14,0,0,1-.09,0s0,0,0-.08l0-1V62.8l0-.56c0-.06,0-.09.1-.09l1.19,0h2V62.1a4.42,4.42,0,0,0-.07-.85c.3,0,.63,0,1,0,.09,0,.14.05.14.1a.51.51,0,0,1,0,.09.2.2,0,0,0,0,.08,2,2,0,0,0-.05.54v.07Z"/><path class="cls-5" d="M199.09,63.71a7.28,7.28,0,0,1,1.27.91.1.1,0,0,1,0,.07.41.41,0,0,1,0,.11l-.4.53c-.05.07-.09.1-.11.1s0,0-.07,0a6.76,6.76,0,0,0-1.26-1s-.06-.06-.06-.08a.3.3,0,0,1,.06-.09l.39-.5s.07-.07.1-.07Zm-.57,5.18a4.08,4.08,0,0,0,.43-.66,14,14,0,0,0,.88-2.16,3.5,3.5,0,0,0,.53.46c.12.09.18.17.18.22a1.13,1.13,0,0,1,0,.21,14.47,14.47,0,0,1-.83,2,1.38,1.38,0,0,0-.13.34q0,.12-.12.12a.41.41,0,0,1-.16,0A5,5,0,0,1,198.52,68.89Zm.94-7.45a8.35,8.35,0,0,1,1.27,1,.11.11,0,0,1,.05.07.31.31,0,0,1-.05.11l-.39.54c-.05,0-.09.08-.11.08s0,0-.07,0a6.6,6.6,0,0,0-1.25-1s-.06,0-.06-.06,0,0,.07-.1l.36-.49c.05-.05.08-.08.11-.08Zm5.44,1a12.23,12.23,0,0,1,1.76,2.24.16.16,0,0,1,0,.08s0,0-.09.1l-.53.37a.32.32,0,0,1-.11.07s-.05,0-.08-.07-.22-.41-.36-.65c-1.78.2-3.18.34-4.19.41a1.06,1.06,0,0,0-.39.07.29.29,0,0,1-.15.06s-.08,0-.11-.14c-.06-.25-.12-.55-.17-.91l.51,0,.44,0h0a16.61,16.61,0,0,0,.92-2.23,2.44,2.44,0,0,0,.14-.62,6.36,6.36,0,0,1,1,.2c.11,0,.17.08.17.14a.21.21,0,0,1-.1.17,1.45,1.45,0,0,0-.24.42c-.38.86-.68,1.49-.88,1.87.83-.06,1.65-.13,2.46-.22a8.34,8.34,0,0,0-.74-.85.18.18,0,0,1,0-.07s0,0,.09-.09l.46-.35a.29.29,0,0,1,.1-.05Zm-2.76,7h-.77c-.05,0-.07,0-.08,0a.13.13,0,0,1,0-.08l0-1.64v-.82l0-1.13a.13.13,0,0,1,0-.08.14.14,0,0,1,.09,0l1.16,0h2.1l1.16,0,.08,0s0,0,0,.08v3.54s0,.08,0,.09H205a.14.14,0,0,1-.09,0,.13.13,0,0,1,0-.08V69h-2.68v.39a.08.08,0,0,1-.1.1Zm.1-2.94v1.62h2.68V66.54Z"/><path class="cls-5" d="M210.07,63.37a4.93,4.93,0,0,1,.63.42c.08.06.12.12.12.17a.17.17,0,0,1-.1.13,1.07,1.07,0,0,0-.25.31,7.22,7.22,0,0,1-.42.65V68.3l0,1.11a.14.14,0,0,1,0,.09h-.91a.2.2,0,0,1,0-.09l0-1.11V67c0-.19,0-.5,0-.91a5.94,5.94,0,0,1-.47.42.53.53,0,0,1-.21.13s-.07-.06-.11-.18a1.58,1.58,0,0,0-.3-.65,7.38,7.38,0,0,0,1.73-1.94A3.57,3.57,0,0,0,210.07,63.37ZM210,61.3a6.15,6.15,0,0,1,.69.43c.09.05.13.11.13.16a.14.14,0,0,1-.09.12.93.93,0,0,0-.27.24,9.17,9.17,0,0,1-1.57,1.53.59.59,0,0,1-.21.12c-.05,0-.1-.07-.16-.22a1.5,1.5,0,0,0-.37-.53,6.49,6.49,0,0,0,1.58-1.43A1.85,1.85,0,0,0,210,61.3Zm1,5.6c0-.06,0-.09.08-.09a.18.18,0,0,1,.09,0l.55.21c.08,0,.12.06.12.1a.18.18,0,0,1,0,.06,6.31,6.31,0,0,1-.68,1.73s-.07.08-.11.08l-.08,0-.59-.3c-.07,0-.1-.07-.1-.1a.2.2,0,0,1,0-.08A5,5,0,0,0,211,66.9Zm1-3.91h-1.32a.54.54,0,0,1,0-.08v-.65a.13.13,0,0,1,0-.08h.09l1.22,0h1v-.14a4.32,4.32,0,0,0-.06-.81q.48,0,.9.06c.11,0,.16.05.16.11a.37.37,0,0,1-.06.15,1.11,1.11,0,0,0-.05.41v.22h1.27l1.24,0a.08.08,0,0,1,.09.09v.65a.08.08,0,0,1-.09.09h-2.51v.69h.9l1.22,0,.08,0a.13.13,0,0,1,0,.08l0,.71v.89l0,.7a.22.22,0,0,1,0,.1h-5c-.05,0-.08,0-.08,0a.14.14,0,0,1,0-.09l0-.7v-.89l0-.71s0-.07,0-.08a.13.13,0,0,1,.08,0l1.22,0h.72V63Zm-.23,2.46h.64V64.38h-.64Zm2.69,2.29a2,2,0,0,0,.6.21l.19,0a.18.18,0,0,1,0,.11.82.82,0,0,1,0,.14,1.25,1.25,0,0,1-.46,1,2.9,2.9,0,0,1-1.26.18,3.47,3.47,0,0,1-1.18-.14.54.54,0,0,1-.32-.55V67.33a4.64,4.64,0,0,0,0-.67l.86,0q.15,0,.15.09a.45.45,0,0,1,0,.13.87.87,0,0,0-.06.39v1c0,.15.06.24.17.27a2.27,2.27,0,0,0,.51,0,1.65,1.65,0,0,0,.66-.09C214.33,68.42,214.39,68.17,214.4,67.74Zm-.66-1.48a4.69,4.69,0,0,1,.76.83s0,0,0,.07,0,.06-.09.09l-.47.35-.11.05s-.05,0-.08-.06a5.69,5.69,0,0,0-.71-.88.07.07,0,0,1,0-.06s0-.05.08-.09l.44-.31.09,0A.21.21,0,0,1,213.74,66.26Zm-.62-1.88v1.07h.65V64.38Zm2.08,1.07V64.38h-.65v1.07Zm.5,1.43a5.81,5.81,0,0,1,.84,1.52l0,.06s0,.06-.09.09l-.6.32-.11,0s0,0-.06-.08a6.2,6.2,0,0,0-.77-1.59.27.27,0,0,1,0-.08s0,0,.09-.08l.53-.25.1,0S215.67,66.83,215.7,66.88Z"/><path class="cls-5" d="M218.84,63.71a7.63,7.63,0,0,1,1.09.83.14.14,0,0,1,0,.09.21.21,0,0,1,0,.1l-.38.55q-.06.09-.09.09a.2.2,0,0,1-.08,0,6.89,6.89,0,0,0-1.09-.92s-.06,0-.06-.07a.21.21,0,0,1,.05-.11l.38-.5a.12.12,0,0,1,.09-.06A.12.12,0,0,1,218.84,63.71Zm-.56,5.16a3.62,3.62,0,0,0,.39-.71,16.2,16.2,0,0,0,.68-2.07,2.55,2.55,0,0,0,.46.41c.15.09.22.17.22.23a1.33,1.33,0,0,1-.05.21,13,13,0,0,1-.66,2,1.24,1.24,0,0,0-.12.36c0,.08,0,.12-.1.12a.26.26,0,0,1-.15,0A4.27,4.27,0,0,1,218.28,68.87Zm.88-7.4a6.93,6.93,0,0,1,1.13.91.15.15,0,0,1,.05.08.19.19,0,0,1-.05.11l-.41.54s-.08.07-.09.07,0,0-.07,0a5.88,5.88,0,0,0-1.12-1,.15.15,0,0,1-.06-.07s0-.05.06-.1l.4-.48s.07-.07.09-.07Zm.8,7.39a3.78,3.78,0,0,0,1-1.76,9.62,9.62,0,0,0,.28-2.65V62.86a13.58,13.58,0,0,0-.06-1.43l.88,0c.1,0,.15,0,.15.08a.45.45,0,0,1,0,.13.58.58,0,0,0,0,.13,10.48,10.48,0,0,0,0,1v1.57a11,11,0,0,1-.3,3,5.81,5.81,0,0,1-1,1.9q-.12.15-.18.15s-.1,0-.19-.15A2.82,2.82,0,0,0,220,68.86Zm.55-5,.41.09c.08,0,.13.06.13.12v0A8,8,0,0,1,220.7,66s0,.08-.07.08l-.08,0-.48-.15c-.07,0-.11-.07-.11-.11a.56.56,0,0,0,0-.07,5.46,5.46,0,0,0,.38-1.82s0-.08.06-.08Zm2.34.16a11.29,11.29,0,0,1,.28,1.66v.06s0,.08-.1.1l-.4.12-.1,0s-.05,0-.05-.07a10.61,10.61,0,0,0-.25-1.7.35.35,0,0,0,0-.06s0-.06.1-.07l.37-.1.1,0S222.83,64,222.85,64Zm.31-2.34a6.1,6.1,0,0,1,.87.06c.09,0,.14,0,.14.1l-.06.2a8.92,8.92,0,0,0,0,1v4.31l0,1.48a.13.13,0,0,1,0,.08.14.14,0,0,1-.09,0h-.68a.14.14,0,0,1-.09,0s0,0,0-.08V63.07C223.22,62.53,223.2,62.06,223.16,61.67ZM224.79,64a9.92,9.92,0,0,1,.34,1.62.18.18,0,0,1,0,.06s0,.08-.11.1l-.4.13h-.09s-.06,0-.07-.08a10,10,0,0,0-.29-1.65.25.25,0,0,1,0-.07s0,0,.1-.07l.37-.1.1,0S224.78,63.93,224.79,64Zm.37-2.57.9.06c.09,0,.14,0,.14.1a.74.74,0,0,1,0,.12l0,.11a8.25,8.25,0,0,0,0,1.07v6.51s0,.07,0,.08a.15.15,0,0,1-.08,0h-.71a.14.14,0,0,1-.09,0,.13.13,0,0,1,0-.08l0-1.51v-5A13.77,13.77,0,0,0,225.16,61.41Z"/><path class="cls-5" d="M236.63,64.27a2.79,2.79,0,0,0-.38.68c-.06.15-.11.22-.16.22a.57.57,0,0,1-.2-.07,10.22,10.22,0,0,1-1.72-.95v.67a.13.13,0,0,1,0,.08h-.08l-1,0h-1.38l-1,0c-.05,0-.08,0-.08,0a.1.1,0,0,1,0-.07v-.69a10.32,10.32,0,0,1-1.63,1,.55.55,0,0,1-.21.08s-.1-.07-.17-.22a2.24,2.24,0,0,0-.4-.6,7.31,7.31,0,0,0,3.45-2.61,2.65,2.65,0,0,0,.32-.59,7,7,0,0,1,1,.19c.11,0,.16.07.16.13a.16.16,0,0,1-.08.14l-.13.08A8.33,8.33,0,0,0,236.63,64.27ZM230,66.57l-1.19,0a.22.22,0,0,1-.1,0s0,0,0-.08v-.68a.13.13,0,0,1,0-.08h7.35a.15.15,0,0,1,0,.08v.68a.13.13,0,0,1,0,.08.14.14,0,0,1-.09,0l-1.19,0H232a17,17,0,0,1-.8,1.69c.94-.05,1.86-.13,2.77-.22-.27-.34-.49-.6-.65-.77s0,0,0-.07,0-.06.09-.09l.58-.3.09,0a.12.12,0,0,1,.09.06,16.29,16.29,0,0,1,1.68,2.09.13.13,0,0,1,0,.07s0,.06-.08.1l-.62.41-.1,0s-.05,0-.08-.06c-.12-.21-.27-.44-.45-.71-1.16.15-2.78.3-4.86.46a.83.83,0,0,0-.32.08.25.25,0,0,1-.16.06c-.06,0-.1,0-.12-.13a8.52,8.52,0,0,1-.19-.93l.44,0,.54,0h.29a15.31,15.31,0,0,0,.79-1.74Zm.7-2.53c.11,0,.43,0,1,0h1.38c.52,0,.84,0,1,0a8.57,8.57,0,0,1-1.7-1.65A8.27,8.27,0,0,1,230.68,64Z"/><path class="cls-5" d="M240.44,62.9v1.5a11.5,11.5,0,0,1-.27,2.81,5.76,5.76,0,0,1-.93,2.07c-.07.11-.13.17-.17.17s-.1,0-.18-.16a2.65,2.65,0,0,0-.51-.5,4.08,4.08,0,0,0,1-2,6.71,6.71,0,0,0,.11-.75l-.63.34a.84.84,0,0,0-.27.2.21.21,0,0,1-.15.07s-.09,0-.12-.11a7.15,7.15,0,0,1-.21-.83,3.39,3.39,0,0,0,.69-.2l.76-.35c0-.17,0-.44,0-.81l0-2.24s0-.08,0-.09h.08l1.24,0h1.48v-.14a3.73,3.73,0,0,0-.06-.72l1,.06c.09,0,.14,0,.14.08a.38.38,0,0,1-.06.18,1.09,1.09,0,0,0,0,.39v.15h1.78l1.22,0a.14.14,0,0,1,.09,0s0,0,0,.08v.66s0,.08,0,.09h-.08l-1.22,0Zm-1.69-.11.1,0s.05,0,.07.07a7.52,7.52,0,0,1,.52,1.34.11.11,0,0,1,0,.07s0,.07-.11.11l-.46.27a.24.24,0,0,1-.11,0s0,0-.06-.08a10.55,10.55,0,0,0-.5-1.42.12.12,0,0,1,0-.07s0-.06.07-.08ZM243.44,67a3.32,3.32,0,0,1-.89,1,.54.54,0,0,1-.18.13s-.1-.06-.19-.18a3.45,3.45,0,0,0-.33-.32v.72l0,1a.09.09,0,0,1-.1.1h-.71q-.08,0-.09,0s0,0,0-.07V65.21a.25.25,0,0,1,0-.1h.09l1.21,0H243c0-.35,0-.61,0-.78h-.89l-1.22,0a.08.08,0,0,1-.09-.09v-.65a.08.08,0,0,1,.09-.09h5.29a.17.17,0,0,1,0,.08v.65a.13.13,0,0,1,0,.08h-.08l-1.22,0h-1.06v.78h.83l1.21,0a.17.17,0,0,1,.09,0,.55.55,0,0,1,0,.09l0,1.08v1.09l0,1.16a.87.87,0,0,1-.22.67.83.83,0,0,1-.4.16,7.73,7.73,0,0,1-.81,0h-.1c-.09,0-.14,0-.16-.06a.92.92,0,0,1-.07-.22,1.41,1.41,0,0,0-.21-.52c.22,0,.42,0,.58,0h.19a.28.28,0,0,0,.31-.31V65.88h-1.31a3.43,3.43,0,0,1-.08.42A11.43,11.43,0,0,1,245,67.39a.21.21,0,0,1,0,.09s0,0-.07.1l-.38.42s-.07.08-.09.08,0,0-.08-.06A9.58,9.58,0,0,0,243.44,67ZM243,65.88h-1.1v1.67a2.69,2.69,0,0,0,.87-.92A2.21,2.21,0,0,0,243,65.88Z"/><path class="cls-5" d="M249.52,66.93h.1c.47,0,.71-.21.71-.64a3.11,3.11,0,0,0-.8-1.81,12.66,12.66,0,0,0,.76-2.1h-.9v5.09l0,1.94c0,.06,0,.09-.1.09h-.71c-.07,0-.1,0-.1-.09V61.65s0-.08,0-.09h2l.18,0a.2.2,0,0,1,.11,0c.07,0,.18.09.34.26a.66.66,0,0,1,.22.36.24.24,0,0,1-.08.16.64.64,0,0,0-.17.35,12.71,12.71,0,0,1-.7,1.78,3.57,3.57,0,0,1,.68,1.18,3.09,3.09,0,0,1,.1.88A1.12,1.12,0,0,1,250,67.73h-.14c-.07,0-.11,0-.13-.06a.56.56,0,0,1,0-.21A1.22,1.22,0,0,0,249.52,66.93Zm.73,1.9a2.63,2.63,0,0,0,1.63-1,3.29,3.29,0,0,0,.43-1.78h-1s0,0,0-.08v-.64s0-.08,0-.1h.08l1.19,0H255l1.2,0c.05,0,.07,0,.08,0a.14.14,0,0,1,0,.09V66a.13.13,0,0,1,0,.08H254.7v2.18c0,.16,0,.26.07.29s.16,0,.35,0,.31,0,.37-.11a2.72,2.72,0,0,0,.12-1,1.88,1.88,0,0,0,.6.23.44.44,0,0,1,.19.06.18.18,0,0,1,0,.14.46.46,0,0,1,0,.1,2.88,2.88,0,0,1-.14.84.77.77,0,0,1-.28.34,2,2,0,0,1-1.07.2,1.81,1.81,0,0,1-.89-.13.87.87,0,0,1-.26-.74V66h-.57a4.27,4.27,0,0,1-.56,2.24,3.13,3.13,0,0,1-1.47,1.17.78.78,0,0,1-.22.07s-.11-.06-.2-.18A2.1,2.1,0,0,0,250.25,68.83Zm4.11-4.33h-1.21l-1,0a.14.14,0,0,1-.09,0s0,0,0-.08V64h-.76a.13.13,0,0,1,0-.08l0-.85v-.25l0-.45s0-.07,0-.08h.08l1.21,0h.55v-.1a5.06,5.06,0,0,0-.06-.87c.28,0,.6,0,.94.07.09,0,.14,0,.14.09a.32.32,0,0,1,0,.16,1.53,1.53,0,0,0-.06.54v.11h.77l1.2,0c.06,0,.09,0,.1,0s0,0,0,.07v1.55s0,.07,0,.08h-.75v.44s0,.07,0,.08a.13.13,0,0,1-.08,0ZM252.21,63v.66l.94,0h1.21c.51,0,.81,0,.92,0V63Z"/><path class="cls-5" d="M74,95.61l-1.15,0s-.08,0-.09,0,0,0,0-.08v-.7c0-.06,0-.09.1-.09l1.15,0h2.17V93.67h-.81l-1.2,0s-.07,0-.08,0a.13.13,0,0,1,0-.08v-.68a.08.08,0,0,1,.1-.1l1.2,0h2.52l1.19,0a.16.16,0,0,1,.1,0s0,0,0,.08v.68s0,.08,0,.08a.14.14,0,0,1-.09,0l-1.19,0H77.1v1.08h2.14l1.15,0c.07,0,.11,0,.11.09v.7a.09.09,0,0,1-.11.11l-1.15,0H77.1v.61l0,1.22a1.35,1.35,0,0,1-.07.51.83.83,0,0,1-.22.29,2.81,2.81,0,0,1-1.4.22h-.11c-.09,0-.15,0-.17-.06a.56.56,0,0,1-.08-.22,2.48,2.48,0,0,0-.28-.71c.33,0,.65,0,.94,0s.41-.1.41-.32V95.61Zm5.13-4.44,1.19,0c.07,0,.1,0,.1.09l0,.49v.4l0,1a.17.17,0,0,1,0,.09h-.83s-.07,0-.08,0a.13.13,0,0,1,0-.08V92h-5.7v1.15a.22.22,0,0,1,0,.09h-.83a.14.14,0,0,1-.09,0s0,0,0-.08l0-1V91.8l0-.56c0-.06,0-.09.1-.09l1.19,0h2V91.1a4.42,4.42,0,0,0-.07-.85c.3,0,.63,0,1,0,.09,0,.14,0,.14.1a.51.51,0,0,1,0,.09.2.2,0,0,0,0,.08,2.13,2.13,0,0,0,0,.54v.07Z"/><path class="cls-5" d="M83.1,92.71a7.58,7.58,0,0,1,1.26.91.1.1,0,0,1,0,.07.41.41,0,0,1,0,.11l-.4.53c0,.07-.08.1-.11.1s0,0-.07,0a6.44,6.44,0,0,0-1.26-1s-.06-.06-.06-.08a.3.3,0,0,1,.06-.09l.39-.5s.07-.07.1-.07Zm-.58,5.18a5,5,0,0,0,.44-.66,13.94,13.94,0,0,0,.87-2.16,3.5,3.5,0,0,0,.53.46c.12.09.19.17.19.22s0,.08-.06.21a13.34,13.34,0,0,1-.83,2,1.38,1.38,0,0,0-.13.34q0,.12-.12.12a.41.41,0,0,1-.16,0A5,5,0,0,1,82.52,97.89Zm.94-7.45a8.35,8.35,0,0,1,1.27,1,.11.11,0,0,1,0,.07.31.31,0,0,1,0,.11l-.39.54s-.09.08-.11.08,0,0-.07,0a6.6,6.6,0,0,0-1.25-1s-.06,0-.06-.06,0,0,.07-.1l.36-.49s.08-.08.11-.08Zm5.44,1a12.23,12.23,0,0,1,1.76,2.24.16.16,0,0,1,0,.08s0,0-.09.1l-.53.37a.32.32,0,0,1-.11.07s0,0-.08-.07-.22-.41-.36-.65c-1.78.2-3.18.34-4.19.41a1.11,1.11,0,0,0-.39.07.29.29,0,0,1-.15.06s-.08,0-.11-.14c-.06-.25-.12-.55-.17-.91l.51,0,.44,0h.05a18.09,18.09,0,0,0,.93-2.23,3,3,0,0,0,.13-.62,6.36,6.36,0,0,1,1,.2c.11,0,.17.08.17.14a.21.21,0,0,1-.1.17,1.45,1.45,0,0,0-.24.42c-.38.86-.68,1.49-.88,1.87.83-.06,1.65-.13,2.47-.22a9.92,9.92,0,0,0-.75-.85.18.18,0,0,1,0-.07s0-.05.09-.09l.46-.35.1,0Zm-2.76,7h-.77a.13.13,0,0,1-.08,0s0,0,0-.08V94.79s0-.07,0-.08a.14.14,0,0,1,.09,0l1.16,0h2.1l1.16,0a.13.13,0,0,1,.08,0s0,0,0,.08v3.54s0,.08,0,.09H89a.14.14,0,0,1-.09,0,.13.13,0,0,1,0-.08V98H86.24v.39a.08.08,0,0,1-.1.1Zm.1-2.94v1.62h2.68V95.54Z"/><path class="cls-5" d="M94.07,92.37a4.93,4.93,0,0,1,.63.42c.08.06.12.12.12.17a.17.17,0,0,1-.1.13,1.07,1.07,0,0,0-.25.31,7.22,7.22,0,0,1-.42.65V97.3l0,1.11a.14.14,0,0,1,0,.09h-.91a.2.2,0,0,1,0-.09l0-1.11V96c0-.19,0-.5,0-.91a5.94,5.94,0,0,1-.47.42.53.53,0,0,1-.21.13s-.07-.06-.11-.18a1.58,1.58,0,0,0-.3-.65,7.21,7.21,0,0,0,1.73-1.94A2.71,2.71,0,0,0,94.07,92.37ZM94,90.3a6.15,6.15,0,0,1,.69.43c.09,0,.13.11.13.16a.14.14,0,0,1-.09.12.93.93,0,0,0-.27.24,9.17,9.17,0,0,1-1.57,1.53.7.7,0,0,1-.2.12s-.11-.07-.17-.22a1.5,1.5,0,0,0-.37-.53,6.49,6.49,0,0,0,1.58-1.43A1.85,1.85,0,0,0,94,90.3Zm1,5.6c0-.06,0-.09.08-.09a.18.18,0,0,1,.09,0l.55.21c.08,0,.12.06.12.1a.18.18,0,0,1,0,.06,6.31,6.31,0,0,1-.68,1.73s-.07.08-.1.08a.16.16,0,0,1-.09,0l-.59-.3c-.07,0-.1-.07-.1-.1a.2.2,0,0,1,0-.08A5,5,0,0,0,95,95.9Zm1-3.91H94.62a.54.54,0,0,1,0-.08v-.65a.13.13,0,0,1,0-.08h.09l1.22,0h1v-.14a4.32,4.32,0,0,0-.06-.81c.32,0,.62,0,.91.06.1,0,.15,0,.15.11a.37.37,0,0,1-.06.15,1.11,1.11,0,0,0-.05.41v.22h1.27l1.24,0a.08.08,0,0,1,.09.09v.65a.08.08,0,0,1-.09.09H97.82v.69h.9l1.22,0,.09,0a.54.54,0,0,1,0,.08l0,.71v.89l0,.7a.22.22,0,0,1,0,.1H95s-.08,0-.08,0a.14.14,0,0,1,0-.09l0-.7v-.89l0-.71c0-.05,0-.07,0-.08a.13.13,0,0,1,.08,0l1.22,0h.72V92Zm-.23,2.46h.64V93.38h-.64Zm2.69,2.29A2,2,0,0,0,99,97l.19,0a.18.18,0,0,1,0,.11,1.15,1.15,0,0,1,0,.14,1.25,1.25,0,0,1-.46,1,2.9,2.9,0,0,1-1.26.18,3.51,3.51,0,0,1-1.18-.14A.54.54,0,0,1,96,97.7V96.33a4.64,4.64,0,0,0,0-.67l.86,0q.15,0,.15.09a.45.45,0,0,1,0,.13.87.87,0,0,0-.06.39v1c0,.15.06.24.17.27a2.27,2.27,0,0,0,.51,0,1.65,1.65,0,0,0,.66-.09C98.33,97.42,98.39,97.17,98.4,96.74Zm-.66-1.48a4.69,4.69,0,0,1,.76.83s0,0,0,.07,0,.06-.09.09L98,96.6l-.11.05s-.05,0-.08-.06a5.69,5.69,0,0,0-.71-.88.07.07,0,0,1,0-.06s0-.05.08-.09l.44-.31.09,0A.21.21,0,0,1,97.74,95.26Zm-.62-1.88v1.07h.66V93.38Zm2.08,1.07V93.38h-.65v1.07Zm.5,1.43a5.81,5.81,0,0,1,.84,1.52.1.1,0,0,1,0,.06s0,.06-.09.09l-.6.32-.11,0s0,0-.06-.08a6.2,6.2,0,0,0-.77-1.59.27.27,0,0,1,0-.08s0,0,.09-.08l.53-.25.1,0S99.67,95.83,99.7,95.88Z"/><path class="cls-5" d="M102.84,92.71a7.63,7.63,0,0,1,1.09.83.14.14,0,0,1,0,.09.21.21,0,0,1,0,.1l-.38.55q-.06.09-.09.09a.2.2,0,0,1-.08,0,6.89,6.89,0,0,0-1.09-.92s-.06,0-.06-.07a.21.21,0,0,1,0-.11l.38-.5a.12.12,0,0,1,.09-.06A.12.12,0,0,1,102.84,92.71Zm-.56,5.16a3.62,3.62,0,0,0,.39-.71,16.2,16.2,0,0,0,.68-2.07,2.55,2.55,0,0,0,.46.41c.15.09.22.17.22.23a1.33,1.33,0,0,1,0,.21,13,13,0,0,1-.66,2,1.24,1.24,0,0,0-.12.36q0,.12-.09.12a.27.27,0,0,1-.16,0A4.27,4.27,0,0,1,102.28,97.87Zm.88-7.4a6.93,6.93,0,0,1,1.13.91.15.15,0,0,1,0,.08.19.19,0,0,1,0,.11l-.41.54s-.08.07-.09.07,0,0-.07-.05a5.88,5.88,0,0,0-1.12-1,.15.15,0,0,1-.06-.07s0,0,.06-.1l.4-.48c0-.05.07-.07.09-.07Zm.8,7.39a3.78,3.78,0,0,0,1-1.76,9.62,9.62,0,0,0,.28-2.65V91.86a13.58,13.58,0,0,0-.06-1.43l.88,0c.1,0,.15,0,.15.08a.45.45,0,0,1,0,.13l0,.13a10.48,10.48,0,0,0,0,1.05v1.57a11,11,0,0,1-.3,3,5.81,5.81,0,0,1-1,1.9q-.12.15-.18.15s-.1,0-.19-.15A2.82,2.82,0,0,0,104,97.86Zm.55-5,.41.09c.08,0,.13.06.13.12v0A8,8,0,0,1,104.7,95s0,.08-.07.08l-.08,0-.48-.15c-.07,0-.11-.07-.11-.11l0-.07a5.75,5.75,0,0,0,.37-1.82s0-.08.06-.08Zm2.34.16a11.29,11.29,0,0,1,.28,1.66v.06s0,.08-.1.1l-.4.12-.1,0s0,0,0-.07a10.61,10.61,0,0,0-.25-1.7v-.06s0-.06.09-.07l.37-.1.1,0S106.83,93,106.85,93Zm.31-2.34a6.1,6.1,0,0,1,.87.06c.09,0,.14,0,.14.1l0,.2a6.25,6.25,0,0,0,0,1v4.31l0,1.48a.13.13,0,0,1,0,.08.14.14,0,0,1-.09,0h-.68a.14.14,0,0,1-.09,0s0,0,0-.08V92.07C107.22,91.53,107.2,91.06,107.16,90.67ZM108.79,93a9.92,9.92,0,0,1,.34,1.62.18.18,0,0,1,0,.06s0,.08-.11.1l-.4.13h-.09s-.06,0-.06-.08a11.13,11.13,0,0,0-.3-1.65.25.25,0,0,1,0-.07s0,0,.1-.07l.37-.1.1,0S108.78,92.93,108.79,93Zm.37-2.57.9.06c.09,0,.14,0,.14.1a.74.74,0,0,1,0,.12l0,.11a8.25,8.25,0,0,0,0,1.07v6.51s0,.07,0,.08a.15.15,0,0,1-.08,0h-.71a.14.14,0,0,1-.09,0s0,0,0-.08v-6.5A13.77,13.77,0,0,0,109.16,90.41Z"/><path class="cls-5" d="M120.63,93.27a2.79,2.79,0,0,0-.38.68c-.06.15-.11.22-.16.22a.57.57,0,0,1-.2-.07,10.22,10.22,0,0,1-1.72-.95v.67a.13.13,0,0,1,0,.08h-.08l-1,0h-1.38l-1,0c-.05,0-.08,0-.08,0a.1.1,0,0,1,0-.07v-.69a10.32,10.32,0,0,1-1.63,1,.55.55,0,0,1-.21.08s-.1-.07-.17-.22a2.24,2.24,0,0,0-.4-.6,7.31,7.31,0,0,0,3.45-2.61,2.65,2.65,0,0,0,.32-.59,7,7,0,0,1,1,.19c.11,0,.16.07.16.13a.16.16,0,0,1-.08.14l-.13.08A8.33,8.33,0,0,0,120.63,93.27ZM114,95.57l-1.19,0a.22.22,0,0,1-.1,0s0,0,0-.08v-.68a.13.13,0,0,1,0-.08h7.35a.15.15,0,0,1,0,.08v.68a.13.13,0,0,1,0,.08.14.14,0,0,1-.09,0l-1.19,0H116a17,17,0,0,1-.8,1.69c.94-.05,1.86-.13,2.77-.22-.27-.34-.49-.6-.65-.77s0,0,0-.07,0-.06.09-.09l.58-.3.09,0a.12.12,0,0,1,.09.06,16.29,16.29,0,0,1,1.68,2.09.13.13,0,0,1,0,.07s0,.06-.07.1l-.63.41-.1,0s0,0-.08-.06c-.12-.21-.27-.44-.45-.71-1.16.15-2.78.3-4.86.46a.83.83,0,0,0-.32.08.25.25,0,0,1-.16.06c-.06,0-.1,0-.12-.13s-.12-.51-.19-.93l.44,0,.54,0h.29a13.74,13.74,0,0,0,.79-1.74Zm.7-2.53c.11,0,.44,0,1,0h1.38c.52,0,.84,0,1,0a8.57,8.57,0,0,1-1.7-1.65A8.27,8.27,0,0,1,114.68,93Z"/><path class="cls-5" d="M124.44,91.9v1.5a11.5,11.5,0,0,1-.27,2.81,5.76,5.76,0,0,1-.93,2.07c-.07.11-.13.17-.16.17s-.11,0-.19-.16a2.65,2.65,0,0,0-.51-.5,4.08,4.08,0,0,0,1-2,5,5,0,0,0,.11-.75l-.63.34a.84.84,0,0,0-.27.2.21.21,0,0,1-.15.07s-.09,0-.12-.11a7.15,7.15,0,0,1-.21-.83,3.39,3.39,0,0,0,.69-.2l.76-.35c0-.17,0-.44,0-.81l0-2.24s0-.08,0-.09h.08l1.24,0h1.48v-.14a3.73,3.73,0,0,0-.06-.72l1,.06c.09,0,.14,0,.14.08a.38.38,0,0,1-.06.18,1.09,1.09,0,0,0,0,.39v.15h1.78l1.22,0a.14.14,0,0,1,.09,0s0,0,0,.08v.66c0,.05,0,.08,0,.09h-.08l-1.22,0Zm-1.69-.11.1,0s.05,0,.07.07a7.52,7.52,0,0,1,.52,1.34.11.11,0,0,1,0,.07s0,.07-.11.11l-.46.27a.24.24,0,0,1-.11,0s0,0-.06-.08a10.55,10.55,0,0,0-.5-1.42.12.12,0,0,1,0-.07s0-.06.07-.08ZM127.44,96a3.43,3.43,0,0,1-.88,1,.63.63,0,0,1-.19.13s-.1-.06-.19-.18a3.45,3.45,0,0,0-.33-.32v.72l0,1a.09.09,0,0,1-.1.1h-.71s-.08,0-.09,0,0,0,0-.07V94.21a.25.25,0,0,1,0-.1h.09l1.21,0H127c0-.35,0-.61,0-.78h-.89l-1.22,0a.08.08,0,0,1-.09-.09v-.65a.08.08,0,0,1,.09-.09h5.29a.17.17,0,0,1,0,.08v.65a.13.13,0,0,1,0,.08h-.08l-1.22,0h-1.06v.78h.83l1.21,0a.14.14,0,0,1,.09,0s0,0,0,.09l0,1.08v1.09l0,1.16a.87.87,0,0,1-.22.67.83.83,0,0,1-.4.16,7.73,7.73,0,0,1-.81,0h-.1c-.09,0-.14,0-.16-.06a.92.92,0,0,1-.07-.22,1.41,1.41,0,0,0-.21-.52c.22,0,.42,0,.58,0h.19a.28.28,0,0,0,.31-.31V94.88h-1.31a3.43,3.43,0,0,1-.08.42A10.64,10.64,0,0,1,129,96.39a.21.21,0,0,1,0,.09s0,0-.07.1l-.38.42s-.07.08-.09.08,0,0-.08-.06A9.58,9.58,0,0,0,127.44,96ZM127,94.88h-1.1v1.67a2.69,2.69,0,0,0,.87-.92A2.21,2.21,0,0,0,127,94.88Z"/><path class="cls-5" d="M133.52,95.93h.1c.47,0,.71-.21.71-.64a3.11,3.11,0,0,0-.8-1.81,12.66,12.66,0,0,0,.76-2.1h-.9v5.09l0,1.94c0,.06,0,.09-.1.09h-.71c-.07,0-.1,0-.1-.09l0-1.93v-3.9l0-1.94c0-.05,0-.08,0-.09h2l.18,0a.2.2,0,0,1,.11,0c.07,0,.18.09.34.26a.66.66,0,0,1,.22.36.24.24,0,0,1-.08.16.64.64,0,0,0-.17.35,13.9,13.9,0,0,1-.69,1.78,3.71,3.71,0,0,1,.67,1.18,3.09,3.09,0,0,1,.1.88A1.12,1.12,0,0,1,134,96.73h-.14c-.07,0-.11,0-.13-.06a.56.56,0,0,1,0-.21A1.22,1.22,0,0,0,133.52,95.93Zm.73,1.9a2.63,2.63,0,0,0,1.63-1,3.29,3.29,0,0,0,.43-1.78h-1s0,0,0-.08v-.64s0-.08,0-.1h.08l1.19,0H139l1.2,0s.07,0,.08,0a.14.14,0,0,1,0,.09V95a.13.13,0,0,1,0,.08H138.7v2.18c0,.16,0,.26.07.29s.16,0,.35,0,.31,0,.37-.11a2.72,2.72,0,0,0,.12-1,2,2,0,0,0,.6.23.44.44,0,0,1,.19.06.18.18,0,0,1,0,.14.46.46,0,0,1,0,.1,2.88,2.88,0,0,1-.14.84.77.77,0,0,1-.28.34,2,2,0,0,1-1.07.2,1.81,1.81,0,0,1-.89-.13.87.87,0,0,1-.26-.74V95h-.57a4.27,4.27,0,0,1-.56,2.24,3.13,3.13,0,0,1-1.47,1.17.78.78,0,0,1-.22.07s-.11-.06-.2-.18A2.1,2.1,0,0,0,134.25,97.83Zm4.11-4.33h-1.21l-1,0a.14.14,0,0,1-.09,0s0,0,0-.08V93h-.76a.13.13,0,0,1,0-.08l0-.85v-.25l0-.45s0-.07,0-.08h.08l1.21,0h.55v-.1a5.06,5.06,0,0,0-.06-.87c.28,0,.6,0,.94.07.09,0,.14,0,.14.09a.32.32,0,0,1,0,.16,1.61,1.61,0,0,0,0,.54v.11h.76l1.2,0c.06,0,.09,0,.1,0s0,0,0,.07v1.55s0,.07,0,.08h-.75v.44s0,.07,0,.08a.13.13,0,0,1-.08,0ZM136.21,92v.66l.94,0h1.21c.51,0,.81,0,.92,0V92Z"/><path class="cls-5" d="M256.31,92.73a6.35,6.35,0,0,1,1.17.83.21.21,0,0,1,.06.08.22.22,0,0,1-.06.12l-.37.53c0,.06-.07.08-.09.08a.12.12,0,0,1-.08,0,6.61,6.61,0,0,0-1.16-.92s-.06,0-.06-.07a.15.15,0,0,1,.05-.11l.36-.48a.12.12,0,0,1,.09-.06A.14.14,0,0,1,256.31,92.73Zm-.59,5.14a3.59,3.59,0,0,0,.44-.7,13.1,13.1,0,0,0,.76-2.07,2.79,2.79,0,0,0,.49.42c.13.11.2.19.2.25s0,.09,0,.19a14.26,14.26,0,0,1-.76,2,1.2,1.2,0,0,0-.11.34c0,.08-.05.13-.12.13a.32.32,0,0,1-.17-.06A5.1,5.1,0,0,1,255.72,97.87Zm.91-7.42a7,7,0,0,1,1.17.89s.07.07.07.08,0,0-.06.11l-.38.53s-.07.07-.09.07,0,0-.07,0a5.3,5.3,0,0,0-1.18-1,.11.11,0,0,1-.06-.06.31.31,0,0,1,.05-.11l.37-.48c.05,0,.08-.08.11-.08Zm6.71,5.62a7.49,7.49,0,0,1,.6,2,.13.13,0,0,1,0,.06s0,.07-.11.1l-.52.16-.11,0s0,0-.06-.07l-.1-.5-2,.28-.13,0a.34.34,0,0,1,0,.09c0,.05,0,.09-.13.11l-.51.08-.08,0s-.06,0-.07-.1l-.09-.48q-1,.18-2,.3a.82.82,0,0,0-.32.09l-.13,0c-.06,0-.1,0-.13-.15a4.87,4.87,0,0,1-.16-.79h.53c.18-.22.45-.6.81-1.11a7.86,7.86,0,0,0-1.2-1.5s-.05,0-.05-.08a.2.2,0,0,1,.07-.11l.38-.43S258,94,258,94a.15.15,0,0,1,.08,0l.21.21a8.05,8.05,0,0,0,.55-1.1,3.53,3.53,0,0,0,.17-.5l-1.1,0-.1,0s0,0,0-.08V92s0-.08,0-.09h.09l1.24,0h.31a4.23,4.23,0,0,0-.66-1.11s0-.06,0-.08,0,0,.09-.08l.57-.26a.24.24,0,0,1,.11,0,.15.15,0,0,1,.08.05,5.22,5.22,0,0,1,.69,1,.25.25,0,0,1,0,.07s0,.06-.09.09l-.64.32h1.56a8.46,8.46,0,0,0,.48-1,5.15,5.15,0,0,0,.15-.53,5.88,5.88,0,0,1,.9.23q.12.06.12.12a.19.19,0,0,1-.08.14,1,1,0,0,0-.17.26l-.45.82h.46l1.24,0c.05,0,.07,0,.08,0s0,0,0,.08v.65c0,.07,0,.1-.09.1l-1.24,0h-.78a5.25,5.25,0,0,1,.77.33c.08,0,.12.09.12.14s0,.07-.08.11a.73.73,0,0,0-.16.22,12.58,12.58,0,0,1-.8,1.44l.39.56a9.63,9.63,0,0,0,.49-.86,3.87,3.87,0,0,0,.25-.57,3.72,3.72,0,0,1,.73.41c.07,0,.1.1.1.14a.14.14,0,0,1-.08.12,1,1,0,0,0-.28.34,24,24,0,0,1-1.48,2.18l1.15-.14a3.93,3.93,0,0,0-.3-.8l0-.06s0-.06.12-.08l.49-.15.11,0S263.32,96,263.34,96.07Zm-3.7-1.39c.11-.22.21-.45.3-.68a5,5,0,0,1,.48.32l.28-.28c0-.05.07-.07.08-.07s0,0,.07,0l.22.24a7.6,7.6,0,0,0,.49-1,4.2,4.2,0,0,0,.19-.57h-2.58a6,6,0,0,1,.59.28c.08,0,.11.08.11.12a.15.15,0,0,1-.08.13.59.59,0,0,0-.15.22,15.4,15.4,0,0,1-.85,1.51,4.15,4.15,0,0,1,.38.52C259.28,95.31,259.44,95,259.64,94.68Zm.76,1.63a8.31,8.31,0,0,1,.33,1c.27-.35.53-.7.77-1a10.65,10.65,0,0,0-1-1.39,1.65,1.65,0,0,0-.11.19,24.18,24.18,0,0,1-1.48,2.2l1-.11a5.43,5.43,0,0,0-.22-.64l0-.06s0-.07.12-.09l.48-.11a.18.18,0,0,1,.09,0S260.38,96.25,260.4,96.31Z"/><path class="cls-5" d="M266,90.92h1.37a1.83,1.83,0,0,0,0-.37,2.73,2.73,0,0,0,0-.32l.82.07c.11,0,.16,0,.16.1a.24.24,0,0,1,0,.13.87.87,0,0,0-.08.29v.1h1.6c.08,0,.11,0,.11.11s0,.28,0,.5a4.48,4.48,0,0,1-.22,1.34c-.14.32-.47.47-1,.47h-.37c-.11,0-.18,0-.2-.06a.88.88,0,0,1-.07-.24,1.62,1.62,0,0,0-.15-.47,3.32,3.32,0,0,0,.58.05c.22,0,.35-.05.41-.17a2.78,2.78,0,0,0,.13-.81h-.92a3,3,0,0,1-.6,1.23,3.45,3.45,0,0,1-.9.75.76.76,0,0,1-.22.11s-.12-.07-.22-.21a2.09,2.09,0,0,0-.42-.42,3.21,3.21,0,0,0,1-.66,2,2,0,0,0,.46-.8h-.16l-1.07,0c-.05,0-.08,0-.09,0s0,0,0-.07V91s0-.08,0-.09Zm2.25,6.21a8.18,8.18,0,0,1,.79.35c.09,0,.13.07.13.12s0,.09-.14.11a2,2,0,0,0-.36.16,6.4,6.4,0,0,1-2.05.63l-.19,0c-.07,0-.15-.07-.22-.2a1.92,1.92,0,0,0-.41-.54,7.37,7.37,0,0,0,2-.42A2.25,2.25,0,0,0,268.26,97.13Zm3.09-3.52,1.24,0a.14.14,0,0,1,.09,0s0,0,0,.08l0,.88v1.58l0,.88s0,.08,0,.09h-5.61a.2.2,0,0,1,0-.09l0-.88V94.57l0-.88s0-.08,0-.09h.08l1.25,0Zm-3.41.63v.37h3.86v-.37Zm0,1.3h3.86v-.38h-3.86Zm3.86,1v-.41h-3.86v.41Zm.71-5.82.92,0a.14.14,0,0,1,.09,0,.13.13,0,0,1,0,.08l0,.73v.91l0,.71a.14.14,0,0,1,0,.09h-3.1a.78.78,0,0,1,0-.09l0-.71v-.91l0-.73a.13.13,0,0,1,0-.08.17.17,0,0,1,.09,0l.92,0Zm-1.06,6.49a7.23,7.23,0,0,0,2.45.59,2.51,2.51,0,0,0-.43.57c-.07.12-.15.18-.23.18l-.2,0a8,8,0,0,1-1.37-.36,5.72,5.72,0,0,1-1.08-.53.11.11,0,0,1-.06-.06s0-.05.1-.07l.6-.29.12,0Zm1.21-4.68V91.38h-1.38v1.11Z"/><path class="cls-5" d="M277,91.51v5.75h5.31l1.24,0c.05,0,.07,0,.08,0a.13.13,0,0,1,0,.08v.72a.13.13,0,0,1,0,.08h-.08l-1.24,0H277v.29s0,.08,0,.09h-.94a.14.14,0,0,1,0-.09l0-1.91V92.62l0-1.9a.14.14,0,0,1,0-.09h.08l1.2,0h4.95l1.18,0c.05,0,.08,0,.08,0a.13.13,0,0,1,0,.08v.71a.14.14,0,0,1,0,.09h-.08l-1.18,0Zm1.76,3.32-1.23,0a.14.14,0,0,1-.09,0s0,0,0-.08v-.61s0-.08.1-.08h2.21a6,6,0,0,0,.08-.91h-1a4.6,4.6,0,0,1-.47.58c-.08.1-.15.15-.19.15s-.12-.06-.23-.16a2.1,2.1,0,0,0-.48-.32,5,5,0,0,0,1-1.26,2.54,2.54,0,0,0,.22-.58,6.4,6.4,0,0,1,.79.21c.08,0,.12.07.12.11a.17.17,0,0,1-.08.13.6.6,0,0,0-.15.25l-.07.12h2.21l1.14,0,.09,0a.54.54,0,0,1,0,.08v.6a.14.14,0,0,1,0,.09h-2a6.42,6.42,0,0,1-.08.91h2.61s0,0,0,.07v.61s0,.08,0,.08a.14.14,0,0,1-.09,0l-1.23,0h-1a4.06,4.06,0,0,0,2.48,1.39,4.06,4.06,0,0,0-.38.63c-.05.13-.1.19-.16.19l-.21,0a4.24,4.24,0,0,1-2.39-1.71A3.67,3.67,0,0,1,278.06,97l-.22.06s-.1-.06-.17-.2a2.08,2.08,0,0,0-.42-.54,5.08,5.08,0,0,0,1.55-.66,2.12,2.12,0,0,0,.72-.83Z"/><path class="cls-5" d="M288.49,90.36a4.31,4.31,0,0,1,.57.56.27.27,0,0,1,.08.16c0,.07-.06.11-.16.11a.82.82,0,0,0-.31.08c-.21.08-.44.17-.69.24v1.24h.08l1,0c.05,0,.08,0,.08,0a.13.13,0,0,1,0,.08v.64a.14.14,0,0,1,0,.09h-1.05a5,5,0,0,0,1.15,1.38,2.45,2.45,0,0,0-.33.69c0,.1-.06.14-.1.14s-.09,0-.16-.13a6.53,6.53,0,0,1-.69-1.12l.05,3.91c0,.06,0,.09-.1.09h-.73c-.07,0-.1,0-.1-.09s0-.23,0-.6q0-1.68.06-3.12a6.94,6.94,0,0,1-1.06,2c-.06.09-.12.14-.15.14s-.08,0-.11-.15a1.93,1.93,0,0,0-.37-.68,6.81,6.81,0,0,0,1.49-2.49h-1.3a.2.2,0,0,1,0-.09v-.64s0-.07,0-.08a.1.1,0,0,1,.07,0l1,0h.38v-1l-.74.14a.8.8,0,0,1-.19,0,.16.16,0,0,1-.13-.06.94.94,0,0,1-.09-.18,1.9,1.9,0,0,0-.3-.49,8.94,8.94,0,0,0,2.47-.59Zm1.67,5.27,1.61-.31V91.7a10.71,10.71,0,0,0-.08-1.36c.36,0,.68,0,.95.06q.15,0,.15.09a.49.49,0,0,1-.05.19,4.64,4.64,0,0,0-.05,1v3.45l.62-.15.16,0h.11s0,0,.06.1l.11.7a.11.11,0,0,1,0,0s0,0-.09.06l-.32,0-.66.13v2.4s0,.08,0,.09h-.85c-.06,0-.09,0-.09-.1l0-1.55V96.2l-1.45.28-1.15.23h-.05s-.05,0-.06-.1l-.13-.68s0,0,0-.06,0,0,.09-.06l.35,0ZM289.94,93a8.16,8.16,0,0,1,1.27,1.17s.05.06.05.08a.2.2,0,0,1-.07.11l-.44.46c-.05.05-.08.07-.1.07s0,0-.08,0a7.73,7.73,0,0,0-1.24-1.25s-.05,0-.05-.07,0,0,.06-.1l.44-.41s.06-.06.08-.06A.15.15,0,0,1,289.94,93Zm.26-2.07a8.45,8.45,0,0,1,1.25,1.13.18.18,0,0,1,0,.08.12.12,0,0,1-.06.09l-.44.45c-.05,0-.08.08-.1.08l-.06-.05a7,7,0,0,0-1.24-1.18s-.06,0-.06-.07,0,0,.07-.1L290,91s.07-.06.09-.06Z"/><path class="cls-5" d="M296.51,93.56l-1.14,0a.14.14,0,0,1-.09,0,.22.22,0,0,1,0-.09v-.74s0-.07,0-.08a.13.13,0,0,1,.08,0l1.14,0h2.06c0-.25,0-.65.05-1.22v-.21a7,7,0,0,0-.05-.83c.48,0,.82,0,1,.07s.16.07.16.13a.54.54,0,0,1,0,.19,1.63,1.63,0,0,0-.09.63c0,.56,0,1-.05,1.24h2.32l1.15,0,.08,0s0,0,0,.08v.74s0,.08,0,.09l-.08,0-1.15,0h-2.15a6.36,6.36,0,0,0,1.45,2.5,5.69,5.69,0,0,0,2.15,1.42,2.86,2.86,0,0,0-.52.68c-.08.15-.14.23-.19.23a.83.83,0,0,1-.21-.1,6.72,6.72,0,0,1-3.2-3.63,5.69,5.69,0,0,1-.34.86A6,6,0,0,1,296,98.33a.78.78,0,0,1-.22.07c-.05,0-.12-.07-.21-.2a2.23,2.23,0,0,0-.51-.57A5.2,5.2,0,0,0,298,95.15a5.4,5.4,0,0,0,.48-1.59Z"/><path class="cls-5" d="M306.28,96.14h-1.21a.15.15,0,0,1,0-.08v-.7a.14.14,0,0,1,0-.09h.08l1.13,0h2.36c0-.34,0-.59-.05-.77l.52.06a6,6,0,0,0,.82-.65H308l-1.17,0a.08.08,0,0,1-.09-.09v-.63s0-.08,0-.09h.07l1.17,0h2.44a.73.73,0,0,0,.21,0l.12,0c.06,0,.19.1.39.29s.25.31.25.39a.14.14,0,0,1-.11.14,2.85,2.85,0,0,0-.43.3,11.92,11.92,0,0,1-1.26.93v.15h2.25l1.12,0a.14.14,0,0,1,.09,0s0,0,0,.08v.7s0,.07,0,.08H309.6v.58l0,.78a.84.84,0,0,1-.29.74,1.28,1.28,0,0,1-.5.16,8.65,8.65,0,0,1-.88,0c-.15,0-.23,0-.26,0a.46.46,0,0,1-.09-.22,2.84,2.84,0,0,0-.27-.66c.36,0,.68,0,1,0a.39.39,0,0,0,.28-.07.31.31,0,0,0,.07-.24V96.14Zm0-5.56.54-.2.09,0s.07,0,.11.07a6.23,6.23,0,0,1,.6.94.14.14,0,0,1,0,.07s0,0-.11.07l-.59.22h1.87a6,6,0,0,0-.51-1.13.15.15,0,0,1,0-.06s0,0,.11-.07l.6-.18.08,0a.13.13,0,0,1,.1.07,6.34,6.34,0,0,1,.49,1l0,.06s0,0-.12.07l-.58.21h1.39a9,9,0,0,0,.43-.91,2.51,2.51,0,0,0,.14-.48,5.79,5.79,0,0,1,.89.27c.08,0,.13.09.13.14s0,.09-.09.14a.44.44,0,0,0-.17.2c-.13.24-.25.45-.37.64h.23l1.19,0a.14.14,0,0,1,.09,0,.13.13,0,0,1,0,.08l0,.49v.41l0,1q0,.08,0,.09a.13.13,0,0,1-.08,0h-.71q-.07,0-.09,0s0,0,0-.08V92.52h-5.76v1.19a.13.13,0,0,1,0,.08l-.08,0h-.71l-.1,0s0,0,0-.08l0-1v-.33l0-.56a.14.14,0,0,1,0-.09h.09l1.19,0h.24a5.15,5.15,0,0,0-.58-1,.13.13,0,0,1,0-.07S306.23,90.6,306.3,90.58Z"/><path class="cls-5" d="M193.83,128.19l-1.12,0a.14.14,0,0,1-.09,0,.55.55,0,0,1,0-.09v-.63a.14.14,0,0,1,0-.09.13.13,0,0,1,.08,0l1.12,0h2.28v-.64h-1l-1.24,0a.14.14,0,0,1-.09,0,.13.13,0,0,1,0-.08l0-.84v-1.34l0-.83q0-.08,0-.09a.13.13,0,0,1,.08,0l1.24,0h3l1.24,0a.14.14,0,0,1,.09,0s0,0,0,.09l0,.83v1.34l0,.84s0,.07,0,.08,0,0-.08,0l-1.24,0H197v.64h2.37l1.13,0a.14.14,0,0,1,.09,0s0,0,0,.09v.63c0,.05,0,.08,0,.09a.14.14,0,0,1-.09,0l-1.13,0H197v.3l0,1c0,.05,0,.08,0,.08a.13.13,0,0,1-.08,0h-.77a.13.13,0,0,1-.08,0s0,0,0-.08l0-1v-.3Zm1-6.88c.36,0,.66,0,.89.06.08,0,.12,0,.12.08l0,.13a1.33,1.33,0,0,0,0,.44h1.56a5,5,0,0,0-.05-.71,8.7,8.7,0,0,1,.89.06c.08,0,.12,0,.12.08l0,.13a1.33,1.33,0,0,0,0,.44h1.15l1.13,0c.05,0,.08,0,.09,0s0,0,0,.07v.63s0,.07,0,.08,0,0-.08,0l-1.13,0h-1.15l0,.46a.14.14,0,0,1,0,.09h-.87a.14.14,0,0,1,0-.09.85.85,0,0,0,0-.15c0-.1,0-.2,0-.31H195.8l0,.46a.14.14,0,0,1,0,.09h-.87s0,0,0-.09v-.15c0-.1,0-.2,0-.31h-1.07l-1.13,0a.14.14,0,0,1-.09,0s0,0,0-.08v-.63a.13.13,0,0,1,0-.08h.08l1.13,0h1.07A5,5,0,0,0,194.88,121.31Zm3.68,3h-3.89v.55h3.89Zm0,1.77v-.56h-3.89V126Z"/><path class="cls-5" d="M203,123.68a8.26,8.26,0,0,1,1.29.91s.05,0,.05.08a.29.29,0,0,1-.05.1l-.4.54c-.05.06-.08.09-.1.09l-.08,0a7.11,7.11,0,0,0-1.27-1,.1.1,0,0,1-.06-.07.17.17,0,0,1,.05-.1l.39-.47s.08-.08.11-.08Zm-.59,5.23a5.9,5.9,0,0,0,.4-.68,12.72,12.72,0,0,0,.81-2.19,3.43,3.43,0,0,0,.5.43c.14.09.21.16.21.23l-.05.21a17.73,17.73,0,0,1-.76,2,2.09,2.09,0,0,0-.13.35c0,.08,0,.12-.1.12a.38.38,0,0,1-.17,0A4.85,4.85,0,0,1,202.38,128.91Zm1-7.47a7,7,0,0,1,1.24.92.1.1,0,0,1,0,.07.22.22,0,0,1-.06.12l-.4.53s-.07.07-.09.07,0,0-.08,0a5.86,5.86,0,0,0-1.24-1s-.06,0-.06-.06,0-.05.06-.1l.4-.46a.16.16,0,0,1,.1-.07Zm3.4-.19c.35,0,.67,0,.95.06.08,0,.13,0,.13.09a1.17,1.17,0,0,1,0,.16,2.39,2.39,0,0,0-.06.53h2.16a.15.15,0,0,1,0,.08l0,.94v.35l.62,0c.05,0,.08,0,.08,0a.13.13,0,0,1,0,.08v.59c0,.05,0,.07,0,.08a.13.13,0,0,1-.08,0h-.62v.33l0,.94a.14.14,0,0,1,0,.09.13.13,0,0,1-.08,0l-1.38,0h-.7v.59h1l1.23,0s.07,0,.08,0,0,0,0,.07v.57s0,.07,0,.08h-2.34v.59h1.45l1.25,0c.06,0,.09,0,.09.1v.59a.08.08,0,0,1-.09.09h-2.7l0,1.19a.14.14,0,0,1,0,.09h-.91a.17.17,0,0,1,0-.09s0-.06,0-.16c0-.34,0-.68,0-1h-2.54a.13.13,0,0,1,0-.08v-.59a.14.14,0,0,1,0-.09h.08l1.25,0h1.21v-.59h-2c-.05,0-.08,0-.08,0a.15.15,0,0,1,0-.08v-.57a.13.13,0,0,1,0-.08h.08l1.21,0h.78v-.59h-.69l-1.08,0a.14.14,0,0,1-.09,0,.2.2,0,0,1,0-.09v-.55c0-.05,0-.08,0-.08a.13.13,0,0,1,.08,0l1.08,0h.69v-.64h-1l-1.24,0a.22.22,0,0,1-.1,0,.54.54,0,0,1,0-.08v-.59c0-.05,0-.07,0-.08a.17.17,0,0,1,.09,0l1.24,0h1v-.62h-.57l-1.17,0a.16.16,0,0,1-.1,0s0,0,0-.08v-.59s0-.07,0-.08h1.83A7.51,7.51,0,0,0,206.75,121.25Zm2.28,1.59h-1.3v.62H209Zm0,2v-.64h-1.3v.64Z"/><path class="cls-5" d="M215.22,124.2l.09,0s0,0,.06.07a8.36,8.36,0,0,1,.57,1.58.11.11,0,0,1,0,0c0,.05,0,.09-.12.11l-.44.17-.1,0s0,0-.06-.09l-.08-.37-.51.06v2.47l0,1.18a.17.17,0,0,1,0,.09h-.77c-.05,0-.08,0-.08,0a.13.13,0,0,1,0-.08l0-1.18v-2.39l-.73,0a1.18,1.18,0,0,0-.34.07.24.24,0,0,1-.13,0c-.06,0-.09,0-.11-.15a5.13,5.13,0,0,1-.11-.76c.21,0,.43,0,.65,0,.18-.22.35-.46.52-.7a10.67,10.67,0,0,0-1.16-1.29.2.2,0,0,1,0-.08.26.26,0,0,1,.07-.12l.33-.44c0-.05.07-.08.09-.08s0,0,.07,0a1.63,1.63,0,0,0,.21.21,10.06,10.06,0,0,0,.53-1,2.7,2.7,0,0,0,.16-.48q.34.14.75.33c.08,0,.12.08.12.14a.14.14,0,0,1-.09.12.47.47,0,0,0-.16.21c-.27.48-.53.9-.77,1.24l.37.45c.15-.23.34-.56.59-1a4.33,4.33,0,0,0,.25-.57,8.17,8.17,0,0,1,.75.33c.07,0,.11.09.11.13s0,.1-.1.15a1.18,1.18,0,0,0-.28.35c-.51.81-1,1.48-1.39,2l1-.06c-.09-.22-.16-.4-.23-.55a.18.18,0,0,1,0-.06s0-.07.1-.1Zm-2.86,4.38a5.55,5.55,0,0,0,.37-1.64c0-.16,0-.3,0-.42v-.16a6.67,6.67,0,0,1,.69.15c.1,0,.15.06.15.1a.21.21,0,0,1,0,.14,1.07,1.07,0,0,0-.08.33,8.33,8.33,0,0,1-.29,1.62c-.05.14-.09.22-.12.22a1,1,0,0,1-.21-.11A1.78,1.78,0,0,0,212.36,128.58Zm3.61-1.72c0-.07,0-.1.07-.1h.09l.49.14c.07,0,.1,0,.1.09a.23.23,0,0,1,0,.07,5.57,5.57,0,0,1-.61,1.84s0,.06-.06.06l-.12-.05-.46-.28c-.07,0-.1-.08-.1-.1a.11.11,0,0,1,0-.07,3.08,3.08,0,0,0,.34-.68l-.48.16-.1,0s0,0,0-.09a6.68,6.68,0,0,0-.27-1.32.18.18,0,0,1,0-.06s0-.06.11-.09l.39-.11a.17.17,0,0,1,.08,0s.05,0,.07.08a6.32,6.32,0,0,1,.32,1.27A7.47,7.47,0,0,0,216,126.86Zm.85-5.49a5.2,5.2,0,0,1,.76.34c.06,0,.1.08.1.12a.16.16,0,0,1-.08.13,1.17,1.17,0,0,0-.21.3,7.78,7.78,0,0,1-1.13,1.52c-.09.09-.15.13-.18.13s-.11-.06-.21-.18a2,2,0,0,0-.44-.44,4.36,4.36,0,0,0,1.14-1.34A2.47,2.47,0,0,0,216.82,121.37Zm2.27,2.22a9.09,9.09,0,0,1,1.19,1.67s0,.06,0,.07,0,.06-.08.1l-.49.29a.29.29,0,0,1-.1,0s0,0-.08-.09l-.24-.46c-1.33.17-2.18.28-2.54.31a1.4,1.4,0,0,0-.39.08.33.33,0,0,1-.16.07c-.05,0-.09-.06-.12-.16l-.18-.77h.67a10.06,10.06,0,0,0,.67-1.43,2.3,2.3,0,0,0,.17-.6,6.71,6.71,0,0,1,.83.21q.15.06.15.15a.24.24,0,0,1-.08.13,1.14,1.14,0,0,0-.23.33,10.47,10.47,0,0,1-.59,1.16c.47,0,.93-.09,1.37-.15a6.59,6.59,0,0,0-.42-.56.09.09,0,0,1,0-.06s0-.05.08-.09l.4-.26a.22.22,0,0,1,.1,0A.1.1,0,0,1,219.09,123.59Zm-2.23,2.89a4.46,4.46,0,0,1,.84.07c.09,0,.13,0,.13.09a.31.31,0,0,1,0,.12,1.18,1.18,0,0,0,0,.39v1.09c0,.17,0,.27.09.31a.62.62,0,0,0,.32.06c.22,0,.36,0,.42-.11a1.82,1.82,0,0,0,.17-.85,2.15,2.15,0,0,0,.56.25l.18.07a.18.18,0,0,1,0,.11s0,.07,0,.14a1.39,1.39,0,0,1-.38,1,1.8,1.8,0,0,1-1,.21,1.86,1.86,0,0,1-.94-.15.82.82,0,0,1-.24-.68v-1.49A3.81,3.81,0,0,0,216.86,126.48Zm1-1a6.61,6.61,0,0,1,1.13.77.16.16,0,0,1,.07.11.24.24,0,0,1-.06.11l-.36.39q-.07.09-.12.09s0,0-.07,0a5.59,5.59,0,0,0-1.11-.87l-.08-.07s0-.06.07-.11l.35-.33c0-.05.07-.07.09-.07Zm2.8-2.4a2.28,2.28,0,0,0-.4.52c-.08.13-.14.19-.18.19a.46.46,0,0,1-.21-.12,6.93,6.93,0,0,1-1.5-1.81.16.16,0,0,1,0-.08s0,0,.09-.09l.47-.28.09,0s.05,0,.08.07a6.77,6.77,0,0,0,.73,1A4.49,4.49,0,0,0,220.68,123.1Zm-.76,3.68a7.14,7.14,0,0,1,.8,1.55.25.25,0,0,1,0,.07s0,.07-.12.1l-.49.27a.22.22,0,0,1-.1,0s-.07,0-.08-.08a6.89,6.89,0,0,0-.74-1.59.11.11,0,0,1,0-.07s0-.06.1-.1l.46-.22a.18.18,0,0,1,.09,0A.14.14,0,0,1,219.92,126.78Z"/><path class="cls-5" d="M230.69,124.42a2.31,2.31,0,0,0-.38.69c-.05.15-.1.23-.16.23a.49.49,0,0,1-.22-.08,10.13,10.13,0,0,1-1.75-1v.63a.13.13,0,0,1,0,.08h-.08l-1,0h-1.39l-1,0c-.05,0-.07,0-.09,0s0,0,0-.07v-.65a11.07,11.07,0,0,1-1.67,1.06l-.2.09c-.05,0-.11-.08-.17-.23a2.18,2.18,0,0,0-.43-.6,8.09,8.09,0,0,0,3.47-2.75,3.18,3.18,0,0,0,.35-.64c.44.07.75.12.94.17s.17.08.17.14a.16.16,0,0,1-.09.14.28.28,0,0,0-.08.06A8.22,8.22,0,0,0,230.69,124.42Zm-6.23,5.06h-.77s-.07,0-.08,0,0,0,0-.07v-3.47s0-.08,0-.09h.08l1.24,0h2.88l1.23,0a.19.19,0,0,1,.1,0s0,0,0,.08l0,1v.88l0,1.59s0,.08,0,.08l-.08,0h-.77a.14.14,0,0,1-.09,0s0,0,0-.08V129h-3.61v.35a.13.13,0,0,1,0,.08Zm.11-2.82v1.57h3.61v-1.57Zm.13-2.55c.14,0,.46,0,1,0H228a8.17,8.17,0,0,1-1.66-1.71A9,9,0,0,1,224.7,124.11Z"/><path class="cls-5" d="M234.44,122.9v1.5a12.11,12.11,0,0,1-.26,2.81,6,6,0,0,1-.94,2.07c-.07.11-.12.17-.16.17s-.11,0-.18-.16a2.42,2.42,0,0,0-.52-.5,4,4,0,0,0,1-1.95,5,5,0,0,0,.11-.75c-.25.15-.46.26-.62.34a.91.91,0,0,0-.28.2.21.21,0,0,1-.14.07c-.06,0-.1,0-.12-.11-.08-.25-.15-.52-.22-.83a3.65,3.65,0,0,0,.7-.2l.75-.35c0-.17,0-.44,0-.81l0-2.24a.14.14,0,0,1,0-.09h.08l1.24,0h1.49v-.14a3,3,0,0,0-.07-.72l1,.06c.1,0,.14,0,.14.08a.35.35,0,0,1,0,.18,1,1,0,0,0-.05.39v.15h1.78l1.23,0s.07,0,.08,0a.13.13,0,0,1,0,.08v.66a.14.14,0,0,1,0,.09h-.08l-1.23,0Zm-1.69-.11.1,0s.05,0,.07.07a7.46,7.46,0,0,1,.53,1.34.2.2,0,0,1,0,.07s0,.07-.1.11l-.46.27a.31.31,0,0,1-.12,0s0,0-.05-.08a12.06,12.06,0,0,0-.51-1.42.41.41,0,0,1,0-.07s0-.06.07-.08Zm4.69,4.22a3.43,3.43,0,0,1-.88,1,.53.53,0,0,1-.19.13s-.1-.06-.19-.18a3.45,3.45,0,0,0-.33-.32v.72l0,1c0,.06,0,.1-.09.1h-.72q-.08,0-.09,0s0,0,0-.07l0-1v-2.19l0-1s0-.08,0-.1h.08l1.21,0H237c0-.35,0-.61,0-.78h-.88l-1.23,0a.08.08,0,0,1-.09-.09v-.65a.08.08,0,0,1,.09-.09h5.29a.17.17,0,0,1,0,.08v.65s0,.07,0,.08h-.08l-1.23,0h-1.05l0,.78h.83l1.21,0a.14.14,0,0,1,.09,0s0,0,0,.09v2.17l0,1.16a.87.87,0,0,1-.22.67.79.79,0,0,1-.39.16,8,8,0,0,1-.81,0h-.11c-.08,0-.14,0-.16-.06a.92.92,0,0,1-.07-.22,1.41,1.41,0,0,0-.2-.52c.22,0,.41,0,.58,0h.18a.27.27,0,0,0,.31-.31v-2.44h-1.3a3.52,3.52,0,0,1-.09.42,10.64,10.64,0,0,1,1.32,1.09.21.21,0,0,1,0,.09s0,0-.06.1l-.38.42c0,.05-.08.08-.1.08a.15.15,0,0,1-.07-.06A10.62,10.62,0,0,0,237.44,127Zm-.49-1.13h-1.1v1.67a2.69,2.69,0,0,0,.87-.92A2.21,2.21,0,0,0,237,125.88Z"/><path class="cls-5" d="M243.52,126.93h.1c.47,0,.71-.21.71-.64a3.11,3.11,0,0,0-.8-1.81,11.81,11.81,0,0,0,.76-2.1h-.9v5.09l0,1.94c0,.06,0,.09-.1.09h-.71c-.07,0-.1,0-.1-.09l0-1.93v-3.9l0-1.94a.14.14,0,0,1,0-.09h2l.18,0a.23.23,0,0,1,.11,0c.07,0,.19.09.35.26a.69.69,0,0,1,.21.36.21.21,0,0,1-.08.16.71.71,0,0,0-.17.35,13.9,13.9,0,0,1-.69,1.78,3.71,3.71,0,0,1,.67,1.18,3,3,0,0,1,.11.88,1.13,1.13,0,0,1-1.18,1.25h-.13c-.07,0-.12,0-.14-.06a.93.93,0,0,1,0-.21A1.11,1.11,0,0,0,243.52,126.93Zm.73,1.9a2.63,2.63,0,0,0,1.63-1,3.38,3.38,0,0,0,.44-1.78h-1s0,0,0-.08v-.64a.22.22,0,0,1,0-.1h.08l1.2,0H249l1.2,0a.14.14,0,0,1,.09,0,.55.55,0,0,1,0,.09V126a.13.13,0,0,1,0,.08H248.7v2.18c0,.16,0,.26.07.29a.66.66,0,0,0,.35.05c.19,0,.32,0,.37-.11a2.28,2.28,0,0,0,.12-.95,2,2,0,0,0,.6.23.59.59,0,0,1,.2.06.24.24,0,0,1,0,.14v.1a2.81,2.81,0,0,1-.15.84.82.82,0,0,1-.27.34,2.11,2.11,0,0,1-1.08.2,1.81,1.81,0,0,1-.89-.13.87.87,0,0,1-.26-.74V126h-.57a4.27,4.27,0,0,1-.55,2.24,3.21,3.21,0,0,1-1.48,1.17.7.7,0,0,1-.22.07s-.1-.06-.19-.18A2.14,2.14,0,0,0,244.25,128.83Zm4.11-4.33h-1.21l-1,0-.09,0a.54.54,0,0,1,0-.08V124h-.76s0,0,0-.08v-1.55a.13.13,0,0,1,0-.08h.09l1.2,0h.55v-.1a5.06,5.06,0,0,0-.06-.87c.29,0,.6,0,.94.07q.15,0,.15.09a.33.33,0,0,1-.05.16,1.94,1.94,0,0,0,0,.54v.11h.76l1.21,0s.08,0,.09,0,0,0,0,.07l0,.38V123l0,.85a.13.13,0,0,1,0,.08h-.76v.44s0,.07,0,.08a.17.17,0,0,1-.09,0ZM246.21,123v.66l.94,0h1.21c.51,0,.82,0,.93,0V123Z"/></symbol></defs><title>4</title><g id="_2" data-name=" 2"><g id="desktop"><g id="_4" data-name="4"><g id="maininterview_3" data-name="maininterview 3"><use width="402.67" height="135.08" xlink:href="#graphic-bar-year4-kagei"/></g></g></g></g></svg>