<svg xmlns="http://www.w3.org/2000/svg" xmlns:xlink="http://www.w3.org/1999/xlink" viewBox="0 0 431.54 364.41"><defs><style>.cls-1{isolation:isolate;}.cls-2{fill:none;}.cls-2,.cls-3{stroke:#4d4d4d;stroke-miterlimit:10;}.cls-3{fill:#fff;}.cls-4{fill:#4d4d4d;}.cls-5{fill:#3e3a39;}.cls-6{fill:#333;}.cls-7{fill:#00cfff;}.cls-11,.cls-13,.cls-15,.cls-17,.cls-8{opacity:0.15;}.cls-10,.cls-11,.cls-12,.cls-13,.cls-14,.cls-15,.cls-16,.cls-17,.cls-18,.cls-8{mix-blend-mode:soft-light;}.cls-8{fill:url(#radial-gradient);}.cls-9{fill:#0092cc;}.cls-10,.cls-12,.cls-14,.cls-16,.cls-18{opacity:0.1;}.cls-10{fill:url(#radial-gradient-2);}.cls-11{fill:url(#radial-gradient-3);}.cls-12{fill:url(#radial-gradient-4);}.cls-13{fill:url(#radial-gradient-5);}.cls-14{fill:url(#radial-gradient-6);}.cls-15{fill:url(#radial-gradient-7);}.cls-16{fill:url(#radial-gradient-8);}.cls-17{fill:url(#radial-gradient-9);}.cls-18{fill:url(#radial-gradient-10);}</style><radialGradient id="radial-gradient" cx="92.54" cy="161.01" r="89.98" gradientUnits="userSpaceOnUse"><stop offset="0" stop-color="#fff" stop-opacity="0.3"/><stop offset="0.99"/></radialGradient><radialGradient id="radial-gradient-2" cx="109.54" cy="165.01" r="87.16" xlink:href="#radial-gradient"/><radialGradient id="radial-gradient-3" cx="163.54" cy="173.01" r="81.51" xlink:href="#radial-gradient"/><radialGradient id="radial-gradient-4" cx="180.54" cy="180.51" r="76.22" xlink:href="#radial-gradient"/><radialGradient id="radial-gradient-5" cx="238.54" cy="213.01" r="53.33" xlink:href="#radial-gradient"/><radialGradient id="radial-gradient-6" cx="255.54" cy="218.01" r="49.82" xlink:href="#radial-gradient"/><radialGradient id="radial-gradient-7" cx="312.54" cy="226.51" r="43.85" xlink:href="#radial-gradient"/><radialGradient id="radial-gradient-8" cx="329.54" cy="233.51" r="38.95" xlink:href="#radial-gradient"/><radialGradient id="radial-gradient-9" cx="387.54" cy="226.51" r="43.85" xlink:href="#radial-gradient"/><radialGradient id="radial-gradient-10" cx="404.54" cy="232.01" r="40" xlink:href="#radial-gradient"/></defs><title>chart A</title><g class="cls-1"><g id="レイヤー_2" data-name="レイヤー 2"><g id="tokucho"><g id="chart_A" data-name="chart A"><line class="cls-2" x1="61.54" y1="6.51" x2="71.54" y2="6.51"/><line class="cls-2" x1="64.54" y1="46.51" x2="71.54" y2="46.51"/><line class="cls-2" x1="64.54" y1="86.51" x2="71.54" y2="86.51"/><line class="cls-2" x1="64.54" y1="126.51" x2="71.54" y2="126.51"/><line class="cls-2" x1="64.54" y1="166.51" x2="71.54" y2="166.51"/><line class="cls-2" x1="64.54" y1="206.51" x2="71.54" y2="206.51"/><line class="cls-2" x1="64.54" y1="246.51" x2="71.54" y2="246.51"/><line class="cls-3" x1="136.04" y1="276.01" x2="136.04" y2="281.01"/><line class="cls-3" x1="210.04" y1="276.01" x2="210.04" y2="280.01"/><line class="cls-3" x1="284.04" y1="276.01" x2="284.04" y2="280.01"/><line class="cls-3" x1="358.04" y1="276.01" x2="358.04" y2="280.01"/><path class="cls-4" d="M26.16.81V8.87h1.7V10H22.93V8.87h1.8V2.34a6.68,6.68,0,0,1-1.7.81l-.24-1.26A6.7,6.7,0,0,0,24.92.81Z"/><path class="cls-4" d="M34.79.81v6h1.14V8H34.79V10H33.41V8H29.92V6.9l3-6.09Zm-1.38,6v-2c0-.64,0-1.58.07-2.81h-.17c-.27.72-.61,1.52-1,2.4L31.16,6.83Z"/><path class="cls-4" d="M41.11.72A2.36,2.36,0,0,1,43.33,2,7.17,7.17,0,0,1,44,5.43a6.52,6.52,0,0,1-.85,3.8,2.63,2.63,0,0,1-4.28-.29,7.4,7.4,0,0,1-.64-3.49,6.48,6.48,0,0,1,.86-3.79A2.41,2.41,0,0,1,41.11.72Zm0,1.18A1.09,1.09,0,0,0,40,2.77a8.78,8.78,0,0,0-.28,2.66,8.18,8.18,0,0,0,.35,2.91,1,1,0,0,0,1,.67,1.11,1.11,0,0,0,1.09-.89,9.49,9.49,0,0,0,.27-2.69,8,8,0,0,0-.35-2.88A1,1,0,0,0,41.11,1.9Z"/><path class="cls-5" d="M280.46,1.19c0,.06,0,.09-.1.09l-1.66,0h-7V3.12a27.77,27.77,0,0,1-.26,4.12,9.76,9.76,0,0,1-1.05,3.1q-.07.15-.12.15s-.08-.05-.16-.14a1.41,1.41,0,0,0-.46-.35,7.42,7.42,0,0,0,1.09-3A27.6,27.6,0,0,0,271,3.12l0-2.45a.09.09,0,0,1,.1-.1l1.69,0h5.93l1.66,0a.09.09,0,0,1,.1.1Zm.07,7.38c0,.06,0,.1-.09.1l-1.68,0H276.6V9.89a.82.82,0,0,1-.31.7,3.29,3.29,0,0,1-1.53.21.45.45,0,0,1-.21,0,.44.44,0,0,1-.06-.18,1.25,1.25,0,0,0-.22-.52c.44,0,.8,0,1.07,0a.61.61,0,0,0,.45-.12.67.67,0,0,0,.09-.41V8.64h-2.2l-1.69,0c-.06,0-.09,0-.09-.1V8.12c0-.07,0-.1.09-.1l1.69,0h2.2a4.29,4.29,0,0,0-.07-.62l.48.07a10.7,10.7,0,0,0,1.59-.81h-3.41l-1.62,0c-.07,0-.1,0-.1-.09V6.18c0-.07,0-.11.1-.11l1.62,0h4.09l.12,0c.05,0,.14,0,.27.17s.24.23.24.3,0,.1-.14.12l-.34.19a21.11,21.11,0,0,1-2.09,1.08l0,.13h2.16l1.68,0c.06,0,.09,0,.09.1Zm-1.34-3.33c0,.07,0,.1-.09.1l-1.6,0h-2.73l-1.58,0c-.07,0-.1,0-.1-.1l0-1V3.12l0-1c0-.07,0-.1.1-.1l1.58,0h2.73l1.6,0c.06,0,.09,0,.09.1l0,1V4.25Zm-.72-1.84V2.6H273.8v.8Zm0,1.36V3.94H273.8v.82Z"/><path class="cls-5" d="M293.3,10.05c0,.07,0,.1-.09.1l-1.58,0h-7l-1.59,0c-.06,0-.09,0-.09-.1V9.5c0-.06,0-.1.09-.1l1.59,0h3.11V6.73h-1.48l-1.68,0c-.06,0-.09,0-.09-.1V6.12c0-.07,0-.1.09-.1l1.68,0h1.48V3.57h-2.83a9.67,9.67,0,0,1-1.24,1.93c-.06.07-.11.1-.13.1s-.09,0-.19-.12a1.33,1.33,0,0,0-.42-.25,10,10,0,0,0,2-3.65,2.13,2.13,0,0,0,.13-.69,3.85,3.85,0,0,1,.73.21q.15,0,.15.12a.24.24,0,0,1-.09.17.92.92,0,0,0-.2.39c-.28.73-.43,1.1-.43,1.11h2.52v-1a9.54,9.54,0,0,0-.1-1.65c.28,0,.56,0,.84.07.1,0,.15,0,.15.1a.22.22,0,0,1,0,.1c0,.06,0,.1,0,.12a5.86,5.86,0,0,0-.08,1.24v1h2.22l1.69,0a.08.08,0,0,1,.09.09V3.5a.08.08,0,0,1-.09.09l-1.69,0h-2.22V6.05h1.67l1.68,0c.07,0,.1,0,.1.1v.54a.09.09,0,0,1-.1.1l-1.68,0h-1.67v2.7h3.14l1.58,0c.06,0,.09,0,.09.1Z"/><path class="cls-5" d="M304.91,5.67l-.06,1a15.75,15.75,0,0,1-.36,2.83A1.38,1.38,0,0,1,303,10.65c-.36,0-.71,0-1,0a.48.48,0,0,1-.21,0s0-.06,0-.14a1.71,1.71,0,0,0-.21-.6,9.56,9.56,0,0,0,1.47.11.79.79,0,0,0,.62-.25,1.42,1.42,0,0,0,.25-.64,15.69,15.69,0,0,0,.29-2.81h-3.07a5.42,5.42,0,0,1-.84,2.23,6.08,6.08,0,0,1-3.32,2.18l-.19,0s-.11-.06-.18-.19a1.29,1.29,0,0,0-.36-.41,5.66,5.66,0,0,0,3.45-2,4.73,4.73,0,0,0,.71-1.86H299l-1.68,0c-.07,0-.1,0-.1-.09V5.66c0-.06,0-.09.1-.09l1.68,0h1.41l0-.49c0-.27,0-.47,0-.6a3.13,3.13,0,0,0,0-.56c.25,0,.51.06.78.1.12,0,.19.08.19.14a.35.35,0,0,1-.07.2,1.35,1.35,0,0,0-.14.6,5.47,5.47,0,0,1,0,.61h1.95l1.7,0C304.88,5.57,304.91,5.6,304.91,5.67Zm1.1-.48a.08.08,0,0,1-.09.09h-.56a.08.08,0,0,1-.09-.09V3.46h-8.22V5.19c0,.06,0,.09-.1.09h-.56a.08.08,0,0,1-.09-.09l0-1.26v-.4l0-.65c0-.07,0-.1.09-.1l1.67,0h4.82a21.66,21.66,0,0,0,1.05-2,2.25,2.25,0,0,0,.15-.54,3.82,3.82,0,0,1,.71.26c.1,0,.14.09.14.14a.21.21,0,0,1-.09.13,1,1,0,0,0-.22.26c-.32.6-.66,1.18-1,1.76h.64l1.67,0c.06,0,.09,0,.09.1l0,.58v.47ZM299.12,2.1a.11.11,0,0,1,0,0s0,.06-.13.11l-.34.18a.61.61,0,0,1-.15.05s-.05,0-.07-.08a6.77,6.77,0,0,0-.95-1.64.15.15,0,0,1,0-.06s0-.07.11-.1l.35-.16a.19.19,0,0,1,.11,0s.05,0,.08.06A8.51,8.51,0,0,1,299.12,2.1Zm2.63-.23a.17.17,0,0,1,0,.07s0,.05-.12.09l-.35.16-.15,0s0,0-.06-.07A6.27,6.27,0,0,0,300.28.5a.15.15,0,0,1,0-.06s0-.06.14-.09l.32-.13a.24.24,0,0,1,.11,0s0,0,.07.06A7.29,7.29,0,0,1,301.75,1.87Z"/><path class="cls-5" d="M311.72.46s0,.09-.11.16a1.08,1.08,0,0,0-.23.46c-.29.84-.54,1.49-.75,2V8.91l0,1.85c0,.07,0,.1-.1.1H310c-.06,0-.09,0-.09-.1l0-1.85v-3c0-.32,0-.85,0-1.58a11.75,11.75,0,0,1-.8,1.19c-.06.07-.1.11-.14.11s0,0-.09-.13a2.4,2.4,0,0,0-.26-.51A11.6,11.6,0,0,0,310.73.89a4,4,0,0,0,.17-.82,5.16,5.16,0,0,1,.68.24C311.68.35,311.72.4,311.72.46ZM316,2.91c0,.06,0,.09-.08.09l-1.35,0H314v.75h.47l1.27,0c.07,0,.11,0,.11.09l0,1V5.9l0,1c0,.06,0,.09-.11.09L314.5,7H314v.78h.35l1.26,0a.08.08,0,0,1,.09.09v.41a.08.08,0,0,1-.09.09l-1.26,0H314v.86c.67-.11,1.21-.22,1.61-.32l-.07.36a.46.46,0,0,1-.07.23.52.52,0,0,1-.21.06c-.75.16-1.79.34-3.12.53a1.47,1.47,0,0,0-.52.13.26.26,0,0,1-.15.06c-.05,0-.08,0-.11-.16a5.11,5.11,0,0,1-.15-.62h.23c.25,0,.54,0,.88,0s.63-.07,1.08-.14v-1h-.54l-1.26,0c-.07,0-.1,0-.1-.09V7.81c0-.06,0-.09.1-.09l1.26,0h.54V7H313l-1.28,0a.08.08,0,0,1-.09-.09l0-1V4.8l0-1a.08.08,0,0,1,.09-.09l1.28,0h.39V3h-.61l-1.35,0a.08.08,0,0,1-.09-.09V2.48a.08.08,0,0,1,.09-.09l1.35,0h.61V1.59c-.41.07-.83.13-1.25.17l-.11,0c-.06,0-.13-.06-.19-.18a1.35,1.35,0,0,0-.26-.38A14.35,14.35,0,0,0,314.85.7a2.12,2.12,0,0,0,.49-.22,3.28,3.28,0,0,1,.42.41.25.25,0,0,1,.07.16c0,.06-.05.09-.16.09a1.2,1.2,0,0,0-.33.05c-.39.1-.83.2-1.31.29v.93h.51l1.35,0c.05,0,.08,0,.08.09Zm-2.54,2.16V4.25h-1.16v.82Zm0,1.38V5.58h-1.16v.87Zm1.84-1.38V4.25H314v.82Zm0,1.38V5.58H314v.87Zm4.38-3.33c0,.25,0,.6,0,1.07a45.64,45.64,0,0,1-.3,5.28,1.68,1.68,0,0,1-.4.95,1.09,1.09,0,0,1-.77.26c-.26,0-.51,0-.76,0-.09,0-.14,0-.16-.06a.72.72,0,0,1,0-.21,1.57,1.57,0,0,0-.16-.49,5.48,5.48,0,0,0,1,.11.5.5,0,0,0,.46-.24,2,2,0,0,0,.18-.6,41.5,41.5,0,0,0,.27-5.5h-1.05a22.74,22.74,0,0,1-.39,3.28,7,7,0,0,1-1.93,3.71c-.06.07-.1.1-.13.1s-.08,0-.15-.12a2.16,2.16,0,0,0-.43-.29,6.25,6.25,0,0,0,2-3.62,19.69,19.69,0,0,0,.35-3.06l-1,0c-.06,0-.09,0-.09-.1V3.11c0-.07,0-.1.09-.1l1,0c0-.56,0-1,0-1.3a9.72,9.72,0,0,0-.09-1.48,4.86,4.86,0,0,1,.73.08q.15,0,.15.12a1.23,1.23,0,0,1-.07.25A4.46,4.46,0,0,0,318,1.83c0,.26,0,.66,0,1.21h.49l1.11,0A.1.1,0,0,1,319.65,3.12Z"/><path class="cls-5" d="M331.44,10.71c0,.06,0,.09-.1.09h-.55a.08.08,0,0,1-.09-.09v-.49h-5.12v.52c0,.06,0,.09-.1.09h-.55a.08.08,0,0,1-.09-.09l0-2.48V5.66c-.55.16-1.25.32-2.08.49l-.14,0c-.07,0-.13-.07-.19-.21a1.64,1.64,0,0,0-.29-.41A15.7,15.7,0,0,0,329.24,3a2.52,2.52,0,0,0,.57-.56,4.42,4.42,0,0,1,.52.43c.08.07.12.12.12.17s-.06.1-.16.14a3.51,3.51,0,0,0-.6.34,13.47,13.47,0,0,1-3,1.59h3l1.66,0c.07,0,.1,0,.1.1l0,1.77V8.27Zm-5.65-9.57c0,.05-.05.11-.14.17a2.05,2.05,0,0,0-.25.31,8.14,8.14,0,0,1-2.11,2.11.54.54,0,0,1-.17.09s-.1,0-.19-.15a1.63,1.63,0,0,0-.39-.32,6.82,6.82,0,0,0,2-1.8A2.94,2.94,0,0,0,325,.72a5.16,5.16,0,0,1,.65.29A.16.16,0,0,1,325.79,1.14Zm4.91,5.47V5.7h-5.12v.91Zm0,1.46V7.15h-5.12v.92Zm0,1.56v-1h-5.12v1ZM328.2.19a.66.66,0,0,1-.07.23,2.24,2.24,0,0,0-.05.59v.65l0,1a.9.9,0,0,1-.33.77,2.22,2.22,0,0,1-1.2.23h-.36a.4.4,0,0,1-.21,0,.5.5,0,0,1-.08-.19,2.46,2.46,0,0,0-.21-.51,8.42,8.42,0,0,0,1,.08.68.68,0,0,0,.54-.16.55.55,0,0,0,.1-.39V1.1A5.65,5.65,0,0,0,327.29,0L328,.1C328.15.11,328.2.14,328.2.19ZM333,3.06a1.52,1.52,0,0,0-.37.39c-.08.11-.14.17-.17.17a.34.34,0,0,1-.17-.09,10.35,10.35,0,0,1-2.53-2.4.16.16,0,0,1,0-.08s0-.07.11-.11l.28-.16a.24.24,0,0,1,.13-.05.09.09,0,0,1,.07,0A8.2,8.2,0,0,0,333,3.06Z"/><path class="cls-5" d="M350.8,6.5c0,.07,0,.1-.1.1l-1.57,0h-3.25v2.9l0,1.27a.08.08,0,0,1-.09.09h-.64c-.06,0-.1,0-.1-.09l0-1.27V6.57h-3.16l-1.56,0c-.06,0-.09,0-.09-.1V5.94c0-.07,0-.1.09-.1l1.56,0h3.16V1.48h-2.49L341,1.5c-.07,0-.1,0-.1-.09V.85c0-.06,0-.09.1-.09l1.65,0h5.94l1.65,0a.08.08,0,0,1,.09.09v.56a.08.08,0,0,1-.09.09l-1.65,0h-2.67V5.87h3.25l1.57,0c.07,0,.1,0,.1.1Zm-7.11-1.67a.35.35,0,0,0,0,.06s0,.06-.11.09l-.41.17-.15,0s0,0-.07-.09a11.93,11.93,0,0,0-1.3-2.6.15.15,0,0,1,0-.06s.05-.07.15-.11l.33-.18.1,0s0,0,.07.07A12.25,12.25,0,0,1,343.69,4.83Zm5.84-2.36s0,.08-.11.14a1.18,1.18,0,0,0-.21.33,14.71,14.71,0,0,1-1.32,2.18c-.08.11-.13.16-.16.16a.66.66,0,0,1-.18-.09,1.37,1.37,0,0,0-.44-.21,10.46,10.46,0,0,0,1.42-2.34,2.63,2.63,0,0,0,.18-.6,5.62,5.62,0,0,1,.71.3C349.49,2.38,349.53,2.42,349.53,2.47Z"/><path class="cls-5" d="M363.73,8.75c-.12,1.24-.51,1.87-1.16,1.87s-1.52-.76-2.28-2.26a9.92,9.92,0,0,1-2.57,2.22.59.59,0,0,1-.17.07c-.05,0-.12-.06-.21-.17a1.29,1.29,0,0,0-.36-.31,9.33,9.33,0,0,0,3-2.55,15.49,15.49,0,0,1-1-4.81h-4.18V4.76h1.84l1,0c.08,0,.12,0,.12.11L357.7,6.1A13.34,13.34,0,0,1,357.5,8a1.14,1.14,0,0,1-1.21,1,5.35,5.35,0,0,1-.76,0q-.15,0-.18-.06a.68.68,0,0,1-.06-.22,1.83,1.83,0,0,0-.19-.51,7.62,7.62,0,0,0,1.1.11.6.6,0,0,0,.42-.13.9.9,0,0,0,.22-.48A15.28,15.28,0,0,0,357,5.41h-2.24a18.16,18.16,0,0,1-.17,2.26,8.59,8.59,0,0,1-1,3c-.07.11-.12.16-.14.16s-.08,0-.15-.13a1.79,1.79,0,0,0-.43-.34,6.76,6.76,0,0,0,1-2.94,22,22,0,0,0,.15-2.78l0-2.38a.1.1,0,0,1,.11-.11l1.68,0h3.1V1.56c0-.7-.05-1.19-.09-1.46a7.23,7.23,0,0,1,.79.07c.1,0,.16.06.16.12a.33.33,0,0,1-.06.19,3.14,3.14,0,0,0-.07.8v.25l0,.61h2l1.67,0a.09.09,0,0,1,.1.1v.52a.09.09,0,0,1-.1.1l-1.67,0h-2a15,15,0,0,0,.77,4.13,11.57,11.57,0,0,0,.94-1.77,4.45,4.45,0,0,0,.32-1.07,3,3,0,0,1,.67.24c.1,0,.15.11.15.16s-.05.11-.15.23-.12.23-.28.57a14.09,14.09,0,0,1-1.33,2.41,5.42,5.42,0,0,0,1,1.59c.3.33.55.49.77.49s.53-.57.57-1.72a2.05,2.05,0,0,0,.42.32c.14.08.22.16.22.23A1.05,1.05,0,0,1,363.73,8.75Zm-1.22-7.43s0,.05,0,.07,0,.07-.09.12l-.25.21c-.07.06-.11.08-.15.08a.1.1,0,0,1-.08-.05,4.67,4.67,0,0,0-1.11-1s-.07-.06-.07-.08,0-.07.09-.12l.24-.18a.31.31,0,0,1,.12-.06l.08,0A5.59,5.59,0,0,1,362.51,1.32Z"/><path class="cls-5" d="M372.28,1V9h1.63v.8h-4.33V9h1.74V2.05a8.19,8.19,0,0,1-1.73.87L369.42,2a7.83,7.83,0,0,0,2-1Z"/><path class="cls-5" d="M377.8,8.31a1.17,1.17,0,0,0,1.11.84,1.53,1.53,0,0,0,1.44-.94,6.88,6.88,0,0,0,.48-2.73,2.13,2.13,0,0,1-3.63.37,3,3,0,0,1-.59-1.91,3.18,3.18,0,0,1,.79-2.28,2.41,2.41,0,0,1,3.74.41,5.7,5.7,0,0,1,.64,3c0,3.27-.95,4.91-2.87,4.91a2.08,2.08,0,0,1-2.07-1.19Zm3-3.73c0-1.88-.58-2.83-1.66-2.83a1.29,1.29,0,0,0-1.16.66,2.92,2.92,0,0,0-.35,1.52,2.18,2.18,0,0,0,.47,1.5,1.25,1.25,0,0,0,1,.45A1.91,1.91,0,0,0,380.79,4.58Z"/><path class="cls-5" d="M397.85,7.93c0,.07,0,.1-.09.1l-1.57,0h-2.7v.81l0,2a.07.07,0,0,1-.08.08h-.61c-.07,0-.1,0-.1-.08l0-2V8H389.1l-1.58,0c-.06,0-.09,0-.09-.1V7.39c0-.06,0-.1.09-.1l1.58,0h.36V5.56l0-1c0-.06,0-.09.1-.09l1.68,0h1.53v-2H390a12.19,12.19,0,0,1-1.53,1.86c-.07.09-.12.13-.16.13s-.08,0-.16-.14a1.2,1.2,0,0,0-.41-.33A9.8,9.8,0,0,0,390.11.83a3.87,3.87,0,0,0,.25-.79c.2,0,.45.12.74.22a.18.18,0,0,1,.12.16.26.26,0,0,1-.11.17,1.16,1.16,0,0,0-.3.43c-.18.35-.31.61-.41.78h5.06l1.66,0c.07,0,.1,0,.1.09v.52c0,.06,0,.09-.1.09l-1.66,0h-2v2h1.45l1.66,0a.08.08,0,0,1,.09.09V5c0,.07,0,.1-.09.1l-1.66,0h-1.45V7.32h2.7l1.57,0c.06,0,.09,0,.09.1Zm-5.11-.61V5.1h-2.55V7.32Z"/><path class="cls-5" d="M410.68,1.8c0,.07,0,.1-.09.1l-1.66,0H402V3.81a28.62,28.62,0,0,1-.17,3.37,9.06,9.06,0,0,1-1.09,3.4q-.08.15-.12.15s-.09,0-.16-.12a1.35,1.35,0,0,0-.47-.36A7.58,7.58,0,0,0,401.1,6.9a27.74,27.74,0,0,0,.15-3.18l0-2.41c0-.07,0-.1.1-.1l1.68,0h2.41V1a4,4,0,0,0-.09-1c.3,0,.57,0,.8.06s.14,0,.14.1a.65.65,0,0,1-.06.23,1.7,1.7,0,0,0-.07.57v.28h2.8l1.66,0c.06,0,.09,0,.09.1Zm.12,8.34a1.21,1.21,0,0,0-.27.46c0,.14-.11.22-.18.22l-.14,0a10.24,10.24,0,0,1-3.9-1.19,11.28,11.28,0,0,1-4,1.26h-.14c-.08,0-.14-.07-.19-.2a.85.85,0,0,0-.3-.4,11.67,11.67,0,0,0,4-1.08,6.76,6.76,0,0,1-1.8-2h-1.22a.09.09,0,0,1-.1-.1V6.67a.09.09,0,0,1,.1-.1l1.62,0h4a.54.54,0,0,0,.22,0l.1,0c.07,0,.17.07.33.21s.25.27.25.33a.17.17,0,0,1-.1.15,1.22,1.22,0,0,0-.34.33A7.57,7.57,0,0,1,407,9.19,11.82,11.82,0,0,0,410.8,10.14Zm-.23-6.27c0,.07,0,.1-.1.1l-1.7,0h-.72v.57l0,1.13a.08.08,0,0,1-.09.09l-1.16,0h-1.2l-1.13,0c-.08,0-.11,0-.11-.09l0-1.13V3.94h-.3l-1.59,0c-.07,0-.1,0-.1-.1V3.42c0-.07,0-.1.1-.1l1.59,0h.3a6.19,6.19,0,0,0-.07-1.15,5.43,5.43,0,0,1,.73.08c.09,0,.13,0,.13.08a1.25,1.25,0,0,1-.06.21,3,3,0,0,0-.06.78h2.31a6.76,6.76,0,0,0-.08-1.15,5.43,5.43,0,0,1,.73.08c.09,0,.14,0,.14.08a1.25,1.25,0,0,1-.06.21,2.79,2.79,0,0,0-.06.78h.72l1.7,0c.07,0,.1,0,.1.1ZM408.1,7.2h-3.47a5.93,5.93,0,0,0,1.7,1.62A6.27,6.27,0,0,0,408.1,7.2Zm-.72-2.09V3.94h-2.31V5.11Z"/><path class="cls-5" d="M318.71,27.8c0,.06,0,.09-.1.09H318a.08.08,0,0,1-.09-.09v-.69h-8v.69c0,.06,0,.09-.1.09h-.56c-.07,0-.1,0-.1-.09l0-4.47v-2.4l0-3.2c0-.06,0-.09.1-.09l1.67,0h6l1.67,0c.06,0,.1,0,.1.09l0,2.85v2.75Zm-.77-1.34V18.34h-8v8.12Zm-.66-1.26c0,.06,0,.09-.1.09l-1.62,0h-3.22l-1.6,0c-.08,0-.11,0-.11-.09v-.48c0-.07,0-.1.11-.1l1.6,0h1.18V22.5h-.69l-1.46,0a.08.08,0,0,1-.09-.09V22c0-.07,0-.1.09-.1l1.46,0h.69V20.09h-1l-1.59,0a.09.09,0,0,1-.1-.1v-.47c0-.06,0-.09.1-.09l1.59,0h2.88l1.58,0a.08.08,0,0,1,.09.09V20c0,.07,0,.1-.09.1l-1.58,0h-1.19V21.9h.84l1.45,0c.07,0,.1,0,.1.1v.46c0,.06,0,.09-.1.09l-1.45,0h-.84v2.15h1.33l1.62,0a.09.09,0,0,1,.1.1Zm-.7-1.18a.15.15,0,0,1,0,.06s0,.06-.1.11l-.24.16c-.06,0-.1.08-.13.08s-.06,0-.08-.08a6,6,0,0,0-.88-1.18.15.15,0,0,1,0-.06s0-.06.11-.11l.21-.15.09-.05s.05,0,.1.07A5.58,5.58,0,0,1,316.58,24Z"/><path class="cls-5" d="M331.81,25.76a3.35,3.35,0,0,1-.45,1.48.91.91,0,0,1-.76.38,2.21,2.21,0,0,1-1.4-.66A5.8,5.8,0,0,1,328,25.35a9.92,9.92,0,0,1-.78-2l-3.37.09V26.4c1.24-.31,2.4-.66,3.49-1a1.87,1.87,0,0,0-.09.45.52.52,0,0,1-.07.24.36.36,0,0,1-.19.09,41.87,41.87,0,0,1-4.28,1.25,1.1,1.1,0,0,0-.4.15.32.32,0,0,1-.2.08c-.05,0-.09-.05-.14-.15a5.78,5.78,0,0,1-.17-.71,7.13,7.13,0,0,0,1.13-.16l.17,0V20l0-2.07c0-.07,0-.1.09-.1l1.81,0h4l1.79,0c.06,0,.09,0,.09.1l0,1v.92l0,1c0,.06,0,.1-.09.1l-1.79,0h-1.42a14,14,0,0,0,.27,1.82l1.9,0,1.31-.06.29,0h.1c.06,0,.09,0,.09.1l0,.53c0,.06,0,.09-.1.09h-.29l-1.4,0-1.74.05a7.56,7.56,0,0,0,.62,1.53,4.37,4.37,0,0,0,1.1,1.44,1.55,1.55,0,0,0,.92.45q.53,0,.6-1.74a1.45,1.45,0,0,0,.44.33c.14.08.22.16.22.23A.93.93,0,0,1,331.81,25.76ZM330,20.26V18.52H323.8v1.74Zm-3,2.48a14.22,14.22,0,0,1-.28-1.84H323.8v1.94Z"/><path class="cls-5" d="M345,27.05c0,.07,0,.1-.09.1l-1.58,0h-7l-1.59,0c-.06,0-.09,0-.09-.1V26.5c0-.06,0-.1.09-.1l1.59,0h3.11v-2.7h-1.48l-1.68,0c-.06,0-.09,0-.09-.1v-.54c0-.07,0-.1.09-.1l1.68,0h1.48V20.57h-2.83a9.67,9.67,0,0,1-1.24,1.93c-.06.07-.11.1-.13.1s-.09,0-.18-.12a1.49,1.49,0,0,0-.43-.25,10,10,0,0,0,2-3.65,2.13,2.13,0,0,0,.13-.69,3.64,3.64,0,0,1,.73.21q.15,0,.15.12a.24.24,0,0,1-.09.17.92.92,0,0,0-.2.39c-.28.73-.43,1.1-.43,1.11h2.52v-1a9.54,9.54,0,0,0-.1-1.65c.28,0,.56,0,.84.07.1,0,.15,0,.15.1a.44.44,0,0,1,0,.1.79.79,0,0,0,0,.12,5.86,5.86,0,0,0-.08,1.24v1h2.22l1.69,0a.08.08,0,0,1,.09.09v.54a.08.08,0,0,1-.09.09l-1.69,0h-2.22v2.48h1.67l1.68,0c.07,0,.1,0,.1.1v.54a.09.09,0,0,1-.1.1l-1.68,0h-1.67v2.7h3.14l1.58,0c.06,0,.09,0,.09.1Z"/><path class="cls-5" d="M349.84,21.59a.13.13,0,0,1,0,.07.4.4,0,0,1-.07.13l-.24.33c-.05.08-.09.11-.12.11a.13.13,0,0,1-.07,0,9.44,9.44,0,0,0-1.65-1.35s-.06,0-.06-.06a.26.26,0,0,1,.07-.12l.23-.3c0-.06.07-.09.1-.09l.08,0A8.67,8.67,0,0,1,349.84,21.59Zm.35,2.79c-.39.91-.83,1.82-1.31,2.73a3.48,3.48,0,0,0-.26.5q0,.12-.12.12a.25.25,0,0,1-.16-.07,5.75,5.75,0,0,1-.54-.44,5.32,5.32,0,0,0,.68-.93c.44-.83.86-1.71,1.26-2.65a2.94,2.94,0,0,0,.34.36c.11.09.17.15.17.19A1,1,0,0,1,350.19,24.38Zm.22-5.73s0,.05,0,.07,0,.07-.07.13l-.26.32c-.05.07-.09.1-.12.1a.07.07,0,0,1-.06,0,9.36,9.36,0,0,0-1.61-1.38s-.06-.05-.06-.06,0-.06.08-.12l.26-.3c.05-.05.09-.08.11-.08l.07,0A9.71,9.71,0,0,1,350.41,18.65Zm7.85,2.8c0,.07,0,.1-.09.1l-1.68,0H354.7v2h1l1.55,0c.06,0,.09,0,.09.1l0,1.13v1l0,2c0,.05,0,.08-.09.08h-.56c-.06,0-.09,0-.09-.08v-.53h-4.43v.59c0,.06,0,.1-.09.1h-.53a.1.1,0,0,1-.11-.1l0-2v-.92l0-1.27c0-.07,0-.1.11-.1l1.56,0H354v-2h-1.62l-1.69,0c-.07,0-.1,0-.1-.1v-.52c0-.06,0-.09.1-.09l1.69,0H354V18.92c-.67.14-1.48.28-2.44.42l-.15,0q-.12,0-.18-.21a1.18,1.18,0,0,0-.24-.43c1.05-.12,2.11-.29,3.17-.52a16,16,0,0,0,2.13-.61,3.21,3.21,0,0,0,.62-.31,4.62,4.62,0,0,1,.52.44c.06.07.1.12.1.17s-.05.11-.15.12a2.1,2.1,0,0,0-.45.11,22.69,22.69,0,0,1-2.2.63v2.11h1.79l1.68,0a.08.08,0,0,1,.09.09Zm-1.64,5.1V24.11h-4.43v2.44Z"/><path class="cls-5" d="M371.44,25.05a1.4,1.4,0,0,0-.31.43c-.05.12-.1.18-.16.18l-.17-.05a8.6,8.6,0,0,1-2.08-.9,7.09,7.09,0,0,1-1.31-1.11H364.2A8.9,8.9,0,0,1,361,25.67a.48.48,0,0,1-.18,0c-.05,0-.1,0-.17-.15a1.59,1.59,0,0,0-.32-.39,8.46,8.46,0,0,0,3-1.58H362.2l-1.57,0c-.05,0-.08,0-.08-.1v-.45c0-.06,0-.09.08-.09l1.57,0h1V19.13h-.45l-1.64,0a.09.09,0,0,1-.1-.1v-.47c0-.06,0-.09.1-.09l1.64,0h.45v0a8.48,8.48,0,0,0-.08-1.42,6.88,6.88,0,0,1,.77.07c.09,0,.13.05.13.1a.74.74,0,0,1,0,.12.29.29,0,0,0,0,.1,4.88,4.88,0,0,0-.06,1v0h3.71v0a8.84,8.84,0,0,0-.07-1.42,6.88,6.88,0,0,1,.77.07c.09,0,.13.05.13.1a.6.6,0,0,1-.08.23,6.06,6.06,0,0,0-.05,1v0h.58l1.65,0a.08.08,0,0,1,.09.09v.47c0,.06,0,.1-.09.1l-1.65,0h-.58V23h1.13L371,23a.08.08,0,0,1,.09.09v.45c0,.07,0,.1-.09.1l-1.57,0h-1.23A7.13,7.13,0,0,0,371.44,25.05Zm-1,2.34c0,.07,0,.1-.09.1l-1.66,0H363l-1.67,0a.09.09,0,0,1-.1-.1v-.48c0-.06,0-.09.1-.09l1.67,0h2.51V25.75h-.95l-1.55,0c-.06,0-.09,0-.09-.1v-.45c0-.07,0-.1.09-.1l1.55,0h.95v-.09a5.9,5.9,0,0,0-.08-1c.19,0,.44,0,.75,0,.08,0,.12.05.12.1s0,.07-.05.17a2.34,2.34,0,0,0-.06.68v.12h1l1.56,0c.06,0,.09,0,.09.1v.45c0,.06,0,.1-.09.1l-1.56,0h-1v1.09h2.57l1.66,0a.08.08,0,0,1,.09.09ZM367.63,20v-.88h-3.71V20Zm0,1.47v-.91h-3.71v.91Zm0,1.52V22h-3.71v1Z"/><path class="cls-5" d="M377.33,18.51c0,.07,0,.1-.09.1l-1.11,0h-.05a11.42,11.42,0,0,1-.78,3h1l.77,0a.09.09,0,0,1,.1.1l0,1.39v1l0,2.13a.09.09,0,0,1-.1.1h-.46c-.06,0-.09,0-.09-.1v-.41h-1.1v1.08c0,.07,0,.1-.1.1h-.45c-.06,0-.09,0-.09-.1l0-2.26V22.74c-.19.31-.4.63-.65,1-.06.08-.11.11-.14.11s-.07,0-.1-.11a1.51,1.51,0,0,0-.29-.45,8.33,8.33,0,0,0,1.81-4.66h-.24l-1.09,0c-.05,0-.08,0-.08-.1V18c0-.07,0-.1.08-.1l1.09,0h1l1.11,0c.06,0,.09,0,.09.1Zm-.84,6.68v-3h-1.1v3Zm8.36,1.57a1.66,1.66,0,0,0-.16.49c0,.13,0,.2-.08.23a.64.64,0,0,1-.2,0l-1.33,0a7.54,7.54,0,0,1-3.09-.64,2.7,2.7,0,0,1-1.13-1.16,5.2,5.2,0,0,1-1.47,2c-.08.07-.14.11-.18.11s-.08,0-.16-.12a1.38,1.38,0,0,0-.42-.27,4.5,4.5,0,0,0,1.45-1.62,4,4,0,0,0,.49-1.51,4.07,4.07,0,0,0,0-.46,2.18,2.18,0,0,0,0-.25l.61.09c.14,0,.21.07.21.13a.58.58,0,0,1-.08.19.56.56,0,0,0-.1.3,5.54,5.54,0,0,1-.15.77,2.62,2.62,0,0,0,1.47,1.38V22.88h-1.23l-1.67,0c-.07,0-.1,0-.1-.09v-.47a.09.09,0,0,1,.1-.1l1.67,0h4.29a.54.54,0,0,0,.22-.05l.12,0c.06,0,.16.06.3.19s.23.26.23.32a.12.12,0,0,1-.08.12,1.35,1.35,0,0,0-.27.31,6.38,6.38,0,0,1-.61.73c-.09.09-.14.13-.17.13a.41.41,0,0,1-.18-.09,2.13,2.13,0,0,0-.43-.17,4.44,4.44,0,0,0,.79-.86h-2.29v1.56h1.2l.87,0c.06,0,.1,0,.1.09V25a.09.09,0,0,1-.1.1l-.87,0h-1.2v1.56a12.67,12.67,0,0,0,2.56.19C384.18,26.8,384.53,26.79,384.85,26.76Zm-4-6.74a1.12,1.12,0,0,0-.25.28c-.06.07-.09.11-.12.11a.42.42,0,0,1-.14-.08,4.29,4.29,0,0,1-.83-1c0,.62,0,1.21,0,1.77l0,.6q0,.09-.12.09H379c-.07,0-.1,0-.1-.09s0-.26,0-.73,0-1,0-1.55a5.37,5.37,0,0,1-1.33,1.78.71.71,0,0,1-.18.11s-.08,0-.15-.11A.92.92,0,0,0,377,21a5.63,5.63,0,0,0,1.78-2h-.19l-1,0c-.06,0-.1,0-.1-.09v-.37a.09.09,0,0,1,.1-.1l1,0h.33V18a4.45,4.45,0,0,0-.07-.92c.3,0,.52,0,.67.05s.12,0,.12.09a.84.84,0,0,1-.06.18,2.3,2.3,0,0,0,0,.6v.43h0l1,0c.06,0,.09,0,.09.1v.37a.08.08,0,0,1-.09.09l-.94,0A4.05,4.05,0,0,0,380.83,20Zm4.08.74a1.23,1.23,0,0,0-.33.42c-.05.08-.09.11-.11.11l-.15-.09a7,7,0,0,1-1.6-1.85l0,1.77c0,.4,0,.6,0,.62s0,.09-.1.09h-.41c-.05,0-.08,0-.08-.09s0-.91,0-2.28a5.72,5.72,0,0,1-1.47,1.8.31.31,0,0,1-.15.09s-.07,0-.15-.13a1.18,1.18,0,0,0-.31-.26,5.82,5.82,0,0,0,1.9-2l-1,0a.08.08,0,0,1-.09-.09v-.37c0-.07,0-.1.09-.1l1.14,0h0V18a4.78,4.78,0,0,0-.07-1l.66.05c.08,0,.12.05.12.1a.26.26,0,0,1,0,.11l0,.09a2.48,2.48,0,0,0-.05.62v.41h.52l1.12,0c.07,0,.1,0,.1.1v.37c0,.06,0,.09-.1.09l-1.12,0h-.38A6.38,6.38,0,0,0,384.91,20.76Z"/><path class="cls-5" d="M390.88,19.84c0,.07,0,.1-.09.1l-1.2,0h-1.18l-1.2,0c-.06,0-.09,0-.09-.1v-.51a.08.08,0,0,1,.09-.09l1.2,0h1.18l1.2,0a.08.08,0,0,1,.09.09Zm-.34-1.62c0,.07,0,.1-.1.1l-1,0h-.79l-1,0c-.06,0-.09,0-.09-.1v-.46c0-.07,0-.1.09-.1l1,0h.79l1,0c.07,0,.1,0,.1.1Zm0,8.73c0,.07,0,.1-.05.1h0l-1,0h-1.19v.69c0,.06,0,.09-.08.09h-.5c-.06,0-.1,0-.1-.09l0-1.33V25.29l0-1.09c0-.06,0-.09.1-.09l1,0h.73l1,0c.06,0,.08,0,.08.09l0,.93v.92Zm-.12-5.5c0,.07,0,.1-.1.1l-.91,0h-.69l-.91,0c-.07,0-.1,0-.1-.1V21c0-.06,0-.09.1-.09l.91,0h.69l.91,0c.07,0,.1,0,.1.09Zm0,1.63c0,.06,0,.09-.1.09l-.91,0h-.69l-.91,0c-.07,0-.1,0-.1-.09V22.6c0-.06,0-.09.1-.09l.91,0h.69l.91,0c.07,0,.1,0,.1.09Zm-.54,3.37V24.72h-1.59v1.73Zm7.5.2a1,1,0,0,1-.32.8,2.14,2.14,0,0,1-1.21.21h-.21c-.1,0-.16,0-.18,0a.37.37,0,0,1-.06-.16,1.69,1.69,0,0,0-.23-.56c.35,0,.65.05.89.05h.2c.28,0,.41-.17.41-.53V18.19h-4.51v2.43A32.13,32.13,0,0,1,391.9,25a7.58,7.58,0,0,1-.79,2.63c0,.11-.09.16-.14.16a.34.34,0,0,1-.16-.11,1.48,1.48,0,0,0-.39-.28,7.24,7.24,0,0,0,.89-3.08c.09-.86.14-2.11.14-3.73V19.21l0-1.59c0-.06,0-.09.1-.09l1.56,0h2.59l1.58,0a.08.08,0,0,1,.09.09l0,1.59V24.9Zm-1-4.6a.08.08,0,0,1-.09.09l-1.16,0h-1.4l-1.09,0c-.07,0-.1,0-.1-.09v-.39c0-.06,0-.09.1-.09l1.09,0H394V20.35h-.2l-1,0c-.06,0-.08,0-.08-.09v-.4c0-.07,0-.1.08-.1l1,0h.2v-.17a7.47,7.47,0,0,0-.07-1.08,4.45,4.45,0,0,1,.67.07c.08,0,.12.05.12.11a.62.62,0,0,1-.05.18,2.2,2.2,0,0,0-.06.69v.2h.3l1.05,0c.07,0,.1,0,.1.1v.4c0,.06,0,.09-.1.09l-1.05,0h-.3v1.24h.44l1.16,0a.08.08,0,0,1,.09.09Zm-.57,4a.08.08,0,0,1-.09.09h-.42c-.07,0-.1,0-.1-.09v-.45h-1.67v.58c0,.06,0,.1-.09.1H393a.09.09,0,0,1-.1-.1l0-1.57V24l0-.91c0-.07,0-.1.1-.1l1,0h.79l.95,0c.06,0,.09,0,.09.1l0,.78v.69Zm-.61-1V23.6h-1.67v1.49Z"/><path class="cls-5" d="M411,21.75a1.46,1.46,0,0,0-.33.48c-.06.13-.12.19-.16.19l-.18-.06a10.57,10.57,0,0,1-4.52-3q0,.59,0,1.41,0,.64,0,.69a.09.09,0,0,1-.1.1h-.57c-.06,0-.09,0-.09-.1s0-.31,0-.84,0-.88,0-1.23a10.38,10.38,0,0,1-4.37,2.92.45.45,0,0,1-.17.05c-.05,0-.1-.06-.17-.18a1.38,1.38,0,0,0-.32-.43,10.84,10.84,0,0,0,4.51-2.57h-2.32l-1.61,0c-.07,0-.1,0-.1-.1v-.48c0-.06,0-.09.1-.09l1.61,0h2.8v-.29A6.62,6.62,0,0,0,405,17a5.65,5.65,0,0,1,.79.07c.1,0,.14.05.14.11a.63.63,0,0,1-.07.22,3,3,0,0,0-.07.74v.4h3l1.62,0c.07,0,.1,0,.1.09v.48c0,.07,0,.1-.1.1l-1.62,0h-2.56a10.36,10.36,0,0,0,2.14,1.53A15.25,15.25,0,0,0,411,21.75Zm-.06,5.59a.08.08,0,0,1-.09.09l-1.54,0h-7.39l-1.54,0a.08.08,0,0,1-.09-.09v-.5c0-.06,0-.1.09-.1l1.54,0h.65V23.35l0-1.36c0-.06,0-.09.11-.09l1.59,0h2.72l1.58,0c.07,0,.1,0,.1.09l0,1.36v3.42h.7l1.54,0c.06,0,.09,0,.09.1Zm-3-3.81v-1h-4.63v1Zm0,1.59v-1h-4.63v1Zm0,1.65v-1.1h-4.63v1.1Z"/><path class="cls-5" d="M248.85,44.46a9,9,0,0,0,3.37-3.72h-1.51l-1.52,0a.2.2,0,0,1-.11,0,.29.29,0,0,1,0-.12v-.91a.22.22,0,0,1,0-.12.23.23,0,0,1,.11,0l1.52,0h2a2.82,2.82,0,0,0,.16-.51,6.18,6.18,0,0,0,.22-1.17,9.7,9.7,0,0,1,1.22.2c.16,0,.23.1.23.17a.44.44,0,0,1-.13.22,1.57,1.57,0,0,0-.25.55l-.17.54h4l1.52,0c.08,0,.12,0,.12.14v.91c0,.09,0,.14-.12.14l-1.52,0h-4.48c-.12.27-.29.6-.51,1h3.22l1.7,0a.22.22,0,0,1,.12,0s0,.06,0,.12l0,1.59v2.17l0,1.86a1.25,1.25,0,0,1-.36,1,1.29,1.29,0,0,1-.63.26,7.49,7.49,0,0,1-1.16.08.67.67,0,0,1-.34,0,.78.78,0,0,1-.11-.32,3.68,3.68,0,0,0-.33-.86c.37,0,.75,0,1.14,0a.61.61,0,0,0,.42-.1.41.41,0,0,0,.1-.32v-.78h-4v.95l0,1.38c0,.06,0,.1,0,.11l-.1,0h-1a.27.27,0,0,1-.13,0,.27.27,0,0,1,0-.11l0-1.38V43.69A12.92,12.92,0,0,1,250,45.24a.67.67,0,0,1-.27.14c-.06,0-.14-.07-.24-.23A2.94,2.94,0,0,0,248.85,44.46Zm8-1.63h-4v.82h4Zm-4,2.63h4v-.82h-4Z"/><path class="cls-5" d="M263.49,40.07h1.64l1.28,0a.22.22,0,0,1,.12,0,.23.23,0,0,1,0,.11V41a.17.17,0,0,1,0,.12.2.2,0,0,1-.11,0l-1.28,0h-1.64l-1.29,0c-.05,0-.09,0-.1,0a.27.27,0,0,1,0-.11v-.86c0-.09,0-.13.12-.13Zm5.76,3.75.8.39V42.66h-1.68a23.4,23.4,0,0,1-.27,3.57,8.15,8.15,0,0,1-.85,2.44c-.09.16-.16.24-.23.24s-.14-.06-.26-.18a4.56,4.56,0,0,0-.57-.49v.21c0,.07,0,.1,0,.12a.19.19,0,0,1-.1,0h-.88c-.06,0-.1,0-.11,0a.2.2,0,0,1,0-.11V48.2h-1.33v.55a.12.12,0,0,1-.13.13h-.88a.19.19,0,0,1-.13,0,.22.22,0,0,1,0-.1l0-1.71v-.81l0-1.12a.22.22,0,0,1,0-.12.29.29,0,0,1,.12,0l1.09,0H265l1.1,0c.06,0,.1,0,.11,0a.2.2,0,0,1,0,.11l0,.92v1.88a6.15,6.15,0,0,0,.77-2.08,19.6,19.6,0,0,0,.23-3.34V40.84c0-.7,0-1.3-.08-1.82a7.38,7.38,0,0,1,1.09.29,11.44,11.44,0,0,0,2.75-.86,4.05,4.05,0,0,0,.76-.46,6.55,6.55,0,0,1,.82.84.3.3,0,0,1,.09.2c0,.08-.07.14-.19.16a6.17,6.17,0,0,0-.61.19,14.86,14.86,0,0,1-3.43,1v1.14h3.1l1.4,0a.22.22,0,0,1,.12,0,.23.23,0,0,1,0,.11v.88c0,.06,0,.1,0,.11a.2.2,0,0,1-.11,0l-1.4,0h-.22v2.19c.52.3,1,.61,1.48.93a.14.14,0,0,1,.08.1.42.42,0,0,1-.06.14l-.42.77c0,.09-.08.14-.12.14a.25.25,0,0,1-.11,0c-.41-.3-.69-.51-.85-.61v1l0,1.55c0,.08,0,.12-.13.12h-1c-.09,0-.13,0-.13-.12l0-1.55V45.5c-.47-.27-.92-.51-1.36-.71q-.09,0-.09-.09a.42.42,0,0,1,.06-.14l.38-.67c0-.07.08-.1.12-.1Zm-5.4-5.39h1l1.08,0a.31.31,0,0,1,.13,0,.28.28,0,0,1,0,.11v.79c0,.07,0,.11,0,.12H266l-1.08,0h-1l-1.09,0c-.07,0-.1,0-.12,0a.2.2,0,0,1,0-.11v-.79c0-.06,0-.1,0-.11a.2.2,0,0,1,.11,0Zm0,3.34h1l1,0a.19.19,0,0,1,.13,0,.22.22,0,0,1,0,.1v.79c0,.06,0,.1,0,.11a.2.2,0,0,1-.11,0l-1,0h-1l-1,0c-.06,0-.1,0-.11,0a.19.19,0,0,1,0-.1v-.79c0-.06,0-.1,0-.11l.1,0Zm0,1.6h1l1,0a.1.1,0,0,1,.14.13v.77a.17.17,0,0,1,0,.12.2.2,0,0,1-.11,0l-1,0h-1l-1,0c-.06,0-.1,0-.11,0a.2.2,0,0,1,0-.11v-.77c0-.06,0-.1,0-.11l.1,0ZM265.06,46h-1.33v1.23h1.33Z"/><path class="cls-5" d="M275.15,44.77A25.12,25.12,0,0,0,280,42.68h-3l-1.48,0c-.07,0-.1,0-.11,0s0-.06,0-.11V41.7c0-.08,0-.11.13-.11l1.48,0h2.55V40.46h-1.09l-1.53,0c-.06,0-.1,0-.11,0a.19.19,0,0,1,0-.1V39.5a.2.2,0,0,1,0-.11l.11,0,1.53,0h1.09v-.17a6.44,6.44,0,0,0-.09-1.23,11.17,11.17,0,0,1,1.29.09c.13,0,.2.05.2.11a.6.6,0,0,1-.06.24,2.33,2.33,0,0,0-.09.83v.13h.36l1.51,0a.22.22,0,0,1,.12,0,.16.16,0,0,1,0,.11v.91a10.08,10.08,0,0,0,.86-1,3.91,3.91,0,0,0,.54-.89,7.62,7.62,0,0,1,1,.6.28.28,0,0,1,.15.22c0,.07-.05.12-.14.17a1.53,1.53,0,0,0-.49.44,17.82,17.82,0,0,1-1.64,1.63h1.35l1.5,0c.08,0,.12,0,.12.11v.87c0,.09,0,.13-.12.13l-1.5,0h-2.58c-.48.34-1,.65-1.46.94h2.34l1.61,0a.17.17,0,0,1,.12,0,.29.29,0,0,1,0,.12l0,1.62v1.2l0,2.19c0,.06,0,.09,0,.1s-.05,0-.11,0h-1c-.09,0-.13,0-.13-.12v-.38h-4v.43c0,.06,0,.1,0,.11a.16.16,0,0,1-.1,0h-1l-.12,0a.28.28,0,0,1,0-.11l0-2.26V44.91c-.79.36-1.39.62-1.79.77a1.1,1.1,0,0,1-.26.08c-.07,0-.15-.1-.26-.3A2.87,2.87,0,0,0,275.15,44.77Zm8.1-.15h-4v.88h4Zm-4,2.76h4v-.91h-4Zm3.43-6.9-1.51,0h-.36v1.15h.68a11.29,11.29,0,0,0,1.26-1.13Z"/><path class="cls-5" d="M289.92,40l-1.53,0c-.07,0-.1,0-.11,0s0-.06,0-.11v-.83a.22.22,0,0,1,0-.12s.05,0,.11,0l1.53,0h2.9a4.58,4.58,0,0,0-.09-1.07c.56,0,1,0,1.28.07.12,0,.18.06.18.13a.63.63,0,0,1-.07.22,2.94,2.94,0,0,0,0,.65h3l1.53,0q.1,0,.12,0a.2.2,0,0,1,0,.11v.83c0,.06,0,.1,0,.11a.2.2,0,0,1-.11,0l-1.53,0h-3.73l.39.24q.15.09.15.18s-.05.08-.14.13a.73.73,0,0,0-.25.21,8.33,8.33,0,0,1-.73.83l.56.51.79-.9a4.81,4.81,0,0,0,.47-.71,6.09,6.09,0,0,1,.88.6.3.3,0,0,1,.12.19q0,.08-.15.15a1.81,1.81,0,0,0-.42.36,18.37,18.37,0,0,1-1.93,1.91c.45,0,1-.08,1.74-.17l-.35-.56a.16.16,0,0,1,0-.09s0-.06.13-.1l.57-.3.09,0s.06,0,.1.1a12.23,12.23,0,0,1,1.09,1.92.23.23,0,0,1,0,.09s0,.07-.12.12l-.65.34a.24.24,0,0,1-.11,0c-.05,0-.09,0-.12-.13l-.22-.54c-.85.13-1.63.23-2.35.3l1.15.1q.18,0,.18.15a.47.47,0,0,1-.07.2,1.79,1.79,0,0,0-.05.54h3.18l1.5,0a.2.2,0,0,1,.11,0,.28.28,0,0,1,0,.11v.88a.25.25,0,0,1,0,.11.23.23,0,0,1-.11,0l-1.5,0h-3.18v.81l0,1.27c0,.06,0,.1,0,.11s-.05,0-.11,0h-1a.2.2,0,0,1-.11,0,.23.23,0,0,1,0-.11l0-1.27v-.81h-3.05l-1.5,0c-.08,0-.12-.05-.12-.13V45.8c0-.09,0-.13.12-.13l1.5,0h3.05a5,5,0,0,0-.08-1l-1.07.09a1.5,1.5,0,0,0-.43.13.54.54,0,0,1-.18,0c-.05,0-.1,0-.14-.17a5.76,5.76,0,0,1-.15-.88c-.18.12-.44.27-.77.47l-.7.44a1.1,1.1,0,0,0-.36.26.24.24,0,0,1-.18.12.19.19,0,0,1-.17-.1c-.15-.31-.31-.66-.47-1.07a6.46,6.46,0,0,0,.79-.33,15.2,15.2,0,0,0,1.9-1.05,3.51,3.51,0,0,0,.22.65,2.29,2.29,0,0,1,.08.3s-.06.12-.17.2h.62c.23-.19.56-.5,1-.91a16.09,16.09,0,0,0-1.61-1.38c-.05,0-.08-.07-.08-.1s0-.06.06-.11l.49-.51c.06-.07.11-.11.15-.11a.21.21,0,0,1,.09,0L292,41l.54-.66a2.7,2.7,0,0,0,.17-.31Zm-.53.33a8.52,8.52,0,0,1,1.56,1.5A.21.21,0,0,1,291,42s0,.08-.12.14l-.66.52a.25.25,0,0,1-.15.07.12.12,0,0,1-.09-.06A8.2,8.2,0,0,0,288.53,41s-.06-.07-.06-.09,0-.07.1-.12l.6-.47a.26.26,0,0,1,.12-.07A.14.14,0,0,1,289.39,40.35Zm8.12-.2c.38.29.67.52.86.69a.33.33,0,0,1,.09.22c0,.08-.06.13-.18.16a1,1,0,0,0-.41.23,14.09,14.09,0,0,1-1.2.84.84.84,0,0,1-.3.16c-.07,0-.15-.08-.25-.25a3.44,3.44,0,0,0-.49-.53,9.64,9.64,0,0,0,1.42-1A2.35,2.35,0,0,0,297.51,40.15Zm-.81,2.43a13.15,13.15,0,0,1,2.1,1.49.24.24,0,0,1,.06.11.22.22,0,0,1-.06.13l-.61.67a.19.19,0,0,1-.15.1s-.08,0-.14-.08a9,9,0,0,0-1.9-1.6c-.05,0-.08-.07-.08-.1s0-.06.09-.13l.47-.54q.07-.09.12-.09Z"/><path class="cls-5" d="M307.21,40.65a14.43,14.43,0,0,1-1.5,5.17,2.35,2.35,0,0,1-2,1.39,1.84,1.84,0,0,1-1.54-.92,3.8,3.8,0,0,1-.59-2.17A4.33,4.33,0,0,1,302.9,41a5.29,5.29,0,0,1,3.9-1.54,4.62,4.62,0,0,1,3.52,1.34,4,4,0,0,1,1.05,2.82c0,2.18-1.23,3.63-3.7,4.38l-.17,0c-.12,0-.23-.09-.34-.25a2.53,2.53,0,0,0-.84-.76,6,6,0,0,0,2.7-1.23,3.1,3.1,0,0,0,.92-2.35,2.74,2.74,0,0,0-.84-2,2.52,2.52,0,0,0-1.84-.76Zm-1.39.07a3.74,3.74,0,0,0-2.05,1.09,3.32,3.32,0,0,0-.94,2.23,2.59,2.59,0,0,0,.3,1.33.65.65,0,0,0,.51.38c.33,0,.63-.24.9-.73a9.82,9.82,0,0,0,.81-2.06A15.71,15.71,0,0,0,305.82,40.72Z"/><path class="cls-5" d="M315.09,48.28l-1.52,0q-.1,0-.12,0a.19.19,0,0,1,0-.1v-1.1c0-.06,0-.1,0-.11a.2.2,0,0,1,.11,0l1.52,0h2.53V40.21a13.44,13.44,0,0,0-.1-2c.6,0,1.06,0,1.41.08.14,0,.22.07.22.16a1.25,1.25,0,0,1-.09.27,4.42,4.42,0,0,0-.08,1.15v1.9h2.35l1.47,0a.17.17,0,0,1,.12,0,.19.19,0,0,1,0,.1V43c0,.06,0,.1,0,.11a.2.2,0,0,1-.11,0l-1.47,0H319V47h3.27l1.52,0c.07,0,.1,0,.12,0a.22.22,0,0,1,0,.1v1.1c0,.06,0,.09,0,.11a.2.2,0,0,1-.11,0l-1.52,0Z"/><path class="cls-5" d="M325.74,42.65a11,11,0,0,0,2.2-3.78,4.8,4.8,0,0,0,.22-.93,9.29,9.29,0,0,1,1.15.37c.13,0,.2.11.2.17a.29.29,0,0,1-.14.22,1.21,1.21,0,0,0-.25.48,13.3,13.3,0,0,1-.72,1.65V47l0,1.82c0,.09,0,.14-.13.14h-1c-.07,0-.11-.05-.11-.14l0-1.82V44.28c0-.64,0-1.12,0-1.46a11,11,0,0,1-.71.9c-.1.12-.17.17-.21.17s-.11-.07-.15-.21A3.56,3.56,0,0,0,325.74,42.65Zm5.06,5.74-1.66,0c-.06,0-.1,0-.11,0a.19.19,0,0,1,0-.1v-.94a.2.2,0,0,1,0-.11s.05,0,.11,0l1.66,0H333a32.49,32.49,0,0,0,1.09-4.11,6.54,6.54,0,0,0,.16-1.12,12.68,12.68,0,0,1,1.32.33c.11,0,.17.09.17.17a.51.51,0,0,1-.12.24,1.2,1.2,0,0,0-.18.48c-.32,1.38-.7,2.71-1.14,4h.86l1.66,0c.06,0,.1,0,.11,0a.23.23,0,0,1,0,.11v.94a.1.1,0,0,1-.13.13l-1.66,0Zm.29-7-1.63,0a.29.29,0,0,1-.12,0,.23.23,0,0,1,0-.11v-.93c0-.06,0-.1,0-.11a.2.2,0,0,1,.11,0l1.63,0h1.12v-.93a6.85,6.85,0,0,0-.08-1.24c.38,0,.82,0,1.31.09q.21,0,.21.15a.46.46,0,0,1-.07.23,1.89,1.89,0,0,0-.1.72v1h1.39l1.63,0q.11,0,.12,0s0,.05,0,.1v.93c0,.07,0,.1,0,.11s-.06,0-.12,0l-1.63,0Zm0,.8a22.55,22.55,0,0,1,1.06,3.89.2.2,0,0,1,0,.07s-.05.09-.15.13l-.87.33-.14.06s-.07,0-.09-.12a22.26,22.26,0,0,0-1-4,.13.13,0,0,1,0-.08s.05-.07.15-.1l.86-.3.11,0S331.11,42.13,331.13,42.2Z"/><path class="cls-5" d="M347.44,38.87v1.2h-3.62l-.08,1.85a7,7,0,0,1-.07.87,1.77,1.77,0,0,1,1.57-.79,2.33,2.33,0,0,1,1.95.92,3.33,3.33,0,0,1,.64,2.08,3.24,3.24,0,0,1-.92,2.43,2.78,2.78,0,0,1-2,.77,3.07,3.07,0,0,1-1.91-.56,2.46,2.46,0,0,1-.88-1.43l1.47-.45c.16.85.59,1.28,1.3,1.28a1.21,1.21,0,0,0,1.08-.61,2.63,2.63,0,0,0,.33-1.41,2.23,2.23,0,0,0-.4-1.44,1.15,1.15,0,0,0-.94-.42,1.28,1.28,0,0,0-1.29,1L342.41,44l.18-5.14Z"/><path class="cls-5" d="M356.17,40.24v1.88a17.83,17.83,0,0,1-.32,3.77,8.18,8.18,0,0,1-1.23,2.77c-.1.14-.17.22-.23.22s-.14-.08-.25-.22a2.71,2.71,0,0,0-.7-.66,5.55,5.55,0,0,0,1.3-2.61,9.51,9.51,0,0,0,.17-1l-.86.47a1.85,1.85,0,0,0-.37.26.26.26,0,0,1-.19.09c-.07,0-.12,0-.15-.13s-.14-.5-.29-1.1a6.74,6.74,0,0,0,1-.31c.32-.14.65-.29,1-.45,0-.23,0-.6,0-1.09l0-2.88a.2.2,0,0,1,0-.11s.05,0,.11,0l1.65,0h2v-.28a4.38,4.38,0,0,0-.09-1c.38,0,.81,0,1.29.05.13,0,.19.06.19.13a.81.81,0,0,1-.07.23,1.57,1.57,0,0,0-.06.54v.28h2.35l1.62,0a.2.2,0,0,1,.11,0s0,0,0,.11v.89c0,.06,0,.1,0,.11a.16.16,0,0,1-.1,0l-1.62,0ZM354,40l.14,0s.06,0,.09.09a11,11,0,0,1,.7,1.78.84.84,0,0,1,0,.1s0,.09-.14.14l-.62.37a.4.4,0,0,1-.15.05s-.05,0-.08-.1a12.48,12.48,0,0,0-.68-1.9.51.51,0,0,1,0-.09s0-.08.11-.11Zm4.54,2.39-1.62,0a.25.25,0,0,1-.12,0,.31.31,0,0,1,0-.11v-.88a.24.24,0,0,1,0-.13s.05,0,.11,0l1.62,0H362l1.62,0c.06,0,.1,0,.11,0a.22.22,0,0,1,0,.12v.88c0,.06,0,.1,0,.11l-.1,0-1.62,0H360.9v1.78h1.21l1,0c.07,0,.1,0,.12,0a.19.19,0,0,1,0,.1v.88c0,.06,0,.1,0,.11a.2.2,0,0,1-.11,0l-1,0H360.9v2.18h1.36l1.66,0,.12,0a.23.23,0,0,1,0,.11v.88a.17.17,0,0,1,0,.12.23.23,0,0,1-.11,0l-1.66,0h-4.64l-1.67,0q-.1,0-.12,0a.27.27,0,0,1,0-.11v-.88a.2.2,0,0,1,0-.11.25.25,0,0,1,.12,0l1.31,0V45.24a10.64,10.64,0,0,0-.09-1.61c.43,0,.84,0,1.22.08.13,0,.19.06.19.14a.56.56,0,0,1-.07.24,4.25,4.25,0,0,0-.07,1v2.29h1.26V42.37Z"/><path class="cls-5" d="M368.54,38c.46,0,.88,0,1.27.08.13,0,.19.06.19.12a.64.64,0,0,1-.07.24,5.93,5.93,0,0,0-.08,1.33v7l0,2.11q0,.11,0,.12l-.1,0h-1a.31.31,0,0,1-.13,0,.35.35,0,0,1,0-.12l0-2.09V44.89c-.15.11-.54.35-1.17.74a1.16,1.16,0,0,0-.31.26.21.21,0,0,1-.17.1.17.17,0,0,1-.17-.12c-.17-.38-.31-.76-.45-1.15l.68-.27a10.35,10.35,0,0,0,1.59-.9V39.8A14.31,14.31,0,0,0,368.54,38Zm-1,1.88a13.29,13.29,0,0,1,.89,2,.44.44,0,0,1,0,.1s-.05.09-.15.14l-.72.33-.15,0s-.06,0-.08-.11a10.64,10.64,0,0,0-.82-2,.22.22,0,0,1,0-.1s0-.08.13-.12l.69-.34.12,0S367.5,39.81,367.54,39.87Zm4.56,2.61-1.64,0a.2.2,0,0,1-.11,0,.28.28,0,0,1,0-.11v-.92c0-.07,0-.11,0-.12l.1,0,1.64,0h.84c0-.63,0-1.16,0-1.59,0-.61,0-1.17-.08-1.68.5,0,.93,0,1.31.08.12,0,.19.06.19.15a.59.59,0,0,1-.08.25,4.49,4.49,0,0,0-.08,1.19c0,.53,0,1.07,0,1.6h1.41l1.63,0c.08,0,.12,0,.12.14v.92c0,.09,0,.13-.12.13l-1.63,0h-1.25a9,9,0,0,0,1.29,3.24,8.14,8.14,0,0,0,2,2.07,3.3,3.3,0,0,0-.65.87q-.14.24-.21.24a.49.49,0,0,1-.25-.15,8.31,8.31,0,0,1-2.68-4.33c0,.13-.09.35-.18.67a8.43,8.43,0,0,1-2.46,3.64.77.77,0,0,1-.27.17s-.12-.07-.23-.22A3.18,3.18,0,0,0,370,48a6.4,6.4,0,0,0,1.47-1.47,7.49,7.49,0,0,0,.95-1.83,9.07,9.07,0,0,0,.44-2.17Zm3.68-3.94a8.57,8.57,0,0,1,1.2,1.55.19.19,0,0,1,0,.1s0,.07-.12.12l-.71.43a.35.35,0,0,1-.14.07s-.07,0-.1-.1a9,9,0,0,0-1.13-1.59.16.16,0,0,1-.05-.09s0-.08.12-.13l.63-.38a.3.3,0,0,1,.14-.06S375.73,38.48,375.78,38.54Z"/><path class="cls-5" d="M390.7,38a7.37,7.37,0,0,0-2.18,2.76,6.8,6.8,0,0,0-.53,2.74,6.71,6.71,0,0,0,.7,3.1,7.62,7.62,0,0,0,2,2.4l-.31.36a8,8,0,0,1-2.59-2.87,6.45,6.45,0,0,1-.67-3,6.38,6.38,0,0,1,.88-3.38,8.52,8.52,0,0,1,2.38-2.49Z"/><path class="cls-5" d="M393.16,47.59A8.61,8.61,0,0,0,398,45.91c-.63-.33-1.33-.65-2.09-1l-.4.61c-.05.06-.09.1-.12.1l-.13,0-.87-.39c-.1,0-.14-.07-.14-.11a.19.19,0,0,1,0-.11,8.58,8.58,0,0,0,.69-1c.34-.63.66-1.29,1-2h-1.29l-1.5,0c-.07,0-.11,0-.12,0a.19.19,0,0,1,0-.1v-1c0-.06,0-.11,0-.12a.2.2,0,0,1,.11,0l1.5,0h1.77c.18-.45.35-1,.52-1.52a7.55,7.55,0,0,0,.25-1.18,8.94,8.94,0,0,1,1.3.23c.13,0,.2.1.2.21a.41.41,0,0,1-.13.24,2.17,2.17,0,0,0-.26.55c-.12.39-.28.88-.49,1.47H402l1.5,0c.07,0,.12,0,.13,0a.23.23,0,0,1,0,.11v1c0,.06,0,.1,0,.11h-.12L402,42h-.45A9.76,9.76,0,0,1,400,45.61c.91.5,2,1.15,3.11,1.94.05,0,.08.07.08.09a.36.36,0,0,1-.09.14l-.63.76q-.11.12-.15.12a.17.17,0,0,1-.11,0,30.53,30.53,0,0,0-3.06-2,8.9,8.9,0,0,1-5,2.17H394c-.09,0-.18-.1-.26-.32A2.94,2.94,0,0,0,393.16,47.59Zm3.28-3.66A23.92,23.92,0,0,1,398.87,45a7.8,7.8,0,0,0,1.35-3h-2.88C397.06,42.66,396.76,43.31,396.44,43.93Z"/><path class="cls-5" d="M406,38l.31-.37a8.21,8.21,0,0,1,2.59,2.87,6.62,6.62,0,0,1,.66,3,6.52,6.52,0,0,1-.87,3.38,8.51,8.51,0,0,1-2.38,2.48L406,49a7.58,7.58,0,0,0,2.18-2.76,7,7,0,0,0,.52-2.74,6.75,6.75,0,0,0-.69-3.11A8,8,0,0,0,406,38Z"/><path class="cls-4" d="M8.94,9.24a1.39,1.39,0,0,0-.35.41c-.05.09-.1.14-.13.14a.45.45,0,0,1-.15-.07A8,8,0,0,1,4.59,4.21,7.42,7.42,0,0,1,.78,9.71l-.15.07s-.07,0-.14-.15a1.41,1.41,0,0,0-.37-.36,6.8,6.8,0,0,0,3.16-3,7.72,7.72,0,0,0,.86-3.74A9.91,9.91,0,0,0,4.07,1.3a5.56,5.56,0,0,1,.75.08c.09,0,.14.06.14.12a.58.58,0,0,1-.06.2,1.39,1.39,0,0,0-.09.56c0,.23,0,.41,0,.52a9.69,9.69,0,0,0,1.38,3.9A7.66,7.66,0,0,0,8.94,9.24Z"/><path class="cls-4" d="M8.13,20.47c0,.05,0,.08-.07.08h-.5a.07.07,0,0,1-.08-.08v-.85H1.6v.86c0,.05,0,.08-.09.08H1A.07.07,0,0,1,1,20.48v-7.4C1,13,1,13,1,13l1.43,0H6.63l1.43,0s.07,0,.07.08v7.39ZM7.48,19V13.61H1.6V19Z"/><path class="cls-4" d="M8.82,27.55c0,.05,0,.07-.08.07l-1.32,0H4.82v2.68l0,1.56c0,.06,0,.09-.08.09H4.23c-.05,0-.08,0-.08-.09l0-1.56V27.6H1.64l-1.32,0s-.08,0-.08-.07v-.5A.07.07,0,0,1,.32,27H4.17V24.68c-.8.14-1.71.27-2.73.38H1.32c-.06,0-.11-.06-.15-.17a1.69,1.69,0,0,0-.23-.42,22,22,0,0,0,5.41-.95A2.2,2.2,0,0,0,7,23.21a3.79,3.79,0,0,1,.48.37q.12.09.12.15c0,.08-.08.12-.23.13a3.53,3.53,0,0,0-.58.17,17.66,17.66,0,0,1-2,.52V27H8.74a.07.07,0,0,1,.08.07Z"/><path class="cls-4" d="M4.58,36.34a.07.07,0,0,1-.08.08H3.72A10.13,10.13,0,0,1,3,39.57,16.89,16.89,0,0,1,4.2,41.23a.11.11,0,0,1,0,.06s0,.05-.08.1l-.28.26s-.05,0-.07,0,0,0-.07-.06a16,16,0,0,0-1-1.5A7.36,7.36,0,0,1,.62,42.61a.28.28,0,0,1-.15.08s-.07,0-.13-.11A1.29,1.29,0,0,0,0,42.27,7,7,0,0,0,2.34,39.6,21.27,21.27,0,0,0,.8,37.93s0,0,0,0a.21.21,0,0,1,.06-.08l.24-.22a.21.21,0,0,1,.09,0l.05,0c.56.56,1,1.06,1.39,1.49a8.7,8.7,0,0,0,.52-2.65H1.48l-1.24,0a.07.07,0,0,1-.08-.08v-.42a.07.07,0,0,1,.08-.08l1.24,0h.66v-.71a5,5,0,0,0-.08-1c.27,0,.49,0,.66.05s.12,0,.12.09a.59.59,0,0,1-.06.18,2.87,2.87,0,0,0,0,.71v.71h.53l1.24,0a.07.07,0,0,1,.08.08ZM9,37a.07.07,0,0,1-.08.08l-1.07,0v5a1.11,1.11,0,0,1-.07.46.69.69,0,0,1-.19.25A2.54,2.54,0,0,1,6.32,43H6.14C6,43,6,43,6,43a.44.44,0,0,1-.06-.17,1.39,1.39,0,0,0-.2-.44c.31,0,.68,0,1.11,0A.33.33,0,0,0,7.21,42V37.08H6l-1.21,0s-.07,0-.07-.08v-.43c0-.06,0-.08.07-.08l1.21,0H7.21V35.36a8.47,8.47,0,0,0-.06-1.2c.19,0,.41,0,.65.05q.12,0,.12.09a.71.71,0,0,1-.06.19,3.52,3.52,0,0,0-.05.86v1.18l1.07,0s.08,0,.08.08Zm-2.52,2.9,0,.06s0,.05-.07.08l-.3.17L6,40.28s0,0-.06-.06a7.35,7.35,0,0,0-1.14-1.78l0-.06s0-.05.08-.09l.26-.16.1-.05s0,0,.06.05A7.57,7.57,0,0,1,6.44,39.92Z"/><path class="cls-6" d="M327.52,77.51v8h1.63v.8h-4.33v-.8h1.74V78.55a8.44,8.44,0,0,1-1.73.87l-.17-.88a8.16,8.16,0,0,0,2-1Z"/><path class="cls-6" d="M333,84.81a1.16,1.16,0,0,0,1.11.84,1.53,1.53,0,0,0,1.44-.94,6.88,6.88,0,0,0,.48-2.73,2.14,2.14,0,0,1-3.64.37,3,3,0,0,1-.58-1.91,3.22,3.22,0,0,1,.78-2.28,2.28,2.28,0,0,1,1.7-.71,2.26,2.26,0,0,1,2.05,1.12,5.7,5.7,0,0,1,.64,3q0,4.9-2.87,4.91a2.06,2.06,0,0,1-2.07-1.19Zm3-3.73c0-1.88-.58-2.83-1.65-2.83a1.28,1.28,0,0,0-1.16.66,2.83,2.83,0,0,0-.36,1.52,2.23,2.23,0,0,0,.47,1.5,1.29,1.29,0,0,0,1,.45A1.91,1.91,0,0,0,336,81.08Z"/><path class="cls-6" d="M353.09,84.43c0,.07,0,.1-.1.1l-1.57,0h-2.7v.81l0,2s0,.08-.09.08h-.6c-.07,0-.1,0-.1-.08l0-2V84.5h-3.65l-1.57,0a.09.09,0,0,1-.1-.1v-.54a.09.09,0,0,1,.1-.1l1.57,0h.36V82.06l0-1a.08.08,0,0,1,.09-.09l1.68,0H348V79h-2.74a11.56,11.56,0,0,1-1.52,1.86c-.07.09-.13.13-.16.13s-.08,0-.16-.14a1.3,1.3,0,0,0-.41-.33,9.62,9.62,0,0,0,2.35-3.15,2.93,2.93,0,0,0,.25-.79c.21,0,.46.12.75.22a.18.18,0,0,1,.12.16.26.26,0,0,1-.11.17,1.05,1.05,0,0,0-.3.43l-.41.78h5.05l1.67,0c.06,0,.1,0,.1.09v.52c0,.06,0,.09-.1.09l-1.67,0h-2v2h1.46l1.66,0a.08.08,0,0,1,.09.09v.52c0,.07,0,.1-.09.1l-1.66,0h-1.46v2.22h2.7l1.57,0a.09.09,0,0,1,.1.1ZM348,83.82V81.6h-2.56v2.22Z"/><path class="cls-6" d="M386.52,77.51v8h1.63v.8h-4.33v-.8h1.74V78.55a8.44,8.44,0,0,1-1.73.87l-.17-.88a8.16,8.16,0,0,0,2-1Z"/><path class="cls-6" d="M395.69,78.69l-.95.42a1.16,1.16,0,0,0-1.15-.86c-1.24,0-1.89,1.22-1.93,3.66a2.23,2.23,0,0,1,2-1.22,2,2,0,0,1,1.69.84,3.15,3.15,0,0,1,.56,1.92,3.19,3.19,0,0,1-.8,2.3,2.3,2.3,0,0,1-1.71.7,2.21,2.21,0,0,1-2-1.14,5.58,5.58,0,0,1-.67-3,6.63,6.63,0,0,1,.9-3.88,2.35,2.35,0,0,1,2-1A2.12,2.12,0,0,1,395.69,78.69Zm-4,4.12a3.83,3.83,0,0,0,.53,2.24,1.35,1.35,0,0,0,1.15.6,1.28,1.28,0,0,0,1.15-.64,2.93,2.93,0,0,0,.35-1.54,2.29,2.29,0,0,0-.43-1.51,1.21,1.21,0,0,0-1-.46A2.07,2.07,0,0,0,391.68,82.81Z"/><path class="cls-6" d="M412,84.43c0,.07,0,.1-.09.1l-1.57,0h-2.7v.81l0,2a.07.07,0,0,1-.08.08H407c-.07,0-.11,0-.11-.08l0-2V84.5h-3.64l-1.58,0c-.06,0-.09,0-.09-.1v-.54c0-.06,0-.1.09-.1l1.58,0h.36V82.06l0-1c0-.06,0-.09.1-.09l1.68,0h1.53V79h-2.73a12.19,12.19,0,0,1-1.53,1.86c-.07.09-.12.13-.15.13s-.09,0-.17-.14a1.2,1.2,0,0,0-.41-.33,9.66,9.66,0,0,0,2.36-3.15,3.87,3.87,0,0,0,.25-.79c.2,0,.45.12.74.22a.18.18,0,0,1,.12.16.24.24,0,0,1-.1.17,1.15,1.15,0,0,0-.31.43c-.17.35-.31.61-.4.78h5.05l1.67,0a.08.08,0,0,1,.09.09v.52a.08.08,0,0,1-.09.09l-1.67,0h-2v2h1.45l1.67,0s.08,0,.08.09v.52c0,.07,0,.1-.08.1l-1.67,0h-1.45v2.22h2.7l1.57,0c.06,0,.09,0,.09.1Zm-5.11-.61V81.6h-2.55v2.22Z"/><path class="cls-4" d="M26,40.81v8.06h1.71V50H22.78V48.87h1.8V42.34a6.61,6.61,0,0,1-1.69.81l-.24-1.26a6.7,6.7,0,0,0,2.13-1.08Z"/><path class="cls-4" d="M30.3,43.25a2.78,2.78,0,0,1,1-2,3.22,3.22,0,0,1,3.87.16,2.32,2.32,0,0,1,.66,1.74,2.8,2.8,0,0,1-.46,1.54A8.35,8.35,0,0,1,34,46.29a9.77,9.77,0,0,0-2.23,2.54H35.9V50H30.22V49a12.22,12.22,0,0,1,2.62-3.39,7.51,7.51,0,0,0,1.22-1.42,2,2,0,0,0,.24-1,1.24,1.24,0,0,0-.37-1,1.14,1.14,0,0,0-.83-.3c-.79,0-1.22.56-1.3,1.66Z"/><path class="cls-4" d="M41.11,40.72A2.36,2.36,0,0,1,43.33,42,7.17,7.17,0,0,1,44,45.43a6.52,6.52,0,0,1-.85,3.8,2.63,2.63,0,0,1-4.28-.29,7.4,7.4,0,0,1-.64-3.49,6.48,6.48,0,0,1,.86-3.79A2.41,2.41,0,0,1,41.11,40.72Zm0,1.18a1.09,1.09,0,0,0-1.07.87,8.78,8.78,0,0,0-.28,2.66,8.18,8.18,0,0,0,.35,2.91,1,1,0,0,0,1,.67,1.11,1.11,0,0,0,1.09-.89,9.49,9.49,0,0,0,.27-2.69,8,8,0,0,0-.35-2.88A1,1,0,0,0,41.11,41.9Z"/><path class="cls-4" d="M87.87,12.51v6.71h1.42v1H85.18v-1h1.5V13.78a5.49,5.49,0,0,1-1.42.68l-.2-1.05a5.34,5.34,0,0,0,1.78-.9Z"/><path class="cls-4" d="M91.46,14.08a2.1,2.1,0,0,1,.91-1.28,2.6,2.6,0,0,1,1.4-.36,2.38,2.38,0,0,1,1.74.61,1.71,1.71,0,0,1,.55,1.3,1.69,1.69,0,0,1-.44,1.2,1.73,1.73,0,0,1-1,.52v.07a2,2,0,0,1,1.24.73,1.91,1.91,0,0,1,.37,1.2,2.09,2.09,0,0,1-.76,1.71,2.52,2.52,0,0,1-1.68.56,2.26,2.26,0,0,1-2.43-1.69l1.23-.36a1.43,1.43,0,0,0,.45.85,1.13,1.13,0,0,0,.74.22,1.06,1.06,0,0,0,.89-.38,1.36,1.36,0,0,0,.28-.9c0-.93-.49-1.39-1.48-1.39h-.58v-1h.53c.93,0,1.4-.4,1.4-1.2a1.06,1.06,0,0,0-.32-.83,1.07,1.07,0,0,0-.73-.24,1,1,0,0,0-.73.3,1.37,1.37,0,0,0-.33.75Z"/><path class="cls-4" d="M101.13,12.51v6.71h1.42v1H98.44v-1h1.5V13.78a5.43,5.43,0,0,1-1.41.68l-.2-1.05a5.44,5.44,0,0,0,1.78-.9Z"/><path class="cls-4" d="M106.5,18.81v1.38h-1.43V18.81Z"/><path class="cls-4" d="M111.74,12.51v6.71h1.42v1h-4.11v-1h1.5V13.78a5.43,5.43,0,0,1-1.41.68l-.2-1.05a5.44,5.44,0,0,0,1.78-.9Z"/><path class="cls-4" d="M104.71,24.51v6.71h1.42v1H102v-1h1.5V25.78a5.43,5.43,0,0,1-1.41.68l-.2-1.05a5.44,5.44,0,0,0,1.78-.9Z"/><path class="cls-4" d="M108.38,26.54a2.33,2.33,0,0,1,.85-1.63,2.72,2.72,0,0,1,3.23.13,1.94,1.94,0,0,1,.55,1.45,2.31,2.31,0,0,1-.38,1.29,7.17,7.17,0,0,1-1.16,1.29,8.6,8.6,0,0,0-1.86,2.12H113v1h-4.73v-.88a10.19,10.19,0,0,1,2.18-2.84,5.82,5.82,0,0,0,1-1.18,1.57,1.57,0,0,0,.2-.81,1,1,0,0,0-.3-.81,1,1,0,0,0-.7-.25q-1,0-1.08,1.38Z"/><path class="cls-4" d="M115.13,26.08A2.06,2.06,0,0,1,116,24.8a2.58,2.58,0,0,1,1.4-.36,2.4,2.4,0,0,1,1.74.61,1.71,1.71,0,0,1,.55,1.3,1.69,1.69,0,0,1-.44,1.2,1.73,1.73,0,0,1-1,.52v.07a2,2,0,0,1,1.24.73,1.91,1.91,0,0,1,.37,1.2,2.09,2.09,0,0,1-.76,1.71,2.52,2.52,0,0,1-1.68.56A2.26,2.26,0,0,1,115,30.65l1.23-.36a1.43,1.43,0,0,0,.45.85,1.13,1.13,0,0,0,.74.22,1.06,1.06,0,0,0,.89-.38,1.36,1.36,0,0,0,.28-.9c0-.93-.49-1.39-1.48-1.39h-.58v-1h.53c.93,0,1.4-.4,1.4-1.2a1.06,1.06,0,0,0-.32-.83,1.09,1.09,0,0,0-.73-.24,1,1,0,0,0-.73.3,1.37,1.37,0,0,0-.33.75Z"/><path class="cls-4" d="M123.61,30.81v1.38h-1.43V30.81Z"/><path class="cls-4" d="M128.18,24.44a2,2,0,0,1,1.86,1,6.05,6.05,0,0,1,.54,2.89,5.48,5.48,0,0,1-.71,3.17,2.2,2.2,0,0,1-3.58-.24,6.33,6.33,0,0,1-.52-2.91,5.44,5.44,0,0,1,.71-3.16A2,2,0,0,1,128.18,24.44Zm0,1a.9.9,0,0,0-.89.72,7.36,7.36,0,0,0-.23,2.22,6.7,6.7,0,0,0,.29,2.43.82.82,0,0,0,.81.55.91.91,0,0,0,.9-.74,7.82,7.82,0,0,0,.23-2.24A6.74,6.74,0,0,0,129,26,.85.85,0,0,0,128.18,25.42Z"/><path class="cls-4" d="M157.14,39.85v6.71h1.42v1h-4.11v-1H156V41.12a5.41,5.41,0,0,1-1.41.67l-.2-1a5.7,5.7,0,0,0,1.77-.9Z"/><path class="cls-4" d="M163.66,39.85v6.71h1.42v1H161v-1h1.5V41.12a5.41,5.41,0,0,1-1.41.67l-.2-1a5.86,5.86,0,0,0,1.78-.9Z"/><path class="cls-4" d="M171.37,39.9v.88a13.47,13.47,0,0,0-1.51,3.35,16,16,0,0,0-.56,3.4h-1.41a13.69,13.69,0,0,1,.84-3.79,16.29,16.29,0,0,1,1.43-2.82h-3.43v-1Z"/><path class="cls-4" d="M174.37,46.15v1.38h-1.43V46.15Z"/><path class="cls-4" d="M178,46c.13.48.4.73.8.73a1.11,1.11,0,0,0,1-.7,5.19,5.19,0,0,0,.34-2,1.64,1.64,0,0,1-1.55.91,1.83,1.83,0,0,1-1.53-.76,2.71,2.71,0,0,1-.5-1.71,2.82,2.82,0,0,1,.7-2,2.16,2.16,0,0,1,1.6-.62,2.08,2.08,0,0,1,1.88,1,4.91,4.91,0,0,1,.6,2.67,5.72,5.72,0,0,1-.78,3.39,2.13,2.13,0,0,1-1.83.85,1.91,1.91,0,0,1-2-1.23Zm2.13-3c0-1.5-.41-2.25-1.19-2.25s-1.08.56-1.08,1.68a1.81,1.81,0,0,0,.33,1.17.86.86,0,0,0,.72.35A1.34,1.34,0,0,0,180.12,43Z"/><path class="cls-4" d="M177.31,54v6.71h1.42v1h-4.11v-1h1.49V55.28a5.43,5.43,0,0,1-1.41.68l-.2-1.05a5.44,5.44,0,0,0,1.78-.9Z"/><path class="cls-4" d="M183.11,53.94A2,2,0,0,1,185,55a6.05,6.05,0,0,1,.54,2.89A5.48,5.48,0,0,1,184.8,61a2,2,0,0,1-1.71.81,2,2,0,0,1-1.86-1.05,6.31,6.31,0,0,1-.53-2.91,5.44,5.44,0,0,1,.71-3.16A2,2,0,0,1,183.11,53.94Zm0,1a.91.91,0,0,0-.89.72,7.7,7.7,0,0,0-.23,2.22,6.94,6.94,0,0,0,.29,2.43.82.82,0,0,0,.81.55.92.92,0,0,0,.91-.74,7.9,7.9,0,0,0,.22-2.24,6.74,6.74,0,0,0-.29-2.4A.85.85,0,0,0,183.11,54.92Z"/><path class="cls-4" d="M192,54.06V55a13.31,13.31,0,0,0-1.51,3.35,16,16,0,0,0-.56,3.39h-1.41a14.06,14.06,0,0,1,.83-3.78,16.81,16.81,0,0,1,1.44-2.83H187.4v-1Z"/><path class="cls-4" d="M195,60.31v1.38H193.6V60.31Z"/><path class="cls-4" d="M198.65,60.15q.21.72.81.72a1.11,1.11,0,0,0,1-.69,5.45,5.45,0,0,0,.34-2,1.63,1.63,0,0,1-1.56.91,1.82,1.82,0,0,1-1.52-.75,2.76,2.76,0,0,1-.51-1.71,2.8,2.8,0,0,1,.71-2,2.12,2.12,0,0,1,1.59-.62,2.09,2.09,0,0,1,1.89,1,4.88,4.88,0,0,1,.59,2.66,5.82,5.82,0,0,1-.77,3.4,2.17,2.17,0,0,1-1.83.85,1.92,1.92,0,0,1-2-1.23Zm2.13-3c0-1.5-.4-2.25-1.18-2.25s-1.08.56-1.08,1.68a1.84,1.84,0,0,0,.33,1.18.87.87,0,0,0,.72.35A1.32,1.32,0,0,0,200.78,57.14Z"/><path class="cls-4" d="M233.6,116.4v.88a13.84,13.84,0,0,0-1.51,3.35,17.36,17.36,0,0,0-.56,3.4h-1.4a14,14,0,0,1,.83-3.79,17,17,0,0,1,1.43-2.82H229v-1Z"/><path class="cls-4" d="M240.38,116.4v.88a13.43,13.43,0,0,0-1.5,3.35,16.61,16.61,0,0,0-.57,3.4h-1.4a14,14,0,0,1,.83-3.79,17,17,0,0,1,1.43-2.82h-3.42v-1Z"/><path class="cls-4" d="M243.38,122.65V124H242v-1.38Z"/><path class="cls-4" d="M248,116.27a2,2,0,0,1,1.86,1,6.05,6.05,0,0,1,.54,2.89,5.48,5.48,0,0,1-.71,3.17,2,2,0,0,1-1.71.81,2,2,0,0,1-1.86-1,6.31,6.31,0,0,1-.53-2.91,5.44,5.44,0,0,1,.71-3.16A2,2,0,0,1,248,116.27Zm0,1a.91.91,0,0,0-.89.72,7.7,7.7,0,0,0-.23,2.22,6.9,6.9,0,0,0,.29,2.43.84.84,0,0,0,.81.56.93.93,0,0,0,.91-.75,7.9,7.9,0,0,0,.22-2.24,6.63,6.63,0,0,0-.29-2.39A.85.85,0,0,0,248,117.25Z"/><path class="cls-4" d="M252.77,129.56v.89a13.31,13.31,0,0,0-1.51,3.35,16,16,0,0,0-.56,3.39h-1.41a13.7,13.7,0,0,1,.84-3.78,16,16,0,0,1,1.43-2.83h-3.43v-1Z"/><path class="cls-4" d="M254.8,131.54a2.34,2.34,0,0,1,.86-1.63,2.31,2.31,0,0,1,1.49-.47,2.35,2.35,0,0,1,1.73.6,1.94,1.94,0,0,1,.55,1.45,2.31,2.31,0,0,1-.38,1.29,6.8,6.8,0,0,1-1.16,1.29,8.6,8.6,0,0,0-1.86,2.12h3.43v1h-4.73v-.88a10.25,10.25,0,0,1,2.19-2.84,5.82,5.82,0,0,0,1-1.18,1.68,1.68,0,0,0,.2-.81,1.05,1.05,0,0,0-.31-.81,1,1,0,0,0-.7-.25q-1,0-1.08,1.38Z"/><path class="cls-4" d="M263.33,135.81v1.38h-1.44v-1.38Z"/><path class="cls-4" d="M269.83,129.56v.89a13.67,13.67,0,0,0-1.51,3.35,17.38,17.38,0,0,0-.56,3.39h-1.4a14.06,14.06,0,0,1,.83-3.78,16.72,16.72,0,0,1,1.43-2.83h-3.43v-1Z"/><path class="cls-4" d="M308.43,148.93l-1.22.45c-.11-.5-.38-.75-.8-.75q-1.32,0-1.38,2.7a1.7,1.7,0,0,1,1.56-.9,1.77,1.77,0,0,1,1.51.75,2.88,2.88,0,0,1,.48,1.73,2.8,2.8,0,0,1-.74,2.05,2.14,2.14,0,0,1-1.59.63,2.06,2.06,0,0,1-1.86-1,5,5,0,0,1-.59-2.68q0-4.23,2.64-4.23A2,2,0,0,1,308.43,148.93ZM305,152.36c0,1.51.4,2.26,1.2,2.26s1.08-.56,1.08-1.68-.34-1.54-1-1.54A1.42,1.42,0,0,0,305,152.36Z"/><path class="cls-4" d="M313.52,147.76v6.71h1.42v1h-4.11v-1h1.5V149a5.43,5.43,0,0,1-1.41.68l-.2-1.05a5.3,5.3,0,0,0,1.77-.9Z"/><path class="cls-4" d="M318.89,154.06v1.38h-1.43v-1.38Z"/><path class="cls-4" d="M325,147.76v5h.95v.95H325v1.72h-1.16v-1.72h-2.91v-.89l2.48-5.07Zm-1.16,5v-1.68q0-.79.06-2.34h-.14c-.22.6-.51,1.27-.84,2l-1,2Z"/><path class="cls-4" d="M326.35,160v1h-3l-.07,1.54a6.73,6.73,0,0,1-.06.72,1.49,1.49,0,0,1,1.31-.66,2,2,0,0,1,1.63.77,2.78,2.78,0,0,1,.53,1.73,2.69,2.69,0,0,1-.77,2,2.29,2.29,0,0,1-1.67.64,2.47,2.47,0,0,1-1.59-.47,2,2,0,0,1-.73-1.19l1.22-.37c.13.71.49,1.06,1.09,1.06a1,1,0,0,0,.89-.5,2.24,2.24,0,0,0,.28-1.18,1.84,1.84,0,0,0-.33-1.19,1,1,0,0,0-.79-.36,1.05,1.05,0,0,0-1.07.86l-1-.15.15-4.28Z"/><path class="cls-4" d="M333.4,161.1l-1.22.45c-.11-.5-.38-.75-.8-.75q-1.32,0-1.38,2.7a1.7,1.7,0,0,1,1.56-.9,1.77,1.77,0,0,1,1.51.75,2.85,2.85,0,0,1,.48,1.72,2.78,2.78,0,0,1-.74,2.05,2.14,2.14,0,0,1-1.59.63,2.08,2.08,0,0,1-1.86-1,5,5,0,0,1-.59-2.68c0-2.82.88-4.24,2.64-4.24A2,2,0,0,1,333.4,161.1ZM330,164.53c0,1.51.4,2.26,1.2,2.26s1.08-.56,1.08-1.68-.34-1.55-1-1.55A1.44,1.44,0,0,0,330,164.53Z"/><path class="cls-4" d="M337.2,166.23v1.38h-1.43v-1.38Z"/><path class="cls-4" d="M344,160v1h-3l-.06,1.54a6.73,6.73,0,0,1-.06.72,1.48,1.48,0,0,1,1.31-.66,2,2,0,0,1,1.62.77,2.72,2.72,0,0,1,.53,1.73,2.65,2.65,0,0,1-.77,2,2.29,2.29,0,0,1-1.67.64,2.51,2.51,0,0,1-1.59-.47,2,2,0,0,1-.73-1.19l1.22-.37c.13.71.5,1.06,1.09,1.06a1,1,0,0,0,.89-.5,2.15,2.15,0,0,0,.28-1.18,1.84,1.84,0,0,0-.33-1.19.94.94,0,0,0-.78-.36,1.07,1.07,0,0,0-1.08.86l-1-.15.15-4.28Z"/><path class="cls-4" d="M383.43,146.93l-1.22.45c-.11-.5-.38-.75-.8-.75q-1.32,0-1.38,2.7a1.7,1.7,0,0,1,1.56-.9,1.77,1.77,0,0,1,1.51.75,2.85,2.85,0,0,1,.48,1.72,2.81,2.81,0,0,1-.74,2.06,2.13,2.13,0,0,1-1.59.62,2.06,2.06,0,0,1-1.86-1,5,5,0,0,1-.59-2.68c0-2.82.88-4.24,2.64-4.24A2,2,0,0,1,383.43,146.93ZM380,150.36c0,1.51.4,2.26,1.2,2.26s1.08-.56,1.08-1.68-.34-1.54-1-1.54A1.42,1.42,0,0,0,380,150.36Z"/><path class="cls-4" d="M388.52,145.76v6.71h1.42v1h-4.11v-1h1.5V147a5.43,5.43,0,0,1-1.41.68l-.2-1.05a5.3,5.3,0,0,0,1.77-.9Z"/><path class="cls-4" d="M393.89,152.06v1.38h-1.43v-1.38Z"/><path class="cls-4" d="M399.13,145.76v6.71h1.42v1h-4.11v-1h1.5V147a5.43,5.43,0,0,1-1.41.68l-.2-1.05a5.4,5.4,0,0,0,1.77-.9Z"/><path class="cls-4" d="M401.35,157v1h-3l-.07,1.54a6.73,6.73,0,0,1-.06.72,1.49,1.49,0,0,1,1.31-.66,2,2,0,0,1,1.63.77,2.76,2.76,0,0,1,.53,1.73,2.71,2.71,0,0,1-.77,2,2.29,2.29,0,0,1-1.67.64,2.47,2.47,0,0,1-1.59-.47,2,2,0,0,1-.73-1.19l1.22-.37c.13.71.49,1.06,1.09,1.06a1,1,0,0,0,.89-.5,2.26,2.26,0,0,0,.28-1.18,1.87,1.87,0,0,0-.33-1.2,1,1,0,0,0-.79-.35,1.05,1.05,0,0,0-1.07.86l-1-.15.15-4.28Z"/><path class="cls-4" d="M408.26,157v.89a13.67,13.67,0,0,0-1.51,3.35,16.42,16.42,0,0,0-.56,3.39h-1.4a14,14,0,0,1,.83-3.78,16.72,16.72,0,0,1,1.43-2.83h-3.43v-1Z"/><path class="cls-4" d="M411.26,163.23v1.38h-1.43v-1.38Z"/><path class="cls-4" d="M413.76,159a2.48,2.48,0,0,1,4.08-1.5,1.93,1.93,0,0,1,.56,1.45,2.39,2.39,0,0,1-.38,1.28,7.3,7.3,0,0,1-1.17,1.3,8.42,8.42,0,0,0-1.86,2.12h3.44v1h-4.74v-.89a10.22,10.22,0,0,1,2.19-2.83,6.1,6.1,0,0,0,1-1.18,1.68,1.68,0,0,0,.2-.81,1.08,1.08,0,0,0-.31-.82,1,1,0,0,0-.69-.24c-.66,0-1,.46-1.09,1.38Z"/><path class="cls-4" d="M26,80.81v8.06h1.7V90H22.78V88.87h1.8V82.34a6.53,6.53,0,0,1-1.7.81l-.24-1.26a6.75,6.75,0,0,0,2.14-1.08Z"/><path class="cls-4" d="M32.85,80.72A2.37,2.37,0,0,1,35.08,82a7.29,7.29,0,0,1,.65,3.47,6.52,6.52,0,0,1-.85,3.8,2.63,2.63,0,0,1-4.29-.29A7.54,7.54,0,0,1,30,85.45a6.49,6.49,0,0,1,.85-3.79A2.41,2.41,0,0,1,32.85,80.72Zm0,1.18a1.08,1.08,0,0,0-1.06.87,8.7,8.7,0,0,0-.29,2.66,7.89,7.89,0,0,0,.36,2.91,1,1,0,0,0,1,.67,1.11,1.11,0,0,0,1.09-.89,9.49,9.49,0,0,0,.27-2.69,8,8,0,0,0-.35-2.88A1,1,0,0,0,32.85,81.9Z"/><path class="cls-4" d="M41.11,80.72A2.36,2.36,0,0,1,43.33,82,7.17,7.17,0,0,1,44,85.43a6.52,6.52,0,0,1-.85,3.8,2.63,2.63,0,0,1-4.28-.29,7.4,7.4,0,0,1-.64-3.49,6.48,6.48,0,0,1,.86-3.79A2.41,2.41,0,0,1,41.11,80.72Zm0,1.18a1.09,1.09,0,0,0-1.07.87,8.78,8.78,0,0,0-.28,2.66,8.18,8.18,0,0,0,.35,2.91,1,1,0,0,0,1,.67,1.11,1.11,0,0,0,1.09-.89,9.49,9.49,0,0,0,.27-2.69,8,8,0,0,0-.35-2.88A1,1,0,0,0,41.11,81.9Z"/><path class="cls-4" d="M34.05,125.12a3.42,3.42,0,0,1,1.46,1.14,2.53,2.53,0,0,1,.35,1.4,2.31,2.31,0,0,1-.91,1.93,3.24,3.24,0,0,1-2,.61,3.18,3.18,0,0,1-2.26-.75,2.3,2.3,0,0,1-.7-1.74,2,2,0,0,1,.48-1.39,4.37,4.37,0,0,1,1.29-.9,3,3,0,0,1-1.25-1.08,2.4,2.4,0,0,1-.31-1.26,2.18,2.18,0,0,1,.85-1.76,3,3,0,0,1,1.89-.6,2.9,2.9,0,0,1,2.08.73,2.1,2.1,0,0,1,.68,1.59A2.21,2.21,0,0,1,34.05,125.12Zm-1.41.76a2.63,2.63,0,0,0-1,.81,1.58,1.58,0,0,0-.27.92,1.43,1.43,0,0,0,.46,1.13,1.79,1.79,0,0,0,2.23-.06,1.34,1.34,0,0,0,.36-1,1.32,1.32,0,0,0-.35-1,3.87,3.87,0,0,0-1.1-.7Zm.52-1.19A2.23,2.23,0,0,0,34,124a1.74,1.74,0,0,0,.2-.86,1.19,1.19,0,0,0-.43-1,1.39,1.39,0,0,0-.91-.3,1.35,1.35,0,0,0-1,.38,1.21,1.21,0,0,0-.32.87,1.16,1.16,0,0,0,.31.84,3,3,0,0,0,.94.63Z"/><path class="cls-4" d="M41.11,120.72A2.36,2.36,0,0,1,43.33,122a7.17,7.17,0,0,1,.65,3.47,6.52,6.52,0,0,1-.85,3.8,2.63,2.63,0,0,1-4.28-.29,7.4,7.4,0,0,1-.64-3.49,6.48,6.48,0,0,1,.86-3.79A2.41,2.41,0,0,1,41.11,120.72Zm0,1.18a1.09,1.09,0,0,0-1.07.87,8.78,8.78,0,0,0-.28,2.66,8.18,8.18,0,0,0,.35,2.91,1,1,0,0,0,1,.67,1.11,1.11,0,0,0,1.09-.89,9.49,9.49,0,0,0,.27-2.69,8,8,0,0,0-.35-2.88A1,1,0,0,0,41.11,121.9Z"/><path class="cls-4" d="M35.71,162.21l-1.47.55c-.13-.6-.45-.9-1-.9-1.06,0-1.61,1.08-1.66,3.24A2,2,0,0,1,33.5,164a2.12,2.12,0,0,1,1.81.9,3.42,3.42,0,0,1,.58,2.06,3.37,3.37,0,0,1-.89,2.47,2.58,2.58,0,0,1-1.91.75A2.46,2.46,0,0,1,30.86,169a6,6,0,0,1-.71-3.21q0-5.09,3.17-5.09A2.37,2.37,0,0,1,35.71,162.21Zm-4.07,4.12c0,1.81.48,2.72,1.44,2.72s1.3-.67,1.3-2-.42-1.86-1.24-1.86A1.71,1.71,0,0,0,31.64,166.33Z"/><path class="cls-4" d="M41.11,160.72A2.36,2.36,0,0,1,43.33,162a7.17,7.17,0,0,1,.65,3.47,6.52,6.52,0,0,1-.85,3.8,2.63,2.63,0,0,1-4.28-.29,7.4,7.4,0,0,1-.64-3.49,6.48,6.48,0,0,1,.86-3.79A2.41,2.41,0,0,1,41.11,160.72Zm0,1.18a1.09,1.09,0,0,0-1.07.87,8.78,8.78,0,0,0-.28,2.66,8.18,8.18,0,0,0,.35,2.91,1,1,0,0,0,1,.67,1.11,1.11,0,0,0,1.09-.89,9.49,9.49,0,0,0,.27-2.69,8,8,0,0,0-.35-2.88A1,1,0,0,0,41.11,161.9Z"/><path class="cls-4" d="M34.79,200.81v6h1.14V208H34.79V210H33.41V208H29.92V206.9l3-6.09Zm-1.38,6v-2c0-.64,0-1.58.07-2.81h-.17c-.27.72-.61,1.52-1,2.4l-1.14,2.43Z"/><path class="cls-4" d="M41.11,200.72A2.36,2.36,0,0,1,43.33,202a7.17,7.17,0,0,1,.65,3.47,6.52,6.52,0,0,1-.85,3.8,2.63,2.63,0,0,1-4.28-.29,7.4,7.4,0,0,1-.64-3.49,6.48,6.48,0,0,1,.86-3.79A2.41,2.41,0,0,1,41.11,200.72Zm0,1.18a1.09,1.09,0,0,0-1.07.87,8.78,8.78,0,0,0-.28,2.66,8.18,8.18,0,0,0,.35,2.91,1,1,0,0,0,1,.67,1.11,1.11,0,0,0,1.09-.89,9.49,9.49,0,0,0,.27-2.69,8,8,0,0,0-.35-2.88A1,1,0,0,0,41.11,201.9Z"/><path class="cls-4" d="M30.3,243.25a2.78,2.78,0,0,1,1-2,3.22,3.22,0,0,1,3.87.16,2.32,2.32,0,0,1,.66,1.74,2.8,2.8,0,0,1-.46,1.54A8.35,8.35,0,0,1,34,246.29a9.77,9.77,0,0,0-2.23,2.54H35.9V250H30.22V249a12.22,12.22,0,0,1,2.62-3.39,7.51,7.51,0,0,0,1.22-1.42,2,2,0,0,0,.24-1,1.24,1.24,0,0,0-.37-1,1.14,1.14,0,0,0-.83-.3c-.79,0-1.22.56-1.3,1.66Z"/><path class="cls-4" d="M41.11,240.72A2.36,2.36,0,0,1,43.33,242a7.17,7.17,0,0,1,.65,3.47,6.52,6.52,0,0,1-.85,3.8,2.63,2.63,0,0,1-4.28-.29,7.4,7.4,0,0,1-.64-3.49,6.48,6.48,0,0,1,.86-3.79A2.41,2.41,0,0,1,41.11,240.72Zm0,1.18a1.09,1.09,0,0,0-1.07.87,8.78,8.78,0,0,0-.28,2.66,8.18,8.18,0,0,0,.35,2.91,1,1,0,0,0,1,.67,1.11,1.11,0,0,0,1.09-.89,9.49,9.49,0,0,0,.27-2.69,8,8,0,0,0-.35-2.88A1,1,0,0,0,41.11,241.9Z"/><path class="cls-4" d="M41.11,281.22a2.36,2.36,0,0,1,2.22,1.24,7.17,7.17,0,0,1,.65,3.47,6.52,6.52,0,0,1-.85,3.8,2.63,2.63,0,0,1-4.28-.29,7.4,7.4,0,0,1-.64-3.49,6.48,6.48,0,0,1,.86-3.79A2.41,2.41,0,0,1,41.11,281.22Zm0,1.18a1.09,1.09,0,0,0-1.07.87,8.78,8.78,0,0,0-.28,2.66,8.18,8.18,0,0,0,.35,2.91,1,1,0,0,0,1,.67,1.11,1.11,0,0,0,1.09-.89,9.49,9.49,0,0,0,.27-2.69,8,8,0,0,0-.35-2.88A1,1,0,0,0,41.11,282.4Z"/><rect class="cls-7" x="84.54" y="34.01" width="16" height="254"/><rect class="cls-8" x="84.54" y="34.01" width="16" height="254"/><rect class="cls-9" x="101.54" y="42.01" width="16" height="246"/><rect class="cls-10" x="101.54" y="42.01" width="16" height="246"/><rect class="cls-7" x="155.54" y="58.01" width="16" height="230"/><rect class="cls-11" x="155.54" y="58.01" width="16" height="230"/><rect class="cls-9" x="172.54" y="73.01" width="16" height="215"/><rect class="cls-12" x="172.54" y="73.01" width="16" height="215"/><rect class="cls-7" x="230.54" y="138.01" width="16" height="150"/><rect class="cls-13" x="230.54" y="138.01" width="16" height="150"/><rect class="cls-9" x="247.54" y="148.01" width="16" height="140"/><rect class="cls-14" x="247.54" y="148.01" width="16" height="140"/><rect class="cls-7" x="304.54" y="165.01" width="16" height="123"/><rect class="cls-15" x="304.54" y="165.01" width="16" height="123"/><rect class="cls-9" x="321.54" y="179.01" width="16" height="109"/><rect class="cls-16" x="321.54" y="179.01" width="16" height="109"/><rect class="cls-7" x="379.54" y="165.01" width="16" height="123"/><rect class="cls-17" x="379.54" y="165.01" width="16" height="123"/><rect class="cls-9" x="396.54" y="176.01" width="16" height="112"/><rect class="cls-18" x="396.54" y="176.01" width="16" height="112"/><rect class="cls-7" x="307.54" y="77.01" width="12" height="12"/><rect class="cls-9" x="365.54" y="77.01" width="12" height="12"/><path class="cls-4" d="M98.21,309.56a7.47,7.47,0,0,1-1.16,2.72c-.11.15-.18.23-.21.23s-.11-.07-.23-.22a2.93,2.93,0,0,0-.76-.67A6.07,6.07,0,0,0,97.06,309a18,18,0,0,0,.24-3.32l0-1.66a.25.25,0,0,1,0-.12h.12l1.66,0h5.2l1.64,0c.07,0,.11,0,.13,0a.25.25,0,0,1,0,.11l0,.77v.89l0,.78a.2.2,0,0,1,0,.11l-.12,0-1.64,0H98.52A13.86,13.86,0,0,1,98.21,309.56Zm-.07-6.3-1.54,0q-.1,0-.12,0a.19.19,0,0,1,0-.1v-.84a.17.17,0,0,1,0-.12.2.2,0,0,1,.11,0l1.54,0h7l1.52,0a.19.19,0,0,1,.13,0,.27.27,0,0,1,0,.11v.84c0,.06,0,.1,0,.11a.29.29,0,0,1-.12,0l-1.52,0Zm6.69,2.32v-.72H98.52v.72Zm-1.62,6.07c.44,0,.8,0,1.07,0a.4.4,0,0,0,.32-.1.41.41,0,0,0,.07-.28V311h-4.22v.36l0,1.31c0,.07,0,.11,0,.12a.2.2,0,0,1-.11,0h-1c-.06,0-.1,0-.11,0a.2.2,0,0,1,0-.11l0-1.3v-2.77l0-1.33q0-.11,0-.12a.2.2,0,0,1,.11,0l1.59,0h3.14l1.6,0a.2.2,0,0,1,.11,0,.29.29,0,0,1,0,.12l0,1.44v1.38l0,1.41a1.19,1.19,0,0,1-.31.92,2.75,2.75,0,0,1-1.59.3.78.78,0,0,1-.36-.05.74.74,0,0,1-.12-.32A2.22,2.22,0,0,0,103.21,311.65Zm1.46-3.56h-4.22v.6h4.22Zm-4.22,2.07h4.22v-.6h-4.22Z"/><path class="cls-4" d="M98.3,320.9l.93.48c.06,0,.09.07.09.12a.26.26,0,0,1,0,.1,1.6,1.6,0,0,0-.32.91c0,.41.25.7.74.88a6.8,6.8,0,0,0,2.11.25,15.26,15.26,0,0,0,3.25-.35h.1a.14.14,0,0,1,.15.12,6.81,6.81,0,0,1,.19,1.17v0c0,.08-.06.13-.2.16a20.32,20.32,0,0,1-3.58.28,5.61,5.61,0,0,1-3.17-.71,2,2,0,0,1-.9-1.71A3.37,3.37,0,0,1,98.3,320.9Zm.26-4.54a14.85,14.85,0,0,0,3.37.32c.55,0,1.4,0,2.55-.11h0a.13.13,0,0,1,.15.13,8,8,0,0,1,.06,1,.23.23,0,0,1-.21.26,7.38,7.38,0,0,0-2.93,1.19.52.52,0,0,1-.31.1.5.5,0,0,1-.25-.07,2.9,2.9,0,0,0-.84-.39c.65-.42,1.18-.75,1.57-1-.17,0-.5,0-1,0a12.56,12.56,0,0,1-2.1-.2.2.2,0,0,1-.16-.22C98.51,317.31,98.53,317,98.56,316.36Z"/><path class="cls-4" d="M98.86,328.75a6.29,6.29,0,0,1,1.3.37c.16.06.23.14.23.24a.28.28,0,0,1-.08.19,1.58,1.58,0,0,0-.22.56c-.11.53-.22,1.29-.33,2.29,0,.53-.05.87-.05,1s0,.21,0,.31c.29-.52.57-1,.84-1.54a2.81,2.81,0,0,0,.37.78.28.28,0,0,1,.07.19.58.58,0,0,1-.12.3,10.71,10.71,0,0,0-.7,1.53,2,2,0,0,0-.07.37.17.17,0,0,1-.15.18,9,9,0,0,1-1,.15c-.08,0-.14,0-.17-.16a7,7,0,0,1-.36-2.43,29.63,29.63,0,0,1,.29-3C98.82,329.55,98.86,329.1,98.86,328.75Zm3.84,0a8.15,8.15,0,0,1,1.37.14c.16,0,.24.12.24.22v.11a3.45,3.45,0,0,0,0,.55c.11,1.51.17,2.54.17,3.09a7.72,7.72,0,0,1-.92,4.17,6.1,6.1,0,0,1-2,1.93.4.4,0,0,1-.24.09.38.38,0,0,1-.25-.14,2.67,2.67,0,0,0-1-.55,6.72,6.72,0,0,0,2-1.6,4.92,4.92,0,0,0,.79-1.69,9.11,9.11,0,0,0,.21-2.15,28.09,28.09,0,0,0-.14-2.86A7.1,7.1,0,0,0,102.7,328.77Z"/><path class="cls-4" d="M168.73,311.52l.53,0h.16c.17,0,.26-.16.26-.41v-2.23h-1.09a14.22,14.22,0,0,1-.63,3.59c0,.14-.1.21-.17.21s-.12-.06-.21-.16a2.59,2.59,0,0,0-.68-.62,6.77,6.77,0,0,0,.58-2.22,27.59,27.59,0,0,0,.16-3.41v-2l0-2c0-.06,0-.1,0-.11s.05,0,.1,0l1,0h.91l1,0c.08,0,.12,0,.12.13l0,2v5.4l0,1.68a1.32,1.32,0,0,1-.29,1,1.71,1.71,0,0,1-1,.25h-.18c-.1,0-.16,0-.19-.08a.87.87,0,0,1-.08-.29A2.65,2.65,0,0,0,168.73,311.52Zm-.1-3.7h1.05v-1.71h-1v.24Q168.66,306.94,168.63,307.82Zm1.05-4.44h-1V305h1Zm3.81,3.88a7.51,7.51,0,0,1,1.09.19c.11,0,.16.06.16.12a.17.17,0,0,1-.1.14,1.51,1.51,0,0,0-.3.41l-.05.09h2l1.63,0c.06,0,.1,0,.11,0a.19.19,0,0,1,0,.1v.81a.14.14,0,0,1,0,.11.16.16,0,0,1-.1,0h-1.25a7.36,7.36,0,0,1-.92,1.57c.7.3,1.34.61,1.9.92.06,0,.08.07.08.09a.22.22,0,0,1-.05.14l-.46.63c-.06.09-.11.13-.15.13a.19.19,0,0,1-.1,0,16.46,16.46,0,0,0-2-1.1,6.57,6.57,0,0,1-3.25,1.19l-.21,0a.18.18,0,0,1-.15-.07,1.39,1.39,0,0,1-.12-.23,2.79,2.79,0,0,0-.41-.66,7.18,7.18,0,0,0,2.93-.77c-.45-.18-.79-.3-1-.38l-.09.13a.28.28,0,0,1-.19.13l-.16,0-.59-.22c-.11-.05-.16-.09-.16-.13a.15.15,0,0,1,.06-.11q.18-.21.51-.66l.38-.56h-1.33a.22.22,0,0,1-.12,0s0-.06,0-.11v-.81c0-.06,0-.1,0-.11a.2.2,0,0,1,.11,0l1.62,0h.33l.09-.2A3.45,3.45,0,0,0,173.49,307.26Zm-.63-3.77-1.61,0a.25.25,0,0,1-.12,0,.28.28,0,0,1,0-.11v-.8c0-.07,0-.11,0-.13a.23.23,0,0,1,.11,0l1.61,0h3.37l1.6,0q.1,0,.12,0a.29.29,0,0,1,0,.12v.8c0,.07,0,.1,0,.11s-.05,0-.11,0l-1.6,0h-.45v.91h.12l1.56,0a.22.22,0,0,1,.12,0,.27.27,0,0,1,0,.11l0,.85v.91l0,.86a.1.1,0,0,1-.14.14l-1.56,0H173l-1.56,0a.14.14,0,0,1-.11,0,.25.25,0,0,1,0-.11l0-.86v-.91l0-.85c0-.06,0-.1,0-.11l.1,0,1.56,0h.06v-.91Zm-.52,2.88h.75v-1.09h-.75Zm.95,3.51,1.37.47a4.64,4.64,0,0,0,.74-1.12h-1.69Zm1.54-5.48v-.91h-.78v.91Zm-.78.88v1.09h.78v-1.09Zm2.52,1.09v-1.09h-.79v1.09Z"/><path class="cls-4" d="M169.93,317.3v2a16.49,16.49,0,0,1-.32,3.76,7.44,7.44,0,0,1-1.28,2.79c-.1.14-.18.21-.22.21s-.12-.08-.24-.22a2.64,2.64,0,0,0-.7-.65,5.51,5.51,0,0,0,1.33-2.6,6.1,6.1,0,0,0,.17-.95c-.32.2-.6.36-.81.47a1.79,1.79,0,0,0-.38.24.24.24,0,0,1-.17.1c-.07,0-.12-.05-.16-.15q-.18-.55-.3-1a7.2,7.2,0,0,0,1-.32,8.6,8.6,0,0,0,1-.45c0-.25,0-.64,0-1.18l0-3a.25.25,0,0,1,0-.12h.11l1.65,0h2v-.18a4,4,0,0,0-.1-.92c.56,0,1,0,1.28.06.14,0,.21,0,.21.13a.93.93,0,0,1-.09.22,2,2,0,0,0,0,.47v.22h2.39l1.63,0c.06,0,.1,0,.11,0a.28.28,0,0,1,0,.11v.82c0,.06,0,.09,0,.11h-.1l-1.63,0Zm-2,0a12.77,12.77,0,0,1,.74,1.75.51.51,0,0,1,0,.09c0,.06,0,.1-.13.15l-.59.36a.3.3,0,0,1-.14.06s-.06,0-.08-.11a12.75,12.75,0,0,0-.73-1.82l0-.09s0-.07.13-.12l.57-.31a.4.4,0,0,1,.15-.05S167.92,317.23,168,317.29Zm7.24,7.81a6.31,6.31,0,0,0,.66,0,.3.3,0,0,0,.34-.33v-.54h-1.81v.3l0,1.39a.14.14,0,0,1,0,.09s-.07,0-.13,0h-.89c-.09,0-.14,0-.14-.11l0-1.39v-.3h-1.66v.47l0,1.38c0,.06,0,.1,0,.12h-1q-.11,0-.12,0s0,0,0-.1l0-1.37V321.6l0-1.39a.2.2,0,0,1,0-.11.29.29,0,0,1,.12,0l1.61,0h.52c-.23-.16-.52-.35-.88-.57-.05,0-.08-.05-.08-.07s0-.06.11-.11l.59-.38a.37.37,0,0,1,.16-.07l.11,0c.52.38.91.67,1.16.87a11,11,0,0,0,1.29-.95h-2.86l-1.57,0c-.08,0-.12,0-.12-.13V318c0-.09,0-.13.12-.13l1.57,0h3.42a1,1,0,0,0,.31,0,.67.67,0,0,1,.17-.05c.09,0,.24.11.44.33s.37.43.37.49-.06.15-.18.2a1.76,1.76,0,0,0-.46.3,11.91,11.91,0,0,1-1.32,1h.54l1.63,0c.09,0,.13,0,.13.13l0,1.5v1.66l0,1.67a1.18,1.18,0,0,1-.32.94,2.55,2.55,0,0,1-1.2.23c-.19,0-.31,0-.34-.06a.7.7,0,0,1-.1-.31A2.15,2.15,0,0,0,175.19,325.1Zm-3.61-3.31h1.66V321h-1.66Zm0,1.63h1.66v-.78h-1.66Zm4.61-2.41h-1.81v.78h1.81Zm-1.81,2.41h1.81v-.78h-1.81Z"/><path class="cls-4" d="M320,309.6a3.48,3.48,0,0,0,0,.47v.18c0,.09,0,.16,0,.2a.23.23,0,0,1-.08.2.91.91,0,0,1-.26.12,24.86,24.86,0,0,1-3.6,1.1,1.34,1.34,0,0,0-.43.16.37.37,0,0,1-.2.08c-.08,0-.13-.05-.17-.16a7.63,7.63,0,0,1-.33-1.06,9,9,0,0,0,1.16-.17c.46-.09,1-.2,1.52-.35a13.84,13.84,0,0,0,.5-1.43,4.62,4.62,0,0,0,.17-.82,6.39,6.39,0,0,1,1.07.34c.09,0,.14.08.14.15a.26.26,0,0,1-.09.17,1.18,1.18,0,0,0-.25.46s-.14.29-.38.8C319.26,309.89,319.67,309.75,320,309.6Zm-1.64-6.25h-1.78l-1.32,0c-.07,0-.1,0-.11,0s0-.05,0-.1v-.89a.31.31,0,0,1,0-.13h.11l1.32,0h1.78l1.33,0c.06,0,.1,0,.11,0s0,.05,0,.11v.89c0,.06,0,.1,0,.11a.16.16,0,0,1-.1,0Zm-1.47.93h1.32l1.17,0c.07,0,.12,0,.13,0a.19.19,0,0,1,0,.1l0,1v1.24l0,1c0,.07,0,.1,0,.12h-.12l-1.17,0h-1.32l-1.18,0c-.06,0-.1,0-.11,0a.23.23,0,0,1,0-.11l0-1v-1.24l0-1c0-.06,0-.1,0-.11l.1,0Zm-.22,4a5.7,5.7,0,0,1,.61,1.43.84.84,0,0,1,0,.1s0,.07-.16.1l-.69.27-.13,0s-.07,0-.09-.1a7.65,7.65,0,0,0-.55-1.48.2.2,0,0,1,0-.08s.05-.08.15-.11l.63-.23.13,0S316.67,308.2,316.71,308.27Zm1.76-1.57v-1.44h-1.76v1.44Zm3.07,3.76a4,4,0,0,1,.82.5.23.23,0,0,1,.13.19c0,.06-.05.1-.14.15a2.07,2.07,0,0,0-.32.23,8,8,0,0,1-1.93,1.2,1,1,0,0,1-.28.09c-.06,0-.15-.09-.28-.29a2.09,2.09,0,0,0-.5-.59,7.12,7.12,0,0,0,2.1-1.08A3.71,3.71,0,0,0,321.54,310.46Zm4.69,1.28a2.7,2.7,0,0,0-.49.67c-.11.2-.19.3-.25.3a.82.82,0,0,1-.29-.13,7.54,7.54,0,0,1-1.9-1.42.15.15,0,0,1-.05-.08s0-.08.12-.15l.5-.45.07-.06H322l-1.37,0c-.07,0-.12,0-.13,0a.2.2,0,0,1,0-.11l0-1.39v-3.14l0-1.44c0-.07,0-.1,0-.12h.12l1.37,0a6.69,6.69,0,0,0,.34-.89h-.51l-1.5,0c-.06,0-.1,0-.11,0a.25.25,0,0,1,0-.11v-.89c0-.06,0-.1,0-.11a.19.19,0,0,1,.1,0l1.5,0h2.55l1.51,0a.12.12,0,0,1,.13.13v.89c0,.09,0,.14-.13.14l-1.51,0h-.8c-.08.22-.21.52-.39.89h.69l1.38,0c.06,0,.1,0,.11,0s0,0,0,.11l0,1.4v3.18l0,1.39a.29.29,0,0,1,0,.12.2.2,0,0,1-.11,0h-.36l-.83,0A7.31,7.31,0,0,0,326.23,311.74Zm-2-6.55h-2.59V306h2.59Zm-2.59,2.45h2.59v-.78h-2.59Zm2.59,1.74v-.84h-2.59v.84Z"/><path class="cls-4" d="M317.93,317.3v2a16.49,16.49,0,0,1-.32,3.76,7.44,7.44,0,0,1-1.28,2.79c-.1.14-.18.21-.22.21s-.12-.08-.24-.22a2.64,2.64,0,0,0-.7-.65,5.51,5.51,0,0,0,1.33-2.6,6.1,6.1,0,0,0,.17-.95c-.32.2-.6.36-.81.47a1.79,1.79,0,0,0-.38.24.24.24,0,0,1-.17.1c-.07,0-.12-.05-.16-.15q-.18-.55-.3-1a7.2,7.2,0,0,0,1-.32,8.6,8.6,0,0,0,1-.45c0-.25,0-.64,0-1.18l0-3a.25.25,0,0,1,0-.12h.11l1.65,0h2v-.18a4,4,0,0,0-.1-.92c.56,0,1,0,1.28.06s.21,0,.21.13a.93.93,0,0,1-.09.22,2,2,0,0,0-.05.47v.22h2.39l1.63,0c.06,0,.1,0,.11,0a.28.28,0,0,1,0,.11v.82c0,.06,0,.09,0,.11h-.1l-1.63,0Zm-2,0a12.77,12.77,0,0,1,.74,1.75.51.51,0,0,1,0,.09c0,.06,0,.1-.13.15l-.59.36a.3.3,0,0,1-.14.06s-.06,0-.08-.11a12.75,12.75,0,0,0-.73-1.82l0-.09s0-.07.13-.12l.57-.31a.4.4,0,0,1,.15-.05S315.92,317.23,316,317.29Zm7.24,7.81a6.31,6.31,0,0,0,.66,0,.3.3,0,0,0,.34-.33v-.54h-1.81v.3l0,1.39a.14.14,0,0,1,0,.09s-.07,0-.13,0h-.89c-.09,0-.14,0-.14-.11l0-1.39v-.3h-1.66v.47l0,1.38c0,.06,0,.1,0,.12h-1q-.1,0-.12,0s0,0,0-.1l0-1.37V321.6l0-1.39a.2.2,0,0,1,0-.11.29.29,0,0,1,.12,0l1.61,0h.52c-.23-.16-.52-.35-.88-.57-.05,0-.08-.05-.08-.07s0-.06.11-.11l.59-.38a.37.37,0,0,1,.16-.07l.11,0c.52.38.91.67,1.16.87a11,11,0,0,0,1.29-.95h-2.86l-1.57,0c-.08,0-.12,0-.12-.13V318c0-.09,0-.13.12-.13l1.57,0h3.42a1,1,0,0,0,.31,0,.67.67,0,0,1,.17-.05c.09,0,.24.11.44.33s.37.43.37.49-.06.15-.18.2a1.76,1.76,0,0,0-.46.3,11.91,11.91,0,0,1-1.32,1h.54l1.63,0c.09,0,.13,0,.13.13l0,1.5v1.66l0,1.67a1.18,1.18,0,0,1-.32.94,2.55,2.55,0,0,1-1.2.23c-.19,0-.31,0-.34-.06a.7.7,0,0,1-.1-.31A2.15,2.15,0,0,0,323.19,325.1Zm-3.61-3.31h1.66V321h-1.66Zm0,1.63h1.66v-.78h-1.66Zm4.61-2.41h-1.81v.78h1.81Zm-1.81,2.41h1.81v-.78h-1.81Z"/><path class="cls-4" d="M395,305.7l-1.65,0a.14.14,0,0,1-.11,0,.22.22,0,0,1,0-.1v-.93c0-.07,0-.11,0-.12h3v-.78a16.44,16.44,0,0,0-.08-1.7,10.29,10.29,0,0,1,1.26.09c.12,0,.19,0,.19.12a.93.93,0,0,1-.08.25,5,5,0,0,0-.08,1.22v.8h3.36c.06,0,.1,0,.11,0a.25.25,0,0,1,0,.11v.93c0,.08,0,.13-.12.13l-1.65,0h-1.25a12.27,12.27,0,0,0,1.47,2.28,14.87,14.87,0,0,0,1.87,1.83,3.11,3.11,0,0,0-.59.8c-.09.17-.15.26-.2.26s-.12-.07-.25-.2a13,13,0,0,1-1.76-2.09,12.18,12.18,0,0,1-1-1.94c0,.81,0,1.84,0,3.08h.27l1.32,0a.2.2,0,0,1,.11,0,.23.23,0,0,1,0,.11v.88a.25.25,0,0,1,0,.12s-.05,0-.11,0l-1.32,0h-.26c0,.47,0,1,0,1.48s0,.56,0,.57a.2.2,0,0,1,0,.11.23.23,0,0,1-.11,0h-1a.27.27,0,0,1-.13,0,.23.23,0,0,1,0-.11s0-.27,0-.72,0-.94,0-1.33H396l-1.32,0a.2.2,0,0,1-.11,0,.29.29,0,0,1,0-.12v-.88a.2.2,0,0,1,0-.11.23.23,0,0,1,.11,0l1.32,0h.22c0-.93,0-2,0-3.07a11.38,11.38,0,0,1-2.74,4c-.13.12-.21.18-.25.18s-.11-.07-.19-.23a4.12,4.12,0,0,0-.54-.7v1.14l0,1.83a.2.2,0,0,1,0,.11.23.23,0,0,1-.11,0h-1c-.08,0-.12,0-.12-.13l0-1.83v-2.72c0-.58,0-1,0-1.35l-.7.87c-.09.1-.16.16-.22.16s-.09-.08-.13-.22a2.92,2.92,0,0,0-.41-1,10.44,10.44,0,0,0,2.28-3.9,3.7,3.7,0,0,0,.18-.85,7.73,7.73,0,0,1,1.17.37c.13.05.19.12.19.18a.29.29,0,0,1-.13.21,1.3,1.3,0,0,0-.24.48,17.88,17.88,0,0,1-.78,1.76v4.86a11.5,11.5,0,0,0,3.14-4.17Z"/><path class="cls-4" d="M393.39,318.8c.12-.43.24-.94.36-1.51a8.1,8.1,0,0,0,.12-1.33,10.94,10.94,0,0,1,1.44.39.23.23,0,0,1,.19.24.25.25,0,0,1-.08.18,1.54,1.54,0,0,0-.24.46c-.06.18-.14.43-.23.76s-.16.53-.21.68a9.66,9.66,0,0,1,1-.05q1.71,0,1.71,2.31a12.35,12.35,0,0,1-.19,2.18,6.24,6.24,0,0,1-.46,1.59,1.69,1.69,0,0,1-1.62,1.12,3.17,3.17,0,0,1-1.24-.18.32.32,0,0,1-.22-.33,3.92,3.92,0,0,0-.23-1.12,3.22,3.22,0,0,0,1.38.31.72.72,0,0,0,.49-.15,1.34,1.34,0,0,0,.28-.49,8.47,8.47,0,0,0,.47-3,1.68,1.68,0,0,0-.16-.9.62.62,0,0,0-.53-.21,7,7,0,0,0-1,.09A35.44,35.44,0,0,1,392,325.5c0,.1-.1.15-.17.15a.3.3,0,0,1-.14,0,3.42,3.42,0,0,1-.83-.52.28.28,0,0,1-.09-.18.2.2,0,0,1,0-.13,28,28,0,0,0,2.2-4.71l-1.17.21a3.28,3.28,0,0,0-.66.19l-.15,0a.25.25,0,0,1-.24-.19,11.78,11.78,0,0,1-.37-1.24c.44,0,1,0,1.58-.08C392.41,318.94,392.88,318.88,393.39,318.8Zm4.14-.09c.45-.31.77-.51,1-.62l.08,0a.28.28,0,0,1,.15.08,7.89,7.89,0,0,1,2,2.92.26.26,0,0,1,0,.1.19.19,0,0,1-.08.14,3.69,3.69,0,0,1-.9.6l-.12,0a.14.14,0,0,1-.15-.13A8.19,8.19,0,0,0,397.53,318.71Zm.66-1.85.64-.44a.11.11,0,0,1,.07,0,.14.14,0,0,1,.1.05,5.37,5.37,0,0,1,1.15,1.28.16.16,0,0,1,0,.09s0,.07-.07.11l-.5.37a.26.26,0,0,1-.1,0s-.07,0-.11-.08A6,6,0,0,0,398.19,316.86Zm1.11-.8.59-.43.08,0a.25.25,0,0,1,.11,0,5,5,0,0,1,1.13,1.25.12.12,0,0,1,0,.09.19.19,0,0,1-.07.12l-.48.37a.16.16,0,0,1-.1,0s-.07,0-.11-.07A5.72,5.72,0,0,0,399.3,316.06Z"/><path class="cls-4" d="M394.77,331.11c.5-.09,1.07-.23,1.71-.41h.06c.08,0,.12.05.13.13,0,.32.07.61.08.86v.06c0,.09-.06.14-.18.17a18.86,18.86,0,0,1-2.08.46c-.8,2.58-1.53,4.75-2.2,6.49,0,.09-.08.14-.15.14l-.11,0a7.74,7.74,0,0,1-1-.45.2.2,0,0,1-.11-.17s0,0,0-.07a46.14,46.14,0,0,0,2.08-5.68,20.14,20.14,0,0,1-2.09.13c-.15,0-.24-.06-.25-.19s-.1-.58-.17-1.1a5.58,5.58,0,0,0,.89.05,16.48,16.48,0,0,0,1.94-.13q.13-.54.3-1.5a7.92,7.92,0,0,0,.07-1.1,7.93,7.93,0,0,1,1.51.33.2.2,0,0,1,.13.2.33.33,0,0,1-.06.19,3.81,3.81,0,0,0-.25.48c0,.15-.1.37-.16.66S394.8,331,394.77,331.11Zm.22,5.51a4.62,4.62,0,0,1,1-.18.16.16,0,0,1,.18.16,1.08,1.08,0,0,0,.59.93,2.84,2.84,0,0,0,1.25.21,18.39,18.39,0,0,0,2-.17h0c.06,0,.1,0,.11.11a7.67,7.67,0,0,1,.09,1.05.18.18,0,0,1,0,.06c0,.08-.07.12-.2.13a11.2,11.2,0,0,1-1.67.13,7.27,7.27,0,0,1-1.91-.2,2.23,2.23,0,0,1-1-.58A2.41,2.41,0,0,1,395,336.62Zm.94-2.27c0-.57-.05-.93-.05-1.09a.26.26,0,0,1,0-.18.41.41,0,0,1,.17-.06,12.09,12.09,0,0,1,2.34-.28,8.39,8.39,0,0,1,1.41.12.49.49,0,0,1,.17.05.21.21,0,0,1,0,.13c0,.17,0,.35,0,.55s0,.26,0,.41,0,.23-.14.23l-.09,0a8,8,0,0,0-1.48-.14A12.84,12.84,0,0,0,395.93,334.35Zm2.08-4.07.64-.44a.11.11,0,0,1,.07,0,.21.21,0,0,1,.11.05,4.93,4.93,0,0,1,1.13,1.28.16.16,0,0,1,0,.09.14.14,0,0,1-.06.11l-.51.37a.18.18,0,0,1-.09,0,.14.14,0,0,1-.11-.08A6.23,6.23,0,0,0,398,330.28Zm1.11-.79.6-.43.07,0a.16.16,0,0,1,.1.05,4.51,4.51,0,0,1,1.15,1.24.19.19,0,0,1,0,.1.13.13,0,0,1-.07.11l-.48.37a.12.12,0,0,1-.09,0,.13.13,0,0,1-.11-.07A5.74,5.74,0,0,0,399.12,329.49Z"/><path class="cls-4" d="M395.92,343.57c-.75.14-1.53.29-2.32.46a4.13,4.13,0,0,0-.51.15.69.69,0,0,1-.24.06c-.12,0-.2-.07-.26-.21a6.41,6.41,0,0,1-.42-1.29c.21,0,.42,0,.65,0l.47,0c.82-.08,1.73-.22,2.72-.41a3.82,3.82,0,0,0,.66-.18.52.52,0,0,1,.22-.1.44.44,0,0,1,.28.1,4.21,4.21,0,0,1,.8.77.44.44,0,0,1,.14.29.31.31,0,0,1-.21.29,2.34,2.34,0,0,0-.52.38c-.25.24-.71.69-1.37,1.36l-1.22,1.21v0a3.82,3.82,0,0,1,1.91-.54,2.93,2.93,0,0,1,2.25.9,3.09,3.09,0,0,1-.56,4.49,5,5,0,0,1-2.91.78,2.88,2.88,0,0,1-1.86-.52,1.54,1.54,0,0,1-.56-1.24,1.32,1.32,0,0,1,.55-1.08,1.78,1.78,0,0,1,1.14-.38,2.22,2.22,0,0,1,1.51.5,2.36,2.36,0,0,1,.75,1.25,2.14,2.14,0,0,0,1-.78,1.9,1.9,0,0,0,.26-1.05,1.74,1.74,0,0,0-.59-1.38,1.92,1.92,0,0,0-1.29-.43,4.67,4.67,0,0,0-3.07,1.27c-.16.14-.5.48-1.05,1-.09.09-.16.13-.2.13a.28.28,0,0,1-.18-.1,4.8,4.8,0,0,1-.71-.79.13.13,0,0,1,0-.1c0-.05,0-.1.1-.17a30.28,30.28,0,0,0,2.84-2.65C394.87,344.79,395.49,344.1,395.92,343.57Zm-.09,7.39c-.16-.69-.5-1-1-1a.59.59,0,0,0-.43.15.37.37,0,0,0-.15.3c0,.42.35.62,1,.62A3.09,3.09,0,0,0,395.83,351Z"/><path class="cls-4" d="M391,356.21a4.54,4.54,0,0,1,1.52.4c.13.06.19.13.19.21a1,1,0,0,1-.1.34,4.47,4.47,0,0,0-.1,1.17,15.44,15.44,0,0,0,.22,2.74c.2,1.18.53,1.76,1,1.76a.75.75,0,0,0,.58-.42,7.23,7.23,0,0,0,.57-1.24,5,5,0,0,0,.77.92.35.35,0,0,1,.12.26.5.5,0,0,1,0,.19,3.28,3.28,0,0,1-1,1.45,1.64,1.64,0,0,1-1.09.42,1.79,1.79,0,0,1-1.43-.92,5.34,5.34,0,0,1-.81-2.21,21.28,21.28,0,0,1-.29-3.5A8,8,0,0,0,391,356.21Zm6.14,1.7c.4-.25.71-.43,1-.55a.34.34,0,0,1,.13,0,.19.19,0,0,1,.13.07,6.91,6.91,0,0,1,1.55,2,7.23,7.23,0,0,1,.8,2.11.2.2,0,0,1,0,.07.24.24,0,0,1-.14.2,4.93,4.93,0,0,1-.94.48h-.1q-.12,0-.15-.15a9.8,9.8,0,0,0-.88-2.41A8.51,8.51,0,0,0,397.09,357.91Z"/><path class="cls-4" d="M256.87,309.46l-1.51,0a.25.25,0,0,1-.12,0,.28.28,0,0,1,0-.11v-1c0-.06,0-.1,0-.12h.11l1.51,0h3.05v-1.44h-2l-1.65,0c-.06,0-.1,0-.11,0a.2.2,0,0,1,0-.11v-1c0-.07.05-.11.13-.11l1.65,0h2v-1.42c-.87.1-1.89.19-3.08.27h-.14a.3.3,0,0,1-.24-.07,1.25,1.25,0,0,1-.1-.28,3.55,3.55,0,0,0-.37-.81,38.86,38.86,0,0,0,4-.31,22.8,22.8,0,0,0,2.62-.5,6.86,6.86,0,0,0,1.07-.37,6.91,6.91,0,0,1,.85.89.37.37,0,0,1,.11.23c0,.08-.07.12-.2.12a2.61,2.61,0,0,0-.57.09,23.82,23.82,0,0,1-2.68.56v1.6h2l1.64,0c.08,0,.13,0,.13.11v1q0,.11,0,.12s-.05,0-.1,0l-1.64,0h-2v1.44h3l1.51,0c.07,0,.1,0,.12,0a.28.28,0,0,1,0,.11v1c0,.06,0,.1,0,.11a.2.2,0,0,1-.11,0l-1.51,0h-3v.4l0,1.63a1.86,1.86,0,0,1-.09.66,1.08,1.08,0,0,1-.3.39,4.09,4.09,0,0,1-2.05.3h-.14c-.12,0-.19,0-.23-.07a1.39,1.39,0,0,1-.08-.3,2.82,2.82,0,0,0-.33-1,10.53,10.53,0,0,0,1.39.08.5.5,0,0,0,.41-.13.45.45,0,0,0,.09-.32v-1.69Z"/><path class="cls-4" d="M255,325.11a6.69,6.69,0,0,0,1.89-3.6,5.29,5.29,0,0,0,.14-1,8.44,8.44,0,0,1,1.15.22c.16,0,.23.09.23.17a.37.37,0,0,1-.08.2,1.11,1.11,0,0,0-.21.53c-.06.3-.11.52-.15.68a3.73,3.73,0,0,0,1.44,1.57,2.67,2.67,0,0,0,.55.29v-4.41h-1.42l-1.65,0q-.11,0-.12,0a.23.23,0,0,1,0-.11l0-1.1v-1.77l0-1.1a.19.19,0,0,1,0-.13.2.2,0,0,1,.11,0l1.65,0h4.06l1.65,0a.19.19,0,0,1,.13,0,.35.35,0,0,1,0,.12l0,1.1v1.77l0,1.1c0,.06,0,.11,0,.12a.2.2,0,0,1-.11,0l-1.65,0h-1.37v1.62h1.82l1.8,0c.06,0,.1,0,.11,0a.19.19,0,0,1,0,.1v.95a.19.19,0,0,1,0,.1s-.05,0-.11,0l-1.8,0h-1.82v2a13.49,13.49,0,0,0,1.75.09,23.8,23.8,0,0,0,3.08-.21,5.07,5.07,0,0,0-.24.91c0,.2-.06.31-.11.34a.72.72,0,0,1-.33.07c-.77.07-1.55.1-2.33.1a11.8,11.8,0,0,1-2.63-.23,4.26,4.26,0,0,1-1.5-.61,5.21,5.21,0,0,1-1.38-1.39,7.66,7.66,0,0,1-1.27,2.12c-.13.15-.21.23-.26.23s-.14-.07-.26-.21A3.61,3.61,0,0,0,255,325.11Zm8.11-6.47v-1.93h-5.07v1.93Z"/><path class="cls-4" d="M261.31,330.82a14.44,14.44,0,0,1-1.5,5.16,2.33,2.33,0,0,1-2.05,1.39,1.83,1.83,0,0,1-1.53-.92,3.76,3.76,0,0,1-.59-2.16,4.29,4.29,0,0,1,1.36-3.13,5.28,5.28,0,0,1,3.9-1.53,4.59,4.59,0,0,1,3.51,1.33,3.94,3.94,0,0,1,1.06,2.83q0,3.25-3.7,4.37l-.17,0c-.12,0-.23-.08-.34-.25a2.61,2.61,0,0,0-.84-.75,6,6,0,0,0,2.69-1.24,3.07,3.07,0,0,0,.93-2.35,2.74,2.74,0,0,0-.84-2,2.53,2.53,0,0,0-1.84-.75Zm-1.4.07a3.69,3.69,0,0,0-2.05,1.09,3.31,3.31,0,0,0-.93,2.22,2.7,2.7,0,0,0,.29,1.33c.16.26.33.38.52.38s.63-.24.9-.73a10.15,10.15,0,0,0,.81-2.06A15.8,15.8,0,0,0,259.91,330.89Z"/><path class="cls-4" d="M244.74,302.21l1.21,0c.08,0,.12.05.12.14l0,1.1v1.29l0,1.09a.24.24,0,0,1,0,.13s-.05,0-.1,0l-1.21,0h-2v4.19l0,2.58c0,.06,0,.1,0,.11l-.1,0h-1a.23.23,0,0,1-.11,0,.2.2,0,0,1,0-.11l0-2.58v-5.2l0-2.6q0-.1,0-.12a.2.2,0,0,1,.11,0l1.41,0Zm.13.88h-2.11v.58h2.11Zm0,2v-.61h-2.11v.61Zm.24,4.84-1.55,0a.17.17,0,0,1-.12,0,.19.19,0,0,1,0-.1v-.69c0-.06,0-.1,0-.11s.05,0,.11,0l1.55,0h.76a6.55,6.55,0,0,0,0-.7h-.6l-1.49,0a.22.22,0,0,1-.12,0s0-.05,0-.11v-.69c0-.06,0-.1,0-.11a.2.2,0,0,1,.11,0l1.13,0a6.1,6.1,0,0,0-.42-.74.19.19,0,0,1,0-.1s0-.07.13-.1l.67-.22.12,0s.07,0,.12.09a7.53,7.53,0,0,1,.59,1.1H247l.33-.72a3.13,3.13,0,0,0,.15-.51c.4.08.73.16,1,.23s.2.1.2.17,0,.09-.1.14a.68.68,0,0,0-.2.24l-.23.45,1.14,0q.1,0,.12,0a.19.19,0,0,1,0,.1v.69c0,.06,0,.1,0,.11s0,0-.11,0l-1.49,0H247a4.77,4.77,0,0,1-.06.7h1l1.55,0a.2.2,0,0,1,.11,0,.23.23,0,0,1,0,.11v.69a.1.1,0,0,1-.13.13l-1.55,0h-.68a4.78,4.78,0,0,0,2.18,1.16,2.35,2.35,0,0,0-.27.4,4.92,4.92,0,0,0,.64,0,.55.55,0,0,0,.42-.12.58.58,0,0,0,.08-.35v-5.11h-2L247,306a.2.2,0,0,1-.11,0,.31.31,0,0,1,0-.13l0-1v-1.47l0-1a.22.22,0,0,1,0-.12.23.23,0,0,1,.11,0l1.33,0h1.79l1.34,0c.07,0,.1,0,.11,0s0,.05,0,.11l0,1.6v5l0,2.39a1.57,1.57,0,0,1-.33,1.11,2.23,2.23,0,0,1-1.44.33.8.8,0,0,1-.42-.06.62.62,0,0,1-.1-.31,2.51,2.51,0,0,0-.2-.69l-.06.15q-.12.24-.21.24a.67.67,0,0,1-.27-.08,4.79,4.79,0,0,1-2-1.54,4.21,4.21,0,0,1-2.32,1.85,1,1,0,0,1-.28.08c-.06,0-.13-.07-.21-.22a2.61,2.61,0,0,0-.54-.68,3.53,3.53,0,0,0,2.43-1.53Zm5.23-6.83h-2.28v.58h2.28Zm-2.28,2h2.28v-.61h-2.28Z"/><path class="cls-4" d="M240.93,317.79a5.22,5.22,0,0,0,1.59-2,2.49,2.49,0,0,0,.23-.65c.32,0,.69.1,1.1.18.13,0,.19.08.19.16a.26.26,0,0,1-.14.21.79.79,0,0,0-.19.3l-.1.24h1.24l1.43,0a.19.19,0,0,1,.13,0,.22.22,0,0,1,0,.1v.75c0,.06,0,.1,0,.11s0,0-.11,0l-1.4,0a6,6,0,0,1,.42.87.33.33,0,0,1,0,.1s0,.06-.13.07l-.9.15h-.1s-.08,0-.1-.12a5.13,5.13,0,0,0-.45-1.08h-.57a7.28,7.28,0,0,1-.93,1.06c-.13.13-.22.2-.27.2s-.14-.07-.28-.2A2.59,2.59,0,0,0,240.93,317.79Zm4.71,5.3a12,12,0,0,1,1.13,2.19.36.36,0,0,1,0,.11s0,.08-.12.12l-.74.31-.12.05s0,0-.08-.11-.17-.47-.31-.81c-.84.28-2,.57-3.34.88a1.67,1.67,0,0,0-.44.18.24.24,0,0,1-.18.08.22.22,0,0,1-.2-.15,8.84,8.84,0,0,1-.3-1.11,9.15,9.15,0,0,0,1-.1v-4.42l0-1.55a.23.23,0,0,1,0-.11h.11l1.36,0H245l1.14,0c.06,0,.1,0,.11,0a.19.19,0,0,1,0,.1l0,1.18v1.51l0,1.18a.2.2,0,0,1,0,.11.23.23,0,0,1-.11,0l-1.14,0H243.1v1.77c.76-.15,1.39-.3,1.89-.44-.07-.13-.18-.32-.34-.58a.23.23,0,0,1,0-.09s0-.08.11-.11l.67-.24.13,0A.14.14,0,0,1,245.64,323.09Zm-.53-3.54h-2v.69h2Zm0,2.3v-.77h-2v.77Zm1-4.07a6.29,6.29,0,0,0,1.24-2,2.94,2.94,0,0,0,.17-.64c.4.05.74.11,1,.17.13,0,.2.08.2.16a.25.25,0,0,1-.13.21c-.05,0-.1.14-.17.33l-.08.21h1.81l1.58,0a.17.17,0,0,1,.12,0,.22.22,0,0,1,0,.1v.75c0,.06,0,.1,0,.11s-.05,0-.11,0l-1.58,0h-.39a5,5,0,0,1,.49.87.23.23,0,0,1,0,.09s0,.06-.13.08l-.83.17h-.1c-.06,0-.1,0-.13-.11a5.2,5.2,0,0,0-.55-1.11h-.66a7.1,7.1,0,0,1-.64.93c-.12.14-.2.22-.25.22a1.11,1.11,0,0,1-.28-.2A2.15,2.15,0,0,0,246.09,317.78Zm2.87,6.11a5.51,5.51,0,0,0,.77.05c.2,0,.33,0,.39-.1a.49.49,0,0,0,.07-.32v-3.84h-1.82v4.88l0,1.56a.29.29,0,0,1,0,.12h-1.1c-.06,0-.1,0-.11,0a.23.23,0,0,1,0-.11l0-1.61v-4.12l0-1.64c0-.06,0-.1,0-.11a.2.2,0,0,1,.11,0l1.25,0H250l1.25,0a.19.19,0,0,1,.13,0,.19.19,0,0,1,0,.1l0,1.55v3.4a1.29,1.29,0,0,1-.34,1.06,2.42,2.42,0,0,1-1.36.33h-.14c-.11,0-.18,0-.21-.07a1,1,0,0,1-.08-.3A2.35,2.35,0,0,0,249,323.89Z"/><path class="cls-4" d="M244.39,332c.12-.43.24-.94.36-1.51a8.1,8.1,0,0,0,.12-1.33,10.94,10.94,0,0,1,1.44.39.23.23,0,0,1,.19.24.25.25,0,0,1-.08.18,1.54,1.54,0,0,0-.24.46c-.06.18-.14.43-.23.76s-.16.53-.21.68a9.66,9.66,0,0,1,1-.05q1.71,0,1.71,2.31a12.35,12.35,0,0,1-.19,2.18,6.37,6.37,0,0,1-.46,1.59,1.69,1.69,0,0,1-1.62,1.12,3.17,3.17,0,0,1-1.24-.18.33.33,0,0,1-.22-.34,3.92,3.92,0,0,0-.23-1.11,3.22,3.22,0,0,0,1.38.31.72.72,0,0,0,.49-.15,1.34,1.34,0,0,0,.28-.49,8.47,8.47,0,0,0,.47-3,1.68,1.68,0,0,0-.16-.9.62.62,0,0,0-.53-.21,7,7,0,0,0-1,.09A35.44,35.44,0,0,1,243,338.7c0,.1-.1.14-.17.14a.27.27,0,0,1-.14,0,3.42,3.42,0,0,1-.83-.52.28.28,0,0,1-.09-.18.2.2,0,0,1,0-.13,28,28,0,0,0,2.2-4.71l-1.17.21a3.28,3.28,0,0,0-.66.19l-.15,0a.25.25,0,0,1-.24-.19,11.78,11.78,0,0,1-.37-1.24c.44,0,1,0,1.58-.08C243.41,332.14,243.88,332.08,244.39,332Zm4.14-.09c.45-.31.77-.51,1-.62l.08,0a.28.28,0,0,1,.15.08,7.89,7.89,0,0,1,2,2.92.26.26,0,0,1,0,.1.19.19,0,0,1-.08.14,3.69,3.69,0,0,1-.9.6l-.12,0a.14.14,0,0,1-.15-.13A8.19,8.19,0,0,0,248.53,331.91Zm.66-1.85.64-.44a.11.11,0,0,1,.07,0,.14.14,0,0,1,.1.05,5.37,5.37,0,0,1,1.15,1.28.16.16,0,0,1,0,.09s0,.07-.07.11l-.5.37a.26.26,0,0,1-.1,0s-.07,0-.11-.08A6,6,0,0,0,249.19,330.06Zm1.11-.8.59-.43.08,0a.25.25,0,0,1,.11.05,5,5,0,0,1,1.13,1.25.12.12,0,0,1,0,.09.19.19,0,0,1-.07.12l-.48.37a.16.16,0,0,1-.1,0s-.07,0-.11-.07A5.72,5.72,0,0,0,250.3,329.26Z"/><path class="cls-4" d="M229.93,304.1v2a16.49,16.49,0,0,1-.32,3.76,7.44,7.44,0,0,1-1.28,2.79c-.1.14-.18.21-.22.21s-.12-.08-.24-.22a2.64,2.64,0,0,0-.7-.65,5.51,5.51,0,0,0,1.33-2.6,6.1,6.1,0,0,0,.17-.95c-.32.2-.6.36-.81.47a1.79,1.79,0,0,0-.38.24.28.28,0,0,1-.17.1c-.07,0-.12-.05-.16-.15-.12-.37-.22-.72-.3-1.06a6,6,0,0,0,1-.31,8.6,8.6,0,0,0,1-.45c0-.25,0-.65,0-1.18l0-3a.23.23,0,0,1,0-.11h.11l1.65,0h2v-.18a4,4,0,0,0-.1-.92c.56,0,1,0,1.28.06.14,0,.21.05.21.13a1.15,1.15,0,0,1-.09.22,2,2,0,0,0,0,.47v.22h2.39l1.63,0c.06,0,.1,0,.11,0a.22.22,0,0,1,0,.1V304c0,.06,0,.09,0,.11h-.1l-1.63,0Zm-2,0a12.77,12.77,0,0,1,.74,1.75.51.51,0,0,1,0,.09c0,.06,0,.1-.13.15l-.59.36a.3.3,0,0,1-.14.06s-.06,0-.08-.11a12.75,12.75,0,0,0-.73-1.82l0-.09s0-.07.13-.12l.57-.31a.4.4,0,0,1,.15-.05S227.92,304,228,304.09Zm7.24,7.81a6.31,6.31,0,0,0,.66,0,.3.3,0,0,0,.34-.33v-.54h-1.81v.3l0,1.38a.16.16,0,0,1,0,.1s-.07,0-.13,0h-.89c-.09,0-.14,0-.14-.12l0-1.38v-.3h-1.66v.47l0,1.38c0,.06,0,.1,0,.12h-1q-.11,0-.12,0s0,0,0-.1l0-1.37V308.4l0-1.39a.2.2,0,0,1,0-.11l.12,0,1.61,0h.52c-.23-.16-.52-.35-.88-.57-.05,0-.08,0-.08-.07s0-.06.11-.11l.59-.38a.37.37,0,0,1,.16-.07l.11,0c.52.38.91.67,1.16.87a11,11,0,0,0,1.29-.95h-2.86l-1.57,0c-.08,0-.12,0-.12-.13v-.73c0-.09,0-.13.12-.13l1.57,0h3.42a.73.73,0,0,0,.31,0l.17,0c.09,0,.24.11.44.33s.37.43.37.49-.06.15-.18.2a1.76,1.76,0,0,0-.46.3,11.91,11.91,0,0,1-1.32,1h.54l1.63,0c.09,0,.13,0,.13.13l0,1.5v1.66l0,1.67a1.18,1.18,0,0,1-.32.94,2.55,2.55,0,0,1-1.2.23c-.19,0-.31,0-.34-.06a.7.7,0,0,1-.1-.31A2.15,2.15,0,0,0,235.19,311.9Zm-3.61-3.31h1.66v-.78h-1.66Zm0,1.63h1.66v-.78h-1.66Zm4.61-2.41h-1.81v.78h1.81Zm-1.81,2.41h1.81v-.78h-1.81Z"/><path class="cls-4" d="M230,317.57v-1.06a3.33,3.33,0,0,0-.14-1,7.48,7.48,0,0,1,1.43.21c.16,0,.25.1.25.2a.59.59,0,0,1-.1.28,1.08,1.08,0,0,0-.09.41c0,.08,0,.21,0,.36s0,.34,0,.44c.59-.09,1.14-.2,1.66-.33h.13c.06,0,.09.05.1.16a7.34,7.34,0,0,1,.06.87.17.17,0,0,1-.15.18,15,15,0,0,1-1.86.33c0,.53,0,1.24-.07,2.16a2.57,2.57,0,0,1,.11.8,2.05,2.05,0,0,1-.58,1.57,1.53,1.53,0,0,0-.17.72.63.63,0,0,0,.34.59,3,3,0,0,0,1.23.19c1.84,0,2.76-.48,2.76-1.42a5.67,5.67,0,0,0-.24-1.58,4.76,4.76,0,0,0,1.21.34.27.27,0,0,1,.24.22,4.58,4.58,0,0,1,.18,1.32q0,2.36-4,2.36a4.51,4.51,0,0,1-2.4-.47,1.36,1.36,0,0,1-.63-1.23,2.61,2.61,0,0,1,.12-.79h-.19a1.3,1.3,0,0,1-1.09-.58,1.91,1.91,0,0,1-.35-1.15,2,2,0,0,1,.52-1.41,1.42,1.42,0,0,1,1.07-.48,2,2,0,0,1,.64.1c0-.52,0-.91,0-1.16-.42,0-.87,0-1.33,0H228c-.09,0-.15-.06-.16-.18s-.07-.56-.1-1c.35,0,.7,0,1.06,0Zm-.56,3.21a.55.55,0,0,0-.51.26.94.94,0,0,0-.15.55c0,.55.23.81.7.8a.54.54,0,0,0,.46-.28,1.07,1.07,0,0,0,.15-.6.78.78,0,0,0-.2-.56A.61.61,0,0,0,229.47,320.78Zm5-2.09c.3-.35.55-.63.77-.84a.21.21,0,0,1,.14-.08l.11,0a7,7,0,0,1,1.33.81,7.22,7.22,0,0,1,.94.84.21.21,0,0,1,.05.12.28.28,0,0,1-.05.12,6,6,0,0,1-.69.84.24.24,0,0,1-.13.07s-.08,0-.13-.1A7.17,7.17,0,0,0,234.5,318.69Z"/><line class="cls-3" x1="431.54" y1="287.51" x2="61.54" y2="287.51"/><line class="cls-3" x1="62.04" y1="7.01" x2="62.04" y2="287.01"/></g></g></g></g></svg>