<svg xmlns="http://www.w3.org/2000/svg" xmlns:xlink="http://www.w3.org/1999/xlink" viewBox="0 0 472.17 361.69"><defs><style>.cls-1{isolation:isolate;}.cls-2{fill:#999;}.cls-3{fill:#0045a8;}.cls-4{fill:#08776c;}.cls-5{fill:#009b97;}.cls-6{fill:#0f298f;}.cls-7{fill:#225e7c;}.cls-8{fill:#0070c4;}.cls-9{fill:#00a0c6;}.cls-10{fill:#0af;}.cls-11{fill:#00cfff;}.cls-12{fill:#66e2ff;}.cls-13{opacity:0.25;mix-blend-mode:soft-light;}.cls-14{fill:url(#radial-gradient);}.cls-15{fill:#3e3a39;}.cls-16{fill:#4d4d4d;}.cls-17{fill:#fff;}.cls-17,.cls-18{stroke:#231815;stroke-miterlimit:10;}.cls-18{fill:none;}</style><radialGradient id="radial-gradient" cx="-659.24" cy="-1660.41" r="130.45" gradientTransform="translate(869.32 3325.97) scale(0.95 1.89)" gradientUnits="userSpaceOnUse"><stop offset="0" stop-color="#fff" stop-opacity="0.3"/><stop offset="0.99"/></radialGradient></defs><title>chart B</title><g class="cls-1"><g id="レイヤー_2" data-name="レイヤー 2"><g id="tokucho"><g id="chart_B" data-name="chart B"><path class="cls-2" d="M245.76,185.43,173.29,85.68c22-16,45.47-23.55,72.47-23.55Z"/><path class="cls-3" d="M246,185.43,166.75,91c2.08-1.75,4.57-3.69,6.78-5.29Z"/><path class="cls-4" d="M246,185.43l-90.18-84.09A113.94,113.94,0,0,1,166.75,91Z"/><path class="cls-5" d="M246,185.43,146.25,113a114.34,114.34,0,0,1,9.57-11.61Z"/><path class="cls-6" d="M246,185.43,134.25,133.32a119.68,119.68,0,0,1,12-20.37Z"/><path class="cls-7" d="M246,185.43,126.36,155.6a119.46,119.46,0,0,1,7.89-22.28Z"/><path class="cls-8" d="M246,185H122.7a118.91,118.91,0,0,1,3.66-29.83Z"/><path class="cls-9" d="M246,185l-77.59,95.82C138.77,256.83,122.7,224,122.7,185Z"/><path class="cls-10" d="M246,185.43l23.53,121c-37.44,7.28-71.49-1.21-101.12-25.21Z"/><path class="cls-11" d="M246,185.43l123-8.6a122.77,122.77,0,0,1-99.47,129.63Z"/><path class="cls-12" d="M245.76,185.43V62.13a122.71,122.71,0,0,1,123,114.7Z"/><g class="cls-13"><path class="cls-14" d="M245.76,185.43,173.29,85.68c22-16,45.47-23.55,72.47-23.55Z"/><path class="cls-14" d="M246,185.43,166.75,91c2.08-1.75,4.57-3.69,6.78-5.29Z"/><path class="cls-14" d="M246,185.43l-90.18-84.09A113.94,113.94,0,0,1,166.75,91Z"/><path class="cls-14" d="M246,185.43,146.25,113a114.34,114.34,0,0,1,9.57-11.61Z"/><path class="cls-14" d="M246,185.43,134.25,133.32a119.68,119.68,0,0,1,12-20.37Z"/><path class="cls-14" d="M246,185.43,126.36,155.6a119.46,119.46,0,0,1,7.89-22.28Z"/><path class="cls-14" d="M246,185H122.7a118.91,118.91,0,0,1,3.66-29.83Z"/><path class="cls-14" d="M246,185l-77.59,95.82C138.77,256.83,122.7,224,122.7,185Z"/><path class="cls-14" d="M246,185.43l23.53,121c-37.44,7.28-71.49-1.21-101.12-25.21Z"/><path class="cls-14" d="M246,185.43l123-8.6a122.77,122.77,0,0,1-99.47,129.63Z"/><path class="cls-14" d="M245.76,185.43V62.13a122.71,122.71,0,0,1,123,114.7Z"/></g><path class="cls-15" d="M341.68,1.19c0,.06,0,.09-.1.09l-1.66,0h-7V3.12a27.77,27.77,0,0,1-.26,4.12,10,10,0,0,1-1.05,3.1q-.07.15-.12.15s-.08-.05-.16-.14a1.41,1.41,0,0,0-.46-.35A7.42,7.42,0,0,0,332,7a27.6,27.6,0,0,0,.23-3.85l0-2.45a.09.09,0,0,1,.1-.1L334,.6h5.93l1.66,0a.09.09,0,0,1,.1.1Zm.07,7.38c0,.06,0,.1-.09.1l-1.68,0h-2.16V9.89a.82.82,0,0,1-.31.7,3.32,3.32,0,0,1-1.53.21.45.45,0,0,1-.21,0,.44.44,0,0,1-.06-.18,1.25,1.25,0,0,0-.22-.52c.44,0,.8,0,1.07,0A.61.61,0,0,0,337,10a.67.67,0,0,0,.09-.41V8.64H334.9l-1.68,0c-.06,0-.09,0-.09-.1V8.12c0-.07,0-.1.09-.1l1.68,0h2.21a4.29,4.29,0,0,0-.07-.62l.48.07a10.7,10.7,0,0,0,1.59-.81H335.7l-1.62,0c-.07,0-.1,0-.1-.09V6.18c0-.07,0-.11.1-.11l1.62,0h4.09l.12,0s.14,0,.27.17.24.23.24.3,0,.1-.14.12l-.34.19a21.11,21.11,0,0,1-2.09,1.08l0,.13H340l1.68,0c.06,0,.09,0,.09.1Zm-1.34-3.33c0,.07,0,.1-.09.1l-1.6,0H336l-1.58,0c-.07,0-.1,0-.1-.1l0-1V3.12l0-1c0-.07,0-.1.1-.1l1.58,0h2.73l1.6,0c.06,0,.09,0,.09.1l0,1V4.25Zm-.72-1.84V2.6H335v.8Zm0,1.36V3.94H335v.82Z"/><path class="cls-15" d="M354.52,10.05c0,.07,0,.1-.09.1l-1.58,0h-7l-1.59,0c-.06,0-.09,0-.09-.1V9.5c0-.06,0-.1.09-.1l1.59,0H349V6.73h-1.48l-1.68,0c-.06,0-.09,0-.09-.1V6.12c0-.07,0-.1.09-.1l1.68,0H349V3.57h-2.83a9.67,9.67,0,0,1-1.24,1.93c-.06.07-.11.1-.13.1s-.09,0-.19-.12a1.33,1.33,0,0,0-.42-.25,10,10,0,0,0,2-3.65,2.13,2.13,0,0,0,.13-.69,3.85,3.85,0,0,1,.73.21q.15,0,.15.12a.22.22,0,0,1-.1.17,1.07,1.07,0,0,0-.19.39c-.28.73-.43,1.1-.43,1.11H349v-1a9.54,9.54,0,0,0-.1-1.65c.28,0,.56,0,.84.07.1,0,.15,0,.15.1a.22.22,0,0,1,0,.1.49.49,0,0,0,0,.12,5.86,5.86,0,0,0-.08,1.24v1h2.22l1.69,0a.08.08,0,0,1,.09.09V3.5a.08.08,0,0,1-.09.09l-1.69,0h-2.22V6.05h1.67l1.68,0a.09.09,0,0,1,.1.1v.54a.09.09,0,0,1-.1.1l-1.68,0h-1.67v2.7h3.14l1.58,0c.06,0,.09,0,.09.1Z"/><path class="cls-15" d="M366.13,5.67l-.06,1a15.75,15.75,0,0,1-.36,2.83,1.38,1.38,0,0,1-1.49,1.12c-.36,0-.71,0-1,0a.48.48,0,0,1-.21,0s0-.06,0-.14a1.71,1.71,0,0,0-.21-.6,9.56,9.56,0,0,0,1.47.11.79.79,0,0,0,.62-.25,1.42,1.42,0,0,0,.25-.64,15.69,15.69,0,0,0,.29-2.81h-3.07a5.42,5.42,0,0,1-.84,2.23,6.11,6.11,0,0,1-3.33,2.18l-.18,0c-.05,0-.11-.06-.18-.19a1.29,1.29,0,0,0-.36-.41,5.69,5.69,0,0,0,3.45-2,4.73,4.73,0,0,0,.71-1.86h-1.31l-1.68,0c-.07,0-.1,0-.1-.09V5.66c0-.06,0-.09.1-.09l1.68,0h1.41l0-.49c0-.27,0-.47,0-.6a3.13,3.13,0,0,0,0-.56c.25,0,.51.06.77.1s.2.08.2.14a.44.44,0,0,1-.07.2,1.35,1.35,0,0,0-.14.6,4,4,0,0,1-.06.61h2l1.69,0C366.1,5.57,366.13,5.6,366.13,5.67Zm1.1-.48a.08.08,0,0,1-.09.09h-.56a.08.08,0,0,1-.09-.09V3.46h-8.22V5.19c0,.06,0,.09-.1.09h-.56a.08.08,0,0,1-.09-.09l0-1.26v-.4l0-.65c0-.07,0-.1.09-.1l1.67,0h4.82a21.66,21.66,0,0,0,1-2,2.25,2.25,0,0,0,.15-.54,3.82,3.82,0,0,1,.71.26c.09,0,.14.09.14.14a.21.21,0,0,1-.09.13,1,1,0,0,0-.22.26c-.32.6-.66,1.18-1,1.76h.64l1.67,0c.06,0,.09,0,.09.1l0,.58v.47ZM360.34,2.1a.11.11,0,0,1,0,0s0,.06-.13.11l-.34.18-.15.05s-.05,0-.07-.08a6.77,6.77,0,0,0-1-1.64.15.15,0,0,1,0-.06s0-.07.11-.1l.34-.16a.24.24,0,0,1,.12,0s.05,0,.08.06A9,9,0,0,1,360.34,2.1ZM363,1.87a.17.17,0,0,1,0,.07s0,.05-.12.09l-.35.16-.15,0s0,0-.06-.07A6.59,6.59,0,0,0,361.5.5a.15.15,0,0,1,0-.06s0-.06.14-.09l.32-.13.1,0s.05,0,.08.06A7.29,7.29,0,0,1,363,1.87Z"/><path class="cls-15" d="M372.94.46s0,.09-.11.16a1.08,1.08,0,0,0-.23.46c-.3.84-.54,1.49-.75,2V8.91l0,1.85c0,.07,0,.1-.1.1h-.54a.09.09,0,0,1-.1-.1l0-1.85v-3c0-.32,0-.85,0-1.58a11.75,11.75,0,0,1-.8,1.19c-.06.07-.1.11-.14.11s-.05,0-.09-.13A2.4,2.4,0,0,0,369.9,5,11.6,11.6,0,0,0,372,.89a4,4,0,0,0,.17-.82,5.75,5.75,0,0,1,.68.24C372.89.35,372.94.4,372.94.46Zm4.25,2.45c0,.06,0,.09-.08.09l-1.35,0h-.51v.75h.46l1.28,0c.07,0,.11,0,.11.09l0,1V5.9l0,1c0,.06,0,.09-.11.09l-1.28,0h-.46v.78h.35l1.26,0a.08.08,0,0,1,.09.09v.41a.08.08,0,0,1-.09.09l-1.26,0h-.35v.86c.67-.11,1.21-.22,1.61-.32l-.07.36a.46.46,0,0,1-.07.23.52.52,0,0,1-.21.06c-.75.16-1.79.34-3.12.53a1.47,1.47,0,0,0-.52.13.29.29,0,0,1-.16.06s-.07,0-.1-.16a5.11,5.11,0,0,1-.15-.62h.23c.25,0,.54,0,.88,0s.63-.07,1.08-.14v-1h-.54l-1.26,0c-.07,0-.1,0-.1-.09V7.81c0-.06,0-.09.1-.09l1.26,0h.54V7h-.39L373,7c-.06,0-.1,0-.1-.09l0-1V4.8l0-1c0-.06,0-.09.1-.09l1.28,0h.39V3H374l-1.35,0a.08.08,0,0,1-.09-.09V2.48a.08.08,0,0,1,.09-.09l1.35,0h.61V1.59c-.41.07-.83.13-1.25.17l-.11,0c-.06,0-.13-.06-.19-.18a1.61,1.61,0,0,0-.26-.38A14.35,14.35,0,0,0,376.07.7a2.32,2.32,0,0,0,.49-.22,3.28,3.28,0,0,1,.42.41.25.25,0,0,1,.07.16c0,.06-.05.09-.16.09a1.2,1.2,0,0,0-.33.05c-.39.1-.83.2-1.31.29v.93h.51l1.35,0c.05,0,.08,0,.08.09Zm-2.54,2.16V4.25h-1.16v.82Zm0,1.38V5.58h-1.16v.87Zm1.84-1.38V4.25h-1.24v.82Zm0,1.38V5.58h-1.24v.87Zm4.38-3.33c0,.25,0,.6,0,1.07a45.64,45.64,0,0,1-.3,5.28,1.68,1.68,0,0,1-.4.95,1.09,1.09,0,0,1-.77.26c-.26,0-.51,0-.76,0-.09,0-.14,0-.16-.06a1,1,0,0,1-.05-.21,1.34,1.34,0,0,0-.15-.49,5.48,5.48,0,0,0,1,.11.47.47,0,0,0,.45-.24,1.68,1.68,0,0,0,.19-.6,41.5,41.5,0,0,0,.27-5.5h-1.05a22.74,22.74,0,0,1-.39,3.28,7.11,7.11,0,0,1-1.93,3.71c-.06.07-.11.1-.13.1s-.08,0-.15-.12a2.16,2.16,0,0,0-.43-.29,6.25,6.25,0,0,0,2-3.62,19.69,19.69,0,0,0,.35-3.06l-1,0c-.06,0-.09,0-.09-.1V3.11c0-.07,0-.1.09-.1l1,0c0-.56,0-1,0-1.3a9.72,9.72,0,0,0-.09-1.48,4.86,4.86,0,0,1,.73.08q.15,0,.15.12a1.23,1.23,0,0,1-.07.25,4.46,4.46,0,0,0-.08,1.12c0,.26,0,.66,0,1.21h.49l1.11,0A.1.1,0,0,1,380.87,3.12Z"/><path class="cls-15" d="M392.66,10.71c0,.06,0,.09-.1.09H392a.08.08,0,0,1-.09-.09v-.49H386.8v.52c0,.06,0,.09-.1.09h-.55a.08.08,0,0,1-.09-.09l0-2.48V5.66c-.55.16-1.25.32-2.08.49l-.14,0c-.07,0-.13-.07-.19-.21a1.64,1.64,0,0,0-.29-.41A15.7,15.7,0,0,0,390.46,3a2.52,2.52,0,0,0,.57-.56,4.42,4.42,0,0,1,.52.43c.08.07.11.12.11.17s-.05.1-.15.14a3.51,3.51,0,0,0-.6.34,13.47,13.47,0,0,1-3,1.59h3l1.66,0c.07,0,.1,0,.1.1l0,1.77V8.27ZM387,1.14c0,.05-.05.11-.14.17a2.05,2.05,0,0,0-.25.31,8.14,8.14,0,0,1-2.11,2.11.46.46,0,0,1-.18.09s-.1,0-.18-.15a1.51,1.51,0,0,0-.4-.32,6.75,6.75,0,0,0,2.06-1.8,2.94,2.94,0,0,0,.44-.83,5.16,5.16,0,0,1,.65.29A.16.16,0,0,1,387,1.14Zm4.91,5.47V5.7H386.8v.91Zm0,1.46V7.15H386.8v.92Zm0,1.56v-1H386.8v1ZM389.42.19a.66.66,0,0,1-.07.23,2.24,2.24,0,0,0-.05.59v.65l0,1a.9.9,0,0,1-.33.77,2.22,2.22,0,0,1-1.2.23h-.36a.4.4,0,0,1-.21,0,.5.5,0,0,1-.08-.19,3.18,3.18,0,0,0-.21-.51,8.27,8.27,0,0,0,1,.08.68.68,0,0,0,.54-.16.55.55,0,0,0,.1-.39V1.1A5.65,5.65,0,0,0,388.51,0l.75.06C389.37.11,389.42.14,389.42.19Zm4.83,2.87a1.67,1.67,0,0,0-.36.39c-.08.11-.14.17-.17.17a.34.34,0,0,1-.17-.09A10.35,10.35,0,0,1,391,1.13a.2.2,0,0,1,0-.08s0-.07.12-.11l.28-.16a.24.24,0,0,1,.13-.05.09.09,0,0,1,.07,0A8.17,8.17,0,0,0,394.25,3.06Z"/><path class="cls-15" d="M412,6.5a.09.09,0,0,1-.1.1l-1.57,0H407.1v2.9l0,1.27a.08.08,0,0,1-.09.09h-.64c-.07,0-.1,0-.1-.09l0-1.27V6.57h-3.16l-1.56,0c-.06,0-.09,0-.09-.1V5.94c0-.07,0-.1.09-.1l1.56,0h3.16V1.48h-2.49l-1.66,0a.08.08,0,0,1-.09-.09V.85a.08.08,0,0,1,.09-.09l1.66,0h5.94l1.64,0c.07,0,.1,0,.1.09v.56c0,.06,0,.09-.1.09l-1.64,0H407.1V5.87h3.25l1.57,0a.09.09,0,0,1,.1.1ZM404.9,4.83l0,.06s0,.06-.11.09l-.41.17-.15,0s-.05,0-.07-.09a11.93,11.93,0,0,0-1.3-2.6l0-.06s0-.07.14-.11l.34-.18a.22.22,0,0,1,.1,0s0,0,.07.07A11.78,11.78,0,0,1,404.9,4.83Zm5.85-2.36s0,.08-.11.14a1.17,1.17,0,0,0-.22.33,13.85,13.85,0,0,1-1.31,2.18c-.08.11-.13.16-.16.16l-.18-.09a1.37,1.37,0,0,0-.44-.21,10.85,10.85,0,0,0,1.42-2.34,2.63,2.63,0,0,0,.18-.6,5.62,5.62,0,0,1,.71.3C410.71,2.38,410.75,2.42,410.75,2.47Z"/><path class="cls-15" d="M425,8.75c-.12,1.24-.51,1.87-1.16,1.87s-1.52-.76-2.28-2.26a9.92,9.92,0,0,1-2.57,2.22.59.59,0,0,1-.17.07s-.12-.06-.21-.17a1.29,1.29,0,0,0-.36-.31,9.19,9.19,0,0,0,3-2.55,15.8,15.8,0,0,1-1-4.81H416V4.76h1.84l1,0a.1.1,0,0,1,.11.11l-.07,1.25a13.34,13.34,0,0,1-.2,1.94,1.14,1.14,0,0,1-1.21,1,5.35,5.35,0,0,1-.76,0q-.15,0-.18-.06a.68.68,0,0,1-.06-.22,1.83,1.83,0,0,0-.19-.51,7.62,7.62,0,0,0,1.1.11.56.56,0,0,0,.41-.13.83.83,0,0,0,.23-.48,15.28,15.28,0,0,0,.18-2.32H416a15,15,0,0,1-.17,2.26,8.39,8.39,0,0,1-1,3c-.07.11-.12.16-.14.16s-.08,0-.15-.13a1.67,1.67,0,0,0-.44-.34,6.63,6.63,0,0,0,1-2.94,22,22,0,0,0,.15-2.78l0-2.38a.1.1,0,0,1,.11-.11l1.68,0h3.1V1.56c0-.7-.05-1.19-.09-1.46a7.23,7.23,0,0,1,.79.07c.1,0,.16.06.16.12a.33.33,0,0,1-.06.19,3.14,3.14,0,0,0-.07.8v.25l0,.61h2l1.67,0c.06,0,.09,0,.09.1v.52c0,.06,0,.1-.09.1l-1.67,0h-2a14.68,14.68,0,0,0,.77,4.13,11.57,11.57,0,0,0,.94-1.77,4.45,4.45,0,0,0,.32-1.07,3,3,0,0,1,.67.24c.1,0,.15.11.15.16s-.05.11-.15.23a5.77,5.77,0,0,0-.29.57A12.85,12.85,0,0,1,422,7.71a5.88,5.88,0,0,0,1,1.59c.31.33.56.49.78.49s.53-.57.57-1.72a2.05,2.05,0,0,0,.42.32c.14.08.22.16.22.23A1.05,1.05,0,0,1,425,8.75Zm-1.22-7.43s0,.05,0,.07,0,.07-.09.12l-.25.21a.27.27,0,0,1-.15.08.1.1,0,0,1-.08-.05,4.67,4.67,0,0,0-1.11-1S422,.64,422,.62s0-.07.09-.12l.24-.18a.31.31,0,0,1,.12-.06l.08,0A5.59,5.59,0,0,1,423.73,1.32Z"/><path class="cls-15" d="M433.5,1V9h1.63v.8H430.8V9h1.74V2.05a8.19,8.19,0,0,1-1.73.87L430.64,2a7.83,7.83,0,0,0,2-1Z"/><path class="cls-15" d="M439,8.31a1.16,1.16,0,0,0,1.11.84,1.53,1.53,0,0,0,1.44-.94,6.88,6.88,0,0,0,.48-2.73,2.13,2.13,0,0,1-3.63.37,3,3,0,0,1-.59-1.91,3.22,3.22,0,0,1,.78-2.28,2.28,2.28,0,0,1,1.7-.71,2.24,2.24,0,0,1,2.05,1.12A5.7,5.7,0,0,1,443,5c0,3.27-.95,4.91-2.87,4.91a2.08,2.08,0,0,1-2.07-1.19Zm3-3.73c0-1.88-.58-2.83-1.66-2.83a1.29,1.29,0,0,0-1.16.66,2.83,2.83,0,0,0-.35,1.52,2.18,2.18,0,0,0,.47,1.5,1.25,1.25,0,0,0,1,.45A1.91,1.91,0,0,0,442,4.58Z"/><path class="cls-15" d="M459.07,7.93c0,.07,0,.1-.09.1l-1.57,0h-2.7v.81l0,2a.07.07,0,0,1-.08.08H454c-.07,0-.1,0-.1-.08l0-2V8h-3.64l-1.58,0c-.06,0-.09,0-.09-.1V7.39c0-.06,0-.1.09-.1l1.58,0h.35V5.56l0-1a.08.08,0,0,1,.09-.09l1.69,0H454v-2h-2.73a12.19,12.19,0,0,1-1.53,1.86c-.07.09-.13.13-.16.13s-.08,0-.16-.14A1.2,1.2,0,0,0,449,4,9.62,9.62,0,0,0,451.32.83a3.42,3.42,0,0,0,.26-.79c.2,0,.45.12.74.22a.18.18,0,0,1,.12.16.26.26,0,0,1-.11.17A1.05,1.05,0,0,0,452,1c-.18.35-.31.61-.41.78h5.05l1.67,0c.07,0,.1,0,.1.09v.52c0,.06,0,.09-.1.09l-1.67,0h-2v2h1.45l1.66,0a.08.08,0,0,1,.09.09V5c0,.07,0,.1-.09.1l-1.66,0h-1.45V7.32h2.7l1.57,0c.06,0,.09,0,.09.1ZM454,7.32V5.1h-2.55V7.32Z"/><path class="cls-15" d="M471.9,1.8c0,.07,0,.1-.09.1l-1.66,0H463.2V3.81A28.62,28.62,0,0,1,463,7.18a9.06,9.06,0,0,1-1.09,3.4c-.05.1-.09.15-.13.15s-.08,0-.15-.12a1.35,1.35,0,0,0-.47-.36,7.58,7.58,0,0,0,1.13-3.35,27.74,27.74,0,0,0,.15-3.18l0-2.41c0-.07,0-.1.1-.1l1.68,0h2.41V1a4,4,0,0,0-.09-1c.3,0,.57,0,.79.06s.15,0,.15.1a.65.65,0,0,1-.06.23,1.7,1.7,0,0,0-.07.57v.28h2.8l1.66,0c.06,0,.09,0,.09.1Zm.12,8.34a1.21,1.21,0,0,0-.27.46c-.05.14-.11.22-.19.22l-.13,0a10.24,10.24,0,0,1-3.9-1.19,11.28,11.28,0,0,1-4,1.26h-.14c-.08,0-.14-.07-.19-.2a.85.85,0,0,0-.3-.4,11.67,11.67,0,0,0,4-1.08,6.5,6.5,0,0,1-1.8-2h-1.22a.09.09,0,0,1-.1-.1V6.67a.09.09,0,0,1,.1-.1l1.62,0h3.95a.54.54,0,0,0,.22,0l.1,0q.09,0,.33.21c.17.16.25.27.25.33a.17.17,0,0,1-.1.15,1.1,1.1,0,0,0-.34.33,7.57,7.57,0,0,1-1.7,1.64A11.82,11.82,0,0,0,472,10.14Zm-.23-6.27a.09.09,0,0,1-.1.1l-1.7,0h-.72v.57l0,1.13a.08.08,0,0,1-.09.09l-1.16,0h-1.2l-1.13,0q-.12,0-.12-.09l0-1.13V3.94h-.3l-1.59,0c-.07,0-.1,0-.1-.1V3.42c0-.07,0-.1.1-.1l1.59,0h.3a7.24,7.24,0,0,0-.07-1.15,5.43,5.43,0,0,1,.73.08c.09,0,.13,0,.13.08a1.25,1.25,0,0,1-.06.21,3,3,0,0,0-.06.78h2.3a7,7,0,0,0-.07-1.15,5.43,5.43,0,0,1,.73.08c.09,0,.14,0,.14.08a1.25,1.25,0,0,1-.06.21,2.79,2.79,0,0,0-.06.78H470l1.7,0a.09.09,0,0,1,.1.1ZM469.31,7.2h-3.46a5.93,5.93,0,0,0,1.7,1.62A6.1,6.1,0,0,0,469.31,7.2Zm-.72-2.09V3.94h-2.3V5.11Z"/><path class="cls-15" d="M379.92,27.8a.08.08,0,0,1-.09.09h-.58a.08.08,0,0,1-.09-.09v-.69h-8v.69c0,.06,0,.09-.1.09h-.57a.08.08,0,0,1-.09-.09l0-4.47v-2.4l0-3.2a.08.08,0,0,1,.09-.09l1.67,0h6l1.67,0a.08.08,0,0,1,.09.09l0,2.85v2.75Zm-.76-1.34V18.34h-8v8.12Zm-.66-1.26c0,.06,0,.09-.1.09l-1.62,0h-3.22l-1.6,0q-.12,0-.12-.09v-.48c0-.07,0-.1.12-.1l1.6,0h1.18V22.5h-.69l-1.46,0a.08.08,0,0,1-.09-.09V22c0-.07,0-.1.09-.1l1.46,0h.69V20.09h-1l-1.58,0a.09.09,0,0,1-.1-.1v-.47c0-.06,0-.09.1-.09l1.58,0h2.89l1.58,0a.08.08,0,0,1,.09.09V20c0,.07,0,.1-.09.1l-1.58,0h-1.19V21.9h.84l1.45,0c.07,0,.1,0,.1.1v.46c0,.06,0,.09-.1.09l-1.45,0h-.84v2.15h1.33l1.62,0a.09.09,0,0,1,.1.1ZM377.8,24l0,.06s0,.06-.1.11l-.24.16c-.06,0-.1.08-.13.08s-.06,0-.08-.08a6,6,0,0,0-.88-1.18.15.15,0,0,1,0-.06s0-.06.11-.11l.2-.15.1-.05s.05,0,.1.07A5.58,5.58,0,0,1,377.8,24Z"/><path class="cls-15" d="M393,25.76a3.35,3.35,0,0,1-.45,1.48.91.91,0,0,1-.76.38,2.21,2.21,0,0,1-1.4-.66,5.8,5.8,0,0,1-1.25-1.61,9.92,9.92,0,0,1-.78-2l-3.37.09V26.4c1.24-.31,2.4-.66,3.49-1a1.87,1.87,0,0,0-.09.45.52.52,0,0,1-.07.24.36.36,0,0,1-.19.09,41.87,41.87,0,0,1-4.28,1.25,1.1,1.1,0,0,0-.4.15.32.32,0,0,1-.2.08s-.09-.05-.14-.15a5.78,5.78,0,0,1-.17-.71,7.29,7.29,0,0,0,1.13-.16l.17,0V20l0-2.07c0-.07,0-.1.09-.1l1.81,0h4l1.79,0c.06,0,.09,0,.09.1l0,1v.92l0,1c0,.06,0,.1-.09.1l-1.79,0H388.7a14,14,0,0,0,.27,1.82l1.9,0,1.31-.06.29,0h.09a.09.09,0,0,1,.1.1l0,.53c0,.06,0,.09-.1.09h-.29l-1.4,0-1.74.05a7.56,7.56,0,0,0,.62,1.53,4.37,4.37,0,0,0,1.1,1.44,1.55,1.55,0,0,0,.92.45q.52,0,.6-1.74a1.45,1.45,0,0,0,.44.33c.14.08.21.16.21.23A.76.76,0,0,1,393,25.76Zm-1.78-5.5V18.52H385v1.74Zm-3,2.48A16.24,16.24,0,0,1,388,20.9H385v1.94Z"/><path class="cls-15" d="M406.2,27.05c0,.07,0,.1-.09.1l-1.58,0h-7l-1.59,0c-.06,0-.09,0-.09-.1V26.5c0-.06,0-.1.09-.1l1.59,0h3.11v-2.7h-1.48l-1.68,0c-.06,0-.09,0-.09-.1v-.54c0-.07,0-.1.09-.1l1.68,0h1.48V20.57h-2.83a9.67,9.67,0,0,1-1.24,1.93c-.06.07-.11.1-.13.1s-.09,0-.19-.12a1.33,1.33,0,0,0-.42-.25,10,10,0,0,0,2-3.65,2.13,2.13,0,0,0,.13-.69,3.85,3.85,0,0,1,.73.21q.15,0,.15.12a.22.22,0,0,1-.1.17,1.07,1.07,0,0,0-.19.39c-.28.73-.43,1.1-.43,1.11h2.52v-1a9.54,9.54,0,0,0-.1-1.65c.28,0,.56,0,.84.07.1,0,.15,0,.15.1a.22.22,0,0,1,0,.1.49.49,0,0,0,0,.12,5.86,5.86,0,0,0-.08,1.24v1h2.22l1.69,0a.08.08,0,0,1,.09.09v.54a.08.08,0,0,1-.09.09l-1.69,0h-2.22v2.48h1.67l1.68,0c.07,0,.1,0,.1.1v.54a.09.09,0,0,1-.1.1l-1.68,0h-1.67v2.7h3.14l1.58,0c.06,0,.09,0,.09.1Z"/><path class="cls-15" d="M411.06,21.59a.13.13,0,0,1,0,.07.4.4,0,0,1-.07.13l-.24.33c0,.08-.09.11-.12.11a.13.13,0,0,1-.07,0,9.44,9.44,0,0,0-1.65-1.35s-.06,0-.06-.06a.26.26,0,0,1,.07-.12l.23-.3c0-.06.07-.09.1-.09l.08,0A8.67,8.67,0,0,1,411.06,21.59Zm.35,2.79c-.39.91-.83,1.82-1.31,2.73a3.48,3.48,0,0,0-.26.5c0,.08-.06.12-.13.12a.23.23,0,0,1-.15-.07,5.75,5.75,0,0,1-.54-.44,5.32,5.32,0,0,0,.68-.93c.44-.83.86-1.71,1.26-2.65a2.94,2.94,0,0,0,.34.36c.11.09.17.15.17.19A1,1,0,0,1,411.41,24.38Zm.21-5.73s.05.05.05.07,0,.07-.07.13l-.26.32c0,.07-.09.1-.12.1a.07.07,0,0,1-.06,0,9.36,9.36,0,0,0-1.61-1.38s-.06-.05-.06-.06,0-.06.08-.12l.26-.3c.05-.05.09-.08.11-.08l.07,0A9.26,9.26,0,0,1,411.62,18.65Zm7.86,2.8c0,.07,0,.1-.09.1l-1.68,0h-1.79v2h1l1.55,0c.06,0,.09,0,.09.1l0,1.13v1l0,2c0,.05,0,.08-.09.08h-.56c-.06,0-.09,0-.09-.08v-.53h-4.43v.59c0,.06,0,.1-.09.1h-.53a.1.1,0,0,1-.11-.1l0-2v-.92l0-1.27c0-.07,0-.1.1-.1l1.57,0h.84v-2h-1.62l-1.69,0c-.07,0-.1,0-.1-.1v-.52c0-.06,0-.09.1-.09l1.69,0h1.62V18.92c-.67.14-1.48.28-2.44.42l-.15,0q-.12,0-.18-.21a1.18,1.18,0,0,0-.24-.43c1.05-.12,2.11-.29,3.17-.52a16,16,0,0,0,2.13-.61,3.21,3.21,0,0,0,.62-.31,5.73,5.73,0,0,1,.52.44.28.28,0,0,1,.09.17c0,.07,0,.11-.14.12a2.1,2.1,0,0,0-.45.11,22.69,22.69,0,0,1-2.2.63v2.11h1.79l1.68,0a.08.08,0,0,1,.09.09Zm-1.64,5.1V24.11h-4.43v2.44Z"/><path class="cls-15" d="M432.66,25.05a1.4,1.4,0,0,0-.31.43c-.05.12-.11.18-.16.18l-.17-.05a8.6,8.6,0,0,1-2.08-.9,7.09,7.09,0,0,1-1.31-1.11h-3.22a8.86,8.86,0,0,1-3.22,2.07.48.48,0,0,1-.18,0c-.05,0-.1,0-.17-.15a1.59,1.59,0,0,0-.32-.39,8.46,8.46,0,0,0,3-1.58h-1.13l-1.57,0c-.05,0-.08,0-.08-.1v-.45c0-.06,0-.09.08-.09l1.57,0h1V19.13H424l-1.64,0a.09.09,0,0,1-.1-.1v-.47c0-.06,0-.09.1-.09l1.64,0h.45v0a8.48,8.48,0,0,0-.08-1.42,6.88,6.88,0,0,1,.77.07c.09,0,.13.05.13.1a.35.35,0,0,1,0,.12.49.49,0,0,0,0,.1,4.88,4.88,0,0,0-.06,1v0h3.71v0a10.26,10.26,0,0,0-.07-1.42,6.88,6.88,0,0,1,.77.07c.09,0,.13.05.13.1a.87.87,0,0,1-.08.23,5.08,5.08,0,0,0-.05,1v0h.58l1.65,0a.08.08,0,0,1,.09.09v.47c0,.06,0,.1-.09.1l-1.65,0h-.58V23h1.13l1.57,0a.08.08,0,0,1,.09.09v.45c0,.07,0,.1-.09.1l-1.57,0h-1.23A7.08,7.08,0,0,0,432.66,25.05Zm-1,2.34c0,.07,0,.1-.1.1l-1.65,0h-5.76l-1.67,0a.09.09,0,0,1-.1-.1v-.48c0-.06,0-.09.1-.09l1.67,0h2.5V25.75h-.94l-1.55,0a.09.09,0,0,1-.1-.1v-.45a.09.09,0,0,1,.1-.1l1.55,0h.94v-.09a6,6,0,0,0-.07-1c.19,0,.44,0,.75,0,.08,0,.12.05.12.1s0,.07-.05.17a2.34,2.34,0,0,0-.06.68v.12h1l1.55,0c.07,0,.1,0,.1.1v.45a.09.09,0,0,1-.1.1l-1.55,0h-1v1.09h2.57l1.65,0c.07,0,.1,0,.1.09ZM428.85,20v-.88h-3.71V20Zm0,1.47v-.91h-3.71v.91Zm0,1.52V22h-3.71v1Z"/><path class="cls-15" d="M438.55,18.51c0,.07,0,.1-.09.1l-1.11,0h-.06a11.05,11.05,0,0,1-.77,3h1l.77,0c.06,0,.09,0,.09.1l0,1.39v1l0,2.13c0,.06,0,.1-.09.1h-.46a.09.09,0,0,1-.1-.1v-.41h-1.09v1.08c0,.07,0,.1-.1.1h-.45a.09.09,0,0,1-.1-.1l0-2.26V22.74c-.19.31-.4.63-.65,1-.06.08-.11.11-.14.11s-.07,0-.1-.11a1.51,1.51,0,0,0-.29-.45,8.33,8.33,0,0,0,1.81-4.66h-.24l-1.09,0c-.05,0-.08,0-.08-.1V18c0-.07,0-.1.08-.1l1.09,0h1l1.11,0c.06,0,.09,0,.09.1Zm-.85,6.68v-3h-1.09v3Zm8.37,1.57a1.66,1.66,0,0,0-.16.49c0,.13,0,.2-.08.23a.64.64,0,0,1-.2,0l-1.33,0a7.5,7.5,0,0,1-3.09-.64,2.64,2.64,0,0,1-1.13-1.16,5.2,5.2,0,0,1-1.47,2c-.08.07-.14.11-.18.11s-.08,0-.16-.12a1.52,1.52,0,0,0-.42-.27,4.5,4.5,0,0,0,1.45-1.62,3.81,3.81,0,0,0,.48-1.51,2.68,2.68,0,0,0,0-.46,2.18,2.18,0,0,0,0-.25l.61.09c.14,0,.21.07.21.13a.58.58,0,0,1-.08.19.56.56,0,0,0-.1.3,4.31,4.31,0,0,1-.16.77,2.67,2.67,0,0,0,1.48,1.38V22.88h-1.24l-1.67,0a.08.08,0,0,1-.09-.09v-.47c0-.06,0-.1.09-.1l1.67,0h4.3a.54.54,0,0,0,.22-.05l.12,0c.06,0,.16.06.3.19s.23.26.23.32a.12.12,0,0,1-.08.12,1.35,1.35,0,0,0-.27.31,6.38,6.38,0,0,1-.61.73c-.09.09-.14.13-.17.13a.43.43,0,0,1-.19-.09,1.85,1.85,0,0,0-.42-.17,4.79,4.79,0,0,0,.79-.86h-2.29v1.56h1.2l.87,0a.08.08,0,0,1,.09.09V25c0,.07,0,.1-.09.1l-.87,0h-1.2v1.56a12.67,12.67,0,0,0,2.56.19C445.4,26.8,445.75,26.79,446.07,26.76Zm-4-6.74a1.16,1.16,0,0,0-.26.28c-.05.07-.08.11-.11.11a.42.42,0,0,1-.14-.08,4,4,0,0,1-.83-1c0,.62,0,1.21,0,1.77l0,.6c0,.06,0,.09-.11.09h-.4c-.07,0-.1,0-.1-.09s0-.26,0-.73,0-1,0-1.55a5.37,5.37,0,0,1-1.33,1.78.57.57,0,0,1-.19.11s-.07,0-.14-.11a.92.92,0,0,0-.31-.28A5.73,5.73,0,0,0,440,19h-.19l-1,0c-.07,0-.1,0-.1-.09v-.37c0-.07,0-.1.1-.1l1,0h.33V18a4.45,4.45,0,0,0-.07-.92c.3,0,.52,0,.67.05s.12,0,.12.09a.84.84,0,0,1-.06.18,2.12,2.12,0,0,0-.05.6v.43h0l1,0c.06,0,.09,0,.09.1v.37a.08.08,0,0,1-.09.09l-.94,0A4.05,4.05,0,0,0,442.05,20Zm4.07.74a1.35,1.35,0,0,0-.32.42c-.05.08-.09.11-.11.11l-.15-.09a7,7,0,0,1-1.6-1.85q0,.9,0,1.77c0,.4,0,.6,0,.62s0,.09-.1.09h-.41c-.05,0-.08,0-.08-.09s0-.91,0-2.28a5.72,5.72,0,0,1-1.47,1.8.31.31,0,0,1-.15.09s-.07,0-.15-.13a1.18,1.18,0,0,0-.31-.26,5.82,5.82,0,0,0,1.9-2l-1,0a.08.08,0,0,1-.09-.09v-.37c0-.07,0-.1.09-.1l1.13,0h.05V18a4.78,4.78,0,0,0-.07-1l.66.05c.08,0,.12.05.12.1a.26.26,0,0,1,0,.11l0,.09a2.48,2.48,0,0,0-.05.62v.41h.52l1.12,0c.07,0,.1,0,.1.1v.37c0,.06,0,.09-.1.09l-1.12,0h-.38A6.45,6.45,0,0,0,446.12,20.76Z"/><path class="cls-15" d="M452.1,19.84c0,.07,0,.1-.09.1l-1.2,0h-1.18l-1.2,0c-.06,0-.09,0-.09-.1v-.51a.08.08,0,0,1,.09-.09l1.2,0h1.18l1.2,0a.08.08,0,0,1,.09.09Zm-.34-1.62c0,.07,0,.1-.1.1l-1,0h-.79l-1,0c-.06,0-.09,0-.09-.1v-.46c0-.07,0-.1.09-.1l1,0h.79l1,0c.07,0,.1,0,.1.1Zm0,8.73c0,.07,0,.1-.05.1h0l-1,0h-1.19v.69c0,.06,0,.09-.08.09h-.5c-.06,0-.1,0-.1-.09l0-1.33V25.29l0-1.09c0-.06,0-.09.1-.09l1,0h.74l1,0c.06,0,.08,0,.08.09l0,.93v.92Zm-.12-5.5c0,.07,0,.1-.11.1l-.9,0h-.69l-.91,0c-.07,0-.1,0-.1-.1V21c0-.06,0-.09.1-.09l.91,0h.69l.9,0c.07,0,.11,0,.11.09Zm0,1.63c0,.06,0,.09-.11.09l-.9,0h-.69l-.91,0c-.07,0-.1,0-.1-.09V22.6c0-.06,0-.09.1-.09l.91,0h.69l.9,0c.07,0,.11,0,.11.09Zm-.54,3.37V24.72h-1.59v1.73Zm7.5.2a1,1,0,0,1-.32.8,2.16,2.16,0,0,1-1.21.21h-.21c-.1,0-.16,0-.18,0a.37.37,0,0,1-.06-.16,1.69,1.69,0,0,0-.23-.56c.35,0,.65.05.89.05h.2c.28,0,.41-.17.41-.53V18.19h-4.51v2.43a32.13,32.13,0,0,1-.22,4.33,7.58,7.58,0,0,1-.79,2.63c0,.11-.09.16-.14.16s-.09,0-.16-.11a1.48,1.48,0,0,0-.39-.28,7.38,7.38,0,0,0,.89-3.08c.09-.86.14-2.11.14-3.73V19.21l0-1.59c0-.06,0-.09.1-.09l1.56,0h2.59l1.58,0a.08.08,0,0,1,.09.09l0,1.59V24.9Zm-1-4.6a.08.08,0,0,1-.09.09l-1.16,0h-1.4l-1.09,0c-.07,0-.1,0-.1-.09v-.39c0-.06,0-.09.1-.09l1.09,0h.35V20.35H455l-1,0c-.06,0-.08,0-.08-.09v-.4c0-.07,0-.1.08-.1l1,0h.2v-.17a7.47,7.47,0,0,0-.07-1.08,4.18,4.18,0,0,1,.66.07c.09,0,.13.05.13.11a.62.62,0,0,1-.05.18,2.2,2.2,0,0,0-.06.69v.2h.3l1.05,0c.07,0,.1,0,.1.1v.4c0,.06,0,.09-.1.09l-1.05,0h-.3v1.24h.44l1.16,0a.08.08,0,0,1,.09.09Zm-.57,4a.08.08,0,0,1-.09.09h-.42c-.07,0-.1,0-.1-.09v-.45h-1.67v.58c0,.06,0,.1-.09.1h-.42a.09.09,0,0,1-.1-.1l0-1.57V24l0-.91c0-.07,0-.1.1-.1l1,0h.79l.95,0c.06,0,.09,0,.09.1l0,.78v.69Zm-.61-1V23.6h-1.67v1.49Z"/><path class="cls-15" d="M472.17,21.75a1.64,1.64,0,0,0-.34.48c-.05.13-.11.19-.15.19l-.18-.06a10.51,10.51,0,0,1-4.52-3q0,.59,0,1.41,0,.64,0,.69a.09.09,0,0,1-.1.1h-.57c-.06,0-.09,0-.09-.1s0-.31,0-.84,0-.88,0-1.23A10.38,10.38,0,0,1,462,22.33a.5.5,0,0,1-.17.05c-.05,0-.1-.06-.17-.18a1.38,1.38,0,0,0-.32-.43,10.84,10.84,0,0,0,4.51-2.57H463.5l-1.61,0c-.07,0-.1,0-.1-.1v-.48c0-.06,0-.09.1-.09l1.61,0h2.8v-.29a6.62,6.62,0,0,0-.08-1.25,5.65,5.65,0,0,1,.79.07c.1,0,.14.05.14.11a.63.63,0,0,1-.07.22,3,3,0,0,0-.07.74v.4h3l1.62,0c.07,0,.1,0,.1.09v.48c0,.07,0,.1-.1.1l-1.62,0h-2.56a10.36,10.36,0,0,0,2.14,1.53A15.25,15.25,0,0,0,472.17,21.75Zm-.06,5.59a.08.08,0,0,1-.09.09l-1.54,0h-7.39l-1.54,0a.08.08,0,0,1-.09-.09v-.5c0-.06,0-.1.09-.1l1.54,0h.65V23.35l0-1.36c0-.06,0-.09.11-.09l1.59,0h2.72l1.58,0c.07,0,.1,0,.1.09l0,1.36v3.42h.7l1.54,0c.06,0,.09,0,.09.1Zm-3-3.81v-1h-4.62v1Zm0,1.59v-1h-4.62v1Zm0,1.65v-1.1h-4.62v1.1Z"/><path class="cls-15" d="M319.46,45.34l-1.48,0c-.08,0-.12,0-.12-.13v-.86a.11.11,0,0,1,.12-.12l1.48,0h1.93a5,5,0,0,0,.47-.95,7.5,7.5,0,0,1,1.17.18c.12,0,.18.08.18.16a.23.23,0,0,1-.13.19,1.37,1.37,0,0,0-.35.42h4.32l1.49,0a.11.11,0,0,1,.12.12v.86c0,.08,0,.13-.12.13l-1.49,0H326a6.1,6.1,0,0,1-1,1.43,27,27,0,0,1,2.9,1.11c.06,0,.09.06.09.1a.23.23,0,0,1-.07.13l-.59.69c-.09.09-.14.14-.16.14a.16.16,0,0,1-.09,0,18.83,18.83,0,0,0-3-1.31A10.19,10.19,0,0,1,319,49h-.2a.27.27,0,0,1-.21-.07,1.11,1.11,0,0,1-.13-.27,2.42,2.42,0,0,0-.42-.72,11.91,11.91,0,0,0,4.48-.76L321,46.79l-.14.17a.28.28,0,0,1-.22.11h-.1l-.87-.19c-.06,0-.1,0-.1-.09a.09.09,0,0,1,0-.07l.29-.35a4.61,4.61,0,0,0,.44-.56l.34-.46Zm.15-5.84-1.51,0c-.06,0-.1,0-.12,0a.23.23,0,0,1,0-.11v-.85c0-.06,0-.1,0-.11a.23.23,0,0,1,.11,0l1.51,0h7.3l1.51,0a.29.29,0,0,1,.12,0,.28.28,0,0,1,0,.11v.85a.25.25,0,0,1,0,.12h-.11l-1.51,0H325v.85h.75l1.67,0c.06,0,.1,0,.11,0a.23.23,0,0,1,0,.11l0,.89v1l0,.89a.25.25,0,0,1,0,.12h-.11l-1.67,0h-5.07l-1.67,0c-.06,0-.1,0-.11,0a.23.23,0,0,1,0-.11l0-.89v-1l0-.89c0-.07,0-.1,0-.12h.1l1.67,0h.67V39.5Zm.53,2.91h1.24V41.25h-1.24Zm4.43,2.93h-2.5c-.15.23-.3.44-.44.62.76.15,1.44.3,2.05.45A4.87,4.87,0,0,0,324.57,45.34Zm-2-5h1.32V39.5h-1.32Zm1.32,2.06V41.25h-1.32v1.16Zm2.51,0V41.25H325v1.16Z"/><path class="cls-15" d="M341.68,42.27a3.49,3.49,0,0,0-.52.95c-.08.21-.15.31-.22.31a1.36,1.36,0,0,1-.27-.1A11.41,11.41,0,0,1,336,39.5a11.52,11.52,0,0,1-4.48,3.94.94.94,0,0,1-.29.14c-.05,0-.12-.1-.22-.3a2.77,2.77,0,0,0-.55-.85,9.62,9.62,0,0,0,4.52-3.74,3.42,3.42,0,0,0,.43-.88,7.53,7.53,0,0,1,1.24.25q.21,0,.21.18s0,.11-.12.18l-.09.07a10.52,10.52,0,0,0,2.29,2.32A12.64,12.64,0,0,0,341.68,42.27Zm-10.84,5.64a3.81,3.81,0,0,0,2.27-1.54,5.32,5.32,0,0,0,.46-2.6,8.51,8.51,0,0,0-.09-1.4c.45,0,.89,0,1.33.06.14,0,.21.06.21.14a.84.84,0,0,1-.06.26,3.79,3.79,0,0,0-.08,1,10.06,10.06,0,0,1-.18,2.12,3.88,3.88,0,0,1-.49,1.24,4.57,4.57,0,0,1-2.14,1.7,1,1,0,0,1-.28.12c-.06,0-.14-.09-.24-.26A2.94,2.94,0,0,0,330.84,47.91ZM337,42.34c.45,0,.89,0,1.32.1.12,0,.18.06.18.13a1.8,1.8,0,0,1-.06.3,8.33,8.33,0,0,0-.06,1.3v3l0,1.54c0,.06,0,.1,0,.11H337.2c-.09,0-.13,0-.13-.12l0-1.54v-3A13,13,0,0,0,337,42.34Z"/><path class="cls-15" d="M345.09,40.07h1.08l1.3,0a.22.22,0,0,1,.12,0,.29.29,0,0,1,0,.12V41a.22.22,0,0,1,0,.12s-.06,0-.12,0l-1.3,0h-1.08l-1.31,0c-.06,0-.1,0-.11,0s0,0,0-.11v-.85a.22.22,0,0,1,0-.12.23.23,0,0,1,.11,0Zm2.21,8.55c0,.06,0,.1,0,.11s0,0-.1,0h-.83c-.08,0-.12,0-.12-.13v-.33h-1.06v.54c0,.09,0,.14-.12.14h-.84a.22.22,0,0,1-.12,0,.29.29,0,0,1,0-.12l0-1.79v-.77l0-1.13a.2.2,0,0,1,0-.11s.06,0,.13,0l1.11,0H346l1.14,0a.2.2,0,0,1,.11,0,.28.28,0,0,1,0,.11l0,.92v.83Zm-2-10.19h.77l1.1,0a.31.31,0,0,1,.13,0,.23.23,0,0,1,0,.11v.79q0,.11,0,.12h-.12l-1.1,0h-.77l-1.12,0c-.06,0-.1,0-.11,0a.2.2,0,0,1,0-.11v-.79c0-.06,0-.1,0-.11l.1,0Zm.05,3.35H346l1,0c.07,0,.12,0,.13,0a.2.2,0,0,1,0,.11v.78c0,.06,0,.1,0,.11l-.12,0-1,0h-.57l-1.05,0a.2.2,0,0,1-.11,0,.27.27,0,0,1,0-.11v-.78a.25.25,0,0,1,0-.12h.11Zm0,1.62H346l1,0c.07,0,.12,0,.13,0a.2.2,0,0,1,0,.11v.77c0,.06,0,.1,0,.11l-.12,0-1,0h-.57l-1.05,0a.2.2,0,0,1-.11,0,.27.27,0,0,1,0-.11v-.77a.29.29,0,0,1,0-.12l.11,0Zm.85,2.63h-1.06V47.3h1.06Zm1-3.75a6.2,6.2,0,0,0,1.28-1.48,2.42,2.42,0,0,0,.27-.64,6,6,0,0,1,.89.23c.12,0,.18.09.18.13a.22.22,0,0,1-.1.16,1.16,1.16,0,0,0-.16.21h1.31l.16-.32a1.89,1.89,0,0,0,.11-.38l1,.2c.08,0,.12.06.12.09a.17.17,0,0,1-.08.14.43.43,0,0,0-.15.22l0,0h.75l1.36,0a.2.2,0,0,1,.11,0,.27.27,0,0,1,0,.11v.49a.22.22,0,0,1,0,.12.23.23,0,0,1-.11,0l-1.36,0h-.84v.49h.57l1.27,0c.07,0,.11,0,.13,0a.28.28,0,0,1,0,.11v.42c0,.06,0,.1,0,.11s-.06,0-.12,0l-1.27,0h-.57v.48h.57l1.28,0a.22.22,0,0,1,.12,0,.35.35,0,0,1,0,.12v.39c0,.07,0,.11,0,.13a.2.2,0,0,1-.11,0l-1.27,0h-.58v.48h.82l1.53,0a.22.22,0,0,1,.12,0,.31.31,0,0,1,0,.13v.48a.23.23,0,0,1,0,.11.25.25,0,0,1-.12,0l-1.53,0H350l-1.53,0q-.1,0-.12,0a.2.2,0,0,1,0-.11l0-1V42.82a1,1,0,0,1,0-.19l-.15.16c-.13.13-.22.19-.29.19s-.11-.06-.2-.18A2.25,2.25,0,0,0,347.21,42.28Zm7.56,5.56a2.63,2.63,0,0,0-.35.7,1.38,1.38,0,0,1-.11.28.2.2,0,0,1-.16.06l-.22,0a9.44,9.44,0,0,1-2.85-.7,10.31,10.31,0,0,1-2.77.73l-.25,0a.18.18,0,0,1-.16-.08,1.16,1.16,0,0,1-.12-.25,2.51,2.51,0,0,0-.36-.61,12.07,12.07,0,0,0,2.57-.46,6.19,6.19,0,0,1-1.17-1.22l-.58,0H348c-.06,0-.1,0-.11,0s0,0,0-.1v-.62a.25.25,0,0,1,0-.12.23.23,0,0,1,.11,0l1.51,0h3a1,1,0,0,0,.31,0l.14,0a1.06,1.06,0,0,1,.46.29c.24.21.36.36.36.44a.25.25,0,0,1-.15.22,1.19,1.19,0,0,0-.35.28,8.6,8.6,0,0,1-1,.89A13.36,13.36,0,0,0,354.77,47.84Zm-5.54-9.9c.36,0,.72,0,1,.07.11,0,.16.05.16.1a.3.3,0,0,1-.05.14.77.77,0,0,0-.08.38v.16h1.44v-.08a4.46,4.46,0,0,0-.06-.77c.35,0,.7,0,1,.07.11,0,.16.05.16.1a.3.3,0,0,1-.05.14.73.73,0,0,0-.07.38v.16h.06l1.61,0a.2.2,0,0,1,.11,0,.23.23,0,0,1,0,.11v.69c0,.06,0,.1,0,.11l-.1,0-1.61,0h-.06l0,.45c0,.06,0,.1,0,.11l-.12,0h-.79q-.11,0-.12,0a.19.19,0,0,1,0-.1s0-.08,0-.17,0-.19,0-.28h-1.44l0,.45c0,.06,0,.1,0,.11a.23.23,0,0,1-.11,0h-.8q-.11,0-.12,0a.19.19,0,0,1,0-.1s0-.08,0-.17,0-.19,0-.28l-1.49,0c-.06,0-.1,0-.11,0s0,0,0-.1V38.9c0-.07,0-.1,0-.11s.05,0,.11,0l1.49,0v-.08A4.46,4.46,0,0,0,349.23,37.94Zm.17,4.15h1.46V41.6H349.4Zm0,1.12h1.46v-.48H349.4Zm0,1.12h1.46v-.48H349.4Zm2.84,2h-2.18a4.18,4.18,0,0,0,1,.78A5.31,5.31,0,0,0,352.24,46.3Z"/><path class="cls-15" d="M362.26,42.25a1.13,1.13,0,0,1,.89.4,1.12,1.12,0,0,1,.31.8,1.14,1.14,0,0,1-.4.89,1.12,1.12,0,0,1-.8.31,1.14,1.14,0,0,1-.89-.4,1.12,1.12,0,0,1-.31-.8,1.21,1.21,0,0,1,1.2-1.2Z"/><path class="cls-15" d="M371.69,45.34l-1.49,0c-.08,0-.12,0-.12-.13v-.86a.11.11,0,0,1,.12-.12l1.49,0h1.92a5,5,0,0,0,.47-.95,7.15,7.15,0,0,1,1.17.18c.12,0,.18.08.18.16a.23.23,0,0,1-.13.19,1.53,1.53,0,0,0-.35.42h4.33l1.49,0c.07,0,.11,0,.11.12v.86c0,.08,0,.13-.11.13l-1.49,0h-1.09a6.07,6.07,0,0,1-1,1.43,26.87,26.87,0,0,1,2.89,1.11c.06,0,.1.06.1.1s0,.07-.08.13l-.58.69c-.09.09-.15.14-.17.14l-.08,0a19.23,19.23,0,0,0-3-1.31,10.23,10.23,0,0,1-5,1.36H371a.24.24,0,0,1-.2-.07,1,1,0,0,1-.14-.27,2.61,2.61,0,0,0-.41-.72,11.86,11.86,0,0,0,4.47-.76l-1.52-.35-.13.17a.31.31,0,0,1-.22.11h-.11l-.86-.19c-.07,0-.1,0-.1-.09a.09.09,0,0,1,0-.07l.28-.35a6.13,6.13,0,0,0,.45-.56l.33-.46Zm.15-5.84-1.52,0c-.06,0-.1,0-.11,0s0,0,0-.11v-.85c0-.06,0-.1,0-.11a.19.19,0,0,1,.1,0l1.52,0h7.29l1.51,0a.29.29,0,0,1,.12,0,.23.23,0,0,1,0,.11v.85c0,.07,0,.1,0,.12h-.11l-1.51,0h-1.88v.85H378l1.66,0c.07,0,.1,0,.12,0a.28.28,0,0,1,0,.11l0,.89v1l0,.89c0,.07,0,.1,0,.12h-.11l-1.66,0h-5.07l-1.67,0c-.07,0-.1,0-.11,0s0,0,0-.11l0-.89v-1l0-.89a.25.25,0,0,1,0-.12h.11l1.67,0h.66V39.5Zm.52,2.91h1.24V41.25h-1.24Zm4.43,2.93H374.3c-.16.23-.3.44-.45.62.76.15,1.45.3,2,.45A4.61,4.61,0,0,0,376.79,45.34Zm-2-5h1.31V39.5h-1.31Zm1.31,2.06V41.25h-1.31v1.16Zm2.51,0V41.25h-1.34v1.16Z"/><path class="cls-15" d="M384.92,40.91l-1.53,0a.2.2,0,0,1-.11,0,.23.23,0,0,1,0-.11v-.95a.19.19,0,0,1,0-.13h.1l1.53,0h2.88v-.19a10.92,10.92,0,0,0-.1-1.54c.56,0,1,0,1.37.08.13,0,.19.06.19.14a.94.94,0,0,1-.09.25,4.56,4.56,0,0,0-.07,1v.31h3.06l1.53,0c.06,0,.1,0,.11,0s0,.06,0,.12v.95c0,.06,0,.1,0,.11a.16.16,0,0,1-.1,0l-1.53,0H389.1v1.48h1.76a1,1,0,0,0,.34,0,.47.47,0,0,1,.16-.05c.07,0,.23.13.47.38s.38.4.38.51-.06.13-.17.22a1.26,1.26,0,0,0-.29.32,10.83,10.83,0,0,1-2.19,2.56A13.63,13.63,0,0,0,394,47.64a4.14,4.14,0,0,0-.52,1c-.07.2-.15.31-.25.31l-.26,0a13.84,13.84,0,0,1-4.55-1.78,15.09,15.09,0,0,1-4.34,1.77,1,1,0,0,1-.26.05c-.09,0-.17-.11-.24-.31a3.14,3.14,0,0,0-.5-.86,15.27,15.27,0,0,0,4.33-1.44,8.61,8.61,0,0,1-1.93-2.77h-1.19a.22.22,0,0,1-.12,0,.27.27,0,0,1,0-.11v-.92q0-.1,0-.12a.2.2,0,0,1,.11,0l1.62,0h1.87V40.91Zm5.39,2.63h-3.44a7.05,7.05,0,0,0,1.66,2A7.79,7.79,0,0,0,390.31,43.54Z"/><path class="cls-15" d="M396.39,47.63c.18,0,.52,0,1,0,.17,0,.26-.11.26-.33V44.94l-.47.14a1.38,1.38,0,0,0-.42.21.31.31,0,0,1-.21.07q-.1,0-.15-.15c-.08-.31-.14-.68-.21-1.13a10,10,0,0,0,1.12-.23l.34-.1V41.42h-.22l-1,0a.17.17,0,0,1-.12,0,.2.2,0,0,1,0-.11v-.87a.17.17,0,0,1,0-.12.2.2,0,0,1,.11,0l1,0h.22v-.64a14.68,14.68,0,0,0-.09-1.7,10.7,10.7,0,0,1,1.22.09c.13,0,.2.05.2.13a.94.94,0,0,1-.09.25,5.54,5.54,0,0,0-.07,1.21v.66l.9,0q.11,0,.12,0a.2.2,0,0,1,0,.11v.87q0,.11,0,.12a.2.2,0,0,1-.11,0l-.9,0v1.92c.13,0,.45-.17.94-.37a5.14,5.14,0,0,0-.06.87.46.46,0,0,1-.06.29.38.38,0,0,1-.19.12l-.63.27V45l0,2.39c0,.61-.13,1-.38,1.18a2.36,2.36,0,0,1-1.37.27H397c-.12,0-.2,0-.23-.07a.73.73,0,0,1-.08-.29A3,3,0,0,0,396.39,47.63ZM399,48a6.86,6.86,0,0,0,2.59-4.07h-1.29c-.06,0-.1,0-.11,0a.23.23,0,0,1,0-.11V43c0-.06,0-.1,0-.11h.1l1.48,0c0-.13,0-.35,0-.65l-1.42,0a.2.2,0,0,1-.11,0,.29.29,0,0,1,0-.12v-.68a.22.22,0,0,1,0-.12l.11,0,1.56,0h2.58a8.76,8.76,0,0,0,.65-1.3,4.43,4.43,0,0,0,.18-.65,7.92,7.92,0,0,1,1.07.28c.1,0,.15.1.15.17a.23.23,0,0,1-.11.19.7.7,0,0,0-.19.22l-.57,1.09,1.16,0,.12,0a.29.29,0,0,1,0,.12v.68q0,.1,0,.12s-.05,0-.11,0l-1.57,0h-2.33c0,.28-.06.5-.08.65h2.59l1.6,0a.11.11,0,0,1,.12.12v.79a.22.22,0,0,1,0,.12.19.19,0,0,1-.1,0l-1.6,0h-2.77c0,.15-.09.37-.17.66h2.72a.8.8,0,0,0,.26,0,.38.38,0,0,1,.16,0c.09,0,.23.1.41.32s.31.36.31.46-.05.11-.14.16a1.34,1.34,0,0,0-.31.36,9.25,9.25,0,0,1-1.17,1.37,10.42,10.42,0,0,0,2.57.75,2.88,2.88,0,0,0-.37.75c-.08.21-.15.31-.23.31a1,1,0,0,1-.26,0,9.52,9.52,0,0,1-2.58-1A8.3,8.3,0,0,1,401.6,49a1.54,1.54,0,0,1-.28.07c-.06,0-.13-.09-.23-.28a2.65,2.65,0,0,0-.44-.63,8,8,0,0,0,2.33-.9,6.81,6.81,0,0,1-1-1.14A7.6,7.6,0,0,1,400,48.59a.57.57,0,0,1-.26.17c-.05,0-.13-.06-.23-.2A2.82,2.82,0,0,0,399,48Zm6.91-10a4.74,4.74,0,0,1,.8.66c.09.09.13.15.13.2s-.08.15-.25.15A3.58,3.58,0,0,0,406,39a40.89,40.89,0,0,1-5.09.61h-.21a.25.25,0,0,1-.21-.07,1.22,1.22,0,0,1-.12-.27,2.11,2.11,0,0,0-.34-.65,27,27,0,0,0,5.15-.48A3.75,3.75,0,0,0,405.86,37.93Zm-4.21,1.81a5.36,5.36,0,0,1,.56,1,.18.18,0,0,1,0,.09s0,.07-.14.11l-.66.28-.14,0s-.07,0-.1-.11a4.66,4.66,0,0,0-.5-1,.17.17,0,0,1-.05-.1s0-.05.13-.08l.63-.26.14,0A.14.14,0,0,1,401.65,39.74Zm3.15,5.68h-2.2a5.26,5.26,0,0,0,1.21,1.19A5.27,5.27,0,0,0,404.8,45.42Zm-2.07-5.5a.17.17,0,0,1,0-.05s.06-.09.18-.13l.55-.2a.39.39,0,0,1,.14,0s.08,0,.12.09a5.65,5.65,0,0,1,.55,1.1.25.25,0,0,1,0,.07s0,.09-.14.13l-.65.27a.43.43,0,0,1-.14,0s-.07,0-.1-.12A7.76,7.76,0,0,0,402.73,39.92Z"/><path class="cls-15" d="M415.49,40.65a14.43,14.43,0,0,1-1.5,5.17,2.34,2.34,0,0,1-2,1.39,1.84,1.84,0,0,1-1.54-.92,3.8,3.8,0,0,1-.58-2.17A4.32,4.32,0,0,1,411.18,41a5.31,5.31,0,0,1,3.9-1.54,4.6,4.6,0,0,1,3.52,1.34,4,4,0,0,1,1,2.82c0,2.18-1.23,3.63-3.69,4.38l-.18,0c-.12,0-.23-.09-.34-.25a2.53,2.53,0,0,0-.84-.76,5.86,5.86,0,0,0,2.7-1.23,3.07,3.07,0,0,0,.92-2.35,2.77,2.77,0,0,0-.83-2,2.56,2.56,0,0,0-1.85-.76Zm-1.39.07a3.74,3.74,0,0,0-2.05,1.09,3.32,3.32,0,0,0-.94,2.23,2.59,2.59,0,0,0,.3,1.33c.16.25.33.38.52.38s.62-.24.9-.73a10.43,10.43,0,0,0,.8-2.06A14.44,14.44,0,0,0,414.1,40.72Z"/><path class="cls-15" d="M424.13,39.62v1.59a22.2,22.2,0,0,1-.35,4.4,11,11,0,0,1-1,2.8c-.09.16-.15.24-.19.24s-.11-.07-.22-.2a3,3,0,0,0-.76-.67,8.8,8.8,0,0,0,1-2.63,20.12,20.12,0,0,0,.3-4l0-2.54a.19.19,0,0,1,0-.13.29.29,0,0,1,.12,0l1.61,0h6.15l1.6,0c.06,0,.1,0,.11,0s0,.06,0,.12v.86a.2.2,0,0,1,0,.11.23.23,0,0,1-.11,0l-1.61,0h-1.92a8.29,8.29,0,0,1-.4,1h1.36l1.58,0a.27.27,0,0,1,.13,0,.22.22,0,0,1,0,.1l0,1.16v1.9l0,1.13a.25.25,0,0,1,0,.12.31.31,0,0,1-.13,0l-1.58,0h-.9v1l0,1.5a1.63,1.63,0,0,1-.1.66.79.79,0,0,1-.29.37,1.33,1.33,0,0,1-.57.24,6.75,6.75,0,0,1-1.06.06.72.72,0,0,1-.35-.05,1.16,1.16,0,0,1-.1-.34,3.29,3.29,0,0,0-.31-.82c.43,0,.78.07,1,.07s.48-.15.48-.45V45.05h-.95l-1.57,0q-.11,0-.12,0a.2.2,0,0,1,0-.11l0-1.13v-1.9l0-1.16c0-.08.05-.12.14-.12l1.57,0h.44a9.19,9.19,0,0,0,.36-1Zm-.44,8.16a5.87,5.87,0,0,0,1.52-1.67,3,3,0,0,0,.33-.73,4.85,4.85,0,0,1,1,.42c.13.07.2.13.2.18s0,.12-.13.19a1.38,1.38,0,0,0-.25.35,7.87,7.87,0,0,1-1.48,1.85c-.14.12-.22.19-.26.19s-.13-.07-.26-.22A2.24,2.24,0,0,0,423.69,47.78Zm2.53-6.2v.79h4.07v-.79Zm4.07,2.55V43.3h-4.07v.83Zm2.43,3.41a3.82,3.82,0,0,0-.66.72c-.1.14-.18.22-.24.22s-.14-.06-.26-.16a7.71,7.71,0,0,1-1.82-2.26.23.23,0,0,1,0-.09s.05-.09.15-.14l.73-.35.12,0s.08,0,.11.1A6.25,6.25,0,0,0,432.72,47.54Z"/><path class="cls-15" d="M436.48,49h-1a.23.23,0,0,1-.11,0,.2.2,0,0,1,0-.11l0-4.61V41.86l0-3.29q0-.1,0-.12a.2.2,0,0,1,.11,0l1.59,0h6.55l1.6,0c.07,0,.1,0,.11,0s0,0,0,.11l0,2.88v2.78l0,4.6a.22.22,0,0,1,0,.12.23.23,0,0,1-.11,0h-1a.17.17,0,0,1-.12,0,.25.25,0,0,1,0-.11v-.54h-7.42v.56a.2.2,0,0,1,0,.11A.23.23,0,0,1,436.48,49Zm.13-9.39v7.56H444V39.59Zm.32,6.27a4.49,4.49,0,0,0,2.57-3.1h-.68l-1.55,0a.17.17,0,0,1-.12,0,.22.22,0,0,1,0-.1V41.8c0-.06,0-.1,0-.11a.16.16,0,0,1,.1,0l1.55,0h.82c0-.2,0-.36,0-.47a7.68,7.68,0,0,0-.06-1.18q.69,0,1.17.09.21,0,.21.15a.76.76,0,0,1-.07.24,6.52,6.52,0,0,0-.06.78l0,.39h1l1.56,0c.06,0,.1,0,.11,0a.19.19,0,0,1,0,.1v.86a.2.2,0,0,1,0,.11l-.11,0-1.56,0H441a5.76,5.76,0,0,0,2.71,3,2.8,2.8,0,0,0-.65.72c-.12.17-.2.26-.25.26a1,1,0,0,1-.28-.16,6.25,6.25,0,0,1-2.15-2.79,5.87,5.87,0,0,1-2.34,2.86,1.11,1.11,0,0,1-.28.16q-.09,0-.24-.27A2.7,2.7,0,0,0,436.93,45.86Z"/><path class="cls-15" d="M450.91,40.21v1.94a16.11,16.11,0,0,1-.34,3.75,7.63,7.63,0,0,1-1.24,2.78c-.09.13-.17.2-.21.2s-.12-.07-.23-.2a3.17,3.17,0,0,0-.72-.67,5.32,5.32,0,0,0,1.31-2.6,7,7,0,0,0,.15-1l-.84.48a1.69,1.69,0,0,0-.38.25.26.26,0,0,1-.18.11c-.07,0-.12-.05-.14-.15a10.62,10.62,0,0,1-.32-1.1,4.49,4.49,0,0,0,.93-.3,9.52,9.52,0,0,0,1-.47c0-.43,0-.78,0-1l0-2.91a.27.27,0,0,1,0-.13.23.23,0,0,1,.11,0l1.66,0h2v-.26a4.29,4.29,0,0,0-.1-1c.43,0,.86,0,1.29.07.13,0,.2.06.2.12s0,.08-.09.23a1.66,1.66,0,0,0-.06.53v.27h2.33l1.65,0a.13.13,0,0,1,.1,0s0,.05,0,.12v.87c0,.09,0,.13-.11.13l-1.65,0ZM448.67,40l.14,0s.06,0,.09.09a10.8,10.8,0,0,1,.7,1.78.84.84,0,0,1,0,.1s-.05.09-.15.14l-.61.37a.4.4,0,0,1-.15.05s0,0-.08-.1a15.92,15.92,0,0,0-.67-1.9.26.26,0,0,1,0-.1s0-.07.11-.1Zm1.77,7.86a6.94,6.94,0,0,0,2.42-1.1,3.29,3.29,0,0,0,1-1.49H453l-1.63,0c-.09,0-.13,0-.13-.12v-.87c0-.07,0-.1,0-.12h.11l1.63,0h1.15a10.18,10.18,0,0,0,.09-1.48h-1.29a7.73,7.73,0,0,1-.68.94q-.19.21-.27.21s-.13-.07-.27-.2a3.62,3.62,0,0,0-.69-.44,6.19,6.19,0,0,0,1.56-2.28,2.78,2.78,0,0,0,.19-.63c.36.06.68.14,1,.22s.28.12.28.2-.05.11-.14.2a1.13,1.13,0,0,0-.2.34l-.18.4h3l1.44,0c.08,0,.13,0,.13.11v.85c0,.06,0,.1,0,.11l-.1,0-1.44,0h-1.08c0,.6-.05,1.1-.1,1.48H457l1.64,0c.07,0,.11,0,.12,0a.23.23,0,0,1,0,.11v.87c0,.08-.05.12-.14.12l-1.64,0h-1.26a4.69,4.69,0,0,0,3.41,2.46,3.32,3.32,0,0,0-.43.83c-.08.21-.15.32-.22.32a1.32,1.32,0,0,1-.27-.07A5.65,5.65,0,0,1,454.85,46a5.41,5.41,0,0,1-3.38,2.84,1,1,0,0,1-.28.07c-.07,0-.15-.1-.25-.3A4.19,4.19,0,0,0,450.44,47.84Z"/><path class="cls-15" d="M462.54,45.61c0-.08,0-.12.08-.12a.33.33,0,0,1,.13.06l.74.34c.09,0,.14.08.14.13a.17.17,0,0,1,0,.08,7.34,7.34,0,0,1-1.14,2.29.13.13,0,0,1-.09.07.33.33,0,0,1-.16-.07l-.72-.46c-.07,0-.11-.1-.11-.14a.16.16,0,0,1,0-.09A5.81,5.81,0,0,0,462.54,45.61ZM466,38c.53,0,.94,0,1.22.08.12,0,.18.05.18.13a.53.53,0,0,1-.06.23,1.72,1.72,0,0,0-.07.5H469l1.67,0a.22.22,0,0,1,.12,0,.27.27,0,0,1,0,.11l0,.77v.79l0,.76c0,.06,0,.1,0,.11a.2.2,0,0,1-.11,0l-1.67,0h-1.78v.66h2.19l1.64,0c.07,0,.11,0,.12,0a.23.23,0,0,1,0,.11l0,.74v.77l0,.77a.22.22,0,0,1,0,.12s-.05,0-.12,0l-1.64,0h-2.18l0,.47c0,.08,0,.12-.14.12h0a12.18,12.18,0,0,1,.95,1.06.21.21,0,0,1,.05.09s0,.07-.09.11l-.65.48a.36.36,0,0,1-.15.08s-.05,0-.09-.12a6.3,6.3,0,0,0-.91-1.13s-.06-.08-.06-.1,0-.07.12-.12l.52-.35h-.64a.11.11,0,0,1-.12-.12c0-.13,0-.28,0-.47h-2l-1.65,0c-.06,0-.1,0-.11,0a.29.29,0,0,1,0-.12l0-.77v-.77l0-.74c0-.07,0-.1,0-.12h.1l1.65,0h2v-.66h-1.62l-1.64,0c-.07,0-.1,0-.12,0a.22.22,0,0,1,0-.1l0-.76v-.79l0-.77c0-.06,0-.1,0-.11s.05,0,.11,0l1.67,0h1.59A6.82,6.82,0,0,0,466,38Zm-2.5,5.76h2.59V43h-2.59Zm.39-3.18h2.2v-.76h-2.2Zm4.75,5.82a3,3,0,0,0,.86.36l.25.1a.2.2,0,0,1,0,.14s0,.1,0,.19a1.68,1.68,0,0,1-.69,1.28,2.38,2.38,0,0,1-.93.25c-.28,0-.7,0-1.27,0a5.33,5.33,0,0,1-2.08-.24,1.08,1.08,0,0,1-.44-1V46.4a5.87,5.87,0,0,0-.06-.95,8,8,0,0,1,1.18.11c.15,0,.22.06.22.11a.56.56,0,0,1-.06.22.89.89,0,0,0-.07.41v.75c0,.25.06.41.19.48a3.82,3.82,0,0,0,1.21.11c.47,0,.77,0,.88,0a.88.88,0,0,0,.44-.12C468.48,47.4,468.59,47,468.62,46.36Zm1-5.82v-.76h-2.39v.76Zm.38,3.18V43h-2.77v.77Zm.79,1.76a8.78,8.78,0,0,1,1.31,2.11.33.33,0,0,1,0,.1s0,.09-.12.14l-.76.41a.56.56,0,0,1-.17.06s-.05,0-.07-.09A7,7,0,0,0,469.81,46a.31.31,0,0,1,0-.09s0-.08.13-.13l.66-.36.14-.05S470.76,45.43,470.81,45.48Z"/><path class="cls-16" d="M387.29,85.79a2.27,2.27,0,0,0-.29.46q-.09.21-.15.21a.59.59,0,0,1-.18-.06,12.34,12.34,0,0,1-2-1c0,.16,0,.56,0,1.23v1.91l0,1.44a1.06,1.06,0,0,1-.27.83,2.88,2.88,0,0,1-1.51.24.51.51,0,0,1-.24,0s-.05-.09-.07-.19a1.49,1.49,0,0,0-.22-.51,10.41,10.41,0,0,0,1.14,0q.45,0,.45-.48v-1h-4.53v.74l0,1.42s0,.08-.09.08h-.56c-.06,0-.09,0-.09-.08l0-1.4V85.54a13,13,0,0,1-1.91.86l-.16,0s-.1-.06-.16-.2a1.89,1.89,0,0,0-.31-.42,8.49,8.49,0,0,0,3.43-1.75,4.73,4.73,0,0,0,1.58-2.7,3.78,3.78,0,0,0,.08-.79,1.77,1.77,0,0,0,0-.24c.22,0,.46,0,.73.08s.2.06.2.12a.75.75,0,0,1-.07.22,2.13,2.13,0,0,0-.18.57l0,.09a8.13,8.13,0,0,0,2.19,2.76A9.93,9.93,0,0,0,387.29,85.79Zm-7.56-2.14c0,.07,0,.1-.09.1l-.91,0H378l-.9,0a.09.09,0,0,1-.1-.1V83.2a.09.09,0,0,1,.1-.1l.9,0h.74l.91,0c.06,0,.09,0,.09.1Zm.43-1.61c0,.07,0,.1-.1.1l-1,0h-.93l-1,0c-.07,0-.1,0-.1-.1v-.45c0-.07,0-.1.1-.1l1,0h.93l1,0c.07,0,.1,0,.1.1Zm4,3a8.54,8.54,0,0,1-2.47-2.8,6.06,6.06,0,0,1-2.25,2.8Zm-.18,1.6v-1h-4.53v1Zm0,1.65V87.27h-4.53v1.06ZM386.49,82c0,.07,0,.1-.1.1l-1,0h-1l-1,0a.09.09,0,0,1-.1-.1v-.45a.09.09,0,0,1,.1-.1l1,0h1l1,0c.07,0,.1,0,.1.1Zm0,1.61c0,.07,0,.1-.09.1l-.87,0h-.74l-.88,0a.09.09,0,0,1-.1-.1V83.2a.09.09,0,0,1,.1-.1l.88,0h.74l.87,0c.06,0,.09,0,.09.1Z"/><path class="cls-16" d="M394.23,85.32a.08.08,0,0,1-.09.09h-.43c-.07,0-.1,0-.1-.09v-.95h-3.2v1.21a.09.09,0,0,1-.1.1h-.44a.09.09,0,0,1-.1-.1l0-1v-.26l0-.44c0-.07,0-.1.09-.1l.67,0V81.91l0-1.06c0-.06,0-.09.1-.09l1,0h.93l1,0a.08.08,0,0,1,.09.09l0,1.05v1.94l.34,0h.13c.06,0,.09,0,.09.1l0,.33v.24Zm-.78,0,0,1.49v3.31a1,1,0,0,1-.25.79,1.55,1.55,0,0,1-.87.21.44.44,0,0,1-.22,0,.44.44,0,0,1-.06-.19,1.32,1.32,0,0,0-.18-.44,4.54,4.54,0,0,0,.58,0,.37.37,0,0,0,.32-.12.54.54,0,0,0,.07-.33V88.88h-1.64v.79l0,1.41c0,.06,0,.09-.1.09h-.47a.08.08,0,0,1-.09-.09l0-1.38v-3l0-1.42s0-.08.09-.08l1,0h.8l1,0C393.42,85.19,393.45,85.22,393.45,85.27Zm-.36-3v-.89h-1.95v2.49h.69V83l0-.67c0-.07,0-.1.09-.1l.58,0Zm-.26,4.52v-1h-1.64v1Zm0,1.58v-1h-1.64v1Zm.26-4.5V82.72h-.73v1.12Zm7.73,6.21a1.57,1.57,0,0,0-.19.51c0,.13-.05.2-.08.22a.59.59,0,0,1-.2,0c-.87,0-1.51.08-1.91.08a5.09,5.09,0,0,1-2.31-.4,2.5,2.5,0,0,1-1-.93c-.28.38-.54.71-.8,1a2.45,2.45,0,0,0-.21.3c0,.08-.08.12-.14.12a.17.17,0,0,1-.13-.1,6.08,6.08,0,0,1-.32-.59,2.92,2.92,0,0,0,.61-.45,4.24,4.24,0,0,0,.66-.82V86.28H394c-.06,0-.09,0-.09-.08v-.52c0-.07,0-.1.11-.1l.5,0h.32l.55,0c.06,0,.09,0,.09.1l0,1.08V89a2,2,0,0,0,.92.92,4.08,4.08,0,0,0,1.79.31A24,24,0,0,0,400.82,90.05Zm-5.35-7,0,.07s0,.07-.09.11l-.34.22-.1,0s-.06,0-.08-.09a9.07,9.07,0,0,0-.9-1.82.15.15,0,0,1,0-.06s0,0,.1-.09l.31-.17.09,0s.05,0,.07.05A11.1,11.1,0,0,1,395.47,83Zm5.06-.53c0,.06,0,.09-.08.09l-1.43,0h-1.49a10.57,10.57,0,0,1-.51,1.14h1.71l1,0a.08.08,0,0,1,.09.09l0,1.47v1.9l0,1.42a1,1,0,0,1-.25.79,1.5,1.5,0,0,1-.92.21.44.44,0,0,1-.22,0,.67.67,0,0,1-.07-.2,1.49,1.49,0,0,0-.17-.43,4.84,4.84,0,0,0,.59,0,.36.36,0,0,0,.32-.12.51.51,0,0,0,.08-.32V87.38h-2v.76l0,1.39c0,.06,0,.09-.1.09h-.48a.08.08,0,0,1-.09-.09l0-1.37v-3c0-.42,0-.7,0-.84a12,12,0,0,1-.78,1c-.07.08-.13.12-.16.12s-.08,0-.16-.13a2.09,2.09,0,0,0-.36-.26,7.59,7.59,0,0,0,1.71-2.54l-1.23,0a.08.08,0,0,1-.09-.09V82a.08.08,0,0,1,.09-.09l1.42,0h0c.07-.22.15-.48.22-.78a2.52,2.52,0,0,0,.1-.73,5.08,5.08,0,0,1,.62.12c.11,0,.17.07.17.12a.34.34,0,0,1-.08.18.88.88,0,0,0-.16.35l-.12.4c-.05.17-.09.28-.11.34H399l1.43,0c.05,0,.08,0,.08.09Zm-1.3,2.74v-1h-2v1Zm0,1.59v-1h-2v1Z"/><path class="cls-16" d="M406,84.77a1,1,0,0,1,.67,1.73,1,1,0,0,1-.67.26,1,1,0,0,1-.74-.33,1,1,0,0,1-.26-.67,1,1,0,0,1,1-1Z"/><path class="cls-16" d="M415.66,84.14a.08.08,0,0,1-.09.09l-1.21,0h-2.17v4.37l0,2.43c0,.07,0,.1-.09.1h-.57c-.06,0-.09,0-.09-.1l0-2.43v-5.2l0-2.51c0-.07,0-.1.09-.1l1.36,0h1.45l1.21,0c.06,0,.09,0,.09.1l0,1.1v1ZM415,82.21v-.83h-2.76v.83Zm0,1.44v-.87h-2.76v.87ZM419.44,88a.08.08,0,0,1-.09.09l-1.6,0h-1.07a3.71,3.71,0,0,0,1.19,1,6.56,6.56,0,0,0,1.46.53,1.78,1.78,0,0,0-.27.43c0,.12-.09.17-.13.17a.65.65,0,0,1-.18,0,5.38,5.38,0,0,1-2.56-1.83l-.18.37a4.14,4.14,0,0,1-2.59,1.83l-.17.05s-.09-.05-.16-.15a1.63,1.63,0,0,0-.36-.4,4.13,4.13,0,0,0,2.72-1.61,2.32,2.32,0,0,0,.16-.32h-.84l-1.61,0c-.06,0-.1,0-.1-.09v-.43a.09.09,0,0,1,.1-.1l1.61,0h1a7.1,7.1,0,0,0,.1-1H415l-1.55,0c-.06,0-.09,0-.09-.1V86a.08.08,0,0,1,.09-.09l1.48,0a7.06,7.06,0,0,0-.57-.9.15.15,0,0,1,0-.06s0-.06.12-.09l.27-.13.12,0a.14.14,0,0,1,.09,0,8.63,8.63,0,0,1,.72,1.16h1.27l.4-.79a2,2,0,0,0,.17-.49,5.08,5.08,0,0,1,.59.17c.09,0,.13.08.13.13a.15.15,0,0,1-.08.13.79.79,0,0,0-.19.25l-.17.29c-.07.12-.14.22-.2.31l1.53,0c.07,0,.1,0,.1.09v.42c0,.07,0,.1-.1.1l-1.55,0h-1a6.36,6.36,0,0,1-.12,1h1.31l1.6,0c.06,0,.09,0,.09.1Zm1.69,1.88a1.12,1.12,0,0,1-.31.92,1.09,1.09,0,0,1-.5.2,8.8,8.8,0,0,1-.92,0,.34.34,0,0,1-.2,0,.57.57,0,0,1-.07-.19,2,2,0,0,0-.22-.53,7.89,7.89,0,0,0,.84.05c.28,0,.46,0,.54-.13a.74.74,0,0,0,.1-.45v-5.5h-2.26l-1.3,0c-.07,0-.1,0-.1-.09l0-1.08V81.9l0-1c0-.07,0-.1.1-.1l1.3,0h1.6l1.3,0c.06,0,.09,0,.09.1l0,1.71v5.49Zm-.74-7.63v-.83h-2.95v.83Zm0,1.44v-.87h-2.95v.87Z"/><path class="cls-16" d="M429.45,90.31a.16.16,0,0,1,0,.08s0,.07-.1.1l-.39.19-.11,0s0,0-.06-.06a8.76,8.76,0,0,0-.4-.87c-.93.31-2.11.63-3.53,1a1.21,1.21,0,0,0-.48.21.25.25,0,0,1-.15.09c-.05,0-.09,0-.14-.14a5.41,5.41,0,0,1-.25-.72A7.19,7.19,0,0,0,425,90V85.42l0-1.55c0-.07,0-.1.08-.1l1.3,0h1.32l1.14,0c.07,0,.1,0,.1.1l0,1.15v1.42l0,1.16c0,.05,0,.08-.1.08l-1.14,0h-2V89.9c.79-.17,1.62-.38,2.48-.63q-.12-.19-.51-.75a.13.13,0,0,1,0-.07s0-.06.09-.08l.32-.16a.24.24,0,0,1,.11,0s.05,0,.08,0A9.93,9.93,0,0,1,429.45,90.31Zm-.15-8.26a.09.09,0,0,1-.1.1l-1.3,0h-.51a11,11,0,0,1,.51,1.09l0,.06s0,0-.12.07l-.44.1h-.08s-.07,0-.09-.09a5,5,0,0,0-.52-1.24h-1a7.67,7.67,0,0,1-1.07,1.34c-.09.09-.14.13-.17.13l-.18-.12a1.16,1.16,0,0,0-.41-.25,6.73,6.73,0,0,0,1.68-2.29,1.87,1.87,0,0,0,.18-.63c.32.07.56.12.71.17s.15.08.15.13,0,.12-.12.17a.65.65,0,0,0-.21.29c0,.11-.12.27-.23.48h1.86l1.3,0c.06,0,.1,0,.1.09Zm-1.09,3.34v-1h-2.55v1Zm0,1.68V85.94h-2.55v1.13Zm6.44-5c0,.07,0,.1-.09.1l-1.44,0h-.93a7.4,7.4,0,0,1,.58,1.1.18.18,0,0,1,0,.06s0,0-.11.07l-.41.1-.12,0s-.06,0-.07-.09a5.69,5.69,0,0,0-.63-1.26h-1a8.86,8.86,0,0,1-.77,1.15c-.08.08-.13.13-.15.13s-.1,0-.2-.11a1.43,1.43,0,0,0-.41-.19,6.7,6.7,0,0,0,1.35-2.21,2.7,2.7,0,0,0,.12-.55,3.78,3.78,0,0,1,.7.17c.1,0,.15.08.15.14s0,.09-.12.14a1.46,1.46,0,0,0-.24.43l-.15.32h2.39l1.44,0a.08.08,0,0,1,.09.09Zm-.53,1.78,0,1.51v3.42a1.85,1.85,0,0,1-.08.62.71.71,0,0,1-.23.29,2.72,2.72,0,0,1-1.43.24.48.48,0,0,1-.22,0,.79.79,0,0,1-.07-.21,1.58,1.58,0,0,0-.22-.54,6.56,6.56,0,0,0,.92.06q.41,0,.51-.12a.64.64,0,0,0,.1-.44V84.38h-2.51v5.15l0,1.62s0,.08-.09.08h-.57c-.06,0-.09,0-.09-.08l0-1.63v-4l0-1.64a.08.08,0,0,1,.09-.09l1.22,0h1.34l1.23,0A.08.08,0,0,1,434.12,83.83Z"/><path class="cls-16" d="M440.21,84.77a.94.94,0,0,1,.74.33,1,1,0,0,1-.07,1.4,1,1,0,0,1-.67.26,1,1,0,0,1-.73-.33,1,1,0,0,1-.26-.67.93.93,0,0,1,.33-.73A.92.92,0,0,1,440.21,84.77Z"/><path class="cls-16" d="M455.92,86.16a.09.09,0,0,1-.1.1h-.55a.09.09,0,0,1-.1-.1V84.6h-8.31v1.56c0,.06,0,.1-.09.1h-.56c-.06,0-.09,0-.09-.1l0-1.16v-.37l0-.56a.08.08,0,0,1,.09-.09l1.66,0h.06v-2l0-1.06c0-.06,0-.09.1-.09l1.6,0h2.84l1.6,0a.08.08,0,0,1,.09.09l0,1.06v2h.07l1.64,0c.07,0,.1,0,.1.09l0,.5V85Zm-2,3.84a1,1,0,0,1-.27.81,1,1,0,0,1-.52.2,8.18,8.18,0,0,1-1,0,.47.47,0,0,1-.23,0,.41.41,0,0,1-.09-.19,1.69,1.69,0,0,0-.2-.5,9.86,9.86,0,0,0,1.11,0,.48.48,0,0,0,.38-.12.6.6,0,0,0,.09-.36v-.77h-4.32v.57l0,1.37c0,.06,0,.09-.1.09h-.55c-.07,0-.1,0-.1-.09l0-1.35V86.91l0-1.37c0-.07,0-.1.1-.1l1.55,0h2.48l1.54,0c.06,0,.09,0,.09.1l0,1.44v1.63Zm-.5-7.61v-.86h-4.78V84h2v-.86l0-.68a.08.08,0,0,1,.09-.09l1.07,0ZM453.18,87v-1h-4.32v1Zm0,1.56v-1h-4.32v1Zm.23-4.56V82.94h-2.13V84Z"/><path class="cls-16" d="M462.83,85.25a4.26,4.26,0,0,0,0,.5.44.44,0,0,1,0,.22.46.46,0,0,1-.18.12c-.41.17-.87.35-1.38.53v3.29a2,2,0,0,1-.07.65.7.7,0,0,1-.24.3,1.91,1.91,0,0,1-1.07.21h-.22a.44.44,0,0,1-.22,0,.46.46,0,0,1-.07-.19,2.14,2.14,0,0,0-.23-.54,8.36,8.36,0,0,0,.92,0,.43.43,0,0,0,.38-.16.7.7,0,0,0,.1-.43V86.88l-1,.31a1.69,1.69,0,0,0-.47.23.25.25,0,0,1-.14.07.12.12,0,0,1-.13-.1c-.06-.18-.13-.42-.21-.74a7.38,7.38,0,0,0,1.07-.24c.39-.12.67-.2.84-.27V83.53h-.39l-1.18,0c-.06,0-.1,0-.1-.09v-.52c0-.06,0-.09.1-.09l1.18,0h.39v-1a7.45,7.45,0,0,0-.1-1.47,7.7,7.7,0,0,1,.8.08q.15,0,.15.09a.77.77,0,0,1-.08.23,4.54,4.54,0,0,0-.06,1v1h.17l1.19,0a.08.08,0,0,1,.09.09v.52a.08.08,0,0,1-.09.09l-1.19,0h-.17v2.36C461.81,85.67,462.35,85.46,462.83,85.25Zm6.48-.31s0,.08-.09.08l-1.47,0h-.51v4.54l0,1.53a.09.09,0,0,1-.1.1h-.57a.09.09,0,0,1-.1-.1l0-1.53V85h-2.31v0a12.27,12.27,0,0,1-.37,3.27,7,7,0,0,1-1.33,2.61.31.31,0,0,1-.17.11.29.29,0,0,1-.16-.1,1.87,1.87,0,0,0-.45-.33A5.72,5.72,0,0,0,463.18,88a11.66,11.66,0,0,0,.32-3V83.1a12,12,0,0,0-.07-1.56,5,5,0,0,1,.78.24,15.13,15.13,0,0,0,3.14-1,2,2,0,0,0,.63-.39,4.11,4.11,0,0,1,.51.53.44.44,0,0,1,.08.16c0,.06-.06.09-.17.11a1.87,1.87,0,0,0-.43.14,18.73,18.73,0,0,1-3.76,1v1.91h3.54l1.47,0a.08.08,0,0,1,.09.09Z"/><path class="cls-16" d="M377.59,98.81A3.88,3.88,0,0,1,384,96.46a3.06,3.06,0,0,1,.86,2.27,3.65,3.65,0,0,1-.6,2,11,11,0,0,1-1.81,2,13,13,0,0,0-2.9,3.31h5.35v1.56h-7.38v-1.38a15.72,15.72,0,0,1,3.41-4.42,9.17,9.17,0,0,0,1.59-1.85,2.5,2.5,0,0,0,.31-1.26,1.64,1.64,0,0,0-.48-1.27,1.49,1.49,0,0,0-1.08-.38c-1,0-1.6.72-1.69,2.15Z"/><path class="cls-16" d="M392.94,95.64v7.82h1.48v1.47h-1.48v2.69h-1.8v-2.69H386.6v-1.38l3.87-7.91Zm-1.8,7.82v-2.63c0-.83,0-2,.09-3.64H391c-.36.93-.8,2-1.33,3.11l-1.47,3.16Z"/><path class="cls-16" d="M398,97.94a1.85,1.85,0,0,1,1.54.68,2.61,2.61,0,0,1,.5,1.68,2.56,2.56,0,0,1-.64,1.86,1.87,1.87,0,0,1-1.4.55,1.82,1.82,0,0,1-1.53-.71,2.67,2.67,0,0,1-.49-1.69,2.53,2.53,0,0,1,.63-1.85A1.9,1.9,0,0,1,398,97.94Zm0,.82c-.58,0-.86.52-.86,1.55s.28,1.58.86,1.58.87-.52.87-1.58S398.59,98.76,398,98.76Zm5.6-.82L398,107.42h-.73l5.65-9.48Zm-.73,4.7a1.86,1.86,0,0,1,1.53.69,2.65,2.65,0,0,1,.49,1.67,2.57,2.57,0,0,1-.64,1.87,2,2,0,0,1-2.93-.16,2.73,2.73,0,0,1-.49-1.71,2.48,2.48,0,0,1,.63-1.83A1.94,1.94,0,0,1,402.88,102.64Zm0,.82c-.58,0-.88.52-.88,1.56s.3,1.58.88,1.58.86-.53.86-1.58S403.46,103.46,402.88,103.46Z"/><path class="cls-16" d="M200.59,4.67a5.25,5.25,0,0,0,.56,0l.5,0c.71-.07,1.76-.21,3.14-.43a1.1,1.1,0,0,0,.46-.16.46.46,0,0,1,.18-.07.4.4,0,0,1,.21.1,2.5,2.5,0,0,1,.43.43.4.4,0,0,1,.09.23c0,.09,0,.15-.15.21a1.38,1.38,0,0,0-.43.27c-1.47,1.32-2.93,2.55-4.37,3.67l0,0a43.71,43.71,0,0,1,6.59-1.42h0a.12.12,0,0,1,.14.1,2.39,2.39,0,0,1,.09.61v0q0,.09-.18.09a8,8,0,0,0-2.19.42,4.65,4.65,0,0,0-1.81,1.11,2,2,0,0,0-.6,1.38c0,1.14,1.07,1.72,3.22,1.73.09,0,.13.05.13.14a4.76,4.76,0,0,1-.07.58.16.16,0,0,1-.18.16l-.75-.05a4.38,4.38,0,0,1-2.36-.82,2,2,0,0,1-.74-1.57,2.47,2.47,0,0,1,.55-1.52,4.16,4.16,0,0,1,1.55-1.18v0a43.28,43.28,0,0,0-4.82,1.34l-.26.11-.13.05c-.05,0-.11-.05-.16-.15a4.22,4.22,0,0,1-.29-.62,2.09,2.09,0,0,0,.48-.14,5,5,0,0,0,1.34-.83q1.83-1.5,4-3.6c-1.31.21-2.3.38-3,.51l-.25.06-.18,0-.13,0a.63.63,0,0,1-.22,0q-.09,0-.18-.18A4.29,4.29,0,0,1,200.59,4.67Z"/><path class="cls-16" d="M216.55,6a15,15,0,0,1-.64,3.1,9.33,9.33,0,0,1-.94,2.14,2.06,2.06,0,0,1-1.76,1.24,1.5,1.5,0,0,1-1.28-.8,3.64,3.64,0,0,1-.47-1.92A4,4,0,0,1,211.87,8a4.5,4.5,0,0,1,1-1.35,5.1,5.1,0,0,1,3.6-1.33,4.35,4.35,0,0,1,3.29,1.22,3.66,3.66,0,0,1,1,2.65,3.75,3.75,0,0,1-1.06,2.72,5.54,5.54,0,0,1-2.75,1.46.23.23,0,0,1-.31-.12,1.36,1.36,0,0,0-.47-.45A5.14,5.14,0,0,0,219,11.33,3.31,3.31,0,0,0,219.88,9a2.89,2.89,0,0,0-1-2.29A3.1,3.1,0,0,0,216.78,6Zm-.83,0a3.84,3.84,0,0,0-2.34,1.1,3.55,3.55,0,0,0-1.16,2.59,2.62,2.62,0,0,0,.37,1.49.75.75,0,0,0,.61.39c.41,0,.78-.29,1.11-.88a10.69,10.69,0,0,0,.93-2.26A12.56,12.56,0,0,0,215.72,6Z"/><path class="cls-16" d="M227.13,4.06c0,.05,0,.1-.12.17a1.08,1.08,0,0,0-.24.44c-.26.69-.54,1.32-.82,1.89V12.4l0,1.86c0,.06,0,.09-.1.09h-.57a.08.08,0,0,1-.09-.09l0-1.86v-3c0-.7,0-1.24,0-1.61a13.38,13.38,0,0,1-1.1,1.47c-.07.08-.11.12-.14.12s-.07,0-.12-.13a1.75,1.75,0,0,0-.32-.46,12.36,12.36,0,0,0,2.49-4.27,2.79,2.79,0,0,0,.18-.82,5.76,5.76,0,0,1,.72.26C227.08,4,227.13,4,227.13,4.06Zm7.42,7.83c-.08.91-.3,1.47-.66,1.71a6.25,6.25,0,0,1-3,.46,10.39,10.39,0,0,1-2.18-.16,1.06,1.06,0,0,1-.84-1.15v-4c-.3.1-.58.2-.82.3l-.27.09a.11.11,0,0,1-.07,0s-.05,0-.06-.08l-.12-.57V8.48s0,0,.07-.05l.16,0,1.11-.32V6.44a9.93,9.93,0,0,0-.07-1.34,4.68,4.68,0,0,1,.76.06c.1,0,.16,0,.16.11a.49.49,0,0,1-.07.22,3.11,3.11,0,0,0-.07.85V7.83l1.65-.53V5.47a9.15,9.15,0,0,0-.1-1.62c.28,0,.54,0,.79.08.09,0,.14,0,.14.09s0,.09-.05.22A5.8,5.8,0,0,0,231,5.49V7.07l1.13-.37c.48-.15.87-.29,1.19-.41l.26-.1.08,0h0s.07,0,.07.11l0,.88a22.9,22.9,0,0,1-.25,3,1.27,1.27,0,0,1-.38.79.94.94,0,0,1-.61.18,6.62,6.62,0,0,1-.67,0q-.15,0-.18-.06a.51.51,0,0,1-.06-.2,1.3,1.3,0,0,0-.15-.47,6.23,6.23,0,0,0,.91.09.39.39,0,0,0,.35-.17,1.57,1.57,0,0,0,.15-.5A21.36,21.36,0,0,0,233,7.08l-2,.68V9.9l0,1.81c0,.06,0,.09-.1.09h-.56a.08.08,0,0,1-.09-.09l0-1.81V8l-1.65.54v4a.67.67,0,0,0,.55.75,10.67,10.67,0,0,0,1.84.11,4.91,4.91,0,0,0,2.32-.35q.47-.28.51-1.68a4.35,4.35,0,0,0,.53.28c.13.05.2.12.2.19a.13.13,0,0,1,0,0Z"/><path class="cls-16" d="M204.36,18.86V29.32h2.22v1.52h-6.41V29.32h2.34V20.84a8.54,8.54,0,0,1-2.21,1.06L200,20.26a8.62,8.62,0,0,0,2.77-1.4Z"/><path class="cls-16" d="M212.46,18.74a3.07,3.07,0,0,1,2.89,1.6,9.37,9.37,0,0,1,.85,4.51q0,3.45-1.1,4.95a3.12,3.12,0,0,1-2.68,1.26,3.07,3.07,0,0,1-2.9-1.64,9.75,9.75,0,0,1-.82-4.54q0-3.42,1.11-4.92A3.11,3.11,0,0,1,212.46,18.74Zm0,1.54a1.42,1.42,0,0,0-1.39,1.11,11.87,11.87,0,0,0-.36,3.47,10.43,10.43,0,0,0,.46,3.79,1.28,1.28,0,0,0,1.25.86,1.44,1.44,0,0,0,1.42-1.16,12.44,12.44,0,0,0,.35-3.49,10.07,10.07,0,0,0-.46-3.74A1.3,1.3,0,0,0,212.46,20.28Z"/><path class="cls-16" d="M220.42,21.16a1.88,1.88,0,0,1,1.54.67,2.66,2.66,0,0,1,.5,1.69,2.56,2.56,0,0,1-.64,1.86,1.9,1.9,0,0,1-1.4.54,1.81,1.81,0,0,1-1.53-.7,2.69,2.69,0,0,1-.49-1.69,2.51,2.51,0,0,1,.63-1.85A1.9,1.9,0,0,1,220.42,21.16Zm0,.82c-.58,0-.86.52-.86,1.55s.28,1.58.86,1.58.87-.53.87-1.58S221,22,220.42,22Zm5.6-.82-5.64,9.48h-.73l5.65-9.48Zm-.73,4.7a1.86,1.86,0,0,1,1.53.69,2.65,2.65,0,0,1,.49,1.67,2.58,2.58,0,0,1-.64,1.87,1.88,1.88,0,0,1-1.38.55,1.86,1.86,0,0,1-1.55-.71,2.73,2.73,0,0,1-.49-1.71,2.48,2.48,0,0,1,.63-1.83A1.94,1.94,0,0,1,225.29,25.86Zm0,.81c-.58,0-.88.52-.88,1.56s.3,1.59.88,1.59.86-.53.86-1.59S225.87,26.67,225.29,26.67Z"/><path class="cls-16" d="M376.39,289.06a1,1,0,0,1-.3.87,1.68,1.68,0,0,1-1,.23c-.12,0-.19,0-.22,0a.67.67,0,0,1-.07-.2,1.53,1.53,0,0,0-.23-.48l.55,0h.19c.24,0,.37-.16.37-.46v-2.77h-1.5a16.5,16.5,0,0,1-.3,2.45,11,11,0,0,1-.45,1.38c0,.09-.08.13-.12.13a.26.26,0,0,1-.17-.11,1.45,1.45,0,0,0-.41-.27,7.68,7.68,0,0,0,.65-2.22,28,28,0,0,0,.19-3.81V282l0-1.87c0-.06,0-.09.1-.09l.91,0h.78l.92,0a.08.08,0,0,1,.09.09l0,1.87v5.44Zm-.67-3.47v-2.15h-1.45v.34c0,.68,0,1.29,0,1.81Zm0-2.79v-2.11h-1.45v2.11Zm3-.2a.11.11,0,0,1,0,0s0,.07-.11.1l-.34.15-.15.05s-.06,0-.08-.09a11.1,11.1,0,0,0-1.09-2.21.13.13,0,0,1,0-.07s0-.06.12-.1l.3-.14.13,0s.05,0,.08.07A12.22,12.22,0,0,1,378.76,282.6Zm4.46,1.51a.3.3,0,0,1-.05.17,4.85,4.85,0,0,0-.07,1.12v3.06l0,1.76a.09.09,0,0,1-.1.1h-.52c-.06,0-.09,0-.09-.1v-.55h-4.5v.59c0,.07,0,.1-.09.1h-.5c-.07,0-.1,0-.1-.1l0-1.72v-3.11a8.84,8.84,0,0,0-.07-1.42,6.94,6.94,0,0,1,.73.06c.1,0,.14.05.14.1a.57.57,0,0,1-.06.21,4.56,4.56,0,0,0-.07,1.05V289h4.5v-3.65a9.13,9.13,0,0,0-.07-1.45,5,5,0,0,1,.74.07C383.18,284,383.22,284.05,383.22,284.11Zm-1.38,3.42a.11.11,0,0,1,0,.07.2.2,0,0,1-.07.11l-.25.24c-.07.06-.11.09-.14.09s0,0-.07-.06c-.38-.52-.69-.94-.95-1.23a7.63,7.63,0,0,1-1.46,1.64c-.07.07-.12.11-.16.11s-.08,0-.15-.13a1.31,1.31,0,0,0-.37-.26,7.61,7.61,0,0,0,1.73-1.84A17.45,17.45,0,0,0,378.7,285s-.06-.06-.06-.08a.18.18,0,0,1,.06-.1l.26-.25a.1.1,0,0,1,.08-.05l.08,0a15.87,15.87,0,0,1,1.19,1.12,9.72,9.72,0,0,0,.42-1,4.66,4.66,0,0,0,.26-1,5.4,5.4,0,0,1,.61.23c.1,0,.15.08.15.13a.4.4,0,0,1-.12.2,1.72,1.72,0,0,0-.24.48,11.72,11.72,0,0,1-.65,1.39A13.39,13.39,0,0,1,381.84,287.53Zm-1.14-5.41v.05s0,.07-.12.1l-.35.14-.12,0s-.06,0-.08-.1a10,10,0,0,0-.81-2.15.14.14,0,0,1,0-.06s0-.06.11-.08l.35-.13.1,0s.05,0,.07.07A11.35,11.35,0,0,1,380.7,282.12Zm2.72-1.74c0,.05,0,.09-.09.14a1.7,1.7,0,0,0-.3.47,18.09,18.09,0,0,1-1.11,2c-.07.11-.13.16-.17.16l-.17-.06a2.25,2.25,0,0,0-.42-.13,14.31,14.31,0,0,0,1.19-2.16,3.65,3.65,0,0,0,.25-.82,4.78,4.78,0,0,1,.71.25C383.39,280.28,383.42,280.33,383.42,280.38Z"/><path class="cls-16" d="M396.54,287.46a.08.08,0,0,1-.09.09l-1.56,0h-3.34v1.53l0,1.3c0,.06,0,.09-.1.09h-.6c-.06,0-.1,0-.1-.09l0-1.3v-1.53h-3.15l-1.56,0a.08.08,0,0,1-.09-.09v-.55a.08.08,0,0,1,.09-.09l1.56,0h3.15v0a5.79,5.79,0,0,0-.07-1.06l.79.06c.08,0,.13,0,.13.1a.49.49,0,0,1-.06.19,1.29,1.29,0,0,0-.05.43v.3h3.34l1.56,0a.08.08,0,0,1,.09.09Zm-.25-5.81a.08.08,0,0,1-.09.09l-1.61,0h-6.67l-1.61,0c-.06,0-.1,0-.1-.09v-.53a.09.09,0,0,1,.1-.1l1.61,0h2.9v-.24a6.48,6.48,0,0,0-.08-1.22l.8.06c.1,0,.15.05.15.1a1.18,1.18,0,0,1-.07.22,2.69,2.69,0,0,0-.07.84v.24h3l1.61,0c.06,0,.09,0,.09.1ZM390.87,285a2.26,2.26,0,0,0-.31.38c-.07.11-.13.16-.16.16a.28.28,0,0,1-.15-.08,6.54,6.54,0,0,1-1.41-1.5,7.15,7.15,0,0,1-1.81,2,.54.54,0,0,1-.17.09s-.08,0-.18-.14a1.51,1.51,0,0,0-.42-.32,5.62,5.62,0,0,0,1.52-1.34,5.94,5.94,0,0,0,.86-1.4,2.75,2.75,0,0,0,.21-.82,5.41,5.41,0,0,1,.66.19c.12,0,.17.08.17.15a.21.21,0,0,1-.07.15,1.31,1.31,0,0,0-.27.46l-.18.43A6.14,6.14,0,0,0,390.87,285Zm5.36.33a1.08,1.08,0,0,0-.3.44c-.05.13-.1.19-.14.19l-.18-.05a6.76,6.76,0,0,1-2.44-1.89,7.29,7.29,0,0,1-1.07,1.44c-.08.08-.13.12-.16.12s-.09-.05-.17-.14a1,1,0,0,0-.36-.29,5.69,5.69,0,0,0,1.58-2.34,2.87,2.87,0,0,0,.18-.75c.24.06.46.12.66.19s.16.09.16.15a.19.19,0,0,1-.08.13,1,1,0,0,0-.22.4c0,.11-.11.27-.2.48A6.68,6.68,0,0,0,396.23,285.37Z"/><path class="cls-16" d="M408.46,287c0,.06,0,.1-.09.1h-.57c-.06,0-.09,0-.09-.1v-.62h-3.38v1.74l0,2.16c0,.06,0,.09-.1.09h-.61a.08.08,0,0,1-.09-.09l0-2.15v-1.75H400.4V287a.08.08,0,0,1-.09.09h-.57c-.07,0-.1,0-.1-.09l0-2.26v-1.13l0-1.53c0-.06,0-.09.1-.09l1.69,0h2.14v-1a10.65,10.65,0,0,0-.08-1.53l.82.06c.1,0,.15.05.15.11a.57.57,0,0,1-.06.21,4.65,4.65,0,0,0-.07,1.09v1h2.34l1.7,0a.08.08,0,0,1,.09.09l0,1.36v1.26Zm-4.89-1.3v-3H400.4v3Zm4.14,0v-3h-3.38v3Z"/><path class="cls-16" d="M374.09,298a3.87,3.87,0,0,1,6.37-2.35,3,3,0,0,1,.86,2.26,3.63,3.63,0,0,1-.6,2,11,11,0,0,1-1.81,2,13,13,0,0,0-2.9,3.31h5.35v1.56H374v-1.39a16,16,0,0,1,3.41-4.42,9.18,9.18,0,0,0,1.59-1.84,2.5,2.5,0,0,0,.31-1.26,1.66,1.66,0,0,0-.48-1.28,1.53,1.53,0,0,0-1.08-.38c-1,0-1.6.72-1.69,2.16Z"/><path class="cls-16" d="M383.67,297.27a3.24,3.24,0,0,1,1.42-2,3.93,3.93,0,0,1,2.19-.58,3.78,3.78,0,0,1,2.72,1,2.74,2.74,0,0,1,.85,2,2.63,2.63,0,0,1-.68,1.86,2.77,2.77,0,0,1-1.6.82v.11a3.1,3.1,0,0,1,1.94,1.14,2.93,2.93,0,0,1,.58,1.86,3.32,3.32,0,0,1-1.19,2.68,4,4,0,0,1-2.62.86,3.51,3.51,0,0,1-3.79-2.64l1.91-.56a2.28,2.28,0,0,0,.71,1.34,1.79,1.79,0,0,0,1.15.34,1.7,1.7,0,0,0,1.4-.6,2.2,2.2,0,0,0,.43-1.41c0-1.44-.77-2.15-2.31-2.15h-.9v-1.6h.82c1.46,0,2.18-.62,2.18-1.87a1.6,1.6,0,0,0-.5-1.29,1.64,1.64,0,0,0-1.13-.38,1.5,1.5,0,0,0-1.14.46,2.08,2.08,0,0,0-.52,1.18Z"/><path class="cls-16" d="M395.09,297.12a1.87,1.87,0,0,1,1.54.68,2.65,2.65,0,0,1,.5,1.68,2.6,2.6,0,0,1-.64,1.87,1.9,1.9,0,0,1-1.4.54,1.82,1.82,0,0,1-1.53-.71,2.64,2.64,0,0,1-.49-1.68,2.48,2.48,0,0,1,.64-1.85A1.87,1.87,0,0,1,395.09,297.12Zm0,.83c-.58,0-.86.51-.86,1.55s.28,1.58.86,1.58.87-.53.87-1.58S395.67,298,395.09,298Zm5.6-.83-5.64,9.48h-.73l5.66-9.48Zm-.73,4.71a1.86,1.86,0,0,1,1.53.68,2.7,2.7,0,0,1,.49,1.68,2.56,2.56,0,0,1-.64,1.87,2,2,0,0,1-2.93-.17,2.68,2.68,0,0,1-.49-1.7,2.45,2.45,0,0,1,.63-1.83A1.9,1.9,0,0,1,400,301.83Zm0,.81c-.58,0-.88.52-.88,1.56s.3,1.59.88,1.59.86-.53.86-1.59S400.54,302.64,400,302.64Z"/><path class="cls-16" d="M175.45,337.2c0,.06,0,.1-.09.1l-1.25,0h-1.4l-1.24,0c-.06,0-.09,0-.09-.1v-.51a.08.08,0,0,1,.09-.09l1.24,0h1.4l1.25,0a.08.08,0,0,1,.09.09Zm-.36-1.63c0,.06,0,.09-.1.09l-1,0H173l-1.05,0a.08.08,0,0,1-.09-.09v-.48c0-.07,0-.1.09-.1l1.05,0H174l1,0c.07,0,.1,0,.1.1Zm0,9.3c0,.06,0,.09-.1.09h-.48c-.07,0-.1,0-.1-.09v-.39h-1.79v.62c0,.07,0,.1-.09.1H172c-.07,0-.11,0-.11-.1l0-1.75v-.72l0-1.06c0-.06,0-.08.1-.08l1,0h.88l1,0c.06,0,.1,0,.1.08l0,.86v.73Zm-.15-6.07a.08.08,0,0,1-.09.09l-1,0h-.75l-1,0c-.06,0-.1,0-.1-.09v-.47a.09.09,0,0,1,.1-.1l1,0h.75l1,0c.06,0,.09,0,.09.1Zm0,1.6c0,.06,0,.1-.09.1l-1,0h-.75l-1,0a.09.09,0,0,1-.1-.1v-.47c0-.06,0-.09.1-.09l1,0h.75l1,0a.08.08,0,0,1,.09.09Zm-.53,3.49v-1.8h-1.79v1.8Zm7.24-8.78c0,.09,0,.35-.05.77a13.52,13.52,0,0,1-.37,3.29,1,1,0,0,1-1.08.67,6.17,6.17,0,0,1-.8,0,.35.35,0,0,1-.18-.05.52.52,0,0,1,0-.21,1.58,1.58,0,0,0-.17-.49,5.51,5.51,0,0,0,1,.1.56.56,0,0,0,.59-.32,11.1,11.1,0,0,0,.32-3.18h-2.11a6.87,6.87,0,0,1-.36,1.76l1.11.58s0,0,0,.05l-.06.13-.15.32c0,.09-.08.13-.12.13l-.07,0c-.27-.16-.61-.35-1-.56a5,5,0,0,1-2.19,2.2.76.76,0,0,1-.19.07c-.05,0-.1-.06-.17-.16a1,1,0,0,0-.36-.35,4.39,4.39,0,0,0,2.31-2.05,14.33,14.33,0,0,0-1.41-.57s-.06,0-.06,0a.58.58,0,0,1,.05-.13l.14-.31c0-.06.07-.09.1-.09l.07,0c.55.19,1,.36,1.35.52a6,6,0,0,0,.28-1.49h-.51l-1.51,0c-.07,0-.1,0-.1-.09v-.48a.09.09,0,0,1,.1-.1l1.51,0H180l1.54,0A.1.1,0,0,1,181.61,335.11Zm-5,6.69a7.79,7.79,0,0,1-.68,2.25s0,.07-.07.07l-.13,0-.29-.15c-.09-.05-.14-.09-.14-.12a.07.07,0,0,1,0-.06,6.28,6.28,0,0,0,.65-2.12c0-.06,0-.09.07-.09l.12,0,.32.09c.09,0,.13.06.13.09Zm4,1.72a3,3,0,0,1-.2.88.88.88,0,0,1-.39.42,2.58,2.58,0,0,1-1.23.2,3.1,3.1,0,0,1-1.11-.13.75.75,0,0,1-.43-.79V342a8.09,8.09,0,0,0,0-.92,3.83,3.83,0,0,1,.67.07q.15,0,.15.09a.79.79,0,0,1-.05.15,1.67,1.67,0,0,0-.06.56v1.85a.83.83,0,0,0,.05.34.34.34,0,0,0,.18.14,3.25,3.25,0,0,0,1.51,0c.21-.15.31-.58.32-1.27a1.63,1.63,0,0,0,.45.24c.13,0,.2.11.2.2A.46.46,0,0,1,180.62,343.52Zm-.89-2.46s.06.06.06.08,0,.07-.1.14l-.23.22c-.08.08-.12.12-.14.12s0,0-.07,0a5.7,5.7,0,0,0-1.45-1.26s-.05-.05-.05-.06a.38.38,0,0,1,.09-.11l.23-.22c.05-.05.09-.08.11-.08a.12.12,0,0,1,.08,0A9.32,9.32,0,0,1,179.73,341.06Zm2.49,2.39a.11.11,0,0,1,0,.05s0,.06-.14.12l-.29.14-.15.06s0,0-.05-.06a7.34,7.34,0,0,0-1.08-2.05l0,0s.05-.05.15-.09l.26-.13.13-.05s0,0,.08.07A9.36,9.36,0,0,1,182.22,343.45Z"/><path class="cls-16" d="M190,339.8c0,.07,0,.11-.1.11l-1.47,0h-.64l-.06.38a7.81,7.81,0,0,0,2.21,2.87,1.36,1.36,0,0,0-.33.48c-.05.1-.09.16-.13.16s-.09,0-.17-.13a8.8,8.8,0,0,1-1.78-2.48,7.21,7.21,0,0,1-2.33,3.5c-.08.07-.13.1-.16.1s-.1,0-.16-.16a1.47,1.47,0,0,0-.41-.36,6.67,6.67,0,0,0,1.68-1.73,6,6,0,0,0,.74-1.72,6.59,6.59,0,0,0,.19-.91h-.86l-1.48,0c-.06,0-.09,0-.09-.11v-.49a.08.08,0,0,1,.09-.09l1.48,0h.95c.05-.66.08-1.41.08-2.23h-1.09a8.26,8.26,0,0,1-.81,1.28c-.08.1-.13.14-.16.14a.35.35,0,0,1-.17-.1,1.27,1.27,0,0,0-.41-.24,7,7,0,0,0,1.55-2.87,3.15,3.15,0,0,0,.12-.68,2.91,2.91,0,0,1,.69.19c.09,0,.13.07.13.12a.23.23,0,0,1-.07.14,1,1,0,0,0-.21.4c-.11.34-.23.67-.36,1h1.9l1.29,0c.06,0,.1,0,.1.09v.49a.09.09,0,0,1-.1.1l-1.29,0h-.41c0,1,0,1.74-.1,2.23h.58l1.47,0c.07,0,.1,0,.1.09Zm4.76,4.75c0,.07,0,.1-.09.1h-.56c-.06,0-.09,0-.09-.1v-.84h-2.82v.94a.08.08,0,0,1-.09.09h-.55a.08.08,0,0,1-.09-.09l0-3.22v-3.16l0-2.47c0-.05,0-.08.09-.08l1.3,0h1.51l1.3,0c.06,0,.09,0,.09.08l0,2.18v3.39ZM194,343v-6.63h-2.82V343Z"/><path class="cls-16" d="M208.36,336.31c0,.06,0,.1-.09.1l-1.68,0h-6.34v1.47c0,1.13,0,1.94,0,2.45A11.29,11.29,0,0,1,200,342a8.16,8.16,0,0,1-1.34,3c-.07.09-.12.13-.15.13s-.09,0-.17-.13a1.6,1.6,0,0,0-.42-.34,6.08,6.08,0,0,0,1.42-3,11.22,11.22,0,0,0,.17-1.16c-.26.14-.62.33-1.09.56a1.06,1.06,0,0,0-.41.3.22.22,0,0,1-.15.08s-.08,0-.12-.09a6.12,6.12,0,0,1-.28-.69,4.63,4.63,0,0,0,.89-.3c.36-.15.75-.33,1.19-.55,0-.37,0-1,0-1.9l0-2.16c0-.06,0-.09.1-.09l1.7,0h2.05v-.43a4.87,4.87,0,0,0-.07-1,7.5,7.5,0,0,1,.76.06q.15,0,.15.09a.91.91,0,0,1-.07.23,1.73,1.73,0,0,0-.06.58v.44h2.51l1.68,0a.08.08,0,0,1,.09.09Zm-9.24,2.12s0,.05,0,.07,0,.07-.14.11l-.27.16a.41.41,0,0,1-.15.07s0,0-.07-.08a8.22,8.22,0,0,0-.8-1.94l0-.06s0-.06.12-.1l.29-.12.12-.05s0,0,.06.06A9.27,9.27,0,0,1,199.12,338.43Zm9.14,6.17c0,.07,0,.11-.1.11l-1.69,0h-4.65l-1.7,0c-.06,0-.09,0-.09-.11v-.48c0-.07,0-.1.09-.1l1.6,0v-2.49a10.55,10.55,0,0,0-.08-1.56,5.11,5.11,0,0,1,.76.07c.1,0,.15,0,.15.1a.45.45,0,0,1-.08.22,6.49,6.49,0,0,0-.05,1.12v2.54h1.74V338.4h-1.47l-1.66,0c-.06,0-.09,0-.09-.1v-.5a.08.08,0,0,1,.09-.09l1.66,0h3.54l1.67,0c.07,0,.1,0,.1.09v.5c0,.07,0,.1-.1.1l-1.67,0h-1.38v2.27h1.5l1,0c.07,0,.1,0,.1.1v.49c0,.07,0,.1-.1.1l-1,0h-1.5v2.75h1.62l1.69,0c.07,0,.1,0,.1.1Z"/><path class="cls-16" d="M177.3,349.7v10.47h2.22v1.52H173.1v-1.52h2.34v-8.49a8.47,8.47,0,0,1-2.2,1.06l-.31-1.63a9,9,0,0,0,2.77-1.41Z"/><path class="cls-16" d="M187.72,349.7v7.82h1.49V359h-1.49v2.7h-1.79V359h-4.54v-1.38l3.87-7.91Zm-1.79,7.82V354.9c0-.83,0-2,.09-3.65h-.22q-.53,1.39-1.32,3.12L183,357.52Z"/><path class="cls-16" d="M192.79,352a1.86,1.86,0,0,1,1.54.68,3.06,3.06,0,0,1-.14,3.55,1.88,1.88,0,0,1-1.4.54,1.84,1.84,0,0,1-1.53-.71,2.71,2.71,0,0,1-.48-1.69,2.5,2.5,0,0,1,.63-1.84A1.87,1.87,0,0,1,192.79,352Zm0,.83c-.57,0-.86.51-.86,1.54s.29,1.59.86,1.59.88-.53.88-1.59S193.38,352.83,192.79,352.83Zm5.61-.83-5.64,9.48H192l5.65-9.48Zm-.73,4.71a1.82,1.82,0,0,1,1.52.68,2.62,2.62,0,0,1,.49,1.68,2.6,2.6,0,0,1-.63,1.87,1.87,1.87,0,0,1-1.38.54,1.82,1.82,0,0,1-1.55-.71,2.69,2.69,0,0,1-.5-1.7,2.45,2.45,0,0,1,.64-1.84A1.93,1.93,0,0,1,197.67,356.71Zm0,.81c-.59,0-.88.52-.88,1.56s.29,1.59.88,1.59.86-.53.86-1.59S198.24,357.52,197.67,357.52Z"/><path class="cls-16" d="M80.39,251.27a1.41,1.41,0,0,0-.35.45c-.07.12-.13.19-.18.19l-.17,0a7.82,7.82,0,0,1-4.92-4.21h0a8.38,8.38,0,0,1-1.31,1.13v2.06q1.38-.24,2.67-.57a1.6,1.6,0,0,0-.07.41c0,.11,0,.19-.05.22a.53.53,0,0,1-.21.09q-1.53.39-3.87.78a1.14,1.14,0,0,0-.47.14.29.29,0,0,1-.16.06.13.13,0,0,1-.13-.1c-.07-.2-.14-.43-.22-.69a12.59,12.59,0,0,0,1.29-.14l.53-.07v-1.73a14,14,0,0,1-2.58,1.17.48.48,0,0,1-.18.05c-.06,0-.12-.07-.2-.2a1.56,1.56,0,0,0-.28-.37,10.41,10.41,0,0,0,4.34-2.24H73.2l-1.66,0c-.06,0-.1,0-.1-.09l0-1v-.41h-.29l-1.52,0a.08.08,0,0,1-.09-.09v-.48c0-.07,0-.1.09-.1l1.52,0h.29v-.38l0-1.05a.09.09,0,0,1,.1-.1l1.66,0h3.35l1.66,0c.06,0,.09,0,.09.1l0,1v.4h.39l1.52,0c.06,0,.09,0,.09.1v.48a.08.08,0,0,1-.09.09l-1.52,0h-.39v.41l0,1a.08.08,0,0,1-.09.09l-1.66,0H75.46a6.07,6.07,0,0,0,1.27,1.73,14.16,14.16,0,0,0,1.75-1.16,2.15,2.15,0,0,0,.41-.46,5.49,5.49,0,0,1,.53.39.2.2,0,0,1,.09.15c0,.05-.05.09-.14.12a1.55,1.55,0,0,0-.4.23,18.41,18.41,0,0,1-1.79,1.11A8.22,8.22,0,0,0,80.39,251.27Zm-.27-8.21c0,.06,0,.09-.1.09l-1.57,0h-7l-1.58,0a.08.08,0,0,1-.09-.09v-.51a.08.08,0,0,1,.09-.09l1.58,0h3v-.18a4.23,4.23,0,0,0-.09-1l.8.06c.09,0,.14.05.14.1a.56.56,0,0,1-.06.22,1.94,1.94,0,0,0-.06.63v.18h3.29l1.57,0c.07,0,.1,0,.1.09Zm-2.54,2.47v-.89H72.15v.89Zm0,1.54v-.92H72.15v.92Z"/><path class="cls-16" d="M86.07,249a.82.82,0,0,1,0,.14c0,.08-.07.16-.2.24a20.82,20.82,0,0,1-2.1,1,1.49,1.49,0,0,0-.45.25.21.21,0,0,1-.13.09.16.16,0,0,1-.13-.1c-.08-.16-.18-.36-.28-.61a6.94,6.94,0,0,0,1-.31,13,13,0,0,0,2.26-1.16C86.06,248.74,86.06,248.88,86.07,249Zm1.28-2.85c0,.29,0,.76-.08,1.42a13.23,13.23,0,0,1-.51,3.63,1.14,1.14,0,0,1-1.18.69l-.73,0c-.09,0-.14,0-.16-.06a.53.53,0,0,1,0-.22,1.33,1.33,0,0,0-.18-.48,5.33,5.33,0,0,0,1,.08.71.71,0,0,0,.68-.3,15.64,15.64,0,0,0,.51-4.23H83.79a1.48,1.48,0,0,1-.07.26c0,.07,0,.11-.11.11l-.27,0c-.21,0-.31-.08-.31-.13a.32.32,0,0,1,0-.08,14.38,14.38,0,0,0,.41-1.92,5.52,5.52,0,0,0,.06-.77.1.1,0,0,1,.11-.11l.95,0h1.78v-1.48h-2l-1.18,0c-.06,0-.09,0-.09-.08V242c0-.07,0-.1.09-.1l1.18,0h1.53l1.12,0c.07,0,.1,0,.1.1l0,.92v.71l0,.92a.09.09,0,0,1-.1.1l-1.12,0H84.16c-.11.7-.19,1.19-.24,1.46h2.21l1.12,0C87.32,246,87.35,246.08,87.35,246.15Zm-2.16,2.11-.25.25c-.06.07-.11.1-.14.1s0,0-.07,0a5.57,5.57,0,0,0-1.1-.89s-.06-.05-.06-.07a.28.28,0,0,1,.06-.13l.19-.2a.24.24,0,0,1,.13-.08l.08,0a5.18,5.18,0,0,1,1.16.86s.06.06.06.08S85.23,248.22,85.19,248.26Zm6.18.62a.57.57,0,0,1,0,.12c0,.09-.07.18-.21.26a25.28,25.28,0,0,1-2.35,1.12,1.16,1.16,0,0,0-.44.24.24.24,0,0,1-.13.08.17.17,0,0,1-.13-.09c0-.05-.12-.26-.29-.63a5.43,5.43,0,0,0,.9-.26,14.64,14.64,0,0,0,2.63-1.28C91.36,248.62,91.36,248.76,91.37,248.88Zm1.34-2.73c-.06.88-.09,1.35-.09,1.42a14.13,14.13,0,0,1-.51,3.67,1.17,1.17,0,0,1-1.19.65l-.73,0q-.15,0-.18-.06a.68.68,0,0,1-.06-.22,1.19,1.19,0,0,0-.16-.48,5.66,5.66,0,0,0,1,.08c.37,0,.59-.1.68-.31a15.51,15.51,0,0,0,.5-4.22h-3.1l-.06.24c0,.09-.06.13-.13.13l-.25,0c-.21,0-.32-.08-.32-.14s0,0,0-.08a13.6,13.6,0,0,0,.36-1.91,5.42,5.42,0,0,0,0-.65.41.41,0,0,0,0-.12c0-.07,0-.11.12-.11l1,0h2v-1.48H89.44l-1.25,0c-.06,0-.1,0-.1-.08V242a.09.09,0,0,1,.1-.1l1.25,0h1.67l1.17,0c.07,0,.1,0,.1.1l0,.92v.71l0,.92a.09.09,0,0,1-.1.1l-1.17,0H89.18c-.09.77-.16,1.26-.2,1.46h2.44l1.19,0C92.68,246,92.71,246.08,92.71,246.15Zm-2.39,1.94a.07.07,0,0,1,0,.06s0,0-.07.11l-.21.25c-.07.08-.11.12-.14.12s0,0-.07,0a5.86,5.86,0,0,0-1.12-.91s-.08-.05-.08-.07,0-.06.08-.11l.19-.22q.06-.09.12-.09a.16.16,0,0,1,.09,0A5.83,5.83,0,0,1,90.32,248.09Z"/><path class="cls-16" d="M75.53,256.52V267h2.21v1.51H71.33V267h2.34V258.5a8.63,8.63,0,0,1-2.2,1.06l-.32-1.64a8.77,8.77,0,0,0,2.78-1.4Z"/><path class="cls-16" d="M86,256.52v7.82h1.49v1.47H86v2.69h-1.8v-2.69H79.61v-1.38l3.87-7.91Zm-1.8,7.82v-2.62c0-.84,0-2.05.09-3.65H84c-.35.93-.8,2-1.32,3.11l-1.48,3.16Z"/><path class="cls-16" d="M91,258.82a1.87,1.87,0,0,1,1.54.68,2.61,2.61,0,0,1,.5,1.68,2.52,2.52,0,0,1-.64,1.86,1.87,1.87,0,0,1-1.4.55,1.84,1.84,0,0,1-1.53-.71,2.72,2.72,0,0,1-.49-1.69,2.49,2.49,0,0,1,.64-1.84A1.87,1.87,0,0,1,91,258.82Zm0,.83c-.57,0-.86.51-.86,1.54s.29,1.58.86,1.58.87-.52.87-1.58S91.6,259.65,91,259.65Zm5.6-.83L91,268.3h-.74l5.66-9.48Zm-.72,4.7a1.82,1.82,0,0,1,1.52.69,2.61,2.61,0,0,1,.49,1.68,2.52,2.52,0,0,1-.64,1.86,1.8,1.8,0,0,1-1.37.55,1.88,1.88,0,0,1-1.56-.71,2.68,2.68,0,0,1-.49-1.7,2.49,2.49,0,0,1,.63-1.84A2,2,0,0,1,95.9,263.52Zm0,.82c-.59,0-.88.52-.88,1.56s.29,1.59.88,1.59.86-.53.86-1.59S96.47,264.34,95.9,264.34Z"/><path class="cls-16" d="M26.82,163.44a13.69,13.69,0,0,1-1.26,3.9.11.11,0,0,1-.1.08.34.34,0,0,1-.13,0l-.38-.17c-.11-.05-.17-.1-.17-.14a.07.07,0,0,1,0-.06,11.22,11.22,0,0,0,1.27-3.76c0-.05,0-.07,0-.07l.17,0,.39.09c.11,0,.16.06.16.11A0,0,0,0,1,26.82,163.44ZM33,166.38a6.37,6.37,0,0,1-.19,1.63,1.17,1.17,0,0,1-.44.62,3.83,3.83,0,0,1-2.11.42,4.47,4.47,0,0,1-1.77-.23.9.9,0,0,1-.41-.38,1.68,1.68,0,0,1-.12-.71v-4.68a6.44,6.44,0,0,0-.07-1.1,6,6,0,0,1,.8.1c.12,0,.17.07.17.12a.43.43,0,0,1-.06.17,2.31,2.31,0,0,0-.07.78v4.38c0,.35.09.57.29.66a3.69,3.69,0,0,0,1.28.13,2.53,2.53,0,0,0,1.47-.26.94.94,0,0,0,.37-.65,9.38,9.38,0,0,0,.08-1.55,2.34,2.34,0,0,0,.57.27.58.58,0,0,1,.18.07.16.16,0,0,1,0,.11A.77.77,0,0,0,33,166.38Zm-1.2-5.83s.05,0,.05.07a.42.42,0,0,1-.06.14l-.22.38c-.06.1-.11.15-.13.15l-.07,0a11.68,11.68,0,0,0-3.13-1.7c-.05,0-.07,0-.07-.07a.33.33,0,0,1,.07-.14l.21-.31c.06-.08.1-.13.12-.13l.06,0A14.49,14.49,0,0,1,31.84,160.55Zm3.6,6a.25.25,0,0,1,0,.07s-.05.09-.15.14l-.4.19-.18.07s0,0,0-.06a13,13,0,0,0-1.61-3.59.13.13,0,0,1,0-.08s0-.08.11-.11l.41-.17.13,0s.06,0,.1.07A15.33,15.33,0,0,1,35.44,166.55Z"/><path class="cls-16" d="M41,159.21,41,161v5.4l0,1.65a1,1,0,0,1-.32.86,1.54,1.54,0,0,1-.89.21.45.45,0,0,1-.22,0,.5.5,0,0,1-.08-.19,1.82,1.82,0,0,0-.22-.47l.54,0H40c.24,0,.35-.17.35-.47V165.3H39a15.41,15.41,0,0,1-.28,2.43,7.89,7.89,0,0,1-.48,1.47q-.06.15-.12.15s-.08,0-.16-.1a1.57,1.57,0,0,0-.4-.29,6.9,6.9,0,0,0,.68-2.29,32.09,32.09,0,0,0,.17-3.8v-1.8l0-1.86c0-.08,0-.11.09-.11l.84,0H40l.85,0C41,159.1,41,159.13,41,159.21Zm-.66,5.47v-2.16H39.05v.35c0,.5,0,1.1,0,1.81Zm0-2.79v-2.13H39.05v2.13Zm8.43,5.59a3.9,3.9,0,0,1-.31,1.46.6.6,0,0,1-.54.33c-.43,0-.84-.53-1.21-1.59a6.78,6.78,0,0,1-1.49,1.6.43.43,0,0,1-.19.09s-.1,0-.18-.12a1,1,0,0,0-.35-.22,7.53,7.53,0,0,0,.86-.67l-.67,0h-.76l-.93,0a.08.08,0,0,1-.09-.09l0-1.32v-2.21l0-1.31c0-.05,0-.08.11-.08l.91,0h.72l.86,0c.06,0,.1,0,.1.08v.36a.09.09,0,0,1-.1.1l-.79,0v1l.72,0c.06,0,.09,0,.09.1l0,.67V166l0,.67a.08.08,0,0,1-.09.09l-.72,0v1.1l.65,0c.06,0,.09,0,.09.1v.35a5.28,5.28,0,0,0,1-1.27l-.06-.28a21.12,21.12,0,0,1-.49-4.14H42.38v.84a28,28,0,0,1-.2,3.76,7.68,7.68,0,0,1-.51,2c0,.11-.08.16-.1.16a.5.5,0,0,1-.17-.12,1.41,1.41,0,0,0-.36-.27,6.93,6.93,0,0,0,.56-2.15,29.62,29.62,0,0,0,.15-3.39l0-1.29c0-.07,0-.11.09-.11l1.66,0h2.43a5.35,5.35,0,0,0-.06-.79l.64.07c.1,0,.15,0,.15.11a.84.84,0,0,1-.06.18,1.16,1.16,0,0,0-.06.43h.19l1.62,0c.07,0,.1,0,.1.11v.43c0,.06,0,.09-.1.09l-1.62,0h-.18a20,20,0,0,0,.36,3.6,13.91,13.91,0,0,0,.46-1.38,4.9,4.9,0,0,0,.19-1.05,2.64,2.64,0,0,1,.57.21c.11,0,.16.1.16.14a.27.27,0,0,1-.08.16,1.44,1.44,0,0,0-.24.55,16,16,0,0,1-.85,2.2,6.18,6.18,0,0,0,.46,1.18c.14.24.25.35.34.35s.19-.14.24-.44a11.46,11.46,0,0,0,.13-1.26,1.05,1.05,0,0,0,.35.26.25.25,0,0,1,.15.22A1.18,1.18,0,0,1,48.76,167.48Zm-.29-7.09c0,.07,0,.1-.1.1l-1.65,0h-.64l0,.54c0,.08,0,.12-.1.12h-.47c-.07,0-.1,0-.1-.12s0-.06,0-.17,0-.24,0-.37H43.9l0,.81a.09.09,0,0,1-.1.1h-.48c-.06,0-.09,0-.09-.1s0-.09,0-.25,0-.36,0-.56h-.12l-1.66,0c-.06,0-.09,0-.09-.1V160a.08.08,0,0,1,.09-.09l1.66,0h.12v0a9.14,9.14,0,0,0-.05-1.19l.66.05c.09,0,.13.06.13.12A.37.37,0,0,1,44,159a3.14,3.14,0,0,0-.07.87v0h1.56v0a6.17,6.17,0,0,0-.08-1.19l.69.06c.09,0,.13,0,.13.1a.38.38,0,0,1-.06.17,3,3,0,0,0-.06.85v0h.64l1.65,0c.07,0,.1,0,.1.09Zm-4.29,4.46v-1h-.72v1Zm.8,1.43v-1H43.46v1Zm-.8,1.57v-1.1h-.72v1.1Zm3.91-6.3a.09.09,0,0,1,0,.06s0,0-.07.08l-.23.17-.09,0s0,0-.07,0a4.32,4.32,0,0,0-.74-.79s0,0,0-.06,0,0,.07-.08l.22-.14.09,0,.07,0A4.55,4.55,0,0,1,48.09,161.55Z"/><path class="cls-16" d="M61.74,160.42c0,.07,0,.1-.1.1l-1.68,0H53.6v1.56a20.62,20.62,0,0,1-.3,4.16,8,8,0,0,1-1.36,3c-.06.09-.11.14-.14.14s-.09,0-.17-.13a1.24,1.24,0,0,0-.42-.34,6.18,6.18,0,0,0,1.43-3,11.18,11.18,0,0,0,.17-1.18c-.33.19-.69.38-1.1.58a1.32,1.32,0,0,0-.4.3.17.17,0,0,1-.15.08s-.08,0-.11-.09a5.28,5.28,0,0,1-.29-.69,7.11,7.11,0,0,0,.89-.3c.46-.2.86-.39,1.21-.56,0-.56,0-1.19,0-1.88l0-2.27a.08.08,0,0,1,.09-.09l1.71,0h2.15v-.33a5.77,5.77,0,0,0-.07-1q.22,0,.75.06.15,0,.15.09a1.05,1.05,0,0,1-.07.23,2.2,2.2,0,0,0,0,.58v.34H60l1.68,0c.07,0,.1,0,.1.09Zm-9.3,2.22a.18.18,0,0,1,0,.06s0,.08-.13.12L52,163l-.15.06s0,0-.07-.07A8.49,8.49,0,0,0,51,161l0-.06s0-.05.13-.1l.28-.11a.24.24,0,0,1,.12-.05s0,0,.07.06A9.6,9.6,0,0,1,52.44,162.64Zm5.61,1.69a5.48,5.48,0,0,1-.15.73,13.49,13.49,0,0,1,2.2,1.82s.06.06.06.08,0,.07-.09.13l-.23.25c-.07.09-.11.13-.14.13s0,0-.08-.06a12.33,12.33,0,0,0-1.91-1.82,4.85,4.85,0,0,1-1.53,1.82.45.45,0,0,1-.17.09s-.09,0-.17-.13a1,1,0,0,0-.39-.28,4.65,4.65,0,0,0,1.43-1.28,3.59,3.59,0,0,0,.53-1.48H55.26v3.61l0,1.35c0,.06,0,.09-.08.09h-.55a.08.08,0,0,1-.09-.09l0-1.32v-2.81l0-1.36a.08.08,0,0,1,.09-.09l1.64,0h1.18c0-.49,0-1,0-1.43H56l-1.67,0c-.06,0-.08,0-.08-.09v-.48c0-.06,0-.1.08-.1l1.67,0h3.73l1.67,0a.09.09,0,0,1,.1.1v.48c0,.06,0,.09-.1.09l-1.67,0H58.16c0,.85,0,1.32,0,1.43h1.36l1.62,0c.07,0,.1,0,.1.09l0,1.43v1.53l0,1.53A1.05,1.05,0,0,1,61,169a2.25,2.25,0,0,1-1.34.24h-.21c-.12,0-.19,0-.21,0a.46.46,0,0,1-.07-.2,1.34,1.34,0,0,0-.22-.45,8.45,8.45,0,0,0,.85,0H60a.52.52,0,0,0,.38-.11.58.58,0,0,0,.1-.4v-3.79Z"/><path class="cls-16" d="M74.29,157.06v7.81h1.49v1.47H74.29V169h-1.8v-2.7H68V165l3.87-7.9Zm-1.8,7.81v-2.62c0-.83,0-2.05.09-3.65h-.21c-.35.94-.8,2-1.32,3.12l-1.47,3.15Z"/><path class="cls-16" d="M79.36,159.35a1.86,1.86,0,0,1,1.54.68,2.65,2.65,0,0,1,.5,1.68,2.56,2.56,0,0,1-.64,1.87,1.88,1.88,0,0,1-1.4.54,1.82,1.82,0,0,1-1.53-.71,2.7,2.7,0,0,1-.48-1.68,2.51,2.51,0,0,1,.63-1.85A1.87,1.87,0,0,1,79.36,159.35Zm0,.83c-.57,0-.86.52-.86,1.55s.29,1.58.86,1.58.87-.53.87-1.58S79.94,160.18,79.36,160.18Zm5.6-.83-5.63,9.48h-.74l5.66-9.48Zm-.72,4.71a1.84,1.84,0,0,1,1.52.68,2.64,2.64,0,0,1,.49,1.68,2.54,2.54,0,0,1-.64,1.87,2,2,0,0,1-2.93-.17,2.75,2.75,0,0,1-.49-1.7,2.46,2.46,0,0,1,.63-1.83A1.91,1.91,0,0,1,84.24,164.06Zm0,.81c-.59,0-.88.52-.88,1.56s.29,1.59.88,1.59.86-.53.86-1.59S84.81,164.87,84.24,164.87Z"/><path class="cls-16" d="M0,135.05a9.71,9.71,0,0,0,2.81-3.75A4.47,4.47,0,0,0,3.19,130a4,4,0,0,1,.95.4.18.18,0,0,1,.11.16.26.26,0,0,1-.09.17,2.43,2.43,0,0,0-.42.69A12.64,12.64,0,0,1,1,135.32a.3.3,0,0,1-.22.1.22.22,0,0,1-.15-.06A1.56,1.56,0,0,0,0,135.05Zm6.19-4.62.53-.36.12,0a.17.17,0,0,1,.13.07,15.58,15.58,0,0,1,3,4.31.24.24,0,0,1,0,.13.15.15,0,0,1-.08.12,5.35,5.35,0,0,1-.57.38l-.09,0s-.07,0-.1-.11A15.45,15.45,0,0,0,6.19,130.43ZM9.31,128a1.18,1.18,0,0,1,.9.4,1.16,1.16,0,0,1,.31.81,1.12,1.12,0,0,1-.4.9,1.16,1.16,0,0,1-.81.31,1.19,1.19,0,0,1-1.21-1.21,1.12,1.12,0,0,1,.4-.89A1.17,1.17,0,0,1,9.31,128Zm0,.46a.7.7,0,0,0-.56.25.74.74,0,0,0,.05,1.06.76.76,0,0,0,.51.2.7.7,0,0,0,.56-.25.73.73,0,0,0,.2-.51.71.71,0,0,0-.25-.55A.73.73,0,0,0,9.31,128.5Z"/><path class="cls-16" d="M12.94,132a23.16,23.16,0,0,0,2.65.11h3.68c.84,0,1.72,0,2.63,0H22c.08,0,.12,0,.12.14a2.91,2.91,0,0,1,0,.31,3.11,3.11,0,0,1,0,.32q0,.15-.12.15H21.9l-2.59,0H14.88a10,10,0,0,0-1.29.07l-.24,0h-.09a.21.21,0,0,1-.21-.17A5.21,5.21,0,0,1,12.94,132Z"/><path class="cls-16" d="M28.9,130l-.22-1.05a4.64,4.64,0,0,0-.43-1.29,5.17,5.17,0,0,1,.57,0l.44,0c.13,0,.19.07.19.17v0a1.39,1.39,0,0,0,0,.3,3.23,3.23,0,0,0,.08.68l.19,1,1.39-.25c.86-.15,1.47-.28,1.84-.37h0a.11.11,0,0,1,.1.08,4.07,4.07,0,0,1,.13.57v0c0,.06,0,.09-.12.1l-1.82.31-1.4.25.4,2,2-.36c.68-.13,1.26-.25,1.73-.38h.06q.08,0,.09.09c0,.15.08.32.13.53v0a.12.12,0,0,1-.13.14c-.46.07-1,.18-1.75.31l-2,.36.35,1.64c.12.64.29,1.33.48,2.09a.17.17,0,0,1,0,.07.12.12,0,0,1-.1.12,2.6,2.6,0,0,1-.58.14h-.06c-.07,0-.11,0-.12-.13-.09-.49-.23-1.19-.41-2.08l-.36-1.7-2,.34c-.49.08-1.08.21-1.77.38l-.09,0c-.06,0-.11,0-.13-.13s-.15-.45-.22-.71c.53,0,1.21-.14,2-.28l2-.34-.42-2-1.4.23a15.79,15.79,0,0,0-1.68.35H25.9s-.09,0-.11-.11a7.31,7.31,0,0,1-.22-.72c.49,0,1.14-.11,2-.24Z"/><path class="cls-16" d="M37.44,129.4l.47-.55a.15.15,0,0,1,.12-.07.16.16,0,0,1,.1,0,10.77,10.77,0,0,1,2.16,1.6.19.19,0,0,1,.07.13.26.26,0,0,1,0,.1,5.3,5.3,0,0,1-.41.51.16.16,0,0,1-.1.07s-.06,0-.1-.06A11.85,11.85,0,0,0,37.44,129.4Zm.29,6.3a8.18,8.18,0,0,0,1.26-.49A21.7,21.7,0,0,0,42.46,133a20.54,20.54,0,0,0,3.24-3.23,4.68,4.68,0,0,0,.2.8.34.34,0,0,1,0,.16.46.46,0,0,1-.12.26,21.48,21.48,0,0,1-2.92,2.76,25.29,25.29,0,0,1-3.6,2.34,5,5,0,0,0-.66.46.24.24,0,0,1-.16.09s-.1,0-.16-.1A4.46,4.46,0,0,1,37.73,135.7Z"/><path class="cls-16" d="M49.44,129.41,50,129c.05,0,.08-.07.11-.07a.15.15,0,0,1,.12.07A8.84,8.84,0,0,1,52,131a.21.21,0,0,1,.05.11.24.24,0,0,1-.07.13,3.16,3.16,0,0,1-.5.42.19.19,0,0,1-.1,0,.14.14,0,0,1-.12-.09A8.7,8.7,0,0,0,49.44,129.41Zm6.93-.69a4.15,4.15,0,0,1,1,.49c.07,0,.1.08.1.14a.34.34,0,0,1-.1.19,3.42,3.42,0,0,0-.36.72,15.64,15.64,0,0,1-2.25,4.15,11.61,11.61,0,0,1-3,2.83.32.32,0,0,1-.16.06.21.21,0,0,1-.16-.07,1.75,1.75,0,0,0-.7-.31,12.35,12.35,0,0,0,5.4-6.87A5,5,0,0,0,56.37,128.72Z"/><path class="cls-16" d="M61.43,129.4c.2-.24.35-.43.47-.55a.16.16,0,0,1,.11-.07.16.16,0,0,1,.1,0,10.55,10.55,0,0,1,2.17,1.6.24.24,0,0,1,.07.13.34.34,0,0,1,0,.1,3.36,3.36,0,0,1-.41.51c0,.05-.07.07-.1.07s0,0-.09-.06A11.85,11.85,0,0,0,61.43,129.4Zm.29,6.3a8.18,8.18,0,0,0,1.26-.49A21.58,21.58,0,0,0,66.44,133a19.71,19.71,0,0,0,3.24-3.23,3.94,3.94,0,0,0,.21.8.34.34,0,0,1,0,.16.42.42,0,0,1-.13.26,22,22,0,0,1-2.91,2.76,25.29,25.29,0,0,1-3.6,2.34,4.38,4.38,0,0,0-.66.46.24.24,0,0,1-.16.09.22.22,0,0,1-.16-.1A4,4,0,0,1,61.72,135.7Z"/><path class="cls-16" d="M77.17,127.87a3.3,3.3,0,0,1,1.42-2,4,4,0,0,1,2.19-.57,3.78,3.78,0,0,1,2.72,1A2.7,2.7,0,0,1,82.07,131v.11A3.1,3.1,0,0,1,84,132.22a3,3,0,0,1,.58,1.86,3.31,3.31,0,0,1-1.19,2.68,3.92,3.92,0,0,1-2.62.86A3.5,3.5,0,0,1,77,135l1.91-.57a2.34,2.34,0,0,0,.71,1.35,1.85,1.85,0,0,0,1.15.34,1.7,1.7,0,0,0,1.4-.6,2.18,2.18,0,0,0,.43-1.41q0-2.16-2.31-2.16h-.9v-1.59h.82c1.46,0,2.18-.62,2.18-1.87a1.6,1.6,0,0,0-.5-1.3,1.64,1.64,0,0,0-1.13-.37,1.53,1.53,0,0,0-1.14.45,2.18,2.18,0,0,0-.52,1.19Z"/><path class="cls-16" d="M88.59,127.72a1.87,1.87,0,0,1,1.54.68,2.61,2.61,0,0,1,.5,1.68,2.52,2.52,0,0,1-.64,1.86,1.87,1.87,0,0,1-1.4.55,1.84,1.84,0,0,1-1.53-.71,2.74,2.74,0,0,1-.49-1.69,2.45,2.45,0,0,1,.64-1.84A1.83,1.83,0,0,1,88.59,127.72Zm0,.82c-.57,0-.86.52-.86,1.55s.29,1.58.86,1.58.87-.52.87-1.58S89.17,128.54,88.59,128.54Zm5.6-.82-5.64,9.48h-.73l5.66-9.48Zm-.73,4.7a1.84,1.84,0,0,1,1.53.69,2.61,2.61,0,0,1,.49,1.68,2.52,2.52,0,0,1-.64,1.86,1.81,1.81,0,0,1-1.38.55,1.87,1.87,0,0,1-1.55-.71,2.7,2.7,0,0,1-.49-1.7,2.49,2.49,0,0,1,.63-1.84A1.94,1.94,0,0,1,93.46,132.42Zm0,.82q-.87,0-.87,1.56c0,1.06.29,1.58.87,1.58s.87-.52.87-1.58S94,133.24,93.46,133.24Z"/><path class="cls-16" d="M49.92,111.76a2.1,2.1,0,0,0-.33.41c-.05.1-.09.14-.12.14s-.08,0-.12-.11a8.91,8.91,0,0,1-.91-1.8c0,1.23,0,2.55.05,3.95,0,.27,0,.6,0,1,0,.23,0,.36,0,.38a.08.08,0,0,1-.09.09h-.56c-.07,0-.1,0-.1-.09s0-.29,0-.84c.06-1.61.09-3.07.09-4.39A17.27,17.27,0,0,1,46.37,114q-.07.12-.12.12s-.07,0-.12-.14a2,2,0,0,0-.31-.46,16.13,16.13,0,0,0,1.89-3.81h-.37l-1.16,0c-.06,0-.1,0-.1-.08v-.47c0-.06,0-.09.1-.09l1.16,0h.47V106.5a8.48,8.48,0,0,0-.09-1.47,5.07,5.07,0,0,1,.75.08q.15,0,.15.09a.54.54,0,0,1-.08.24,5.76,5.76,0,0,0,0,1v2.66h.11l1.18,0c.06,0,.1,0,.1.09v.47s0,.08-.1.08l-1.18,0h0A7.16,7.16,0,0,0,49.92,111.76ZM47.3,108.1v0s0,.08-.11.11l-.35.14-.09,0s0,0,0-.08a8.23,8.23,0,0,0-.53-2,.11.11,0,0,1,0,0s0-.06.11-.09l.29-.13.12,0s0,0,.07.07A11.16,11.16,0,0,1,47.3,108.1Zm2.82-1.74s0,.07-.09.13a.53.53,0,0,0-.13.25,14.13,14.13,0,0,1-.62,1.62c-.05.1-.09.16-.13.16l-.16-.09a.74.74,0,0,0-.32-.11,8.75,8.75,0,0,0,.64-1.84,1.88,1.88,0,0,0,.07-.48,3.58,3.58,0,0,1,.63.23C50.08,106.27,50.12,106.31,50.12,106.36Zm6.72,3.74c0,.06,0,.09-.1.09h-.26l-.55,0v.43l0,1.12a.08.08,0,0,1-.09.09l-1.4,0H52.73l-1.2,0c-.06,0-.1,0-.1-.09v-.41a.09.09,0,0,1,.1-.1l1.2,0h.44v-1.07H51c0,.78-.11,1.47-.2,2.07a9.13,9.13,0,0,1-1,3.2c0,.11-.08.16-.12.16s-.09,0-.16-.12a1.17,1.17,0,0,0-.44-.29,8.31,8.31,0,0,0,1.12-3.37,24.33,24.33,0,0,0,.18-3.31l0-2.14c0-.06,0-.09.1-.09l1.62,0H53V106a4.2,4.2,0,0,0-.08-1,6,6,0,0,1,.76.07c.1,0,.14,0,.14.11a.67.67,0,0,1-.07.21,1.8,1.8,0,0,0-.06.59v.3H55l1.6,0a.08.08,0,0,1,.09.09v.5a.08.08,0,0,1-.09.09l-1.6,0h-4v1.57c0,.25,0,.62,0,1.1h2.14v-1H52.9l-1.32,0c-.06,0-.09,0-.09-.1v-.41a.08.08,0,0,1,.09-.09l1.32,0h.27a4.89,4.89,0,0,0-.07-.93,4.24,4.24,0,0,1,.71.07c.1,0,.15.07.15.13a.84.84,0,0,1-.06.18,1.31,1.31,0,0,0-.08.55h.65l1.4,0a.08.08,0,0,1,.09.09l0,1.12v.34l.81,0a.09.09,0,0,1,.1.1ZM56,115.69s0,.08-.1.08h-.51c-.06,0-.09,0-.09-.08v-.39H52.05v.41c0,.07,0,.1-.09.1h-.51c-.07,0-.1,0-.1-.1l0-1.54v-.58l0-.87c0-.06,0-.09.1-.09l1.38,0h1.73l1.37,0a.08.08,0,0,1,.09.09l0,.75v.67Zm-.7-1v-1.52H52.05v1.52Zm0-5.13v-1H53.82v1Zm0,1.63v-1.07H53.82v1.07Z"/><path class="cls-16" d="M68.92,108.2c0,.06,0,.09-.1.09l-1.7,0H61v.34a22.73,22.73,0,0,1-.26,3.41,8.27,8.27,0,0,1-1.18,3.36c-.07.1-.11.16-.14.16s-.07-.05-.15-.14a1.71,1.71,0,0,0-.43-.36,6.59,6.59,0,0,0,1.2-3.27,25.15,25.15,0,0,0,.24-3.76l0-2.38c0-.06,0-.09.1-.09l1.71,0h5l1.7,0c.07,0,.1,0,.1.09l0,.87v.84Zm-4.51,2.64s0,.09-.11.13a.54.54,0,0,0-.2.3,7.66,7.66,0,0,1-2.71,3.57c-.09.07-.14.11-.17.11s-.1-.06-.18-.16a1.45,1.45,0,0,0-.41-.35A6.66,6.66,0,0,0,63.5,111h-.83l-1.15,0c-.07,0-.1,0-.1-.09v-.5c0-.07,0-.11.1-.11l1.15,0h.82a1,1,0,0,0,.25,0l.12,0c.08,0,.18.08.31.23S64.41,110.76,64.41,110.84Zm3.78-3.22v-1.41H61v1.41Zm1.62,6.75a1.88,1.88,0,0,0-.41.44c-.07.11-.12.17-.15.17a.41.41,0,0,1-.18-.09,9.52,9.52,0,0,1-2.2-1.8,9.34,9.34,0,0,1-1.42-2.28c.06,2.08.09,3.39.09,3.92a.81.81,0,0,1-.4.78,2.62,2.62,0,0,1-1.19.19h-.27a.16.16,0,0,1-.13,0,1.45,1.45,0,0,1-.06-.19,1.7,1.7,0,0,0-.27-.52l.86,0q.75,0,.75-.42v-4.65a10.55,10.55,0,0,0-.06-1.22c.32,0,.56,0,.74.07s.15,0,.15.09a1.54,1.54,0,0,1-.08.23,2.06,2.06,0,0,0-.06.64,8.44,8.44,0,0,0,1,1.91,14,14,0,0,0,1.61-1.57,2,2,0,0,0,.35-.53,3.8,3.8,0,0,1,.59.35c.09.08.14.13.14.17s0,.11-.14.14a2.88,2.88,0,0,0-.51.44,15.09,15.09,0,0,1-1.67,1.5A7.72,7.72,0,0,0,69.81,114.37Z"/><path class="cls-16" d="M82.74,106.79c0,.06,0,.09-.1.09l-1.68,0H74.6v1.56a20.5,20.5,0,0,1-.3,4.15,8.09,8.09,0,0,1-1.36,3c-.06.09-.11.13-.14.13s-.09,0-.17-.13a1.34,1.34,0,0,0-.42-.33,6.27,6.27,0,0,0,1.43-3,11.56,11.56,0,0,0,.17-1.18c-.33.18-.69.38-1.1.57a1.17,1.17,0,0,0-.4.31.19.19,0,0,1-.15.08s-.08,0-.11-.1a4.63,4.63,0,0,1-.29-.68,7.11,7.11,0,0,0,.89-.3l1.21-.57c0-.56,0-1.18,0-1.88l0-2.26a.08.08,0,0,1,.09-.09l1.71,0h2.15v-.33a5.91,5.91,0,0,0-.07-1l.75.06q.15,0,.15.09a.91.91,0,0,1-.07.23,2.26,2.26,0,0,0,0,.58v.35H81l1.68,0c.07,0,.1,0,.1.09ZM73.44,109a.2.2,0,0,1,0,.07s0,.07-.13.12l-.28.15a.41.41,0,0,1-.15.07s0,0-.07-.08a8.22,8.22,0,0,0-.8-1.94.39.39,0,0,1,0-.06s0-.06.13-.1l.28-.12.12,0s0,0,.07.06A10.17,10.17,0,0,1,73.44,109Zm5.61,1.7a5.83,5.83,0,0,1-.15.73,14,14,0,0,1,2.2,1.81s.06.07.06.09,0,.06-.09.13l-.23.25c-.07.08-.11.12-.14.12s0,0-.08-.06A12.23,12.23,0,0,0,78.71,112a4.82,4.82,0,0,1-1.53,1.81c-.09.07-.14.1-.17.1s-.09-.05-.17-.14a1,1,0,0,0-.39-.27,4.55,4.55,0,0,0,1.43-1.29,3.5,3.5,0,0,0,.53-1.47H76.26v3.61l0,1.34c0,.07,0,.1-.08.1h-.55c-.06,0-.09,0-.09-.1l0-1.31v-2.82l0-1.35a.08.08,0,0,1,.09-.09l1.64,0h1.18q0-.75,0-1.44H77l-1.67,0c-.06,0-.08,0-.08-.09v-.49c0-.06,0-.09.08-.09L77,108h3.73l1.67,0c.06,0,.1,0,.1.09v.49c0,.06,0,.09-.1.09l-1.67,0H79.16c0,.85,0,1.33,0,1.44h1.36l1.62,0c.07,0,.1,0,.1.09l0,1.43v1.52l0,1.54a1,1,0,0,1-.23.74,2.25,2.25,0,0,1-1.34.24h-.21a.4.4,0,0,1-.21,0,.53.53,0,0,1-.07-.21,1.19,1.19,0,0,0-.22-.44c.3,0,.58,0,.85,0H81a.53.53,0,0,0,.38-.1.6.6,0,0,0,.1-.4V110.7Z"/><path class="cls-16" d="M89.17,105.87a3.3,3.3,0,0,1,1.42-2,4,4,0,0,1,2.19-.57,3.78,3.78,0,0,1,2.72,1A2.7,2.7,0,0,1,94.07,109v.11A3.1,3.1,0,0,1,96,110.22a3,3,0,0,1,.58,1.86,3.31,3.31,0,0,1-1.19,2.68,3.92,3.92,0,0,1-2.62.86A3.5,3.5,0,0,1,89,113l1.91-.57a2.34,2.34,0,0,0,.71,1.35,1.85,1.85,0,0,0,1.15.34,1.7,1.7,0,0,0,1.4-.6,2.18,2.18,0,0,0,.43-1.41q0-2.16-2.31-2.16h-.9v-1.59h.82c1.46,0,2.18-.62,2.18-1.87a1.6,1.6,0,0,0-.5-1.3,1.64,1.64,0,0,0-1.13-.37,1.53,1.53,0,0,0-1.14.45,2.18,2.18,0,0,0-.52,1.19Z"/><path class="cls-16" d="M100.59,105.72a1.87,1.87,0,0,1,1.54.68,2.61,2.61,0,0,1,.5,1.68,2.52,2.52,0,0,1-.64,1.86,1.87,1.87,0,0,1-1.4.55,1.84,1.84,0,0,1-1.53-.71,2.74,2.74,0,0,1-.49-1.69,2.45,2.45,0,0,1,.64-1.84A1.83,1.83,0,0,1,100.59,105.72Zm0,.82c-.57,0-.86.52-.86,1.55s.29,1.58.86,1.58.87-.52.87-1.58S101.17,106.54,100.59,106.54Zm5.6-.82-5.64,9.48h-.73l5.66-9.48Zm-.73,4.7a1.84,1.84,0,0,1,1.53.69,2.61,2.61,0,0,1,.49,1.68,2.52,2.52,0,0,1-.64,1.86,1.81,1.81,0,0,1-1.38.55,1.87,1.87,0,0,1-1.55-.71,2.7,2.7,0,0,1-.49-1.7,2.49,2.49,0,0,1,.63-1.84A1.94,1.94,0,0,1,105.46,110.42Zm0,.82q-.87,0-.87,1.56c0,1.06.29,1.58.87,1.58s.87-.52.87-1.58S106,111.24,105.46,111.24Z"/><path class="cls-16" d="M61.33,90.26c0,.06,0,.09-.11.09h-.5s-.08,0-.08-.09V89.5H59.06v1.17c0,.06,0,.09-.1.09h-.51a.08.08,0,0,1-.09-.09l0-2.81V86.19l0-2.08s0-.08.09-.08l1,0h.77l1,0c.07,0,.11,0,.11.08l0,1.78V87.6Zm-.69-1.42V84.72H59.06v4.12Zm8,.39c0,.06,0,.09-.1.09l-1.65,0H65.49v1.28l0,1.62a.92.92,0,0,1-.88,1.15,8.86,8.86,0,0,1-1.08,0c-.13,0-.2,0-.23,0a.46.46,0,0,1-.07-.2A2.59,2.59,0,0,0,63,92.6q.65.06,1.14.06a.7.7,0,0,0,.49-.13.64.64,0,0,0,.12-.45V89.3H63.52l-1.66,0a.08.08,0,0,1-.09-.09v-.55c0-.05,0-.08.09-.08l1.66,0h1.24V84.35q-1.22.2-2.28.27h-.11c-.07,0-.13-.06-.19-.2a1.39,1.39,0,0,0-.25-.45,20.84,20.84,0,0,0,4.52-.66,2.92,2.92,0,0,0,.86-.36,4,4,0,0,1,.56.44.29.29,0,0,1,.08.18c0,.07,0,.11-.17.11a2.53,2.53,0,0,0-.61.13c-.61.17-1.17.31-1.68.41v4.4h1.44l1.65,0c.07,0,.1,0,.1.08Zm-4.93-1.79a.43.43,0,0,0,0,0s0,.06-.16.1l-.31.11-.15.06s0,0-.06-.08a9.77,9.77,0,0,0-.8-2.1.1.1,0,0,1,0-.06s.05,0,.14-.08l.33-.13.11,0s.06,0,.08.07A9.8,9.8,0,0,1,63.75,87.44Zm4.47-2s0,.08-.09.14a.91.91,0,0,0-.22.35,13.31,13.31,0,0,1-.86,1.77c-.07.12-.13.18-.17.18a.42.42,0,0,1-.18-.08.91.91,0,0,0-.42-.14,11.25,11.25,0,0,0,1-2.06,2,2,0,0,0,.13-.57,4.56,4.56,0,0,1,.66.25C68.17,85.33,68.22,85.38,68.22,85.44Z"/><path class="cls-16" d="M74.6,90.22c0,.07,0,.1-.1.1H74a.09.09,0,0,1-.1-.1v-.73H72.2v1.18a.08.08,0,0,1-.09.09h-.52c-.07,0-.1,0-.1-.09l0-2.81V86.33l0-2.08s0-.08.1-.08l1,0h.87l1,0c.07,0,.1,0,.1.08l0,1.78v1.54Zm-.71-1.39v-4H72.2v4Zm8.28,4a1.88,1.88,0,0,0-.37.43c-.07.12-.12.18-.14.18a.66.66,0,0,1-.2-.09,10.82,10.82,0,0,1-2.56-2.06,10.44,10.44,0,0,1-3.31,2.19l-.16.06s-.09-.06-.17-.18A1.44,1.44,0,0,0,74.9,93a9.42,9.42,0,0,0,3.54-2.24,10,10,0,0,1-1.74-4.19,13.15,13.15,0,0,1-1,4,8.65,8.65,0,0,1-2.19,2.8.35.35,0,0,1-.17.1s-.07,0-.15-.14a1.43,1.43,0,0,0-.41-.35A7.63,7.63,0,0,0,75.54,89a18.79,18.79,0,0,0,.7-4.91l-1,0H75c-.06,0-.1,0-.1-.09v-.52a.09.09,0,0,1,.1-.1l1.45,0h2.73a.74.74,0,0,0,.28,0,.35.35,0,0,1,.14,0c.08,0,.19.07.34.21s.2.24.2.3a.21.21,0,0,1-.11.16.58.58,0,0,0-.2.35c-.22.84-.43,1.63-.63,2.36H80.4a.63.63,0,0,0,.23,0,.39.39,0,0,1,.14,0c.06,0,.16.08.31.22s.2.24.2.31a.22.22,0,0,1-.09.17,1.28,1.28,0,0,0-.28.55,8.71,8.71,0,0,1-1.53,2.83A9.12,9.12,0,0,0,82.17,92.85Zm-1.84-5.42H79l-.11.41s0,.08-.08.08l-.1,0-.34-.07c-.12,0-.19-.06-.19-.11a.25.25,0,0,1,0-.07,34.29,34.29,0,0,0,1-3.53H76.92a10.2,10.2,0,0,0,2,6.09A7.56,7.56,0,0,0,80.33,87.43Z"/><path class="cls-16" d="M95,90.27a1.58,1.58,0,0,0-.29.46c-.05.11-.1.17-.14.17a.48.48,0,0,1-.18-.05c-.37-.13-.69-.27-1-.4v1.3l0,1.69c0,.06,0,.09-.08.09H92.8a.08.08,0,0,1-.09-.09V93H90.62v.55c0,.07,0,.1-.1.1H90c-.07,0-.1,0-.1-.1l0-1.7v-.75l0-1.09c0-.06,0-.09.1-.09l1.06,0h1.24a8.46,8.46,0,0,1-2.12-1.71H88.44a8.69,8.69,0,0,1-2.08,1.71h1.2l1,0c.07,0,.1,0,.1.09l0,1v.69l0,1.68c0,.06,0,.09-.1.09h-.5a.08.08,0,0,1-.09-.09V93H86v.53a.09.09,0,0,1-.1.1h-.5a.09.09,0,0,1-.1-.1l0-1.73v-1.3l-.89.43-.15,0s-.07-.05-.12-.16a1,1,0,0,0-.3-.4,10,10,0,0,0,3.67-2.18H85.81l-1.56,0c-.07,0-.1,0-.1-.09v-.48c0-.06,0-.09.1-.09l1.56,0h2.34l.12-.16a.94.94,0,0,0,.1-.14,2.84,2.84,0,0,0,.55-1.14,3.23,3.23,0,0,1,.65.25c.12.05.17.11.17.17s0,.09-.16.17a4.59,4.59,0,0,0-.45.6l-.18.25h4l1.56,0c.07,0,.1,0,.1.09v.48c0,.06,0,.09-.1.09l-1.56,0H91A8.07,8.07,0,0,0,95,90.27Zm-6.39-3.9a.09.09,0,0,1-.1.1l-1.12,0H86.28l-1.11,0c-.07,0-.1,0-.1-.1l0-1v-1l0-1c0-.06,0-.09.1-.09l1.11,0h1.08l1.12,0c.06,0,.1,0,.1.09l0,1v1Zm-.7-.53V84H85.77v1.87ZM88,92.36V90.48H86v1.88Zm5.71-6c0,.06,0,.09-.1.09l-1.15,0H91.27l-1.15,0a.08.08,0,0,1-.09-.09l0-1v-1l0-1c0-.06,0-.1.09-.1l1.15,0h1.16l1.15,0a.09.09,0,0,1,.1.1l0,1v1Zm-1,6V90.48H90.62v1.88ZM93,85.84V84H90.73v1.87Z"/><path class="cls-16" d="M101.25,84.4a3.88,3.88,0,0,1,6.37-2.35,3.06,3.06,0,0,1,.86,2.27,3.63,3.63,0,0,1-.6,2,11.36,11.36,0,0,1-1.81,2,12.87,12.87,0,0,0-2.9,3.3h5.35v1.56h-7.38V91.83a15.86,15.86,0,0,1,3.41-4.42,9.47,9.47,0,0,0,1.59-1.84,2.57,2.57,0,0,0,.31-1.27A1.64,1.64,0,0,0,106,83a1.53,1.53,0,0,0-1.08-.38c-1,0-1.59.72-1.69,2.15Z"/><path class="cls-16" d="M112.68,83.53a1.83,1.83,0,0,1,1.54.68,2.55,2.55,0,0,1,.5,1.68,2.52,2.52,0,0,1-.64,1.86,2,2,0,0,1-2.93-.16,2.73,2.73,0,0,1-.48-1.69,2.49,2.49,0,0,1,.63-1.84A1.83,1.83,0,0,1,112.68,83.53Zm0,.82c-.57,0-.86.52-.86,1.55s.29,1.58.86,1.58.88-.52.88-1.58S113.27,84.35,112.68,84.35Zm5.6-.82L112.65,93h-.73l5.65-9.48Zm-.72,4.7a1.82,1.82,0,0,1,1.52.69,2.59,2.59,0,0,1,.49,1.67,2.56,2.56,0,0,1-.63,1.87A2,2,0,0,1,116,92.3a2.72,2.72,0,0,1-.5-1.71,2.44,2.44,0,0,1,.64-1.83A1.94,1.94,0,0,1,117.56,88.23Zm0,.82c-.59,0-.88.52-.88,1.56s.29,1.58.88,1.58.86-.52.86-1.58S118.13,89.05,117.56,89.05Z"/><path class="cls-16" d="M100.63,66.14c.19-.72.34-1.31.44-1.78a3.93,3.93,0,0,0,.11-1v-.19a5.05,5.05,0,0,1,.93.32c.09,0,.13.09.13.17a.19.19,0,0,1-.08.14,1,1,0,0,0-.2.4l-.51,1.8a8.88,8.88,0,0,1,1.16-.09,1.39,1.39,0,0,1,1.22.51,2.5,2.5,0,0,1,.34,1.46,9.56,9.56,0,0,1-.66,3.91,1.43,1.43,0,0,1-1.37,1,2.89,2.89,0,0,1-1.22-.22.19.19,0,0,1-.15-.2,2,2,0,0,0-.14-.72A3.65,3.65,0,0,0,102,72a.73.73,0,0,0,.47-.14,1.2,1.2,0,0,0,.34-.49,8.84,8.84,0,0,0,.54-3.44,1.86,1.86,0,0,0-.2-1,.72.72,0,0,0-.63-.25,7.67,7.67,0,0,0-1.3.13,32.71,32.71,0,0,1-2.44,5.68.16.16,0,0,1-.21,0,2.48,2.48,0,0,1-.48-.32.14.14,0,0,1,0-.1.23.23,0,0,1,0-.09,26.9,26.9,0,0,0,2.3-5.11c-.43.06-1,.15-1.59.26a1.32,1.32,0,0,0-.52.16.37.37,0,0,1-.16,0,.15.15,0,0,1-.15-.11,3.9,3.9,0,0,1-.28-.82h.22a8.05,8.05,0,0,0,1-.06C99.34,66.32,99.9,66.24,100.63,66.14Zm4.25-.37a5.14,5.14,0,0,1,.54-.37h.06a.21.21,0,0,1,.12,0,6.63,6.63,0,0,1,1.93,2.91.22.22,0,0,1,0,.1.18.18,0,0,1,0,.11,2.77,2.77,0,0,1-.49.32l-.11,0c-.05,0-.09,0-.1-.1A6.75,6.75,0,0,0,104.88,65.77Zm.35-1.89.44-.33,0,0s0,0,.07,0A5.28,5.28,0,0,1,107.14,65a.07.07,0,0,1,0,.06.09.09,0,0,1,0,.07l-.35.29a.09.09,0,0,1-.07,0,.1.1,0,0,1-.08,0A4.93,4.93,0,0,0,105.23,63.88Zm1-.81.39-.3.07,0,.06,0a6.38,6.38,0,0,1,1.36,1.4.1.1,0,0,1,0,.07.1.1,0,0,1-.05.08l-.33.28a.07.07,0,0,1-.06,0s0,0-.08-.06A5.17,5.17,0,0,0,106.28,63.07Z"/><path class="cls-16" d="M113.93,63.19a4.39,4.39,0,0,1,.86.46.22.22,0,0,1,.11.18.27.27,0,0,1-.08.17,2,2,0,0,0-.37.49q-2,3.8-2.34,4.35l0,0a2.4,2.4,0,0,1,1.69-.88,1.43,1.43,0,0,1,1.3.66,3.31,3.31,0,0,1,.39,1.42,3.3,3.3,0,0,0,.3,1.24.72.72,0,0,0,.66.37,2,2,0,0,0,1.54-.83,6,6,0,0,0,1-2,1.56,1.56,0,0,0,.43.63.2.2,0,0,1,.08.17.68.68,0,0,1,0,.14,5.64,5.64,0,0,1-1,1.64,2.59,2.59,0,0,1-2.1,1,1.4,1.4,0,0,1-1.28-.61,3.55,3.55,0,0,1-.44-1.55,3.18,3.18,0,0,0-.36-1.35.77.77,0,0,0-.68-.34,2.36,2.36,0,0,0-1.65,1,13.4,13.4,0,0,0-1.48,2.65c0,.08-.07.11-.12.11l-.1,0a2,2,0,0,1-.52-.32.12.12,0,0,1-.06-.09.26.26,0,0,1,0-.11c1.7-3.32,2.92-5.75,3.65-7.31A6.43,6.43,0,0,0,113.93,63.19Z"/><path class="cls-16" d="M126.41,64.07a3.87,3.87,0,0,1,6.36-2.35,3,3,0,0,1,.86,2.26,3.65,3.65,0,0,1-.59,2,11,11,0,0,1-1.81,2,12.84,12.84,0,0,0-2.9,3.31h5.35v1.56H126.3V71.5a15.66,15.66,0,0,1,3.4-4.42,9.24,9.24,0,0,0,1.6-1.85,2.61,2.61,0,0,0,.31-1.26,1.64,1.64,0,0,0-.48-1.27,1.52,1.52,0,0,0-1.08-.38c-1,0-1.6.71-1.69,2.15Z"/><path class="cls-16" d="M137.84,63.2a1.84,1.84,0,0,1,1.54.68,2.61,2.61,0,0,1,.5,1.68,2.52,2.52,0,0,1-.64,1.86,1.91,1.91,0,0,1-1.4.55,1.84,1.84,0,0,1-1.53-.71,2.76,2.76,0,0,1-.49-1.69,2.49,2.49,0,0,1,.64-1.85A1.86,1.86,0,0,1,137.84,63.2Zm0,.82c-.57,0-.86.52-.86,1.55s.29,1.58.86,1.58.87-.53.87-1.58S138.42,64,137.84,64Zm5.6-.82-5.64,9.48h-.73l5.66-9.48Zm-.73,4.7a1.84,1.84,0,0,1,1.53.69,2.59,2.59,0,0,1,.49,1.67,2.53,2.53,0,0,1-.64,1.87,1.81,1.81,0,0,1-1.38.55,1.87,1.87,0,0,1-1.55-.71,2.73,2.73,0,0,1-.49-1.71,2.48,2.48,0,0,1,.63-1.83A1.94,1.94,0,0,1,142.71,67.9Zm0,.82c-.58,0-.87.52-.87,1.55s.29,1.59.87,1.59.87-.53.87-1.59S143.29,68.72,142.71,68.72Z"/><path class="cls-16" d="M102,46.68a1.39,1.39,0,0,0-.35.44c0,.07-.07.11-.12.11a.31.31,0,0,1-.15-.09,7.33,7.33,0,0,1-1.18-1.28v5.22c0,.07,0,.1-.09.1h-.54c-.07,0-.1,0-.1-.1l0-1.64V46.27A13.28,13.28,0,0,1,98,47.66a.32.32,0,0,1-.19.1s-.07,0-.1-.13a1.76,1.76,0,0,0-.29-.49,9.49,9.49,0,0,0,3.39-4.1H99.18l-1.2,0a.08.08,0,0,1-.09-.09v-.49c0-.07,0-.1.09-.1l1.2,0h.31v-.69a6.16,6.16,0,0,0-.1-1.36,4.53,4.53,0,0,1,.8.09q.15,0,.15.09a1,1,0,0,1-.07.23,3,3,0,0,0-.08.93v.71h.74a.3.3,0,0,0,.21,0h0l.07,0c.06,0,.17.07.34.22s.2.22.2.27a.21.21,0,0,1-.1.18.82.82,0,0,0-.24.34,13.25,13.25,0,0,1-1.09,1.87A7,7,0,0,0,102,46.68Zm6.57,2.67a2,2,0,0,1-.51,1.34,1.91,1.91,0,0,1-1.18.28,3.6,3.6,0,0,1-1.11-.12c-.26-.1-.39-.35-.39-.74V47.35h-.94a4.2,4.2,0,0,1-1,2.55A4.71,4.71,0,0,1,101.5,51a.48.48,0,0,1-.19,0s-.11,0-.17-.16a1.15,1.15,0,0,0-.38-.38A4.4,4.4,0,0,0,103,49.38a3.31,3.31,0,0,0,.76-2h-1.28a.08.08,0,0,1-.09-.09l0-1.47V42.52l0-1.47c0-.06,0-.1.09-.1l1.48,0h2.16l1.48,0c.06,0,.09,0,.09.1l0,1.47v3.29l0,1.47a.08.08,0,0,1-.09.09l-1.47,0v2.42a1.11,1.11,0,0,0,0,.35.2.2,0,0,0,.15.13,2.72,2.72,0,0,0,.63,0,1.12,1.12,0,0,0,.68-.15.88.88,0,0,0,.26-.5c0-.19,0-.47.07-.86a1.64,1.64,0,0,0,.46.27c.13.05.2.11.2.17S108.56,49.29,108.56,49.35Zm-1.64-6.46V41.63h-3.87v1.26Zm0,1.88V43.49h-3.87v1.28Zm0,2V45.37h-3.87v1.37Z"/><path class="cls-16" d="M113.84,44.75a.93.93,0,0,1,.74.32,1,1,0,0,1-.74,1.67,1,1,0,1,1,0-2Z"/><path class="cls-16" d="M123.25,41.44c0,.06,0,.09-.11.09h-.2l-.47,0v8.16l0,1.27a.09.09,0,0,1-.1.1h-.49c-.07,0-.1,0-.1-.1l0-1.27v-1c-.56.2-1.22.42-2,.65a1.36,1.36,0,0,0-.48.18.25.25,0,0,1-.16.07s-.09,0-.12-.12-.12-.39-.19-.66a7.9,7.9,0,0,0,.89-.16V41.51l-.5,0h-.15c-.06,0-.1,0-.1-.09V41c0-.06,0-.09.1-.09l1.25,0h1.47l1.26,0c.08,0,.11,0,.11.09Zm-1.41,1.88V41.51h-1.39v1.81Zm0,2.43V43.94h-1.39v1.81Zm0,2.29V46.37h-1.39v2.11C120.78,48.4,121.24,48.25,121.84,48Zm2.43,0a7.25,7.25,0,0,1-.89,2.25c0,.05,0,.08-.08.08a.36.36,0,0,1-.15-.08l-.27-.16c-.09-.06-.14-.11-.14-.13a.09.09,0,0,1,0-.06,6.22,6.22,0,0,0,.86-2.11s0-.08.06-.08a.3.3,0,0,1,.13,0l.29.09c.11,0,.17.08.17.11A.11.11,0,0,1,124.27,48.08Zm5.47-5.83a.08.08,0,0,1-.09.09l-1.65,0h-1.46v1.13h1.07l1.59,0c.07,0,.1,0,.1.09l0,.85v1l0,.85c0,.06,0,.09-.1.09l-1.59,0H125l-1.57,0a.08.08,0,0,1-.09-.09l0-.85v-1l0-.85a.08.08,0,0,1,.09-.09l1.57,0h.92V42.32h-1l-1.63,0c-.07,0-.1,0-.1-.09v-.48a.09.09,0,0,1,.1-.1l1.63,0h1v-.18a5.86,5.86,0,0,0-.08-1.15,5.74,5.74,0,0,1,.72.06c.1,0,.15,0,.15.1a.59.59,0,0,1-.06.18,2.66,2.66,0,0,0-.07.82v.17H128l1.65,0c.06,0,.09,0,.09.1Zm-4.64,3.51V44h-1.18v1.76Zm3.26,3.69c-.06.7-.24,1.12-.54,1.27a1.59,1.59,0,0,1-.59.2,7.08,7.08,0,0,1-.78,0c-.37,0-.61,0-.73,0a1.23,1.23,0,0,1-.41-.13c-.25-.12-.38-.41-.38-.87V48.47a4.59,4.59,0,0,0-.08-.95,3.72,3.72,0,0,1,.72.09c.1,0,.14.06.14.1a.19.19,0,0,1,0,.14,1.61,1.61,0,0,0-.08.67v1.19c0,.3.07.48.22.54a2.3,2.3,0,0,0,.68.06,1.84,1.84,0,0,0,.92-.16c.2-.1.3-.51.31-1.24a1.67,1.67,0,0,0,.47.24c.13.05.2.11.2.17S128.37,49.38,128.36,49.45Zm-.9-1.7s0,0,0,.06a.22.22,0,0,1-.07.1l-.27.24a.29.29,0,0,1-.13.09s0,0-.07-.06a7.4,7.4,0,0,0-1.25-1.2s-.07-.06-.07-.08,0-.07.09-.13l.18-.17a.23.23,0,0,1,.13-.07l.06,0A7.29,7.29,0,0,1,127.46,47.75Zm-.61-2V44h-1.16v1.76Zm1.81,0V44h-1.22v1.76Zm1.24,4,0,.06s0,.08-.14.12l-.33.14a.26.26,0,0,1-.14,0s-.06,0-.07-.08a8.42,8.42,0,0,0-1-2.17.17.17,0,0,1,0-.07s0-.07.14-.11l.27-.13.1,0a.1.1,0,0,1,.09.06A8.94,8.94,0,0,1,129.9,49.77Z"/><path class="cls-16" d="M136,41.33a.21.21,0,0,1-.09.16,1.29,1.29,0,0,0-.22.4,26,26,0,0,1-1.12,2.56,6,6,0,0,1,1,1.64,3,3,0,0,1,.2,1.1,1.46,1.46,0,0,1-1.57,1.59.46.46,0,0,1-.23,0,.51.51,0,0,1-.06-.2,1,1,0,0,0-.18-.43l.22,0q1.14,0,1.14-1a2.65,2.65,0,0,0-.3-1.18,9.34,9.34,0,0,0-1-1.47,21.47,21.47,0,0,0,1.25-3h-1.67v7.08l0,2.49a.08.08,0,0,1-.09.09h-.56c-.06,0-.1,0-.1-.09l0-2.46V43.43l0-2.49a.09.09,0,0,1,.1-.1l.88,0h1.4a.73.73,0,0,0,.29,0l.12,0c.06,0,.16.07.3.2A.78.78,0,0,1,136,41.33Zm6.92,8c0,.06,0,.09-.1.09l-1.69,0h-1.68v.41l0,1.26c0,.05,0,.08-.09.08h-.57c-.06,0-.09,0-.09-.08l0-1.26v-.41h-1.54l-1.68,0a.08.08,0,0,1-.09-.09v-.45a.08.08,0,0,1,.09-.09l1.68,0h1.54v-.88h-.66l-1.5,0a.09.09,0,0,1-.1-.1l0-1v-1.2l0-1c0-.06,0-.09.1-.09l1.5,0h2.2l1.49,0c.07,0,.1,0,.1.09l0,1v1.2l0,1c0,.07,0,.1-.1.1l-1.49,0h-.83v.88h1.68l1.69,0c.07,0,.1,0,.1.09Zm0-5.59c0,.06,0,.09-.1.09l-1.66,0h-3.68l-1.67,0c-.07,0-.1,0-.1-.09v-.43c0-.07,0-.1.1-.1l1.67,0h.27a4,4,0,0,0-.42-.85l0-.07s0,0,.13-.08l.3-.12.09,0a.14.14,0,0,1,.1.08,4.67,4.67,0,0,1,.5,1.07h1.49a7.92,7.92,0,0,0,.31-.75,1.89,1.89,0,0,0,.1-.44,3.84,3.84,0,0,1,.63.13q.15,0,.15.12a.17.17,0,0,1-.09.14,1,1,0,0,0-.17.23q-.15.34-.27.57h.59l1.66,0c.07,0,.1,0,.1.1Zm-.52-1.86c0,.06,0,.09-.1.09l-1.57,0H138l-1.57,0c-.07,0-.1,0-.1-.09v-.43c0-.05,0-.08.1-.08h2.36v-.28a3.25,3.25,0,0,0-.08-.77c.19,0,.45,0,.77,0,.09,0,.14,0,.14.1a.75.75,0,0,1-.07.2,1.28,1.28,0,0,0-.06.45v.25h2.82c.06,0,.1,0,.1.08ZM141.17,46v-.86h-4V46Zm0,1.42v-.91h-4v.91Z"/><path class="cls-16" d="M155.79,46.82a.08.08,0,0,1-.09.09l-1.58,0h-7l-1.59,0a.08.08,0,0,1-.09-.09v-.46a.08.08,0,0,1,.09-.09l1.59,0h3v-.95h-1.62l-1.69,0a.09.09,0,0,1-.1-.1v-.44c0-.07,0-.1.1-.1l1.69,0h1.62v-.88h-1.24l-1.62,0c-.07,0-.1,0-.1-.09v-.45c0-.06,0-.09.1-.09l1.62,0h1.24a4.67,4.67,0,0,0-.09-.94c.26,0,.52,0,.77.08q.15,0,.15.09a.57.57,0,0,1-.07.21,1.51,1.51,0,0,0-.06.56h1.39l1.62,0a.08.08,0,0,1,.09.09v.45a.08.08,0,0,1-.09.09l-1.62,0h-1.39v.88h1.76l1.68,0a.09.09,0,0,1,.1.1v.44a.09.09,0,0,1-.1.1l-1.68,0h-1.76v.95h3.24l1.58,0a.08.08,0,0,1,.09.09Zm-.3-3.08a.08.08,0,0,1-.09.09h-.56a.08.08,0,0,1-.09-.09V42h-8.3v1.73c0,.06,0,.09-.1.09h-.55c-.07,0-.1,0-.1-.09l0-1.26v-.4l0-.62c0-.06,0-.09.1-.09l1.64,0h2.71v0a4.31,4.31,0,0,0-.09-1c.37,0,.63,0,.79.05s.14,0,.14.11a.67.67,0,0,1-.07.21,2.83,2.83,0,0,0,0,.66v0h2.88l1.65,0a.08.08,0,0,1,.09.09l0,.55v.47Zm-1.34,7.32s0,.08-.09.08h-.57a.07.07,0,0,1-.08-.08v-.48H147.9v.52c0,.06,0,.08-.09.08h-.56c-.06,0-.09,0-.09-.08l0-1.66v-.66l0-.94a.08.08,0,0,1,.09-.09l1.67,0h3.48l1.66,0a.08.08,0,0,1,.09.09l0,.83v.75ZM153.41,50V48.37H147.9V50Z"/><path class="cls-16" d="M167.21,38.76V49.23h2.22v1.52H163V49.23h2.34V40.75a8.79,8.79,0,0,1-2.2,1l-.31-1.63a9,9,0,0,0,2.77-1.41Z"/><path class="cls-16" d="M173.19,41.06a1.88,1.88,0,0,1,1.54.68,2.65,2.65,0,0,1,.5,1.68,2.6,2.6,0,0,1-.64,1.87,1.9,1.9,0,0,1-1.4.54,1.82,1.82,0,0,1-1.53-.71,2.65,2.65,0,0,1-.49-1.69,2.5,2.5,0,0,1,.63-1.84A1.89,1.89,0,0,1,173.19,41.06Zm0,.83c-.58,0-.87.51-.87,1.54s.29,1.59.87,1.59.87-.53.87-1.59S173.77,41.89,173.19,41.89Zm5.6-.83-5.64,9.48h-.73l5.65-9.48Zm-.73,4.71a1.84,1.84,0,0,1,1.52.68,2.63,2.63,0,0,1,.5,1.68,2.6,2.6,0,0,1-.64,1.87,1.87,1.87,0,0,1-1.38.54,1.83,1.83,0,0,1-1.55-.71,2.68,2.68,0,0,1-.49-1.7,2.49,2.49,0,0,1,.63-1.84A1.93,1.93,0,0,1,178.06,45.77Zm0,.81c-.58,0-.88.52-.88,1.56s.3,1.59.88,1.59.86-.53.86-1.59S178.64,46.58,178.06,46.58Z"/><line class="cls-17" x1="368.26" y1="96.96" x2="345.75" y2="112.95"/><line class="cls-18" x1="363.76" y1="286.51" x2="340.8" y2="264.54"/><line class="cls-18" x1="193.13" y1="328.51" x2="206.37" y2="302.7"/><line class="cls-18" x1="132.18" y1="233.01" x2="101.76" y2="249.84"/><line class="cls-18" x1="122.7" y1="167.59" x2="96.76" y2="166.01"/><line class="cls-18" x1="130.08" y1="143.38" x2="105.76" y2="133.32"/><line class="cls-18" x1="139.08" y1="124.01" x2="118.97" y2="112.95"/><line class="cls-18" x1="150.35" y1="107.59" x2="128.02" y2="92.97"/><line class="cls-18" x1="161.88" y1="97.14" x2="142.91" y2="76.53"/><line class="cls-18" x1="171.19" y1="90.32" x2="165.93" y2="61.48"/><line class="cls-18" x1="204.7" y1="69.64" x2="203.13" y2="40.5"/></g></g></g></g></svg>