<svg xmlns="http://www.w3.org/2000/svg" xmlns:xlink="http://www.w3.org/1999/xlink" viewBox="0 0 482.45 910.55"><defs><style>.cls-1{fill:url(#radial-gradient);}</style><radialGradient id="radial-gradient" cx="329.18" cy="-427.41" r="364.32" gradientTransform="translate(-186.18 126.09) rotate(90)" gradientUnits="userSpaceOnUse"><stop offset="0" stop-color="#66e2ff"/><stop offset="0.99" stop-color="#00a0c6"/></radialGradient></defs><title>40th</title><g id="レイヤー_2" data-name="レイヤー 2"><g id="教室の紹介"><g id="content"><g id="section_-40th" data-name="section -40th"><path class="cls-1" d="M292,822.39a88.43,88.43,0,0,0-15.5-50.19V722.55h206v-29h-206v-69h91v-29h-91V546.24c111-7.82,196.81-49.55,196.81-132.26,0-91.71-105.75-133.63-236.11-133.63-18,0-36.7.81-52.7,2.43V230.55H475.53L178.45,0V201.55H7.45v29h171v41.21h0v11.59C76.45,294.4,0,336.35,0,414c0,78.18,76.45,119.75,178.45,130.67v50.9H58.92c-40.62,0-57,27.05-57,59.81,0,15.06,4.58,27.19,12.44,38.19H7.45v29h179.2c25.67,0,63.8,18.86,84.8,52.07v59.93h5v-51c5,11.23,9.6,24,9.6,37.46,0,38.65-33.89,60.56-68,60.56H7.45v29H213.51C282.29,910.55,292,853.17,292,822.39ZM184.45,201.55V11.79L428.37,201.55ZM468.81,414c0,67.76-97.36,96.25-192.36,102.25V471.55h-5v45c-12,.64-23.44,1-34.84,1-17.38,0-35.16-.71-53.16-2.23V312.71c18-1.52,36.21-2.23,53.59-2.23C342.5,310.48,468.81,336.69,468.81,414ZM5.24,414c0-63.45,84.21-92.46,173.21-100.83V514.81C89.45,506.45,5.24,477.43,5.24,414ZM183.45,545.16c17,1.64,34.93,2.45,53.17,2.45,11.8,0,22.83-.34,34.83-1v49h-88ZM18.3,689.65c-6.55-8.51-11.13-18.79-11.13-35.83,0-15.72,19.65-29.27,35.37-29.27H178.45v16h5v-16h88v69H14.38Zm201.1,32.9h52V765A151.94,151.94,0,0,0,219.4,722.55Z"/></g></g></g></g></svg>